ISO-10303-21;
HEADER;
/* Generated by software containing ST-Developer
 * from STEP Tools, Inc. (www.steptools.com) 
 */

FILE_DESCRIPTION(
/* description */ (''),
/* implementation_level */ '2;1');

FILE_NAME(
/* name */ '38mm to SM2 V2.stp',
/* time_stamp */ '2026-05-13T09:55:10-05:00',
/* author */ ('FiolkaLab'),
/* organization */ (''),
/* preprocessor_version */ 'ST-DEVELOPER v20.1',
/* originating_system */ 'Autodesk Inventor 2026',
/* authorisation */ '');

FILE_SCHEMA (('AUTOMOTIVE_DESIGN { 1 0 10303 214 3 1 1 }'));
ENDSEC;

DATA;
#10=MECHANICAL_DESIGN_GEOMETRIC_PRESENTATION_REPRESENTATION('',(#83,#84,
#85,#86,#87,#88,#89),#184);
#11=SHAPE_REPRESENTATION_RELATIONSHIP('SRR','None',#195,#12);
#12=ADVANCED_BREP_SHAPE_REPRESENTATION('',(#13),#183);
#13=MANIFOLD_SOLID_BREP('Solid1',#96);
#14=FACE_BOUND('',#29,.T.);
#15=FACE_BOUND('',#32,.T.);
#16=FACE_BOUND('',#34,.T.);
#17=PLANE('',#124);
#18=PLANE('',#128);
#19=PLANE('',#129);
#20=FACE_OUTER_BOUND('',#26,.T.);
#21=FACE_OUTER_BOUND('',#27,.T.);
#22=FACE_OUTER_BOUND('',#28,.T.);
#23=FACE_OUTER_BOUND('',#30,.T.);
#24=FACE_OUTER_BOUND('',#31,.T.);
#25=FACE_OUTER_BOUND('',#33,.T.);
#26=EDGE_LOOP('',(#62,#63,#64,#65));
#27=EDGE_LOOP('',(#66,#67,#68,#69));
#28=EDGE_LOOP('',(#70));
#29=EDGE_LOOP('',(#71));
#30=EDGE_LOOP('',(#72,#73,#74,#75));
#31=EDGE_LOOP('',(#76));
#32=EDGE_LOOP('',(#77));
#33=EDGE_LOOP('',(#78));
#34=EDGE_LOOP('',(#79));
#35=LINE('',#164,#38);
#36=LINE('',#170,#39);
#37=LINE('',#177,#40);
#38=VECTOR('',#136,0.66929);
#39=VECTOR('',#143,0.74803);
#40=VECTOR('',#152,1.0175);
#41=CIRCLE('',#119,0.66929);
#42=CIRCLE('',#120,0.66929);
#43=CIRCLE('',#122,0.74803);
#44=CIRCLE('',#123,0.74803);
#45=CIRCLE('',#126,1.0175);
#46=CIRCLE('',#127,1.0175);
#47=VERTEX_POINT('',#161);
#48=VERTEX_POINT('',#163);
#49=VERTEX_POINT('',#167);
#50=VERTEX_POINT('',#169);
#51=VERTEX_POINT('',#174);
#52=VERTEX_POINT('',#176);
#53=EDGE_CURVE('',#47,#47,#41,.T.);
#54=EDGE_CURVE('',#47,#48,#35,.T.);
#55=EDGE_CURVE('',#48,#48,#42,.T.);
#56=EDGE_CURVE('',#49,#49,#43,.T.);
#57=EDGE_CURVE('',#49,#50,#36,.T.);
#58=EDGE_CURVE('',#50,#50,#44,.T.);
#59=EDGE_CURVE('',#51,#51,#45,.T.);
#60=EDGE_CURVE('',#51,#52,#37,.T.);
#61=EDGE_CURVE('',#52,#52,#46,.T.);
#62=ORIENTED_EDGE('',*,*,#53,.F.);
#63=ORIENTED_EDGE('',*,*,#54,.T.);
#64=ORIENTED_EDGE('',*,*,#55,.F.);
#65=ORIENTED_EDGE('',*,*,#54,.F.);
#66=ORIENTED_EDGE('',*,*,#56,.F.);
#67=ORIENTED_EDGE('',*,*,#57,.T.);
#68=ORIENTED_EDGE('',*,*,#58,.F.);
#69=ORIENTED_EDGE('',*,*,#57,.F.);
#70=ORIENTED_EDGE('',*,*,#56,.T.);
#71=ORIENTED_EDGE('',*,*,#53,.T.);
#72=ORIENTED_EDGE('',*,*,#59,.F.);
#73=ORIENTED_EDGE('',*,*,#60,.T.);
#74=ORIENTED_EDGE('',*,*,#61,.T.);
#75=ORIENTED_EDGE('',*,*,#60,.F.);
#76=ORIENTED_EDGE('',*,*,#59,.T.);
#77=ORIENTED_EDGE('',*,*,#58,.T.);
#78=ORIENTED_EDGE('',*,*,#61,.F.);
#79=ORIENTED_EDGE('',*,*,#55,.T.);
#80=CYLINDRICAL_SURFACE('',#118,0.66929);
#81=CYLINDRICAL_SURFACE('',#121,0.74803);
#82=CYLINDRICAL_SURFACE('',#125,1.0175);
#83=STYLED_ITEM('',(#205),#90);
#84=STYLED_ITEM('',(#205),#91);
#85=STYLED_ITEM('',(#205),#92);
#86=STYLED_ITEM('',(#205),#93);
#87=STYLED_ITEM('',(#205),#94);
#88=STYLED_ITEM('',(#205),#95);
#89=STYLED_ITEM('',(#204),#13);
#90=ADVANCED_FACE('',(#20),#80,.F.);
#91=ADVANCED_FACE('',(#21),#81,.T.);
#92=ADVANCED_FACE('',(#22,#14),#17,.T.);
#93=ADVANCED_FACE('',(#23),#82,.T.);
#94=ADVANCED_FACE('',(#24,#15),#18,.T.);
#95=ADVANCED_FACE('',(#25,#16),#19,.F.);
#96=CLOSED_SHELL('',(#90,#91,#92,#93,#94,#95));
#97=DERIVED_UNIT_ELEMENT(#99,1.);
#98=DERIVED_UNIT_ELEMENT(#189,-3.);
#99=(
CONVERSION_BASED_UNIT('gram',#101)
MASS_UNIT()
NAMED_UNIT(#186)
);
#100=(
MASS_UNIT()
NAMED_UNIT(*)
SI_UNIT(.KILO.,.GRAM.)
);
#101=MASS_MEASURE_WITH_UNIT(MASS_MEASURE(0.001),#100);
#102=DERIVED_UNIT((#97,#98));
#103=MEASURE_REPRESENTATION_ITEM('density measure',
POSITIVE_RATIO_MEASURE(2.7),#102);
#104=PROPERTY_DEFINITION_REPRESENTATION(#109,#106);
#105=PROPERTY_DEFINITION_REPRESENTATION(#110,#107);
#106=REPRESENTATION('material name',(#108),#183);
#107=REPRESENTATION('density',(#103),#183);
#108=DESCRIPTIVE_REPRESENTATION_ITEM('Aluminum 6061-AHC',
'Aluminum 6061-AHC');
#109=PROPERTY_DEFINITION('material property','material name',#197);
#110=PROPERTY_DEFINITION('material property','density of part',#197);
#111=DATE_TIME_ROLE('creation_date');
#112=APPLIED_DATE_AND_TIME_ASSIGNMENT(#113,#111,(#197));
#113=DATE_AND_TIME(#114,#115);
#114=CALENDAR_DATE(2025,11,11);
#115=LOCAL_TIME(0,0,0.,#116);
#116=COORDINATED_UNIVERSAL_TIME_OFFSET(0,0,.BEHIND.);
#117=AXIS2_PLACEMENT_3D('',#159,#130,#131);
#118=AXIS2_PLACEMENT_3D('',#160,#132,#133);
#119=AXIS2_PLACEMENT_3D('',#162,#134,#135);
#120=AXIS2_PLACEMENT_3D('',#165,#137,#138);
#121=AXIS2_PLACEMENT_3D('',#166,#139,#140);
#122=AXIS2_PLACEMENT_3D('',#168,#141,#142);
#123=AXIS2_PLACEMENT_3D('',#171,#144,#145);
#124=AXIS2_PLACEMENT_3D('',#172,#146,#147);
#125=AXIS2_PLACEMENT_3D('',#173,#148,#149);
#126=AXIS2_PLACEMENT_3D('',#175,#150,#151);
#127=AXIS2_PLACEMENT_3D('',#178,#153,#154);
#128=AXIS2_PLACEMENT_3D('',#179,#155,#156);
#129=AXIS2_PLACEMENT_3D('',#180,#157,#158);
#130=DIRECTION('axis',(0.,0.,1.));
#131=DIRECTION('refdir',(1.,0.,0.));
#132=DIRECTION('center_axis',(0.,-1.,0.));
#133=DIRECTION('ref_axis',(1.,0.,0.));
#134=DIRECTION('center_axis',(0.,-1.,0.));
#135=DIRECTION('ref_axis',(1.,0.,0.));
#136=DIRECTION('',(0.,-1.,0.));
#137=DIRECTION('center_axis',(0.,1.,0.));
#138=DIRECTION('ref_axis',(1.,0.,0.));
#139=DIRECTION('center_axis',(0.,1.,0.));
#140=DIRECTION('ref_axis',(1.,0.,0.));
#141=DIRECTION('center_axis',(0.,1.,0.));
#142=DIRECTION('ref_axis',(1.,0.,0.));
#143=DIRECTION('',(0.,-1.,0.));
#144=DIRECTION('center_axis',(0.,-1.,0.));
#145=DIRECTION('ref_axis',(1.,0.,0.));
#146=DIRECTION('center_axis',(0.,1.,0.));
#147=DIRECTION('ref_axis',(0.,0.,1.));
#148=DIRECTION('center_axis',(0.,1.,0.));
#149=DIRECTION('ref_axis',(-1.,0.,0.));
#150=DIRECTION('center_axis',(0.,1.,0.));
#151=DIRECTION('ref_axis',(-1.,0.,0.));
#152=DIRECTION('',(0.,-1.,0.));
#153=DIRECTION('center_axis',(0.,1.,0.));
#154=DIRECTION('ref_axis',(-1.,0.,0.));
#155=DIRECTION('center_axis',(0.,1.,0.));
#156=DIRECTION('ref_axis',(0.,0.,1.));
#157=DIRECTION('center_axis',(0.,1.,0.));
#158=DIRECTION('ref_axis',(0.,0.,1.));
#159=CARTESIAN_POINT('',(0.,0.,0.));
#160=CARTESIAN_POINT('Origin',(0.,0.5466929,0.));
#161=CARTESIAN_POINT('',(-0.66929,0.5466929,-8.19643856201332E-17));
#162=CARTESIAN_POINT('Origin',(0.,0.5466929,0.));
#163=CARTESIAN_POINT('',(-0.66929,0.,8.19643856201332E-17));
#164=CARTESIAN_POINT('',(-0.66929,0.5466929,-8.19643856201332E-17));
#165=CARTESIAN_POINT('Origin',(0.,0.,0.));
#166=CARTESIAN_POINT('Origin',(0.,0.34,0.));
#167=CARTESIAN_POINT('',(-0.74803,0.5466929,9.16072545166194E-17));
#168=CARTESIAN_POINT('Origin',(0.,0.5466929,0.));
#169=CARTESIAN_POINT('',(-0.74803,0.34,9.16072545166194E-17));
#170=CARTESIAN_POINT('',(-0.74803,0.34,9.16072545166194E-17));
#171=CARTESIAN_POINT('Origin',(0.,0.34,0.));
#172=CARTESIAN_POINT('Origin',(0.,0.5466929,0.));
#173=CARTESIAN_POINT('Origin',(0.,0.,0.));
#174=CARTESIAN_POINT('',(1.0175,0.34,-1.24607811813243E-16));
#175=CARTESIAN_POINT('Origin',(0.,0.34,0.));
#176=CARTESIAN_POINT('',(1.0175,0.,-1.24607811813243E-16));
#177=CARTESIAN_POINT('',(1.0175,0.,-1.24607811813243E-16));
#178=CARTESIAN_POINT('Origin',(0.,0.,0.));
#179=CARTESIAN_POINT('Origin',(0.,0.34,0.));
#180=CARTESIAN_POINT('Origin',(0.,0.,0.));
#181=UNCERTAINTY_MEASURE_WITH_UNIT(LENGTH_MEASURE(0.000393700787401575),
#187,'DISTANCE_ACCURACY_VALUE',
'Maximum model space distance between geometric entities at asserted c
onnectivities');
#182=UNCERTAINTY_MEASURE_WITH_UNIT(LENGTH_MEASURE(0.000393700787401575),
#187,'DISTANCE_ACCURACY_VALUE',
'Maximum model space distance between geometric entities at asserted c
onnectivities');
#183=(
GEOMETRIC_REPRESENTATION_CONTEXT(3)
GLOBAL_UNCERTAINTY_ASSIGNED_CONTEXT((#181))
GLOBAL_UNIT_ASSIGNED_CONTEXT((#187,#191,#192))
REPRESENTATION_CONTEXT('','3D')
);
#184=(
GEOMETRIC_REPRESENTATION_CONTEXT(3)
GLOBAL_UNCERTAINTY_ASSIGNED_CONTEXT((#182))
GLOBAL_UNIT_ASSIGNED_CONTEXT((#187,#191,#192))
REPRESENTATION_CONTEXT('','3D')
);
#185=DIMENSIONAL_EXPONENTS(1.,0.,0.,0.,0.,0.,0.);
#186=DIMENSIONAL_EXPONENTS(0.,1.,0.,0.,0.,0.,0.);
#187=(
CONVERSION_BASED_UNIT('inch',#190)
LENGTH_UNIT()
NAMED_UNIT(#185)
);
#188=(
LENGTH_UNIT()
NAMED_UNIT(*)
SI_UNIT(.MILLI.,.METRE.)
);
#189=(
LENGTH_UNIT()
NAMED_UNIT(*)
SI_UNIT(.CENTI.,.METRE.)
);
#190=LENGTH_MEASURE_WITH_UNIT(LENGTH_MEASURE(25.4),#188);
#191=(
NAMED_UNIT(*)
PLANE_ANGLE_UNIT()
SI_UNIT($,.RADIAN.)
);
#192=(
NAMED_UNIT(*)
SI_UNIT($,.STERADIAN.)
SOLID_ANGLE_UNIT()
);
#193=SHAPE_DEFINITION_REPRESENTATION(#194,#195);
#194=PRODUCT_DEFINITION_SHAPE('',$,#197);
#195=SHAPE_REPRESENTATION('',(#117),#183);
#196=PRODUCT_DEFINITION_CONTEXT('part definition',#201,'design');
#197=PRODUCT_DEFINITION('38mm to SM2','38mm to SM2 V2',#198,#196);
#198=PRODUCT_DEFINITION_FORMATION('',$,#203);
#199=PRODUCT_RELATED_PRODUCT_CATEGORY('38mm to SM2 V2','38mm to SM2 V2',
(#203));
#200=APPLICATION_PROTOCOL_DEFINITION('international standard',
'automotive_design',2009,#201);
#201=APPLICATION_CONTEXT(
'Core Data for Automotive Mechanical Design Process');
#202=PRODUCT_CONTEXT('part definition',#201,'mechanical');
#203=PRODUCT('38mm to SM2','38mm to SM2 V2',$,(#202));
#204=PRESENTATION_STYLE_ASSIGNMENT((#206));
#205=PRESENTATION_STYLE_ASSIGNMENT((#207));
#206=SURFACE_STYLE_USAGE(.BOTH.,#212);
#207=SURFACE_STYLE_USAGE(.BOTH.,#213);
#208=SURFACE_STYLE_RENDERING_WITH_PROPERTIES($,#220,(#210));
#209=SURFACE_STYLE_RENDERING_WITH_PROPERTIES($,#221,(#211));
#210=SURFACE_STYLE_TRANSPARENT(0.);
#211=SURFACE_STYLE_TRANSPARENT(0.);
#212=SURFACE_SIDE_STYLE('',(#214,#208));
#213=SURFACE_SIDE_STYLE('',(#215,#209));
#214=SURFACE_STYLE_FILL_AREA(#216);
#215=SURFACE_STYLE_FILL_AREA(#217);
#216=FILL_AREA_STYLE('',(#218));
#217=FILL_AREA_STYLE('',(#219));
#218=FILL_AREA_STYLE_COLOUR('',#220);
#219=FILL_AREA_STYLE_COLOUR('',#221);
#220=COLOUR_RGB('',0.956862745098039,0.956862745098039,0.956862745098039);
#221=COLOUR_RGB('',0.501960784313725,0.501960784313725,0.501960784313725);
ENDSEC;
END-ISO-10303-21;
