ISO-10303-21;
HEADER;
/* Generated by software containing ST-Developer
 * from STEP Tools, Inc. (www.steptools.com) 
 */

FILE_DESCRIPTION(
/* description */ (''),
/* implementation_level */ '2;1');

FILE_NAME(
/* name */ 'Corrected Side Plate V2.stp',
/* time_stamp */ '2026-05-13T09:41:39-05:00',
/* author */ ('FiolkaLab'),
/* organization */ (''),
/* preprocessor_version */ 'ST-DEVELOPER v20.1',
/* originating_system */ 'Autodesk Inventor 2026',
/* authorisation */ '');

FILE_SCHEMA (('AUTOMOTIVE_DESIGN { 1 0 10303 214 3 1 1 }'));
ENDSEC;

DATA;
#10=MECHANICAL_DESIGN_GEOMETRIC_PRESENTATION_REPRESENTATION('',(#13),#734);
#11=SHAPE_REPRESENTATION_RELATIONSHIP('SRR','None',#745,#12);
#12=ADVANCED_BREP_SHAPE_REPRESENTATION('',(#14),#733);
#13=STYLED_ITEM('',(#754),#14);
#14=MANIFOLD_SOLID_BREP('Solid1',#422);
#15=FACE_BOUND('',#149,.T.);
#16=FACE_BOUND('',#150,.T.);
#17=FACE_BOUND('',#151,.T.);
#18=FACE_BOUND('',#154,.T.);
#19=FACE_BOUND('',#155,.T.);
#20=FACE_BOUND('',#156,.T.);
#21=FACE_BOUND('',#157,.T.);
#22=FACE_BOUND('',#158,.T.);
#23=FACE_BOUND('',#164,.T.);
#24=FACE_BOUND('',#168,.T.);
#25=FACE_BOUND('',#172,.T.);
#26=CYLINDRICAL_SURFACE('',#448,0.5);
#27=CYLINDRICAL_SURFACE('',#465,0.0423228346456693);
#28=CYLINDRICAL_SURFACE('',#468,0.0423228346456693);
#29=CYLINDRICAL_SURFACE('',#474,0.2);
#30=CYLINDRICAL_SURFACE('',#475,0.125);
#31=CYLINDRICAL_SURFACE('',#479,0.2);
#32=CYLINDRICAL_SURFACE('',#480,0.125);
#33=CYLINDRICAL_SURFACE('',#484,0.2);
#34=CYLINDRICAL_SURFACE('',#485,0.125);
#35=LINE('',#627,#68);
#36=LINE('',#629,#69);
#37=LINE('',#630,#70);
#38=LINE('',#632,#71);
#39=LINE('',#634,#72);
#40=LINE('',#636,#73);
#41=LINE('',#638,#74);
#42=LINE('',#639,#75);
#43=LINE('',#644,#76);
#44=LINE('',#646,#77);
#45=LINE('',#647,#78);
#46=LINE('',#650,#79);
#47=LINE('',#652,#80);
#48=LINE('',#654,#81);
#49=LINE('',#656,#82);
#50=LINE('',#657,#83);
#51=LINE('',#660,#84);
#52=LINE('',#661,#85);
#53=LINE('',#665,#86);
#54=LINE('',#666,#87);
#55=LINE('',#675,#88);
#56=LINE('',#676,#89);
#57=LINE('',#679,#90);
#58=LINE('',#680,#91);
#59=LINE('',#693,#92);
#60=LINE('',#698,#93);
#61=LINE('',#707,#94);
#62=LINE('',#709,#95);
#63=LINE('',#716,#96);
#64=LINE('',#718,#97);
#65=LINE('',#725,#98);
#66=LINE('',#727,#99);
#67=LINE('',#729,#100);
#68=VECTOR('',#498,0.393700787401575);
#69=VECTOR('',#499,0.393700787401575);
#70=VECTOR('',#500,0.393700787401575);
#71=VECTOR('',#501,0.393700787401575);
#72=VECTOR('',#502,0.393700787401575);
#73=VECTOR('',#503,0.393700787401575);
#74=VECTOR('',#504,0.393700787401575);
#75=VECTOR('',#505,0.393700787401575);
#76=VECTOR('',#512,0.393700787401575);
#77=VECTOR('',#513,0.393700787401575);
#78=VECTOR('',#514,0.393700787401575);
#79=VECTOR('',#517,0.393700787401575);
#80=VECTOR('',#518,0.393700787401575);
#81=VECTOR('',#519,0.393700787401575);
#82=VECTOR('',#520,0.393700787401575);
#83=VECTOR('',#521,0.393700787401575);
#84=VECTOR('',#524,0.393700787401575);
#85=VECTOR('',#525,0.393700787401575);
#86=VECTOR('',#530,0.393700787401575);
#87=VECTOR('',#531,0.393700787401575);
#88=VECTOR('',#540,0.393700787401575);
#89=VECTOR('',#541,0.393700787401575);
#90=VECTOR('',#544,0.393700787401575);
#91=VECTOR('',#545,0.393700787401575);
#92=VECTOR('',#558,0.0423228346456693);
#93=VECTOR('',#565,0.0423228346456693);
#94=VECTOR('',#578,0.2);
#95=VECTOR('',#581,0.125);
#96=VECTOR('',#590,0.2);
#97=VECTOR('',#593,0.125);
#98=VECTOR('',#602,0.2);
#99=VECTOR('',#605,0.125);
#100=VECTOR('',#608,0.393700787401575);
#101=PLANE('',#447);
#102=PLANE('',#450);
#103=PLANE('',#451);
#104=PLANE('',#452);
#105=PLANE('',#453);
#106=PLANE('',#454);
#107=PLANE('',#458);
#108=PLANE('',#459);
#109=PLANE('',#467);
#110=PLANE('',#470);
#111=PLANE('',#471);
#112=PLANE('',#476);
#113=PLANE('',#481);
#114=PLANE('',#486);
#115=PLANE('',#487);
#116=FACE_OUTER_BOUND('',#141,.T.);
#117=FACE_OUTER_BOUND('',#142,.T.);
#118=FACE_OUTER_BOUND('',#143,.T.);
#119=FACE_OUTER_BOUND('',#144,.T.);
#120=FACE_OUTER_BOUND('',#145,.T.);
#121=FACE_OUTER_BOUND('',#146,.T.);
#122=FACE_OUTER_BOUND('',#147,.T.);
#123=FACE_OUTER_BOUND('',#148,.T.);
#124=FACE_OUTER_BOUND('',#152,.T.);
#125=FACE_OUTER_BOUND('',#153,.T.);
#126=FACE_OUTER_BOUND('',#159,.T.);
#127=FACE_OUTER_BOUND('',#160,.T.);
#128=FACE_OUTER_BOUND('',#161,.T.);
#129=FACE_OUTER_BOUND('',#162,.T.);
#130=FACE_OUTER_BOUND('',#163,.T.);
#131=FACE_OUTER_BOUND('',#165,.T.);
#132=FACE_OUTER_BOUND('',#166,.T.);
#133=FACE_OUTER_BOUND('',#167,.T.);
#134=FACE_OUTER_BOUND('',#169,.T.);
#135=FACE_OUTER_BOUND('',#170,.T.);
#136=FACE_OUTER_BOUND('',#171,.T.);
#137=FACE_OUTER_BOUND('',#173,.T.);
#138=FACE_OUTER_BOUND('',#174,.T.);
#139=FACE_OUTER_BOUND('',#175,.T.);
#140=FACE_OUTER_BOUND('',#176,.T.);
#141=EDGE_LOOP('',(#288,#289,#290,#291));
#142=EDGE_LOOP('',(#292,#293,#294,#295,#296,#297,#298,#299,#300,#301));
#143=EDGE_LOOP('',(#302,#303,#304,#305));
#144=EDGE_LOOP('',(#306,#307,#308,#309));
#145=EDGE_LOOP('',(#310,#311,#312,#313,#314,#315,#316));
#146=EDGE_LOOP('',(#317,#318,#319,#320));
#147=EDGE_LOOP('',(#321,#322));
#148=EDGE_LOOP('',(#323,#324,#325,#326));
#149=EDGE_LOOP('',(#327));
#150=EDGE_LOOP('',(#328));
#151=EDGE_LOOP('',(#329));
#152=EDGE_LOOP('',(#330,#331,#332,#333,#334,#335));
#153=EDGE_LOOP('',(#336,#337,#338,#339));
#154=EDGE_LOOP('',(#340));
#155=EDGE_LOOP('',(#341));
#156=EDGE_LOOP('',(#342));
#157=EDGE_LOOP('',(#343));
#158=EDGE_LOOP('',(#344));
#159=EDGE_LOOP('',(#345,#346,#347,#348));
#160=EDGE_LOOP('',(#349));
#161=EDGE_LOOP('',(#350,#351,#352,#353));
#162=EDGE_LOOP('',(#354));
#163=EDGE_LOOP('',(#355));
#164=EDGE_LOOP('',(#356));
#165=EDGE_LOOP('',(#357,#358,#359,#360));
#166=EDGE_LOOP('',(#361,#362,#363,#364));
#167=EDGE_LOOP('',(#365));
#168=EDGE_LOOP('',(#366));
#169=EDGE_LOOP('',(#367,#368,#369,#370));
#170=EDGE_LOOP('',(#371,#372,#373,#374));
#171=EDGE_LOOP('',(#375));
#172=EDGE_LOOP('',(#376));
#173=EDGE_LOOP('',(#377,#378,#379,#380));
#174=EDGE_LOOP('',(#381,#382,#383,#384));
#175=EDGE_LOOP('',(#385,#386,#387,#388));
#176=EDGE_LOOP('',(#389,#390,#391,#392,#393,#394,#395));
#177=CIRCLE('',#445,0.539370078740157);
#178=CIRCLE('',#446,0.5);
#179=CIRCLE('',#449,0.5);
#180=CIRCLE('',#455,0.2);
#181=CIRCLE('',#456,0.2);
#182=CIRCLE('',#457,0.2);
#183=CIRCLE('',#460,0.125);
#184=CIRCLE('',#461,0.125);
#185=CIRCLE('',#462,0.125);
#186=CIRCLE('',#463,0.0423228346456693);
#187=CIRCLE('',#464,0.0423228346456693);
#188=CIRCLE('',#466,0.0423228346456693);
#189=CIRCLE('',#469,0.0423228346456693);
#190=CIRCLE('',#472,0.2);
#191=CIRCLE('',#473,0.125);
#192=CIRCLE('',#477,0.2);
#193=CIRCLE('',#478,0.125);
#194=CIRCLE('',#482,0.2);
#195=CIRCLE('',#483,0.125);
#196=(
BOUNDED_CURVE()
B_SPLINE_CURVE(2,(#615,#616,#617),.UNSPECIFIED.,.F.,.F.)
B_SPLINE_CURVE_WITH_KNOTS((3,3),(0.791691525209882,0.90160903583982),
 .UNSPECIFIED.)
CURVE()
GEOMETRIC_REPRESENTATION_ITEM()
RATIONAL_B_SPLINE_CURVE((1.01121323221368,1.00638503202503,1.))
REPRESENTATION_ITEM('')
);
#197=(
BOUNDED_CURVE()
B_SPLINE_CURVE(2,(#621,#622,#623),.UNSPECIFIED.,.F.,.F.)
B_SPLINE_CURVE_WITH_KNOTS((3,3),(0.,0.109917510629943),.UNSPECIFIED.)
CURVE()
GEOMETRIC_REPRESENTATION_ITEM()
RATIONAL_B_SPLINE_CURVE((1.,1.00638503202504,1.01121323221368))
REPRESENTATION_ITEM('')
);
#198=VERTEX_POINT('',#613);
#199=VERTEX_POINT('',#614);
#200=VERTEX_POINT('',#618);
#201=VERTEX_POINT('',#620);
#202=VERTEX_POINT('',#626);
#203=VERTEX_POINT('',#628);
#204=VERTEX_POINT('',#631);
#205=VERTEX_POINT('',#633);
#206=VERTEX_POINT('',#635);
#207=VERTEX_POINT('',#637);
#208=VERTEX_POINT('',#643);
#209=VERTEX_POINT('',#645);
#210=VERTEX_POINT('',#649);
#211=VERTEX_POINT('',#651);
#212=VERTEX_POINT('',#653);
#213=VERTEX_POINT('',#655);
#214=VERTEX_POINT('',#659);
#215=VERTEX_POINT('',#664);
#216=VERTEX_POINT('',#667);
#217=VERTEX_POINT('',#669);
#218=VERTEX_POINT('',#671);
#219=VERTEX_POINT('',#674);
#220=VERTEX_POINT('',#678);
#221=VERTEX_POINT('',#681);
#222=VERTEX_POINT('',#683);
#223=VERTEX_POINT('',#685);
#224=VERTEX_POINT('',#687);
#225=VERTEX_POINT('',#689);
#226=VERTEX_POINT('',#692);
#227=VERTEX_POINT('',#697);
#228=VERTEX_POINT('',#702);
#229=VERTEX_POINT('',#704);
#230=VERTEX_POINT('',#711);
#231=VERTEX_POINT('',#713);
#232=VERTEX_POINT('',#720);
#233=VERTEX_POINT('',#722);
#234=EDGE_CURVE('',#198,#199,#196,.T.);
#235=EDGE_CURVE('',#199,#200,#177,.T.);
#236=EDGE_CURVE('',#200,#201,#197,.T.);
#237=EDGE_CURVE('',#201,#198,#178,.T.);
#238=EDGE_CURVE('',#198,#202,#35,.T.);
#239=EDGE_CURVE('',#202,#203,#36,.T.);
#240=EDGE_CURVE('',#203,#201,#37,.T.);
#241=EDGE_CURVE('',#200,#204,#38,.T.);
#242=EDGE_CURVE('',#204,#205,#39,.T.);
#243=EDGE_CURVE('',#206,#205,#40,.T.);
#244=EDGE_CURVE('',#206,#207,#41,.T.);
#245=EDGE_CURVE('',#207,#199,#42,.T.);
#246=EDGE_CURVE('',#203,#202,#179,.T.);
#247=EDGE_CURVE('',#208,#206,#43,.T.);
#248=EDGE_CURVE('',#205,#209,#44,.T.);
#249=EDGE_CURVE('',#209,#208,#45,.T.);
#250=EDGE_CURVE('',#208,#210,#46,.T.);
#251=EDGE_CURVE('',#211,#210,#47,.T.);
#252=EDGE_CURVE('',#212,#211,#48,.T.);
#253=EDGE_CURVE('',#212,#213,#49,.T.);
#254=EDGE_CURVE('',#213,#207,#50,.T.);
#255=EDGE_CURVE('',#214,#209,#51,.T.);
#256=EDGE_CURVE('',#210,#214,#52,.T.);
#257=EDGE_CURVE('',#214,#215,#53,.T.);
#258=EDGE_CURVE('',#215,#211,#54,.T.);
#259=EDGE_CURVE('',#216,#216,#180,.T.);
#260=EDGE_CURVE('',#217,#217,#181,.T.);
#261=EDGE_CURVE('',#218,#218,#182,.T.);
#262=EDGE_CURVE('',#219,#213,#55,.T.);
#263=EDGE_CURVE('',#219,#204,#56,.T.);
#264=EDGE_CURVE('',#220,#212,#57,.T.);
#265=EDGE_CURVE('',#219,#220,#58,.T.);
#266=EDGE_CURVE('',#221,#221,#183,.T.);
#267=EDGE_CURVE('',#222,#222,#184,.T.);
#268=EDGE_CURVE('',#223,#223,#185,.T.);
#269=EDGE_CURVE('',#224,#224,#186,.T.);
#270=EDGE_CURVE('',#225,#225,#187,.T.);
#271=EDGE_CURVE('',#225,#226,#59,.T.);
#272=EDGE_CURVE('',#226,#226,#188,.T.);
#273=EDGE_CURVE('',#224,#227,#60,.T.);
#274=EDGE_CURVE('',#227,#227,#189,.T.);
#275=EDGE_CURVE('',#228,#228,#190,.T.);
#276=EDGE_CURVE('',#229,#229,#191,.T.);
#277=EDGE_CURVE('',#218,#228,#61,.T.);
#278=EDGE_CURVE('',#229,#223,#62,.T.);
#279=EDGE_CURVE('',#230,#230,#192,.T.);
#280=EDGE_CURVE('',#231,#231,#193,.T.);
#281=EDGE_CURVE('',#217,#230,#63,.T.);
#282=EDGE_CURVE('',#231,#222,#64,.T.);
#283=EDGE_CURVE('',#232,#232,#194,.T.);
#284=EDGE_CURVE('',#233,#233,#195,.T.);
#285=EDGE_CURVE('',#216,#232,#65,.T.);
#286=EDGE_CURVE('',#233,#221,#66,.T.);
#287=EDGE_CURVE('',#220,#215,#67,.T.);
#288=ORIENTED_EDGE('',*,*,#234,.T.);
#289=ORIENTED_EDGE('',*,*,#235,.T.);
#290=ORIENTED_EDGE('',*,*,#236,.T.);
#291=ORIENTED_EDGE('',*,*,#237,.T.);
#292=ORIENTED_EDGE('',*,*,#234,.F.);
#293=ORIENTED_EDGE('',*,*,#238,.T.);
#294=ORIENTED_EDGE('',*,*,#239,.T.);
#295=ORIENTED_EDGE('',*,*,#240,.T.);
#296=ORIENTED_EDGE('',*,*,#236,.F.);
#297=ORIENTED_EDGE('',*,*,#241,.T.);
#298=ORIENTED_EDGE('',*,*,#242,.T.);
#299=ORIENTED_EDGE('',*,*,#243,.F.);
#300=ORIENTED_EDGE('',*,*,#244,.T.);
#301=ORIENTED_EDGE('',*,*,#245,.T.);
#302=ORIENTED_EDGE('',*,*,#237,.F.);
#303=ORIENTED_EDGE('',*,*,#240,.F.);
#304=ORIENTED_EDGE('',*,*,#246,.T.);
#305=ORIENTED_EDGE('',*,*,#238,.F.);
#306=ORIENTED_EDGE('',*,*,#247,.T.);
#307=ORIENTED_EDGE('',*,*,#243,.T.);
#308=ORIENTED_EDGE('',*,*,#248,.T.);
#309=ORIENTED_EDGE('',*,*,#249,.T.);
#310=ORIENTED_EDGE('',*,*,#247,.F.);
#311=ORIENTED_EDGE('',*,*,#250,.T.);
#312=ORIENTED_EDGE('',*,*,#251,.F.);
#313=ORIENTED_EDGE('',*,*,#252,.F.);
#314=ORIENTED_EDGE('',*,*,#253,.T.);
#315=ORIENTED_EDGE('',*,*,#254,.T.);
#316=ORIENTED_EDGE('',*,*,#244,.F.);
#317=ORIENTED_EDGE('',*,*,#249,.F.);
#318=ORIENTED_EDGE('',*,*,#255,.F.);
#319=ORIENTED_EDGE('',*,*,#256,.F.);
#320=ORIENTED_EDGE('',*,*,#250,.F.);
#321=ORIENTED_EDGE('',*,*,#239,.F.);
#322=ORIENTED_EDGE('',*,*,#246,.F.);
#323=ORIENTED_EDGE('',*,*,#256,.T.);
#324=ORIENTED_EDGE('',*,*,#257,.T.);
#325=ORIENTED_EDGE('',*,*,#258,.T.);
#326=ORIENTED_EDGE('',*,*,#251,.T.);
#327=ORIENTED_EDGE('',*,*,#259,.T.);
#328=ORIENTED_EDGE('',*,*,#260,.T.);
#329=ORIENTED_EDGE('',*,*,#261,.T.);
#330=ORIENTED_EDGE('',*,*,#235,.F.);
#331=ORIENTED_EDGE('',*,*,#245,.F.);
#332=ORIENTED_EDGE('',*,*,#254,.F.);
#333=ORIENTED_EDGE('',*,*,#262,.F.);
#334=ORIENTED_EDGE('',*,*,#263,.T.);
#335=ORIENTED_EDGE('',*,*,#241,.F.);
#336=ORIENTED_EDGE('',*,*,#262,.T.);
#337=ORIENTED_EDGE('',*,*,#253,.F.);
#338=ORIENTED_EDGE('',*,*,#264,.F.);
#339=ORIENTED_EDGE('',*,*,#265,.F.);
#340=ORIENTED_EDGE('',*,*,#266,.T.);
#341=ORIENTED_EDGE('',*,*,#267,.T.);
#342=ORIENTED_EDGE('',*,*,#268,.T.);
#343=ORIENTED_EDGE('',*,*,#269,.T.);
#344=ORIENTED_EDGE('',*,*,#270,.T.);
#345=ORIENTED_EDGE('',*,*,#270,.F.);
#346=ORIENTED_EDGE('',*,*,#271,.T.);
#347=ORIENTED_EDGE('',*,*,#272,.T.);
#348=ORIENTED_EDGE('',*,*,#271,.F.);
#349=ORIENTED_EDGE('',*,*,#272,.F.);
#350=ORIENTED_EDGE('',*,*,#269,.F.);
#351=ORIENTED_EDGE('',*,*,#273,.T.);
#352=ORIENTED_EDGE('',*,*,#274,.T.);
#353=ORIENTED_EDGE('',*,*,#273,.F.);
#354=ORIENTED_EDGE('',*,*,#274,.F.);
#355=ORIENTED_EDGE('',*,*,#275,.T.);
#356=ORIENTED_EDGE('',*,*,#276,.F.);
#357=ORIENTED_EDGE('',*,*,#261,.F.);
#358=ORIENTED_EDGE('',*,*,#277,.T.);
#359=ORIENTED_EDGE('',*,*,#275,.F.);
#360=ORIENTED_EDGE('',*,*,#277,.F.);
#361=ORIENTED_EDGE('',*,*,#276,.T.);
#362=ORIENTED_EDGE('',*,*,#278,.T.);
#363=ORIENTED_EDGE('',*,*,#268,.F.);
#364=ORIENTED_EDGE('',*,*,#278,.F.);
#365=ORIENTED_EDGE('',*,*,#279,.T.);
#366=ORIENTED_EDGE('',*,*,#280,.F.);
#367=ORIENTED_EDGE('',*,*,#260,.F.);
#368=ORIENTED_EDGE('',*,*,#281,.T.);
#369=ORIENTED_EDGE('',*,*,#279,.F.);
#370=ORIENTED_EDGE('',*,*,#281,.F.);
#371=ORIENTED_EDGE('',*,*,#280,.T.);
#372=ORIENTED_EDGE('',*,*,#282,.T.);
#373=ORIENTED_EDGE('',*,*,#267,.F.);
#374=ORIENTED_EDGE('',*,*,#282,.F.);
#375=ORIENTED_EDGE('',*,*,#283,.T.);
#376=ORIENTED_EDGE('',*,*,#284,.F.);
#377=ORIENTED_EDGE('',*,*,#259,.F.);
#378=ORIENTED_EDGE('',*,*,#285,.T.);
#379=ORIENTED_EDGE('',*,*,#283,.F.);
#380=ORIENTED_EDGE('',*,*,#285,.F.);
#381=ORIENTED_EDGE('',*,*,#284,.T.);
#382=ORIENTED_EDGE('',*,*,#286,.T.);
#383=ORIENTED_EDGE('',*,*,#266,.F.);
#384=ORIENTED_EDGE('',*,*,#286,.F.);
#385=ORIENTED_EDGE('',*,*,#264,.T.);
#386=ORIENTED_EDGE('',*,*,#252,.T.);
#387=ORIENTED_EDGE('',*,*,#258,.F.);
#388=ORIENTED_EDGE('',*,*,#287,.F.);
#389=ORIENTED_EDGE('',*,*,#248,.F.);
#390=ORIENTED_EDGE('',*,*,#242,.F.);
#391=ORIENTED_EDGE('',*,*,#263,.F.);
#392=ORIENTED_EDGE('',*,*,#265,.T.);
#393=ORIENTED_EDGE('',*,*,#287,.T.);
#394=ORIENTED_EDGE('',*,*,#257,.F.);
#395=ORIENTED_EDGE('',*,*,#255,.T.);
#396=CONICAL_SURFACE('',#444,0.519685039370079,0.785398163397494);
#397=ADVANCED_FACE('',(#116),#396,.F.);
#398=ADVANCED_FACE('',(#117),#101,.T.);
#399=ADVANCED_FACE('',(#118),#26,.F.);
#400=ADVANCED_FACE('',(#119),#102,.T.);
#401=ADVANCED_FACE('',(#120),#103,.T.);
#402=ADVANCED_FACE('',(#121),#104,.F.);
#403=ADVANCED_FACE('',(#122),#105,.T.);
#404=ADVANCED_FACE('',(#123,#15,#16,#17),#106,.T.);
#405=ADVANCED_FACE('',(#124),#107,.T.);
#406=ADVANCED_FACE('',(#125,#18,#19,#20,#21,#22),#108,.F.);
#407=ADVANCED_FACE('',(#126),#27,.F.);
#408=ADVANCED_FACE('',(#127),#109,.T.);
#409=ADVANCED_FACE('',(#128),#28,.F.);
#410=ADVANCED_FACE('',(#129),#110,.T.);
#411=ADVANCED_FACE('',(#130,#23),#111,.T.);
#412=ADVANCED_FACE('',(#131),#29,.F.);
#413=ADVANCED_FACE('',(#132),#30,.F.);
#414=ADVANCED_FACE('',(#133,#24),#112,.T.);
#415=ADVANCED_FACE('',(#134),#31,.F.);
#416=ADVANCED_FACE('',(#135),#32,.F.);
#417=ADVANCED_FACE('',(#136,#25),#113,.T.);
#418=ADVANCED_FACE('',(#137),#33,.F.);
#419=ADVANCED_FACE('',(#138),#34,.F.);
#420=ADVANCED_FACE('',(#139),#114,.T.);
#421=ADVANCED_FACE('',(#140),#115,.T.);
#422=CLOSED_SHELL('',(#397,#398,#399,#400,#401,#402,#403,#404,#405,#406,
#407,#408,#409,#410,#411,#412,#413,#414,#415,#416,#417,#418,#419,#420,#421));
#423=DERIVED_UNIT_ELEMENT(#425,1.);
#424=DERIVED_UNIT_ELEMENT(#739,-3.);
#425=(
CONVERSION_BASED_UNIT('gram',#427)
MASS_UNIT()
NAMED_UNIT(#736)
);
#426=(
MASS_UNIT()
NAMED_UNIT(*)
SI_UNIT(.KILO.,.GRAM.)
);
#427=MASS_MEASURE_WITH_UNIT(MASS_MEASURE(0.001),#426);
#428=DERIVED_UNIT((#423,#424));
#429=MEASURE_REPRESENTATION_ITEM('density measure',
POSITIVE_RATIO_MEASURE(1.),#428);
#430=PROPERTY_DEFINITION_REPRESENTATION(#435,#432);
#431=PROPERTY_DEFINITION_REPRESENTATION(#436,#433);
#432=REPRESENTATION('material name',(#434),#733);
#433=REPRESENTATION('density',(#429),#733);
#434=DESCRIPTIVE_REPRESENTATION_ITEM('Generic','Generic');
#435=PROPERTY_DEFINITION('material property','material name',#747);
#436=PROPERTY_DEFINITION('material property','density of part',#747);
#437=DATE_TIME_ROLE('creation_date');
#438=APPLIED_DATE_AND_TIME_ASSIGNMENT(#439,#437,(#747));
#439=DATE_AND_TIME(#440,#441);
#440=CALENDAR_DATE(2026,5,2);
#441=LOCAL_TIME(0,0,0.,#442);
#442=COORDINATED_UNIVERSAL_TIME_OFFSET(0,0,.BEHIND.);
#443=AXIS2_PLACEMENT_3D('',#611,#488,#489);
#444=AXIS2_PLACEMENT_3D('',#612,#490,#491);
#445=AXIS2_PLACEMENT_3D('',#619,#492,#493);
#446=AXIS2_PLACEMENT_3D('',#624,#494,#495);
#447=AXIS2_PLACEMENT_3D('',#625,#496,#497);
#448=AXIS2_PLACEMENT_3D('',#640,#506,#507);
#449=AXIS2_PLACEMENT_3D('',#641,#508,#509);
#450=AXIS2_PLACEMENT_3D('',#642,#510,#511);
#451=AXIS2_PLACEMENT_3D('',#648,#515,#516);
#452=AXIS2_PLACEMENT_3D('',#658,#522,#523);
#453=AXIS2_PLACEMENT_3D('',#662,#526,#527);
#454=AXIS2_PLACEMENT_3D('',#663,#528,#529);
#455=AXIS2_PLACEMENT_3D('',#668,#532,#533);
#456=AXIS2_PLACEMENT_3D('',#670,#534,#535);
#457=AXIS2_PLACEMENT_3D('',#672,#536,#537);
#458=AXIS2_PLACEMENT_3D('',#673,#538,#539);
#459=AXIS2_PLACEMENT_3D('',#677,#542,#543);
#460=AXIS2_PLACEMENT_3D('',#682,#546,#547);
#461=AXIS2_PLACEMENT_3D('',#684,#548,#549);
#462=AXIS2_PLACEMENT_3D('',#686,#550,#551);
#463=AXIS2_PLACEMENT_3D('',#688,#552,#553);
#464=AXIS2_PLACEMENT_3D('',#690,#554,#555);
#465=AXIS2_PLACEMENT_3D('',#691,#556,#557);
#466=AXIS2_PLACEMENT_3D('',#694,#559,#560);
#467=AXIS2_PLACEMENT_3D('',#695,#561,#562);
#468=AXIS2_PLACEMENT_3D('',#696,#563,#564);
#469=AXIS2_PLACEMENT_3D('',#699,#566,#567);
#470=AXIS2_PLACEMENT_3D('',#700,#568,#569);
#471=AXIS2_PLACEMENT_3D('',#701,#570,#571);
#472=AXIS2_PLACEMENT_3D('',#703,#572,#573);
#473=AXIS2_PLACEMENT_3D('',#705,#574,#575);
#474=AXIS2_PLACEMENT_3D('',#706,#576,#577);
#475=AXIS2_PLACEMENT_3D('',#708,#579,#580);
#476=AXIS2_PLACEMENT_3D('',#710,#582,#583);
#477=AXIS2_PLACEMENT_3D('',#712,#584,#585);
#478=AXIS2_PLACEMENT_3D('',#714,#586,#587);
#479=AXIS2_PLACEMENT_3D('',#715,#588,#589);
#480=AXIS2_PLACEMENT_3D('',#717,#591,#592);
#481=AXIS2_PLACEMENT_3D('',#719,#594,#595);
#482=AXIS2_PLACEMENT_3D('',#721,#596,#597);
#483=AXIS2_PLACEMENT_3D('',#723,#598,#599);
#484=AXIS2_PLACEMENT_3D('',#724,#600,#601);
#485=AXIS2_PLACEMENT_3D('',#726,#603,#604);
#486=AXIS2_PLACEMENT_3D('',#728,#606,#607);
#487=AXIS2_PLACEMENT_3D('',#730,#609,#610);
#488=DIRECTION('axis',(0.,0.,1.));
#489=DIRECTION('refdir',(1.,0.,0.));
#490=DIRECTION('center_axis',(6.93889390390787E-17,-0.57357643635104,-0.819152044288996));
#491=DIRECTION('ref_axis',(0.95,-0.255780143848436,0.179099184847038));
#492=DIRECTION('center_axis',(8.74191357972564E-17,-0.573576436351045,-0.819152044288992));
#493=DIRECTION('ref_axis',(0.95,-0.255780143848436,0.179099184847038));
#494=DIRECTION('center_axis',(-8.74191357972564E-17,0.573576436351045,0.819152044288992));
#495=DIRECTION('ref_axis',(0.95,-0.255780143848436,0.179099184847039));
#496=DIRECTION('center_axis',(-1.96816065584817E-16,0.819152044288992,-0.573576436351045));
#497=DIRECTION('ref_axis',(-1.,0.,3.43138338870602E-16));
#498=DIRECTION('',(0.,0.573576436351046,0.819152044288992));
#499=DIRECTION('',(-1.,-2.11363838852198E-16,4.12794937164736E-17));
#500=DIRECTION('',(0.,-0.573576436351046,-0.819152044288992));
#501=DIRECTION('',(-1.,-2.06565877915532E-16,3.79199253005844E-17));
#502=DIRECTION('',(6.05390613681653E-33,0.573576436351045,0.819152044288992));
#503=DIRECTION('',(-1.,-1.07976133342841E-17,3.27717748909672E-16));
#504=DIRECTION('',(-2.86438255193199E-16,-0.573576436351045,-0.819152044288992));
#505=DIRECTION('',(-1.,-2.06565877915532E-16,3.79199253005844E-17));
#506=DIRECTION('center_axis',(0.,0.573576436351046,0.819152044288992));
#507=DIRECTION('ref_axis',(0.95,-0.255780143848436,0.179099184847038));
#508=DIRECTION('center_axis',(-8.32667268468867E-17,0.573576436351045,0.819152044288992));
#509=DIRECTION('ref_axis',(0.95,-0.255780143848436,0.179099184847038));
#510=DIRECTION('center_axis',(-1.07976133342841E-17,1.,0.));
#511=DIRECTION('ref_axis',(0.,0.,1.));
#512=DIRECTION('',(0.,0.,-1.));
#513=DIRECTION('',(0.,0.,1.));
#514=DIRECTION('',(1.,1.07976133342841E-17,-3.27717748909672E-16));
#515=DIRECTION('center_axis',(1.,1.85037170770859E-16,0.));
#516=DIRECTION('ref_axis',(-1.85037170770859E-16,1.,0.));
#517=DIRECTION('',(1.51573576706401E-16,-0.819152044288992,0.573576436351045));
#518=DIRECTION('',(-1.85037170770859E-16,1.,0.));
#519=DIRECTION('',(0.,0.,1.));
#520=DIRECTION('',(-1.85037170770859E-16,1.,0.));
#521=DIRECTION('',(-1.96816065584817E-16,0.819152044288992,-0.573576436351045));
#522=DIRECTION('center_axis',(-2.62257407391769E-16,-0.573576436351045,
-0.819152044288992));
#523=DIRECTION('ref_axis',(1.,1.07976133342841E-17,-3.27717748909672E-16));
#524=DIRECTION('',(-5.05245255688003E-17,0.819152044288992,-0.573576436351045));
#525=DIRECTION('',(-1.,4.57231836545078E-16,0.));
#526=DIRECTION('center_axis',(8.74191357972564E-17,-0.573576436351045,-0.819152044288992));
#527=DIRECTION('ref_axis',(-1.,0.,-1.06719059552778E-16));
#528=DIRECTION('center_axis',(0.,0.,1.));
#529=DIRECTION('ref_axis',(1.,0.,0.));
#530=DIRECTION('',(6.16790569236198E-17,-1.,0.));
#531=DIRECTION('',(1.,3.49676543189026E-16,0.));
#532=DIRECTION('center_axis',(0.,0.,-1.));
#533=DIRECTION('ref_axis',(1.,0.,0.));
#534=DIRECTION('center_axis',(0.,0.,-1.));
#535=DIRECTION('ref_axis',(1.,0.,0.));
#536=DIRECTION('center_axis',(0.,0.,-1.));
#537=DIRECTION('ref_axis',(1.,0.,0.));
#538=DIRECTION('center_axis',(8.74191357972564E-17,-0.573576436351045,-0.819152044288992));
#539=DIRECTION('ref_axis',(-1.,-2.06565877915532E-16,3.79199253005844E-17));
#540=DIRECTION('',(1.,2.3311769545935E-16,0.));
#541=DIRECTION('',(-1.96816065584817E-16,0.819152044288992,-0.573576436351045));
#542=DIRECTION('center_axis',(0.,0.,1.));
#543=DIRECTION('ref_axis',(1.,0.,0.));
#544=DIRECTION('',(1.,3.49676543189026E-16,0.));
#545=DIRECTION('',(6.16790569236198E-17,-1.,0.));
#546=DIRECTION('center_axis',(0.,0.,1.));
#547=DIRECTION('ref_axis',(1.,0.,0.));
#548=DIRECTION('center_axis',(0.,0.,1.));
#549=DIRECTION('ref_axis',(1.,0.,0.));
#550=DIRECTION('center_axis',(0.,0.,1.));
#551=DIRECTION('ref_axis',(1.,0.,0.));
#552=DIRECTION('center_axis',(0.,0.,1.));
#553=DIRECTION('ref_axis',(-1.,0.,0.));
#554=DIRECTION('center_axis',(0.,0.,1.));
#555=DIRECTION('ref_axis',(-1.,0.,0.));
#556=DIRECTION('center_axis',(0.,0.,1.));
#557=DIRECTION('ref_axis',(-1.,0.,0.));
#558=DIRECTION('',(0.,0.,1.));
#559=DIRECTION('center_axis',(0.,0.,1.));
#560=DIRECTION('ref_axis',(-1.,0.,0.));
#561=DIRECTION('center_axis',(0.,0.,-1.));
#562=DIRECTION('ref_axis',(-1.,0.,0.));
#563=DIRECTION('center_axis',(0.,0.,1.));
#564=DIRECTION('ref_axis',(-1.,0.,0.));
#565=DIRECTION('',(0.,0.,1.));
#566=DIRECTION('center_axis',(0.,0.,1.));
#567=DIRECTION('ref_axis',(-1.,0.,0.));
#568=DIRECTION('center_axis',(0.,0.,-1.));
#569=DIRECTION('ref_axis',(-1.,0.,0.));
#570=DIRECTION('center_axis',(0.,0.,1.));
#571=DIRECTION('ref_axis',(1.,0.,0.));
#572=DIRECTION('center_axis',(0.,0.,1.));
#573=DIRECTION('ref_axis',(1.,0.,0.));
#574=DIRECTION('center_axis',(0.,0.,1.));
#575=DIRECTION('ref_axis',(1.,0.,0.));
#576=DIRECTION('center_axis',(0.,0.,1.));
#577=DIRECTION('ref_axis',(1.,0.,0.));
#578=DIRECTION('',(0.,0.,-1.));
#579=DIRECTION('center_axis',(0.,0.,1.));
#580=DIRECTION('ref_axis',(1.,0.,0.));
#581=DIRECTION('',(0.,0.,-1.));
#582=DIRECTION('center_axis',(0.,0.,1.));
#583=DIRECTION('ref_axis',(1.,0.,0.));
#584=DIRECTION('center_axis',(0.,0.,1.));
#585=DIRECTION('ref_axis',(1.,0.,0.));
#586=DIRECTION('center_axis',(0.,0.,1.));
#587=DIRECTION('ref_axis',(1.,0.,0.));
#588=DIRECTION('center_axis',(0.,0.,1.));
#589=DIRECTION('ref_axis',(1.,0.,0.));
#590=DIRECTION('',(0.,0.,-1.));
#591=DIRECTION('center_axis',(0.,0.,1.));
#592=DIRECTION('ref_axis',(1.,0.,0.));
#593=DIRECTION('',(0.,0.,-1.));
#594=DIRECTION('center_axis',(0.,0.,1.));
#595=DIRECTION('ref_axis',(1.,0.,0.));
#596=DIRECTION('center_axis',(0.,0.,1.));
#597=DIRECTION('ref_axis',(1.,0.,0.));
#598=DIRECTION('center_axis',(0.,0.,1.));
#599=DIRECTION('ref_axis',(1.,0.,0.));
#600=DIRECTION('center_axis',(0.,0.,1.));
#601=DIRECTION('ref_axis',(1.,0.,0.));
#602=DIRECTION('',(0.,0.,-1.));
#603=DIRECTION('center_axis',(0.,0.,1.));
#604=DIRECTION('ref_axis',(1.,0.,0.));
#605=DIRECTION('',(0.,0.,-1.));
#606=DIRECTION('center_axis',(3.49676543189026E-16,-1.,0.));
#607=DIRECTION('ref_axis',(1.,3.49676543189026E-16,0.));
#608=DIRECTION('',(0.,0.,1.));
#609=DIRECTION('center_axis',(-1.,-6.16790569236198E-17,0.));
#610=DIRECTION('ref_axis',(6.16790569236198E-17,-1.,0.));
#611=CARTESIAN_POINT('',(0.,0.,0.));
#612=CARTESIAN_POINT('Origin',(0.0220000000000001,4.80676304487219,-1.60200575505715));
#613=CARTESIAN_POINT('',(0.496999999999999,4.69016384767929,-1.49633112239172));
#614=CARTESIAN_POINT('',(0.538280042070351,4.66758209821665,-1.52858120287554));
#615=CARTESIAN_POINT('Ctrl Pts',(0.496999999999999,4.69016384767929,-1.49633112239172));
#616=CARTESIAN_POINT('Ctrl Pts',(0.516858202056571,4.67934316074974,-1.51178466486174));
#617=CARTESIAN_POINT('Ctrl Pts',(0.538280042070351,4.66758209821665,-1.52858120287554));
#618=CARTESIAN_POINT('',(-0.49428004207035,4.66758209821665,-1.52858120287554));
#619=CARTESIAN_POINT('Origin',(0.0220000000000001,4.79547217014087,-1.61813079529906));
#620=CARTESIAN_POINT('',(-0.452999999999999,4.69016384767929,-1.49633112239172));
#621=CARTESIAN_POINT('Ctrl Pts',(-0.494280042070351,4.66758209821665,-1.52858120287554));
#622=CARTESIAN_POINT('Ctrl Pts',(-0.472858202056571,4.67934316074974,-1.51178466486174));
#623=CARTESIAN_POINT('Ctrl Pts',(-0.452999999999999,4.69016384767929,-1.49633112239172));
#624=CARTESIAN_POINT('Origin',(0.0220000000000001,4.81805391960351,-1.58588071481524));
#625=CARTESIAN_POINT('Origin',(-5.24514814783538E-16,4.84263398276907,-1.27858120287554));
#626=CARTESIAN_POINT('',(0.497,4.8052404429409,-1.33198471224618));
#627=CARTESIAN_POINT('',(0.496999999999999,4.66758209821665,-1.52858120287554));
#628=CARTESIAN_POINT('',(-0.453,4.8052404429409,-1.33198471224618));
#629=CARTESIAN_POINT('',(0.0109999999999997,4.8052404429409,-1.33198471224618));
#630=CARTESIAN_POINT('',(-0.452999999999999,4.66758209821665,-1.52858120287554));
#631=CARTESIAN_POINT('',(-1.,4.66758209821665,-1.52858120287554));
#632=CARTESIAN_POINT('',(0.999999999999999,4.66758209821665,-1.52858120287554));
#633=CARTESIAN_POINT('',(-1.,4.80541742237269,-1.33173195942343));
#634=CARTESIAN_POINT('',(-1.,4.66758209821665,-1.52858120287554));
#635=CARTESIAN_POINT('',(0.999999999999999,4.80541742237269,-1.33173195942343));
#636=CARTESIAN_POINT('',(-0.5,4.80541742237269,-1.33173195942343));
#637=CARTESIAN_POINT('',(0.999999999999999,4.66758209821665,-1.52858120287554));
#638=CARTESIAN_POINT('',(0.999999999999999,5.0176858673215,-1.02858120287554));
#639=CARTESIAN_POINT('',(0.999999999999999,4.66758209821665,-1.52858120287554));
#640=CARTESIAN_POINT('Origin',(0.0220000000000001,4.79547217014087,-1.61813079529906));
#641=CARTESIAN_POINT('Origin',(0.0220000000000001,4.93313051486512,-1.4215343046697));
#642=CARTESIAN_POINT('Origin',(-0.5,4.80541742237269,-1.25843742210606));
#643=CARTESIAN_POINT('',(0.999999999999999,4.80541742237269,-1.18514288478869));
#644=CARTESIAN_POINT('',(0.999999999999999,4.80541742237269,-0.62921871105303));
#645=CARTESIAN_POINT('',(-1.,4.80541742237269,-1.18514288478869));
#646=CARTESIAN_POINT('',(-1.,4.80541742237269,-0.62921871105303));
#647=CARTESIAN_POINT('',(-0.5,4.80541742237269,-1.18514288478869));
#648=CARTESIAN_POINT('Origin',(1.,-2.83464566929134,0.));
#649=CARTESIAN_POINT('',(1.,2.39878397038606,0.5));
#650=CARTESIAN_POINT('',(1.,1.99815744312697,0.780521714393593));
#651=CARTESIAN_POINT('',(1.,-2.83464566929134,0.5));
#652=CARTESIAN_POINT('',(1.,-2.83464566929134,0.5));
#653=CARTESIAN_POINT('',(1.,-2.83464566929134,0.));
#654=CARTESIAN_POINT('',(1.,-2.83464566929134,0.));
#655=CARTESIAN_POINT('',(1.,2.48454190018648,-8.74191357972564E-17));
#656=CARTESIAN_POINT('',(1.,-2.83464566929134,0.));
#657=CARTESIAN_POINT('',(0.999999999999999,2.48454190018648,1.74838271594513E-16));
#658=CARTESIAN_POINT('Origin',(-0.999999999999999,4.87429175823374,-1.23336921394778));
#659=CARTESIAN_POINT('',(-1.,2.39878397038606,0.5));
#660=CARTESIAN_POINT('',(-1.,3.9002332368169,-0.551326094594307));
#661=CARTESIAN_POINT('',(-0.499999999999999,2.39878397038606,0.5));
#662=CARTESIAN_POINT('Origin',(0.022,4.66439746783076,-1.23336539937018));
#663=CARTESIAN_POINT('Origin',(5.24514814783538E-16,-3.49676543189026E-16,
0.5));
#664=CARTESIAN_POINT('',(-0.999999999999999,-2.83464566929134,0.5));
#665=CARTESIAN_POINT('',(-1.,2.83464566929134,0.5));
#666=CARTESIAN_POINT('',(-0.999999999999999,-2.83464566929134,0.5));
#667=CARTESIAN_POINT('',(-0.199999999999999,-2.58464566929134,0.5));
#668=CARTESIAN_POINT('Origin',(6.99353086378051E-16,-2.58464566929134,0.5));
#669=CARTESIAN_POINT('',(0.550000000000001,-2.58464566929134,0.5));
#670=CARTESIAN_POINT('Origin',(0.750000000000001,-2.58464566929134,0.5));
#671=CARTESIAN_POINT('',(-0.949999999999999,-2.58464566929134,0.5));
#672=CARTESIAN_POINT('Origin',(-0.749999999999999,-2.58464566929134,0.5));
#673=CARTESIAN_POINT('Origin',(0.999999999999999,2.48454190018648,2.73836692587857E-16));
#674=CARTESIAN_POINT('',(-1.,2.48454190018648,-8.74191357972564E-17));
#675=CARTESIAN_POINT('',(0.5,2.48454190018648,8.74191357972564E-17));
#676=CARTESIAN_POINT('',(-1.,2.48454190018648,3.49676543189026E-16));
#677=CARTESIAN_POINT('Origin',(5.24514814783538E-16,-3.49676543189026E-16,
0.));
#678=CARTESIAN_POINT('',(-0.999999999999999,-2.83464566929134,0.));
#679=CARTESIAN_POINT('',(-0.999999999999999,-2.83464566929134,0.));
#680=CARTESIAN_POINT('',(-1.,2.83464566929134,0.));
#681=CARTESIAN_POINT('',(-0.124999999999999,-2.58464566929134,0.));
#682=CARTESIAN_POINT('Origin',(6.99353086378051E-16,-2.58464566929134,0.));
#683=CARTESIAN_POINT('',(0.625000000000001,-2.58464566929134,0.));
#684=CARTESIAN_POINT('Origin',(0.750000000000001,-2.58464566929134,0.));
#685=CARTESIAN_POINT('',(-0.874999999999999,-2.58464566929134,0.));
#686=CARTESIAN_POINT('Origin',(-0.749999999999999,-2.58464566929134,0.));
#687=CARTESIAN_POINT('',(0.41732283464567,-2.58464566929134,0.));
#688=CARTESIAN_POINT('Origin',(0.375000000000001,-2.58464566929134,0.));
#689=CARTESIAN_POINT('',(-0.33267716535433,-2.58464566929134,0.));
#690=CARTESIAN_POINT('Origin',(-0.374999999999999,-2.58464566929134,0.));
#691=CARTESIAN_POINT('Origin',(-0.374999999999999,-2.58464566929134,0.));
#692=CARTESIAN_POINT('',(-0.33267716535433,-2.58464566929134,0.175));
#693=CARTESIAN_POINT('',(-0.33267716535433,-2.58464566929134,0.));
#694=CARTESIAN_POINT('Origin',(-0.374999999999999,-2.58464566929134,0.175));
#695=CARTESIAN_POINT('Origin',(-0.374999999999999,-2.58464566929134,0.175));
#696=CARTESIAN_POINT('Origin',(0.375000000000001,-2.58464566929134,0.));
#697=CARTESIAN_POINT('',(0.41732283464567,-2.58464566929134,0.175));
#698=CARTESIAN_POINT('',(0.41732283464567,-2.58464566929134,0.));
#699=CARTESIAN_POINT('Origin',(0.375000000000001,-2.58464566929134,0.175));
#700=CARTESIAN_POINT('Origin',(0.375000000000001,-2.58464566929134,0.175));
#701=CARTESIAN_POINT('Origin',(-0.749999999999999,-2.58464566929134,0.2));
#702=CARTESIAN_POINT('',(-0.949999999999999,-2.58464566929134,0.2));
#703=CARTESIAN_POINT('Origin',(-0.749999999999999,-2.58464566929134,0.2));
#704=CARTESIAN_POINT('',(-0.874999999999999,-2.58464566929134,0.2));
#705=CARTESIAN_POINT('Origin',(-0.749999999999999,-2.58464566929134,0.2));
#706=CARTESIAN_POINT('Origin',(-0.749999999999999,-2.58464566929134,0.35));
#707=CARTESIAN_POINT('',(-0.949999999999999,-2.58464566929134,0.35));
#708=CARTESIAN_POINT('Origin',(-0.749999999999999,-2.58464566929134,-5.53248408880857));
#709=CARTESIAN_POINT('',(-0.874999999999999,-2.58464566929134,-5.53248408880857));
#710=CARTESIAN_POINT('Origin',(0.750000000000001,-2.58464566929134,0.2));
#711=CARTESIAN_POINT('',(0.550000000000001,-2.58464566929134,0.2));
#712=CARTESIAN_POINT('Origin',(0.750000000000001,-2.58464566929134,0.2));
#713=CARTESIAN_POINT('',(0.625000000000001,-2.58464566929134,0.2));
#714=CARTESIAN_POINT('Origin',(0.750000000000001,-2.58464566929134,0.2));
#715=CARTESIAN_POINT('Origin',(0.750000000000001,-2.58464566929134,0.35));
#716=CARTESIAN_POINT('',(0.550000000000001,-2.58464566929134,0.35));
#717=CARTESIAN_POINT('Origin',(0.750000000000001,-2.58464566929134,-5.53248408880857));
#718=CARTESIAN_POINT('',(0.625000000000001,-2.58464566929134,-5.53248408880857));
#719=CARTESIAN_POINT('Origin',(6.99353086378051E-16,-2.58464566929134,0.2));
#720=CARTESIAN_POINT('',(-0.199999999999999,-2.58464566929134,0.2));
#721=CARTESIAN_POINT('Origin',(6.99353086378051E-16,-2.58464566929134,0.2));
#722=CARTESIAN_POINT('',(-0.124999999999999,-2.58464566929134,0.2));
#723=CARTESIAN_POINT('Origin',(6.99353086378051E-16,-2.58464566929134,0.2));
#724=CARTESIAN_POINT('Origin',(6.99353086378051E-16,-2.58464566929134,0.35));
#725=CARTESIAN_POINT('',(-0.199999999999999,-2.58464566929134,0.35));
#726=CARTESIAN_POINT('Origin',(6.99353086378051E-16,-2.58464566929134,-5.53248408880857));
#727=CARTESIAN_POINT('',(-0.124999999999999,-2.58464566929134,-5.53248408880857));
#728=CARTESIAN_POINT('Origin',(-0.999999999999999,-2.83464566929134,0.));
#729=CARTESIAN_POINT('',(-0.999999999999999,-2.83464566929134,0.));
#730=CARTESIAN_POINT('Origin',(-1.,2.83464566929134,0.));
#731=UNCERTAINTY_MEASURE_WITH_UNIT(LENGTH_MEASURE(0.000393700787401575),
#737,'DISTANCE_ACCURACY_VALUE',
'Maximum model space distance between geometric entities at asserted c
onnectivities');
#732=UNCERTAINTY_MEASURE_WITH_UNIT(LENGTH_MEASURE(0.000393700787401575),
#737,'DISTANCE_ACCURACY_VALUE',
'Maximum model space distance between geometric entities at asserted c
onnectivities');
#733=(
GEOMETRIC_REPRESENTATION_CONTEXT(3)
GLOBAL_UNCERTAINTY_ASSIGNED_CONTEXT((#731))
GLOBAL_UNIT_ASSIGNED_CONTEXT((#737,#741,#742))
REPRESENTATION_CONTEXT('','3D')
);
#734=(
GEOMETRIC_REPRESENTATION_CONTEXT(3)
GLOBAL_UNCERTAINTY_ASSIGNED_CONTEXT((#732))
GLOBAL_UNIT_ASSIGNED_CONTEXT((#737,#741,#742))
REPRESENTATION_CONTEXT('','3D')
);
#735=DIMENSIONAL_EXPONENTS(1.,0.,0.,0.,0.,0.,0.);
#736=DIMENSIONAL_EXPONENTS(0.,1.,0.,0.,0.,0.,0.);
#737=(
CONVERSION_BASED_UNIT('inch',#740)
LENGTH_UNIT()
NAMED_UNIT(#735)
);
#738=(
LENGTH_UNIT()
NAMED_UNIT(*)
SI_UNIT(.MILLI.,.METRE.)
);
#739=(
LENGTH_UNIT()
NAMED_UNIT(*)
SI_UNIT(.CENTI.,.METRE.)
);
#740=LENGTH_MEASURE_WITH_UNIT(LENGTH_MEASURE(25.4),#738);
#741=(
NAMED_UNIT(*)
PLANE_ANGLE_UNIT()
SI_UNIT($,.RADIAN.)
);
#742=(
NAMED_UNIT(*)
SI_UNIT($,.STERADIAN.)
SOLID_ANGLE_UNIT()
);
#743=SHAPE_DEFINITION_REPRESENTATION(#744,#745);
#744=PRODUCT_DEFINITION_SHAPE('',$,#747);
#745=SHAPE_REPRESENTATION('',(#443),#733);
#746=PRODUCT_DEFINITION_CONTEXT('part definition',#751,'design');
#747=PRODUCT_DEFINITION('Side plate for Inclined Mirror',
'Side plate for Inclined Mirror D shaped V2',#748,#746);
#748=PRODUCT_DEFINITION_FORMATION('',$,#753);
#749=PRODUCT_RELATED_PRODUCT_CATEGORY(
'Side plate for Inclined Mirror D shaped V2',
'Side plate for Inclined Mirror D shaped V2',(#753));
#750=APPLICATION_PROTOCOL_DEFINITION('international standard',
'automotive_design',2009,#751);
#751=APPLICATION_CONTEXT(
'Core Data for Automotive Mechanical Design Process');
#752=PRODUCT_CONTEXT('part definition',#751,'mechanical');
#753=PRODUCT('Side plate for Inclined Mirror',
'Side plate for Inclined Mirror D shaped V2',$,(#752));
#754=PRESENTATION_STYLE_ASSIGNMENT((#755));
#755=SURFACE_STYLE_USAGE(.BOTH.,#758);
#756=SURFACE_STYLE_RENDERING_WITH_PROPERTIES($,#762,(#757));
#757=SURFACE_STYLE_TRANSPARENT(0.);
#758=SURFACE_SIDE_STYLE('',(#759,#756));
#759=SURFACE_STYLE_FILL_AREA(#760);
#760=FILL_AREA_STYLE('',(#761));
#761=FILL_AREA_STYLE_COLOUR('',#762);
#762=COLOUR_RGB('',0.749019607843137,0.749019607843137,0.749019607843137);
ENDSEC;
END-ISO-10303-21;
