ISO-10303-21;
HEADER;
/* Generated by software containing ST-Developer
 * from STEP Tools, Inc. (www.steptools.com) 
 */

FILE_DESCRIPTION(
/* description */ (''),
/* implementation_level */ '2;1');

FILE_NAME(
/* name */ 'Baseplate as 1 V3.stp',
/* time_stamp */ '2026-05-13T09:51:51-05:00',
/* author */ ('FiolkaLab'),
/* organization */ (''),
/* preprocessor_version */ 'ST-DEVELOPER v20.1',
/* originating_system */ 'Autodesk Inventor 2026',
/* authorisation */ '');

FILE_SCHEMA (('AUTOMOTIVE_DESIGN { 1 0 10303 214 3 1 1 }'));
ENDSEC;

DATA;
#10=MECHANICAL_DESIGN_GEOMETRIC_PRESENTATION_REPRESENTATION('',(#13),#2162);
#11=SHAPE_REPRESENTATION_RELATIONSHIP('SRR','None',#2173,#12);
#12=ADVANCED_BREP_SHAPE_REPRESENTATION('',(#14),#2161);
#13=STYLED_ITEM('',(#2182),#14);
#14=MANIFOLD_SOLID_BREP('Solid1',#1254);
#15=CYLINDRICAL_SURFACE('',#1283,0.098);
#16=CYLINDRICAL_SURFACE('',#1285,0.098);
#17=CYLINDRICAL_SURFACE('',#1293,0.2);
#18=CYLINDRICAL_SURFACE('',#1295,0.125);
#19=CYLINDRICAL_SURFACE('',#1300,0.2);
#20=CYLINDRICAL_SURFACE('',#1302,0.125);
#21=CYLINDRICAL_SURFACE('',#1307,0.2);
#22=CYLINDRICAL_SURFACE('',#1309,0.125);
#23=CYLINDRICAL_SURFACE('',#1314,0.2);
#24=CYLINDRICAL_SURFACE('',#1316,0.125);
#25=CYLINDRICAL_SURFACE('',#1321,0.2);
#26=CYLINDRICAL_SURFACE('',#1323,0.125);
#27=CYLINDRICAL_SURFACE('',#1328,0.2);
#28=CYLINDRICAL_SURFACE('',#1330,0.125);
#29=CYLINDRICAL_SURFACE('',#1335,0.2);
#30=CYLINDRICAL_SURFACE('',#1337,0.125);
#31=CYLINDRICAL_SURFACE('',#1342,0.2);
#32=CYLINDRICAL_SURFACE('',#1344,0.125);
#33=CYLINDRICAL_SURFACE('',#1349,0.2);
#34=CYLINDRICAL_SURFACE('',#1351,0.125);
#35=CYLINDRICAL_SURFACE('',#1356,0.2);
#36=CYLINDRICAL_SURFACE('',#1358,0.125);
#37=CYLINDRICAL_SURFACE('',#1363,0.2);
#38=CYLINDRICAL_SURFACE('',#1365,0.125);
#39=CYLINDRICAL_SURFACE('',#1370,0.2);
#40=CYLINDRICAL_SURFACE('',#1372,0.125);
#41=CYLINDRICAL_SURFACE('',#1377,0.2);
#42=CYLINDRICAL_SURFACE('',#1379,0.125);
#43=CYLINDRICAL_SURFACE('',#1384,0.2);
#44=CYLINDRICAL_SURFACE('',#1386,0.125);
#45=CYLINDRICAL_SURFACE('',#1391,0.2);
#46=CYLINDRICAL_SURFACE('',#1393,0.125);
#47=CYLINDRICAL_SURFACE('',#1398,0.2);
#48=CYLINDRICAL_SURFACE('',#1400,0.125);
#49=CYLINDRICAL_SURFACE('',#1405,0.2);
#50=CYLINDRICAL_SURFACE('',#1407,0.125);
#51=CYLINDRICAL_SURFACE('',#1412,0.2);
#52=CYLINDRICAL_SURFACE('',#1414,0.125);
#53=CYLINDRICAL_SURFACE('',#1419,0.2);
#54=CYLINDRICAL_SURFACE('',#1421,0.125);
#55=FACE_BOUND('',#272,.T.);
#56=FACE_BOUND('',#273,.T.);
#57=FACE_BOUND('',#281,.T.);
#58=FACE_BOUND('',#282,.T.);
#59=FACE_BOUND('',#285,.T.);
#60=FACE_BOUND('',#289,.T.);
#61=FACE_BOUND('',#293,.T.);
#62=FACE_BOUND('',#297,.T.);
#63=FACE_BOUND('',#301,.T.);
#64=FACE_BOUND('',#305,.T.);
#65=FACE_BOUND('',#309,.T.);
#66=FACE_BOUND('',#313,.T.);
#67=FACE_BOUND('',#317,.T.);
#68=FACE_BOUND('',#321,.T.);
#69=FACE_BOUND('',#325,.T.);
#70=FACE_BOUND('',#329,.T.);
#71=FACE_BOUND('',#333,.T.);
#72=FACE_BOUND('',#337,.T.);
#73=FACE_BOUND('',#341,.T.);
#74=FACE_BOUND('',#345,.T.);
#75=FACE_BOUND('',#349,.T.);
#76=FACE_BOUND('',#353,.T.);
#77=FACE_BOUND('',#357,.T.);
#78=FACE_BOUND('',#362,.T.);
#79=FACE_BOUND('',#363,.T.);
#80=FACE_BOUND('',#364,.T.);
#81=FACE_BOUND('',#365,.T.);
#82=FACE_BOUND('',#366,.T.);
#83=FACE_BOUND('',#367,.T.);
#84=FACE_BOUND('',#368,.T.);
#85=FACE_BOUND('',#369,.T.);
#86=FACE_BOUND('',#370,.T.);
#87=FACE_BOUND('',#371,.T.);
#88=FACE_BOUND('',#372,.T.);
#89=FACE_BOUND('',#374,.T.);
#90=FACE_BOUND('',#375,.T.);
#91=FACE_BOUND('',#376,.T.);
#92=FACE_BOUND('',#377,.T.);
#93=FACE_BOUND('',#378,.T.);
#94=FACE_BOUND('',#379,.T.);
#95=FACE_BOUND('',#380,.T.);
#96=FACE_BOUND('',#381,.T.);
#97=FACE_BOUND('',#386,.T.);
#98=FACE_BOUND('',#387,.T.);
#99=FACE_BOUND('',#388,.T.);
#100=FACE_BOUND('',#389,.T.);
#101=FACE_BOUND('',#390,.T.);
#102=FACE_BOUND('',#391,.T.);
#103=FACE_BOUND('',#392,.T.);
#104=FACE_BOUND('',#393,.T.);
#105=FACE_BOUND('',#394,.T.);
#106=FACE_BOUND('',#395,.T.);
#107=FACE_BOUND('',#396,.T.);
#108=FACE_BOUND('',#397,.T.);
#109=FACE_BOUND('',#398,.T.);
#110=FACE_BOUND('',#399,.T.);
#111=FACE_BOUND('',#400,.T.);
#112=FACE_BOUND('',#401,.T.);
#113=FACE_BOUND('',#402,.T.);
#114=FACE_BOUND('',#403,.T.);
#115=FACE_BOUND('',#404,.T.);
#116=CIRCLE('',#1278,0.098);
#117=CIRCLE('',#1279,0.098);
#118=CIRCLE('',#1284,0.098);
#119=CIRCLE('',#1286,0.098);
#120=CIRCLE('',#1291,0.2);
#121=CIRCLE('',#1292,0.125);
#122=CIRCLE('',#1294,0.2);
#123=CIRCLE('',#1296,0.125);
#124=CIRCLE('',#1298,0.2);
#125=CIRCLE('',#1299,0.125);
#126=CIRCLE('',#1301,0.2);
#127=CIRCLE('',#1303,0.125);
#128=CIRCLE('',#1305,0.2);
#129=CIRCLE('',#1306,0.125);
#130=CIRCLE('',#1308,0.2);
#131=CIRCLE('',#1310,0.125);
#132=CIRCLE('',#1312,0.2);
#133=CIRCLE('',#1313,0.125);
#134=CIRCLE('',#1315,0.2);
#135=CIRCLE('',#1317,0.125);
#136=CIRCLE('',#1319,0.2);
#137=CIRCLE('',#1320,0.125);
#138=CIRCLE('',#1322,0.2);
#139=CIRCLE('',#1324,0.125);
#140=CIRCLE('',#1326,0.2);
#141=CIRCLE('',#1327,0.125);
#142=CIRCLE('',#1329,0.2);
#143=CIRCLE('',#1331,0.125);
#144=CIRCLE('',#1333,0.2);
#145=CIRCLE('',#1334,0.125);
#146=CIRCLE('',#1336,0.2);
#147=CIRCLE('',#1338,0.125);
#148=CIRCLE('',#1340,0.2);
#149=CIRCLE('',#1341,0.125);
#150=CIRCLE('',#1343,0.2);
#151=CIRCLE('',#1345,0.125);
#152=CIRCLE('',#1347,0.2);
#153=CIRCLE('',#1348,0.125);
#154=CIRCLE('',#1350,0.2);
#155=CIRCLE('',#1352,0.125);
#156=CIRCLE('',#1354,0.2);
#157=CIRCLE('',#1355,0.125);
#158=CIRCLE('',#1357,0.2);
#159=CIRCLE('',#1359,0.125);
#160=CIRCLE('',#1361,0.2);
#161=CIRCLE('',#1362,0.125);
#162=CIRCLE('',#1364,0.2);
#163=CIRCLE('',#1366,0.125);
#164=CIRCLE('',#1368,0.2);
#165=CIRCLE('',#1369,0.125);
#166=CIRCLE('',#1371,0.2);
#167=CIRCLE('',#1373,0.125);
#168=CIRCLE('',#1375,0.2);
#169=CIRCLE('',#1376,0.125);
#170=CIRCLE('',#1378,0.2);
#171=CIRCLE('',#1380,0.125);
#172=CIRCLE('',#1382,0.2);
#173=CIRCLE('',#1383,0.125);
#174=CIRCLE('',#1385,0.2);
#175=CIRCLE('',#1387,0.125);
#176=CIRCLE('',#1389,0.2);
#177=CIRCLE('',#1390,0.125);
#178=CIRCLE('',#1392,0.2);
#179=CIRCLE('',#1394,0.125);
#180=CIRCLE('',#1396,0.2);
#181=CIRCLE('',#1397,0.125);
#182=CIRCLE('',#1399,0.2);
#183=CIRCLE('',#1401,0.125);
#184=CIRCLE('',#1403,0.2);
#185=CIRCLE('',#1404,0.125);
#186=CIRCLE('',#1406,0.2);
#187=CIRCLE('',#1408,0.125);
#188=CIRCLE('',#1410,0.2);
#189=CIRCLE('',#1411,0.125);
#190=CIRCLE('',#1413,0.2);
#191=CIRCLE('',#1415,0.125);
#192=CIRCLE('',#1417,0.2);
#193=CIRCLE('',#1418,0.125);
#194=CIRCLE('',#1420,0.2);
#195=CIRCLE('',#1422,0.125);
#196=FACE_OUTER_BOUND('',#270,.T.);
#197=FACE_OUTER_BOUND('',#271,.T.);
#198=FACE_OUTER_BOUND('',#274,.T.);
#199=FACE_OUTER_BOUND('',#275,.T.);
#200=FACE_OUTER_BOUND('',#276,.T.);
#201=FACE_OUTER_BOUND('',#277,.T.);
#202=FACE_OUTER_BOUND('',#278,.T.);
#203=FACE_OUTER_BOUND('',#279,.T.);
#204=FACE_OUTER_BOUND('',#280,.T.);
#205=FACE_OUTER_BOUND('',#283,.T.);
#206=FACE_OUTER_BOUND('',#284,.T.);
#207=FACE_OUTER_BOUND('',#286,.T.);
#208=FACE_OUTER_BOUND('',#287,.T.);
#209=FACE_OUTER_BOUND('',#288,.T.);
#210=FACE_OUTER_BOUND('',#290,.T.);
#211=FACE_OUTER_BOUND('',#291,.T.);
#212=FACE_OUTER_BOUND('',#292,.T.);
#213=FACE_OUTER_BOUND('',#294,.T.);
#214=FACE_OUTER_BOUND('',#295,.T.);
#215=FACE_OUTER_BOUND('',#296,.T.);
#216=FACE_OUTER_BOUND('',#298,.T.);
#217=FACE_OUTER_BOUND('',#299,.T.);
#218=FACE_OUTER_BOUND('',#300,.T.);
#219=FACE_OUTER_BOUND('',#302,.T.);
#220=FACE_OUTER_BOUND('',#303,.T.);
#221=FACE_OUTER_BOUND('',#304,.T.);
#222=FACE_OUTER_BOUND('',#306,.T.);
#223=FACE_OUTER_BOUND('',#307,.T.);
#224=FACE_OUTER_BOUND('',#308,.T.);
#225=FACE_OUTER_BOUND('',#310,.T.);
#226=FACE_OUTER_BOUND('',#311,.T.);
#227=FACE_OUTER_BOUND('',#312,.T.);
#228=FACE_OUTER_BOUND('',#314,.T.);
#229=FACE_OUTER_BOUND('',#315,.T.);
#230=FACE_OUTER_BOUND('',#316,.T.);
#231=FACE_OUTER_BOUND('',#318,.T.);
#232=FACE_OUTER_BOUND('',#319,.T.);
#233=FACE_OUTER_BOUND('',#320,.T.);
#234=FACE_OUTER_BOUND('',#322,.T.);
#235=FACE_OUTER_BOUND('',#323,.T.);
#236=FACE_OUTER_BOUND('',#324,.T.);
#237=FACE_OUTER_BOUND('',#326,.T.);
#238=FACE_OUTER_BOUND('',#327,.T.);
#239=FACE_OUTER_BOUND('',#328,.T.);
#240=FACE_OUTER_BOUND('',#330,.T.);
#241=FACE_OUTER_BOUND('',#331,.T.);
#242=FACE_OUTER_BOUND('',#332,.T.);
#243=FACE_OUTER_BOUND('',#334,.T.);
#244=FACE_OUTER_BOUND('',#335,.T.);
#245=FACE_OUTER_BOUND('',#336,.T.);
#246=FACE_OUTER_BOUND('',#338,.T.);
#247=FACE_OUTER_BOUND('',#339,.T.);
#248=FACE_OUTER_BOUND('',#340,.T.);
#249=FACE_OUTER_BOUND('',#342,.T.);
#250=FACE_OUTER_BOUND('',#343,.T.);
#251=FACE_OUTER_BOUND('',#344,.T.);
#252=FACE_OUTER_BOUND('',#346,.T.);
#253=FACE_OUTER_BOUND('',#347,.T.);
#254=FACE_OUTER_BOUND('',#348,.T.);
#255=FACE_OUTER_BOUND('',#350,.T.);
#256=FACE_OUTER_BOUND('',#351,.T.);
#257=FACE_OUTER_BOUND('',#352,.T.);
#258=FACE_OUTER_BOUND('',#354,.T.);
#259=FACE_OUTER_BOUND('',#355,.T.);
#260=FACE_OUTER_BOUND('',#356,.T.);
#261=FACE_OUTER_BOUND('',#358,.T.);
#262=FACE_OUTER_BOUND('',#359,.T.);
#263=FACE_OUTER_BOUND('',#360,.T.);
#264=FACE_OUTER_BOUND('',#361,.T.);
#265=FACE_OUTER_BOUND('',#373,.T.);
#266=FACE_OUTER_BOUND('',#382,.T.);
#267=FACE_OUTER_BOUND('',#383,.T.);
#268=FACE_OUTER_BOUND('',#384,.T.);
#269=FACE_OUTER_BOUND('',#385,.T.);
#270=EDGE_LOOP('',(#828,#829,#830,#831));
#271=EDGE_LOOP('',(#832,#833,#834,#835));
#272=EDGE_LOOP('',(#836));
#273=EDGE_LOOP('',(#837));
#274=EDGE_LOOP('',(#838,#839,#840,#841));
#275=EDGE_LOOP('',(#842,#843,#844,#845));
#276=EDGE_LOOP('',(#846,#847,#848,#849,#850,#851,#852,#853));
#277=EDGE_LOOP('',(#854,#855,#856,#857));
#278=EDGE_LOOP('',(#858,#859,#860,#861));
#279=EDGE_LOOP('',(#862,#863,#864,#865));
#280=EDGE_LOOP('',(#866,#867,#868,#869));
#281=EDGE_LOOP('',(#870));
#282=EDGE_LOOP('',(#871));
#283=EDGE_LOOP('',(#872,#873,#874,#875,#876,#877,#878,#879,#880,#881));
#284=EDGE_LOOP('',(#882));
#285=EDGE_LOOP('',(#883));
#286=EDGE_LOOP('',(#884,#885,#886,#887));
#287=EDGE_LOOP('',(#888,#889,#890,#891));
#288=EDGE_LOOP('',(#892));
#289=EDGE_LOOP('',(#893));
#290=EDGE_LOOP('',(#894,#895,#896,#897));
#291=EDGE_LOOP('',(#898,#899,#900,#901));
#292=EDGE_LOOP('',(#902));
#293=EDGE_LOOP('',(#903));
#294=EDGE_LOOP('',(#904,#905,#906,#907));
#295=EDGE_LOOP('',(#908,#909,#910,#911));
#296=EDGE_LOOP('',(#912));
#297=EDGE_LOOP('',(#913));
#298=EDGE_LOOP('',(#914,#915,#916,#917));
#299=EDGE_LOOP('',(#918,#919,#920,#921));
#300=EDGE_LOOP('',(#922));
#301=EDGE_LOOP('',(#923));
#302=EDGE_LOOP('',(#924,#925,#926,#927));
#303=EDGE_LOOP('',(#928,#929,#930,#931));
#304=EDGE_LOOP('',(#932));
#305=EDGE_LOOP('',(#933));
#306=EDGE_LOOP('',(#934,#935,#936,#937));
#307=EDGE_LOOP('',(#938,#939,#940,#941));
#308=EDGE_LOOP('',(#942));
#309=EDGE_LOOP('',(#943));
#310=EDGE_LOOP('',(#944,#945,#946,#947));
#311=EDGE_LOOP('',(#948,#949,#950,#951));
#312=EDGE_LOOP('',(#952));
#313=EDGE_LOOP('',(#953));
#314=EDGE_LOOP('',(#954,#955,#956,#957));
#315=EDGE_LOOP('',(#958,#959,#960,#961));
#316=EDGE_LOOP('',(#962));
#317=EDGE_LOOP('',(#963));
#318=EDGE_LOOP('',(#964,#965,#966,#967));
#319=EDGE_LOOP('',(#968,#969,#970,#971));
#320=EDGE_LOOP('',(#972));
#321=EDGE_LOOP('',(#973));
#322=EDGE_LOOP('',(#974,#975,#976,#977));
#323=EDGE_LOOP('',(#978,#979,#980,#981));
#324=EDGE_LOOP('',(#982));
#325=EDGE_LOOP('',(#983));
#326=EDGE_LOOP('',(#984,#985,#986,#987));
#327=EDGE_LOOP('',(#988,#989,#990,#991));
#328=EDGE_LOOP('',(#992));
#329=EDGE_LOOP('',(#993));
#330=EDGE_LOOP('',(#994,#995,#996,#997));
#331=EDGE_LOOP('',(#998,#999,#1000,#1001));
#332=EDGE_LOOP('',(#1002));
#333=EDGE_LOOP('',(#1003));
#334=EDGE_LOOP('',(#1004,#1005,#1006,#1007));
#335=EDGE_LOOP('',(#1008,#1009,#1010,#1011));
#336=EDGE_LOOP('',(#1012));
#337=EDGE_LOOP('',(#1013));
#338=EDGE_LOOP('',(#1014,#1015,#1016,#1017));
#339=EDGE_LOOP('',(#1018,#1019,#1020,#1021));
#340=EDGE_LOOP('',(#1022));
#341=EDGE_LOOP('',(#1023));
#342=EDGE_LOOP('',(#1024,#1025,#1026,#1027));
#343=EDGE_LOOP('',(#1028,#1029,#1030,#1031));
#344=EDGE_LOOP('',(#1032));
#345=EDGE_LOOP('',(#1033));
#346=EDGE_LOOP('',(#1034,#1035,#1036,#1037));
#347=EDGE_LOOP('',(#1038,#1039,#1040,#1041));
#348=EDGE_LOOP('',(#1042));
#349=EDGE_LOOP('',(#1043));
#350=EDGE_LOOP('',(#1044,#1045,#1046,#1047));
#351=EDGE_LOOP('',(#1048,#1049,#1050,#1051));
#352=EDGE_LOOP('',(#1052));
#353=EDGE_LOOP('',(#1053));
#354=EDGE_LOOP('',(#1054,#1055,#1056,#1057));
#355=EDGE_LOOP('',(#1058,#1059,#1060,#1061));
#356=EDGE_LOOP('',(#1062));
#357=EDGE_LOOP('',(#1063));
#358=EDGE_LOOP('',(#1064,#1065,#1066,#1067));
#359=EDGE_LOOP('',(#1068,#1069,#1070,#1071));
#360=EDGE_LOOP('',(#1072,#1073,#1074,#1075));
#361=EDGE_LOOP('',(#1076,#1077,#1078,#1079));
#362=EDGE_LOOP('',(#1080));
#363=EDGE_LOOP('',(#1081));
#364=EDGE_LOOP('',(#1082));
#365=EDGE_LOOP('',(#1083));
#366=EDGE_LOOP('',(#1084));
#367=EDGE_LOOP('',(#1085));
#368=EDGE_LOOP('',(#1086));
#369=EDGE_LOOP('',(#1087));
#370=EDGE_LOOP('',(#1088));
#371=EDGE_LOOP('',(#1089));
#372=EDGE_LOOP('',(#1090));
#373=EDGE_LOOP('',(#1091,#1092,#1093,#1094));
#374=EDGE_LOOP('',(#1095));
#375=EDGE_LOOP('',(#1096));
#376=EDGE_LOOP('',(#1097));
#377=EDGE_LOOP('',(#1098));
#378=EDGE_LOOP('',(#1099));
#379=EDGE_LOOP('',(#1100));
#380=EDGE_LOOP('',(#1101));
#381=EDGE_LOOP('',(#1102));
#382=EDGE_LOOP('',(#1103,#1104,#1105,#1106));
#383=EDGE_LOOP('',(#1107,#1108,#1109,#1110,#1111,#1112,#1113,#1114));
#384=EDGE_LOOP('',(#1115,#1116,#1117,#1118,#1119,#1120));
#385=EDGE_LOOP('',(#1121,#1122,#1123,#1124,#1125,#1126));
#386=EDGE_LOOP('',(#1127));
#387=EDGE_LOOP('',(#1128));
#388=EDGE_LOOP('',(#1129));
#389=EDGE_LOOP('',(#1130));
#390=EDGE_LOOP('',(#1131));
#391=EDGE_LOOP('',(#1132));
#392=EDGE_LOOP('',(#1133));
#393=EDGE_LOOP('',(#1134));
#394=EDGE_LOOP('',(#1135));
#395=EDGE_LOOP('',(#1136));
#396=EDGE_LOOP('',(#1137));
#397=EDGE_LOOP('',(#1138));
#398=EDGE_LOOP('',(#1139));
#399=EDGE_LOOP('',(#1140));
#400=EDGE_LOOP('',(#1141));
#401=EDGE_LOOP('',(#1142));
#402=EDGE_LOOP('',(#1143));
#403=EDGE_LOOP('',(#1144));
#404=EDGE_LOOP('',(#1145));
#405=LINE('',#1823,#484);
#406=LINE('',#1825,#485);
#407=LINE('',#1827,#486);
#408=LINE('',#1828,#487);
#409=LINE('',#1831,#488);
#410=LINE('',#1833,#489);
#411=LINE('',#1834,#490);
#412=LINE('',#1841,#491);
#413=LINE('',#1842,#492);
#414=LINE('',#1845,#493);
#415=LINE('',#1846,#494);
#416=LINE('',#1849,#495);
#417=LINE('',#1851,#496);
#418=LINE('',#1853,#497);
#419=LINE('',#1855,#498);
#420=LINE('',#1856,#499);
#421=LINE('',#1859,#500);
#422=LINE('',#1863,#501);
#423=LINE('',#1867,#502);
#424=LINE('',#1869,#503);
#425=LINE('',#1870,#504);
#426=LINE('',#1873,#505);
#427=LINE('',#1874,#506);
#428=LINE('',#1877,#507);
#429=LINE('',#1879,#508);
#430=LINE('',#1881,#509);
#431=LINE('',#1882,#510);
#432=LINE('',#1891,#511);
#433=LINE('',#1894,#512);
#434=LINE('',#1904,#513);
#435=LINE('',#1907,#514);
#436=LINE('',#1917,#515);
#437=LINE('',#1920,#516);
#438=LINE('',#1930,#517);
#439=LINE('',#1933,#518);
#440=LINE('',#1943,#519);
#441=LINE('',#1946,#520);
#442=LINE('',#1956,#521);
#443=LINE('',#1959,#522);
#444=LINE('',#1969,#523);
#445=LINE('',#1972,#524);
#446=LINE('',#1982,#525);
#447=LINE('',#1985,#526);
#448=LINE('',#1995,#527);
#449=LINE('',#1998,#528);
#450=LINE('',#2008,#529);
#451=LINE('',#2011,#530);
#452=LINE('',#2021,#531);
#453=LINE('',#2024,#532);
#454=LINE('',#2034,#533);
#455=LINE('',#2037,#534);
#456=LINE('',#2047,#535);
#457=LINE('',#2050,#536);
#458=LINE('',#2060,#537);
#459=LINE('',#2063,#538);
#460=LINE('',#2073,#539);
#461=LINE('',#2076,#540);
#462=LINE('',#2086,#541);
#463=LINE('',#2089,#542);
#464=LINE('',#2099,#543);
#465=LINE('',#2102,#544);
#466=LINE('',#2112,#545);
#467=LINE('',#2115,#546);
#468=LINE('',#2125,#547);
#469=LINE('',#2128,#548);
#470=LINE('',#2133,#549);
#471=LINE('',#2135,#550);
#472=LINE('',#2137,#551);
#473=LINE('',#2138,#552);
#474=LINE('',#2140,#553);
#475=LINE('',#2141,#554);
#476=LINE('',#2144,#555);
#477=LINE('',#2146,#556);
#478=LINE('',#2147,#557);
#479=LINE('',#2151,#558);
#480=LINE('',#2152,#559);
#481=LINE('',#2153,#560);
#482=LINE('',#2155,#561);
#483=LINE('',#2157,#562);
#484=VECTOR('',#1434,0.393700787401575);
#485=VECTOR('',#1435,0.393700787401575);
#486=VECTOR('',#1436,0.393700787401575);
#487=VECTOR('',#1437,0.393700787401575);
#488=VECTOR('',#1440,0.393700787401575);
#489=VECTOR('',#1441,0.393700787401575);
#490=VECTOR('',#1442,0.393700787401575);
#491=VECTOR('',#1449,0.393700787401575);
#492=VECTOR('',#1450,0.393700787401575);
#493=VECTOR('',#1453,0.393700787401575);
#494=VECTOR('',#1454,0.393700787401575);
#495=VECTOR('',#1457,0.393700787401575);
#496=VECTOR('',#1458,0.393700787401575);
#497=VECTOR('',#1459,0.393700787401575);
#498=VECTOR('',#1460,0.393700787401575);
#499=VECTOR('',#1461,0.393700787401575);
#500=VECTOR('',#1464,0.098);
#501=VECTOR('',#1469,0.098);
#502=VECTOR('',#1474,0.393700787401575);
#503=VECTOR('',#1475,0.393700787401575);
#504=VECTOR('',#1476,0.393700787401575);
#505=VECTOR('',#1479,0.393700787401575);
#506=VECTOR('',#1480,0.393700787401575);
#507=VECTOR('',#1483,0.393700787401575);
#508=VECTOR('',#1484,0.393700787401575);
#509=VECTOR('',#1485,0.393700787401575);
#510=VECTOR('',#1486,0.393700787401575);
#511=VECTOR('',#1497,0.2);
#512=VECTOR('',#1500,0.125);
#513=VECTOR('',#1513,0.2);
#514=VECTOR('',#1516,0.125);
#515=VECTOR('',#1529,0.2);
#516=VECTOR('',#1532,0.125);
#517=VECTOR('',#1545,0.2);
#518=VECTOR('',#1548,0.125);
#519=VECTOR('',#1561,0.2);
#520=VECTOR('',#1564,0.125);
#521=VECTOR('',#1577,0.2);
#522=VECTOR('',#1580,0.125);
#523=VECTOR('',#1593,0.2);
#524=VECTOR('',#1596,0.125);
#525=VECTOR('',#1609,0.2);
#526=VECTOR('',#1612,0.125);
#527=VECTOR('',#1625,0.2);
#528=VECTOR('',#1628,0.125);
#529=VECTOR('',#1641,0.2);
#530=VECTOR('',#1644,0.125);
#531=VECTOR('',#1657,0.2);
#532=VECTOR('',#1660,0.125);
#533=VECTOR('',#1673,0.2);
#534=VECTOR('',#1676,0.125);
#535=VECTOR('',#1689,0.2);
#536=VECTOR('',#1692,0.125);
#537=VECTOR('',#1705,0.2);
#538=VECTOR('',#1708,0.125);
#539=VECTOR('',#1721,0.2);
#540=VECTOR('',#1724,0.125);
#541=VECTOR('',#1737,0.2);
#542=VECTOR('',#1740,0.125);
#543=VECTOR('',#1753,0.2);
#544=VECTOR('',#1756,0.125);
#545=VECTOR('',#1769,0.2);
#546=VECTOR('',#1772,0.125);
#547=VECTOR('',#1785,0.2);
#548=VECTOR('',#1788,0.125);
#549=VECTOR('',#1793,0.393700787401575);
#550=VECTOR('',#1794,0.393700787401575);
#551=VECTOR('',#1795,0.393700787401575);
#552=VECTOR('',#1796,0.393700787401575);
#553=VECTOR('',#1799,0.393700787401575);
#554=VECTOR('',#1800,0.393700787401575);
#555=VECTOR('',#1803,0.393700787401575);
#556=VECTOR('',#1804,0.393700787401575);
#557=VECTOR('',#1805,0.393700787401575);
#558=VECTOR('',#1808,0.393700787401575);
#559=VECTOR('',#1809,0.393700787401575);
#560=VECTOR('',#1810,0.393700787401575);
#561=VECTOR('',#1813,0.393700787401575);
#562=VECTOR('',#1816,0.393700787401575);
#563=VERTEX_POINT('',#1821);
#564=VERTEX_POINT('',#1822);
#565=VERTEX_POINT('',#1824);
#566=VERTEX_POINT('',#1826);
#567=VERTEX_POINT('',#1830);
#568=VERTEX_POINT('',#1832);
#569=VERTEX_POINT('',#1835);
#570=VERTEX_POINT('',#1837);
#571=VERTEX_POINT('',#1840);
#572=VERTEX_POINT('',#1844);
#573=VERTEX_POINT('',#1848);
#574=VERTEX_POINT('',#1850);
#575=VERTEX_POINT('',#1852);
#576=VERTEX_POINT('',#1854);
#577=VERTEX_POINT('',#1858);
#578=VERTEX_POINT('',#1862);
#579=VERTEX_POINT('',#1866);
#580=VERTEX_POINT('',#1868);
#581=VERTEX_POINT('',#1872);
#582=VERTEX_POINT('',#1876);
#583=VERTEX_POINT('',#1878);
#584=VERTEX_POINT('',#1880);
#585=VERTEX_POINT('',#1884);
#586=VERTEX_POINT('',#1886);
#587=VERTEX_POINT('',#1889);
#588=VERTEX_POINT('',#1893);
#589=VERTEX_POINT('',#1897);
#590=VERTEX_POINT('',#1899);
#591=VERTEX_POINT('',#1902);
#592=VERTEX_POINT('',#1906);
#593=VERTEX_POINT('',#1910);
#594=VERTEX_POINT('',#1912);
#595=VERTEX_POINT('',#1915);
#596=VERTEX_POINT('',#1919);
#597=VERTEX_POINT('',#1923);
#598=VERTEX_POINT('',#1925);
#599=VERTEX_POINT('',#1928);
#600=VERTEX_POINT('',#1932);
#601=VERTEX_POINT('',#1936);
#602=VERTEX_POINT('',#1938);
#603=VERTEX_POINT('',#1941);
#604=VERTEX_POINT('',#1945);
#605=VERTEX_POINT('',#1949);
#606=VERTEX_POINT('',#1951);
#607=VERTEX_POINT('',#1954);
#608=VERTEX_POINT('',#1958);
#609=VERTEX_POINT('',#1962);
#610=VERTEX_POINT('',#1964);
#611=VERTEX_POINT('',#1967);
#612=VERTEX_POINT('',#1971);
#613=VERTEX_POINT('',#1975);
#614=VERTEX_POINT('',#1977);
#615=VERTEX_POINT('',#1980);
#616=VERTEX_POINT('',#1984);
#617=VERTEX_POINT('',#1988);
#618=VERTEX_POINT('',#1990);
#619=VERTEX_POINT('',#1993);
#620=VERTEX_POINT('',#1997);
#621=VERTEX_POINT('',#2001);
#622=VERTEX_POINT('',#2003);
#623=VERTEX_POINT('',#2006);
#624=VERTEX_POINT('',#2010);
#625=VERTEX_POINT('',#2014);
#626=VERTEX_POINT('',#2016);
#627=VERTEX_POINT('',#2019);
#628=VERTEX_POINT('',#2023);
#629=VERTEX_POINT('',#2027);
#630=VERTEX_POINT('',#2029);
#631=VERTEX_POINT('',#2032);
#632=VERTEX_POINT('',#2036);
#633=VERTEX_POINT('',#2040);
#634=VERTEX_POINT('',#2042);
#635=VERTEX_POINT('',#2045);
#636=VERTEX_POINT('',#2049);
#637=VERTEX_POINT('',#2053);
#638=VERTEX_POINT('',#2055);
#639=VERTEX_POINT('',#2058);
#640=VERTEX_POINT('',#2062);
#641=VERTEX_POINT('',#2066);
#642=VERTEX_POINT('',#2068);
#643=VERTEX_POINT('',#2071);
#644=VERTEX_POINT('',#2075);
#645=VERTEX_POINT('',#2079);
#646=VERTEX_POINT('',#2081);
#647=VERTEX_POINT('',#2084);
#648=VERTEX_POINT('',#2088);
#649=VERTEX_POINT('',#2092);
#650=VERTEX_POINT('',#2094);
#651=VERTEX_POINT('',#2097);
#652=VERTEX_POINT('',#2101);
#653=VERTEX_POINT('',#2105);
#654=VERTEX_POINT('',#2107);
#655=VERTEX_POINT('',#2110);
#656=VERTEX_POINT('',#2114);
#657=VERTEX_POINT('',#2118);
#658=VERTEX_POINT('',#2120);
#659=VERTEX_POINT('',#2123);
#660=VERTEX_POINT('',#2127);
#661=VERTEX_POINT('',#2131);
#662=VERTEX_POINT('',#2132);
#663=VERTEX_POINT('',#2134);
#664=VERTEX_POINT('',#2136);
#665=VERTEX_POINT('',#2143);
#666=VERTEX_POINT('',#2145);
#667=VERTEX_POINT('',#2149);
#668=VERTEX_POINT('',#2150);
#669=EDGE_CURVE('',#563,#564,#405,.T.);
#670=EDGE_CURVE('',#565,#563,#406,.T.);
#671=EDGE_CURVE('',#565,#566,#407,.T.);
#672=EDGE_CURVE('',#566,#564,#408,.T.);
#673=EDGE_CURVE('',#564,#567,#409,.T.);
#674=EDGE_CURVE('',#568,#566,#410,.T.);
#675=EDGE_CURVE('',#567,#568,#411,.T.);
#676=EDGE_CURVE('',#569,#569,#116,.T.);
#677=EDGE_CURVE('',#570,#570,#117,.T.);
#678=EDGE_CURVE('',#571,#565,#412,.T.);
#679=EDGE_CURVE('',#571,#568,#413,.T.);
#680=EDGE_CURVE('',#567,#572,#414,.T.);
#681=EDGE_CURVE('',#572,#571,#415,.T.);
#682=EDGE_CURVE('',#572,#573,#416,.T.);
#683=EDGE_CURVE('',#573,#574,#417,.T.);
#684=EDGE_CURVE('',#575,#574,#418,.T.);
#685=EDGE_CURVE('',#576,#575,#419,.T.);
#686=EDGE_CURVE('',#576,#563,#420,.T.);
#687=EDGE_CURVE('',#570,#577,#421,.T.);
#688=EDGE_CURVE('',#577,#577,#118,.T.);
#689=EDGE_CURVE('',#569,#578,#422,.T.);
#690=EDGE_CURVE('',#578,#578,#119,.T.);
#691=EDGE_CURVE('',#579,#576,#423,.T.);
#692=EDGE_CURVE('',#580,#575,#424,.T.);
#693=EDGE_CURVE('',#579,#580,#425,.T.);
#694=EDGE_CURVE('',#574,#581,#426,.T.);
#695=EDGE_CURVE('',#581,#580,#427,.T.);
#696=EDGE_CURVE('',#582,#579,#428,.T.);
#697=EDGE_CURVE('',#583,#582,#429,.T.);
#698=EDGE_CURVE('',#584,#583,#430,.T.);
#699=EDGE_CURVE('',#573,#584,#431,.T.);
#700=EDGE_CURVE('',#585,#585,#120,.T.);
#701=EDGE_CURVE('',#586,#586,#121,.T.);
#702=EDGE_CURVE('',#587,#587,#122,.T.);
#703=EDGE_CURVE('',#587,#585,#432,.T.);
#704=EDGE_CURVE('',#586,#588,#433,.T.);
#705=EDGE_CURVE('',#588,#588,#123,.T.);
#706=EDGE_CURVE('',#589,#589,#124,.T.);
#707=EDGE_CURVE('',#590,#590,#125,.T.);
#708=EDGE_CURVE('',#591,#591,#126,.T.);
#709=EDGE_CURVE('',#591,#589,#434,.T.);
#710=EDGE_CURVE('',#590,#592,#435,.T.);
#711=EDGE_CURVE('',#592,#592,#127,.T.);
#712=EDGE_CURVE('',#593,#593,#128,.T.);
#713=EDGE_CURVE('',#594,#594,#129,.T.);
#714=EDGE_CURVE('',#595,#595,#130,.T.);
#715=EDGE_CURVE('',#595,#593,#436,.T.);
#716=EDGE_CURVE('',#594,#596,#437,.T.);
#717=EDGE_CURVE('',#596,#596,#131,.T.);
#718=EDGE_CURVE('',#597,#597,#132,.T.);
#719=EDGE_CURVE('',#598,#598,#133,.T.);
#720=EDGE_CURVE('',#599,#599,#134,.T.);
#721=EDGE_CURVE('',#599,#597,#438,.T.);
#722=EDGE_CURVE('',#598,#600,#439,.T.);
#723=EDGE_CURVE('',#600,#600,#135,.T.);
#724=EDGE_CURVE('',#601,#601,#136,.T.);
#725=EDGE_CURVE('',#602,#602,#137,.T.);
#726=EDGE_CURVE('',#603,#603,#138,.T.);
#727=EDGE_CURVE('',#603,#601,#440,.T.);
#728=EDGE_CURVE('',#602,#604,#441,.T.);
#729=EDGE_CURVE('',#604,#604,#139,.T.);
#730=EDGE_CURVE('',#605,#605,#140,.T.);
#731=EDGE_CURVE('',#606,#606,#141,.T.);
#732=EDGE_CURVE('',#607,#607,#142,.T.);
#733=EDGE_CURVE('',#607,#605,#442,.T.);
#734=EDGE_CURVE('',#606,#608,#443,.T.);
#735=EDGE_CURVE('',#608,#608,#143,.T.);
#736=EDGE_CURVE('',#609,#609,#144,.T.);
#737=EDGE_CURVE('',#610,#610,#145,.T.);
#738=EDGE_CURVE('',#611,#611,#146,.T.);
#739=EDGE_CURVE('',#611,#609,#444,.T.);
#740=EDGE_CURVE('',#610,#612,#445,.T.);
#741=EDGE_CURVE('',#612,#612,#147,.T.);
#742=EDGE_CURVE('',#613,#613,#148,.T.);
#743=EDGE_CURVE('',#614,#614,#149,.T.);
#744=EDGE_CURVE('',#615,#615,#150,.T.);
#745=EDGE_CURVE('',#615,#613,#446,.T.);
#746=EDGE_CURVE('',#614,#616,#447,.T.);
#747=EDGE_CURVE('',#616,#616,#151,.T.);
#748=EDGE_CURVE('',#617,#617,#152,.T.);
#749=EDGE_CURVE('',#618,#618,#153,.T.);
#750=EDGE_CURVE('',#619,#619,#154,.T.);
#751=EDGE_CURVE('',#619,#617,#448,.T.);
#752=EDGE_CURVE('',#618,#620,#449,.T.);
#753=EDGE_CURVE('',#620,#620,#155,.T.);
#754=EDGE_CURVE('',#621,#621,#156,.T.);
#755=EDGE_CURVE('',#622,#622,#157,.T.);
#756=EDGE_CURVE('',#623,#623,#158,.T.);
#757=EDGE_CURVE('',#623,#621,#450,.T.);
#758=EDGE_CURVE('',#622,#624,#451,.T.);
#759=EDGE_CURVE('',#624,#624,#159,.T.);
#760=EDGE_CURVE('',#625,#625,#160,.T.);
#761=EDGE_CURVE('',#626,#626,#161,.T.);
#762=EDGE_CURVE('',#627,#627,#162,.T.);
#763=EDGE_CURVE('',#627,#625,#452,.T.);
#764=EDGE_CURVE('',#626,#628,#453,.T.);
#765=EDGE_CURVE('',#628,#628,#163,.T.);
#766=EDGE_CURVE('',#629,#629,#164,.T.);
#767=EDGE_CURVE('',#630,#630,#165,.T.);
#768=EDGE_CURVE('',#631,#631,#166,.T.);
#769=EDGE_CURVE('',#631,#629,#454,.T.);
#770=EDGE_CURVE('',#630,#632,#455,.T.);
#771=EDGE_CURVE('',#632,#632,#167,.T.);
#772=EDGE_CURVE('',#633,#633,#168,.T.);
#773=EDGE_CURVE('',#634,#634,#169,.T.);
#774=EDGE_CURVE('',#635,#635,#170,.T.);
#775=EDGE_CURVE('',#635,#633,#456,.T.);
#776=EDGE_CURVE('',#634,#636,#457,.T.);
#777=EDGE_CURVE('',#636,#636,#171,.T.);
#778=EDGE_CURVE('',#637,#637,#172,.T.);
#779=EDGE_CURVE('',#638,#638,#173,.T.);
#780=EDGE_CURVE('',#639,#639,#174,.T.);
#781=EDGE_CURVE('',#639,#637,#458,.T.);
#782=EDGE_CURVE('',#638,#640,#459,.T.);
#783=EDGE_CURVE('',#640,#640,#175,.T.);
#784=EDGE_CURVE('',#641,#641,#176,.T.);
#785=EDGE_CURVE('',#642,#642,#177,.T.);
#786=EDGE_CURVE('',#643,#643,#178,.T.);
#787=EDGE_CURVE('',#643,#641,#460,.T.);
#788=EDGE_CURVE('',#642,#644,#461,.T.);
#789=EDGE_CURVE('',#644,#644,#179,.T.);
#790=EDGE_CURVE('',#645,#645,#180,.T.);
#791=EDGE_CURVE('',#646,#646,#181,.T.);
#792=EDGE_CURVE('',#647,#647,#182,.T.);
#793=EDGE_CURVE('',#647,#645,#462,.T.);
#794=EDGE_CURVE('',#646,#648,#463,.T.);
#795=EDGE_CURVE('',#648,#648,#183,.T.);
#796=EDGE_CURVE('',#649,#649,#184,.T.);
#797=EDGE_CURVE('',#650,#650,#185,.T.);
#798=EDGE_CURVE('',#651,#651,#186,.T.);
#799=EDGE_CURVE('',#651,#649,#464,.T.);
#800=EDGE_CURVE('',#650,#652,#465,.T.);
#801=EDGE_CURVE('',#652,#652,#187,.T.);
#802=EDGE_CURVE('',#653,#653,#188,.T.);
#803=EDGE_CURVE('',#654,#654,#189,.T.);
#804=EDGE_CURVE('',#655,#655,#190,.T.);
#805=EDGE_CURVE('',#655,#653,#466,.T.);
#806=EDGE_CURVE('',#654,#656,#467,.T.);
#807=EDGE_CURVE('',#656,#656,#191,.T.);
#808=EDGE_CURVE('',#657,#657,#192,.T.);
#809=EDGE_CURVE('',#658,#658,#193,.T.);
#810=EDGE_CURVE('',#659,#659,#194,.T.);
#811=EDGE_CURVE('',#659,#657,#468,.T.);
#812=EDGE_CURVE('',#658,#660,#469,.T.);
#813=EDGE_CURVE('',#660,#660,#195,.T.);
#814=EDGE_CURVE('',#661,#662,#470,.T.);
#815=EDGE_CURVE('',#661,#663,#471,.T.);
#816=EDGE_CURVE('',#664,#663,#472,.T.);
#817=EDGE_CURVE('',#662,#664,#473,.T.);
#818=EDGE_CURVE('',#582,#664,#474,.T.);
#819=EDGE_CURVE('',#663,#583,#475,.T.);
#820=EDGE_CURVE('',#662,#665,#476,.T.);
#821=EDGE_CURVE('',#665,#666,#477,.T.);
#822=EDGE_CURVE('',#666,#661,#478,.T.);
#823=EDGE_CURVE('',#667,#668,#479,.T.);
#824=EDGE_CURVE('',#668,#666,#480,.T.);
#825=EDGE_CURVE('',#667,#665,#481,.T.);
#826=EDGE_CURVE('',#667,#581,#482,.T.);
#827=EDGE_CURVE('',#668,#584,#483,.T.);
#828=ORIENTED_EDGE('',*,*,#669,.F.);
#829=ORIENTED_EDGE('',*,*,#670,.F.);
#830=ORIENTED_EDGE('',*,*,#671,.T.);
#831=ORIENTED_EDGE('',*,*,#672,.T.);
#832=ORIENTED_EDGE('',*,*,#673,.F.);
#833=ORIENTED_EDGE('',*,*,#672,.F.);
#834=ORIENTED_EDGE('',*,*,#674,.F.);
#835=ORIENTED_EDGE('',*,*,#675,.F.);
#836=ORIENTED_EDGE('',*,*,#676,.F.);
#837=ORIENTED_EDGE('',*,*,#677,.F.);
#838=ORIENTED_EDGE('',*,*,#678,.F.);
#839=ORIENTED_EDGE('',*,*,#679,.T.);
#840=ORIENTED_EDGE('',*,*,#674,.T.);
#841=ORIENTED_EDGE('',*,*,#671,.F.);
#842=ORIENTED_EDGE('',*,*,#680,.F.);
#843=ORIENTED_EDGE('',*,*,#675,.T.);
#844=ORIENTED_EDGE('',*,*,#679,.F.);
#845=ORIENTED_EDGE('',*,*,#681,.F.);
#846=ORIENTED_EDGE('',*,*,#669,.T.);
#847=ORIENTED_EDGE('',*,*,#673,.T.);
#848=ORIENTED_EDGE('',*,*,#680,.T.);
#849=ORIENTED_EDGE('',*,*,#682,.T.);
#850=ORIENTED_EDGE('',*,*,#683,.T.);
#851=ORIENTED_EDGE('',*,*,#684,.F.);
#852=ORIENTED_EDGE('',*,*,#685,.F.);
#853=ORIENTED_EDGE('',*,*,#686,.T.);
#854=ORIENTED_EDGE('',*,*,#677,.T.);
#855=ORIENTED_EDGE('',*,*,#687,.T.);
#856=ORIENTED_EDGE('',*,*,#688,.F.);
#857=ORIENTED_EDGE('',*,*,#687,.F.);
#858=ORIENTED_EDGE('',*,*,#676,.T.);
#859=ORIENTED_EDGE('',*,*,#689,.T.);
#860=ORIENTED_EDGE('',*,*,#690,.F.);
#861=ORIENTED_EDGE('',*,*,#689,.F.);
#862=ORIENTED_EDGE('',*,*,#691,.T.);
#863=ORIENTED_EDGE('',*,*,#685,.T.);
#864=ORIENTED_EDGE('',*,*,#692,.F.);
#865=ORIENTED_EDGE('',*,*,#693,.F.);
#866=ORIENTED_EDGE('',*,*,#692,.T.);
#867=ORIENTED_EDGE('',*,*,#684,.T.);
#868=ORIENTED_EDGE('',*,*,#694,.T.);
#869=ORIENTED_EDGE('',*,*,#695,.T.);
#870=ORIENTED_EDGE('',*,*,#688,.T.);
#871=ORIENTED_EDGE('',*,*,#690,.T.);
#872=ORIENTED_EDGE('',*,*,#670,.T.);
#873=ORIENTED_EDGE('',*,*,#686,.F.);
#874=ORIENTED_EDGE('',*,*,#691,.F.);
#875=ORIENTED_EDGE('',*,*,#696,.F.);
#876=ORIENTED_EDGE('',*,*,#697,.F.);
#877=ORIENTED_EDGE('',*,*,#698,.F.);
#878=ORIENTED_EDGE('',*,*,#699,.F.);
#879=ORIENTED_EDGE('',*,*,#682,.F.);
#880=ORIENTED_EDGE('',*,*,#681,.T.);
#881=ORIENTED_EDGE('',*,*,#678,.T.);
#882=ORIENTED_EDGE('',*,*,#700,.T.);
#883=ORIENTED_EDGE('',*,*,#701,.F.);
#884=ORIENTED_EDGE('',*,*,#702,.F.);
#885=ORIENTED_EDGE('',*,*,#703,.T.);
#886=ORIENTED_EDGE('',*,*,#700,.F.);
#887=ORIENTED_EDGE('',*,*,#703,.F.);
#888=ORIENTED_EDGE('',*,*,#701,.T.);
#889=ORIENTED_EDGE('',*,*,#704,.T.);
#890=ORIENTED_EDGE('',*,*,#705,.F.);
#891=ORIENTED_EDGE('',*,*,#704,.F.);
#892=ORIENTED_EDGE('',*,*,#706,.T.);
#893=ORIENTED_EDGE('',*,*,#707,.F.);
#894=ORIENTED_EDGE('',*,*,#708,.F.);
#895=ORIENTED_EDGE('',*,*,#709,.T.);
#896=ORIENTED_EDGE('',*,*,#706,.F.);
#897=ORIENTED_EDGE('',*,*,#709,.F.);
#898=ORIENTED_EDGE('',*,*,#707,.T.);
#899=ORIENTED_EDGE('',*,*,#710,.T.);
#900=ORIENTED_EDGE('',*,*,#711,.F.);
#901=ORIENTED_EDGE('',*,*,#710,.F.);
#902=ORIENTED_EDGE('',*,*,#712,.T.);
#903=ORIENTED_EDGE('',*,*,#713,.F.);
#904=ORIENTED_EDGE('',*,*,#714,.F.);
#905=ORIENTED_EDGE('',*,*,#715,.T.);
#906=ORIENTED_EDGE('',*,*,#712,.F.);
#907=ORIENTED_EDGE('',*,*,#715,.F.);
#908=ORIENTED_EDGE('',*,*,#713,.T.);
#909=ORIENTED_EDGE('',*,*,#716,.T.);
#910=ORIENTED_EDGE('',*,*,#717,.F.);
#911=ORIENTED_EDGE('',*,*,#716,.F.);
#912=ORIENTED_EDGE('',*,*,#718,.T.);
#913=ORIENTED_EDGE('',*,*,#719,.F.);
#914=ORIENTED_EDGE('',*,*,#720,.F.);
#915=ORIENTED_EDGE('',*,*,#721,.T.);
#916=ORIENTED_EDGE('',*,*,#718,.F.);
#917=ORIENTED_EDGE('',*,*,#721,.F.);
#918=ORIENTED_EDGE('',*,*,#719,.T.);
#919=ORIENTED_EDGE('',*,*,#722,.T.);
#920=ORIENTED_EDGE('',*,*,#723,.F.);
#921=ORIENTED_EDGE('',*,*,#722,.F.);
#922=ORIENTED_EDGE('',*,*,#724,.T.);
#923=ORIENTED_EDGE('',*,*,#725,.F.);
#924=ORIENTED_EDGE('',*,*,#726,.F.);
#925=ORIENTED_EDGE('',*,*,#727,.T.);
#926=ORIENTED_EDGE('',*,*,#724,.F.);
#927=ORIENTED_EDGE('',*,*,#727,.F.);
#928=ORIENTED_EDGE('',*,*,#725,.T.);
#929=ORIENTED_EDGE('',*,*,#728,.T.);
#930=ORIENTED_EDGE('',*,*,#729,.F.);
#931=ORIENTED_EDGE('',*,*,#728,.F.);
#932=ORIENTED_EDGE('',*,*,#730,.T.);
#933=ORIENTED_EDGE('',*,*,#731,.F.);
#934=ORIENTED_EDGE('',*,*,#732,.F.);
#935=ORIENTED_EDGE('',*,*,#733,.T.);
#936=ORIENTED_EDGE('',*,*,#730,.F.);
#937=ORIENTED_EDGE('',*,*,#733,.F.);
#938=ORIENTED_EDGE('',*,*,#731,.T.);
#939=ORIENTED_EDGE('',*,*,#734,.T.);
#940=ORIENTED_EDGE('',*,*,#735,.F.);
#941=ORIENTED_EDGE('',*,*,#734,.F.);
#942=ORIENTED_EDGE('',*,*,#736,.T.);
#943=ORIENTED_EDGE('',*,*,#737,.F.);
#944=ORIENTED_EDGE('',*,*,#738,.F.);
#945=ORIENTED_EDGE('',*,*,#739,.T.);
#946=ORIENTED_EDGE('',*,*,#736,.F.);
#947=ORIENTED_EDGE('',*,*,#739,.F.);
#948=ORIENTED_EDGE('',*,*,#737,.T.);
#949=ORIENTED_EDGE('',*,*,#740,.T.);
#950=ORIENTED_EDGE('',*,*,#741,.F.);
#951=ORIENTED_EDGE('',*,*,#740,.F.);
#952=ORIENTED_EDGE('',*,*,#742,.T.);
#953=ORIENTED_EDGE('',*,*,#743,.F.);
#954=ORIENTED_EDGE('',*,*,#744,.F.);
#955=ORIENTED_EDGE('',*,*,#745,.T.);
#956=ORIENTED_EDGE('',*,*,#742,.F.);
#957=ORIENTED_EDGE('',*,*,#745,.F.);
#958=ORIENTED_EDGE('',*,*,#743,.T.);
#959=ORIENTED_EDGE('',*,*,#746,.T.);
#960=ORIENTED_EDGE('',*,*,#747,.F.);
#961=ORIENTED_EDGE('',*,*,#746,.F.);
#962=ORIENTED_EDGE('',*,*,#748,.T.);
#963=ORIENTED_EDGE('',*,*,#749,.F.);
#964=ORIENTED_EDGE('',*,*,#750,.F.);
#965=ORIENTED_EDGE('',*,*,#751,.T.);
#966=ORIENTED_EDGE('',*,*,#748,.F.);
#967=ORIENTED_EDGE('',*,*,#751,.F.);
#968=ORIENTED_EDGE('',*,*,#749,.T.);
#969=ORIENTED_EDGE('',*,*,#752,.T.);
#970=ORIENTED_EDGE('',*,*,#753,.F.);
#971=ORIENTED_EDGE('',*,*,#752,.F.);
#972=ORIENTED_EDGE('',*,*,#754,.T.);
#973=ORIENTED_EDGE('',*,*,#755,.F.);
#974=ORIENTED_EDGE('',*,*,#756,.F.);
#975=ORIENTED_EDGE('',*,*,#757,.T.);
#976=ORIENTED_EDGE('',*,*,#754,.F.);
#977=ORIENTED_EDGE('',*,*,#757,.F.);
#978=ORIENTED_EDGE('',*,*,#755,.T.);
#979=ORIENTED_EDGE('',*,*,#758,.T.);
#980=ORIENTED_EDGE('',*,*,#759,.F.);
#981=ORIENTED_EDGE('',*,*,#758,.F.);
#982=ORIENTED_EDGE('',*,*,#760,.T.);
#983=ORIENTED_EDGE('',*,*,#761,.F.);
#984=ORIENTED_EDGE('',*,*,#762,.F.);
#985=ORIENTED_EDGE('',*,*,#763,.T.);
#986=ORIENTED_EDGE('',*,*,#760,.F.);
#987=ORIENTED_EDGE('',*,*,#763,.F.);
#988=ORIENTED_EDGE('',*,*,#761,.T.);
#989=ORIENTED_EDGE('',*,*,#764,.T.);
#990=ORIENTED_EDGE('',*,*,#765,.F.);
#991=ORIENTED_EDGE('',*,*,#764,.F.);
#992=ORIENTED_EDGE('',*,*,#766,.T.);
#993=ORIENTED_EDGE('',*,*,#767,.F.);
#994=ORIENTED_EDGE('',*,*,#768,.F.);
#995=ORIENTED_EDGE('',*,*,#769,.T.);
#996=ORIENTED_EDGE('',*,*,#766,.F.);
#997=ORIENTED_EDGE('',*,*,#769,.F.);
#998=ORIENTED_EDGE('',*,*,#767,.T.);
#999=ORIENTED_EDGE('',*,*,#770,.T.);
#1000=ORIENTED_EDGE('',*,*,#771,.F.);
#1001=ORIENTED_EDGE('',*,*,#770,.F.);
#1002=ORIENTED_EDGE('',*,*,#772,.T.);
#1003=ORIENTED_EDGE('',*,*,#773,.F.);
#1004=ORIENTED_EDGE('',*,*,#774,.F.);
#1005=ORIENTED_EDGE('',*,*,#775,.T.);
#1006=ORIENTED_EDGE('',*,*,#772,.F.);
#1007=ORIENTED_EDGE('',*,*,#775,.F.);
#1008=ORIENTED_EDGE('',*,*,#773,.T.);
#1009=ORIENTED_EDGE('',*,*,#776,.T.);
#1010=ORIENTED_EDGE('',*,*,#777,.F.);
#1011=ORIENTED_EDGE('',*,*,#776,.F.);
#1012=ORIENTED_EDGE('',*,*,#778,.T.);
#1013=ORIENTED_EDGE('',*,*,#779,.F.);
#1014=ORIENTED_EDGE('',*,*,#780,.F.);
#1015=ORIENTED_EDGE('',*,*,#781,.T.);
#1016=ORIENTED_EDGE('',*,*,#778,.F.);
#1017=ORIENTED_EDGE('',*,*,#781,.F.);
#1018=ORIENTED_EDGE('',*,*,#779,.T.);
#1019=ORIENTED_EDGE('',*,*,#782,.T.);
#1020=ORIENTED_EDGE('',*,*,#783,.F.);
#1021=ORIENTED_EDGE('',*,*,#782,.F.);
#1022=ORIENTED_EDGE('',*,*,#784,.T.);
#1023=ORIENTED_EDGE('',*,*,#785,.F.);
#1024=ORIENTED_EDGE('',*,*,#786,.F.);
#1025=ORIENTED_EDGE('',*,*,#787,.T.);
#1026=ORIENTED_EDGE('',*,*,#784,.F.);
#1027=ORIENTED_EDGE('',*,*,#787,.F.);
#1028=ORIENTED_EDGE('',*,*,#785,.T.);
#1029=ORIENTED_EDGE('',*,*,#788,.T.);
#1030=ORIENTED_EDGE('',*,*,#789,.F.);
#1031=ORIENTED_EDGE('',*,*,#788,.F.);
#1032=ORIENTED_EDGE('',*,*,#790,.T.);
#1033=ORIENTED_EDGE('',*,*,#791,.F.);
#1034=ORIENTED_EDGE('',*,*,#792,.F.);
#1035=ORIENTED_EDGE('',*,*,#793,.T.);
#1036=ORIENTED_EDGE('',*,*,#790,.F.);
#1037=ORIENTED_EDGE('',*,*,#793,.F.);
#1038=ORIENTED_EDGE('',*,*,#791,.T.);
#1039=ORIENTED_EDGE('',*,*,#794,.T.);
#1040=ORIENTED_EDGE('',*,*,#795,.F.);
#1041=ORIENTED_EDGE('',*,*,#794,.F.);
#1042=ORIENTED_EDGE('',*,*,#796,.T.);
#1043=ORIENTED_EDGE('',*,*,#797,.F.);
#1044=ORIENTED_EDGE('',*,*,#798,.F.);
#1045=ORIENTED_EDGE('',*,*,#799,.T.);
#1046=ORIENTED_EDGE('',*,*,#796,.F.);
#1047=ORIENTED_EDGE('',*,*,#799,.F.);
#1048=ORIENTED_EDGE('',*,*,#797,.T.);
#1049=ORIENTED_EDGE('',*,*,#800,.T.);
#1050=ORIENTED_EDGE('',*,*,#801,.F.);
#1051=ORIENTED_EDGE('',*,*,#800,.F.);
#1052=ORIENTED_EDGE('',*,*,#802,.T.);
#1053=ORIENTED_EDGE('',*,*,#803,.F.);
#1054=ORIENTED_EDGE('',*,*,#804,.F.);
#1055=ORIENTED_EDGE('',*,*,#805,.T.);
#1056=ORIENTED_EDGE('',*,*,#802,.F.);
#1057=ORIENTED_EDGE('',*,*,#805,.F.);
#1058=ORIENTED_EDGE('',*,*,#803,.T.);
#1059=ORIENTED_EDGE('',*,*,#806,.T.);
#1060=ORIENTED_EDGE('',*,*,#807,.F.);
#1061=ORIENTED_EDGE('',*,*,#806,.F.);
#1062=ORIENTED_EDGE('',*,*,#808,.T.);
#1063=ORIENTED_EDGE('',*,*,#809,.F.);
#1064=ORIENTED_EDGE('',*,*,#810,.F.);
#1065=ORIENTED_EDGE('',*,*,#811,.T.);
#1066=ORIENTED_EDGE('',*,*,#808,.F.);
#1067=ORIENTED_EDGE('',*,*,#811,.F.);
#1068=ORIENTED_EDGE('',*,*,#809,.T.);
#1069=ORIENTED_EDGE('',*,*,#812,.T.);
#1070=ORIENTED_EDGE('',*,*,#813,.F.);
#1071=ORIENTED_EDGE('',*,*,#812,.F.);
#1072=ORIENTED_EDGE('',*,*,#814,.F.);
#1073=ORIENTED_EDGE('',*,*,#815,.T.);
#1074=ORIENTED_EDGE('',*,*,#816,.F.);
#1075=ORIENTED_EDGE('',*,*,#817,.F.);
#1076=ORIENTED_EDGE('',*,*,#818,.T.);
#1077=ORIENTED_EDGE('',*,*,#816,.T.);
#1078=ORIENTED_EDGE('',*,*,#819,.T.);
#1079=ORIENTED_EDGE('',*,*,#697,.T.);
#1080=ORIENTED_EDGE('',*,*,#702,.T.);
#1081=ORIENTED_EDGE('',*,*,#708,.T.);
#1082=ORIENTED_EDGE('',*,*,#714,.T.);
#1083=ORIENTED_EDGE('',*,*,#720,.T.);
#1084=ORIENTED_EDGE('',*,*,#726,.T.);
#1085=ORIENTED_EDGE('',*,*,#732,.T.);
#1086=ORIENTED_EDGE('',*,*,#738,.T.);
#1087=ORIENTED_EDGE('',*,*,#744,.T.);
#1088=ORIENTED_EDGE('',*,*,#750,.T.);
#1089=ORIENTED_EDGE('',*,*,#756,.T.);
#1090=ORIENTED_EDGE('',*,*,#813,.T.);
#1091=ORIENTED_EDGE('',*,*,#814,.T.);
#1092=ORIENTED_EDGE('',*,*,#820,.T.);
#1093=ORIENTED_EDGE('',*,*,#821,.T.);
#1094=ORIENTED_EDGE('',*,*,#822,.T.);
#1095=ORIENTED_EDGE('',*,*,#762,.T.);
#1096=ORIENTED_EDGE('',*,*,#768,.T.);
#1097=ORIENTED_EDGE('',*,*,#774,.T.);
#1098=ORIENTED_EDGE('',*,*,#780,.T.);
#1099=ORIENTED_EDGE('',*,*,#786,.T.);
#1100=ORIENTED_EDGE('',*,*,#792,.T.);
#1101=ORIENTED_EDGE('',*,*,#801,.T.);
#1102=ORIENTED_EDGE('',*,*,#807,.T.);
#1103=ORIENTED_EDGE('',*,*,#823,.T.);
#1104=ORIENTED_EDGE('',*,*,#824,.T.);
#1105=ORIENTED_EDGE('',*,*,#821,.F.);
#1106=ORIENTED_EDGE('',*,*,#825,.F.);
#1107=ORIENTED_EDGE('',*,*,#826,.F.);
#1108=ORIENTED_EDGE('',*,*,#825,.T.);
#1109=ORIENTED_EDGE('',*,*,#820,.F.);
#1110=ORIENTED_EDGE('',*,*,#817,.T.);
#1111=ORIENTED_EDGE('',*,*,#818,.F.);
#1112=ORIENTED_EDGE('',*,*,#696,.T.);
#1113=ORIENTED_EDGE('',*,*,#693,.T.);
#1114=ORIENTED_EDGE('',*,*,#695,.F.);
#1115=ORIENTED_EDGE('',*,*,#827,.T.);
#1116=ORIENTED_EDGE('',*,*,#698,.T.);
#1117=ORIENTED_EDGE('',*,*,#819,.F.);
#1118=ORIENTED_EDGE('',*,*,#815,.F.);
#1119=ORIENTED_EDGE('',*,*,#822,.F.);
#1120=ORIENTED_EDGE('',*,*,#824,.F.);
#1121=ORIENTED_EDGE('',*,*,#827,.F.);
#1122=ORIENTED_EDGE('',*,*,#823,.F.);
#1123=ORIENTED_EDGE('',*,*,#826,.T.);
#1124=ORIENTED_EDGE('',*,*,#694,.F.);
#1125=ORIENTED_EDGE('',*,*,#683,.F.);
#1126=ORIENTED_EDGE('',*,*,#699,.T.);
#1127=ORIENTED_EDGE('',*,*,#705,.T.);
#1128=ORIENTED_EDGE('',*,*,#711,.T.);
#1129=ORIENTED_EDGE('',*,*,#717,.T.);
#1130=ORIENTED_EDGE('',*,*,#723,.T.);
#1131=ORIENTED_EDGE('',*,*,#729,.T.);
#1132=ORIENTED_EDGE('',*,*,#735,.T.);
#1133=ORIENTED_EDGE('',*,*,#741,.T.);
#1134=ORIENTED_EDGE('',*,*,#747,.T.);
#1135=ORIENTED_EDGE('',*,*,#753,.T.);
#1136=ORIENTED_EDGE('',*,*,#759,.T.);
#1137=ORIENTED_EDGE('',*,*,#765,.T.);
#1138=ORIENTED_EDGE('',*,*,#771,.T.);
#1139=ORIENTED_EDGE('',*,*,#777,.T.);
#1140=ORIENTED_EDGE('',*,*,#783,.T.);
#1141=ORIENTED_EDGE('',*,*,#789,.T.);
#1142=ORIENTED_EDGE('',*,*,#795,.T.);
#1143=ORIENTED_EDGE('',*,*,#798,.T.);
#1144=ORIENTED_EDGE('',*,*,#804,.T.);
#1145=ORIENTED_EDGE('',*,*,#810,.T.);
#1146=PLANE('',#1276);
#1147=PLANE('',#1277);
#1148=PLANE('',#1280);
#1149=PLANE('',#1281);
#1150=PLANE('',#1282);
#1151=PLANE('',#1287);
#1152=PLANE('',#1288);
#1153=PLANE('',#1289);
#1154=PLANE('',#1290);
#1155=PLANE('',#1297);
#1156=PLANE('',#1304);
#1157=PLANE('',#1311);
#1158=PLANE('',#1318);
#1159=PLANE('',#1325);
#1160=PLANE('',#1332);
#1161=PLANE('',#1339);
#1162=PLANE('',#1346);
#1163=PLANE('',#1353);
#1164=PLANE('',#1360);
#1165=PLANE('',#1367);
#1166=PLANE('',#1374);
#1167=PLANE('',#1381);
#1168=PLANE('',#1388);
#1169=PLANE('',#1395);
#1170=PLANE('',#1402);
#1171=PLANE('',#1409);
#1172=PLANE('',#1416);
#1173=PLANE('',#1423);
#1174=PLANE('',#1424);
#1175=PLANE('',#1425);
#1176=PLANE('',#1426);
#1177=PLANE('',#1427);
#1178=PLANE('',#1428);
#1179=PLANE('',#1429);
#1180=ADVANCED_FACE('',(#196),#1146,.F.);
#1181=ADVANCED_FACE('',(#197,#55,#56),#1147,.T.);
#1182=ADVANCED_FACE('',(#198),#1148,.F.);
#1183=ADVANCED_FACE('',(#199),#1149,.F.);
#1184=ADVANCED_FACE('',(#200),#1150,.T.);
#1185=ADVANCED_FACE('',(#201),#15,.F.);
#1186=ADVANCED_FACE('',(#202),#16,.F.);
#1187=ADVANCED_FACE('',(#203),#1151,.T.);
#1188=ADVANCED_FACE('',(#204,#57,#58),#1152,.T.);
#1189=ADVANCED_FACE('',(#205),#1153,.F.);
#1190=ADVANCED_FACE('',(#206,#59),#1154,.T.);
#1191=ADVANCED_FACE('',(#207),#17,.F.);
#1192=ADVANCED_FACE('',(#208),#18,.F.);
#1193=ADVANCED_FACE('',(#209,#60),#1155,.T.);
#1194=ADVANCED_FACE('',(#210),#19,.F.);
#1195=ADVANCED_FACE('',(#211),#20,.F.);
#1196=ADVANCED_FACE('',(#212,#61),#1156,.T.);
#1197=ADVANCED_FACE('',(#213),#21,.F.);
#1198=ADVANCED_FACE('',(#214),#22,.F.);
#1199=ADVANCED_FACE('',(#215,#62),#1157,.T.);
#1200=ADVANCED_FACE('',(#216),#23,.F.);
#1201=ADVANCED_FACE('',(#217),#24,.F.);
#1202=ADVANCED_FACE('',(#218,#63),#1158,.T.);
#1203=ADVANCED_FACE('',(#219),#25,.F.);
#1204=ADVANCED_FACE('',(#220),#26,.F.);
#1205=ADVANCED_FACE('',(#221,#64),#1159,.T.);
#1206=ADVANCED_FACE('',(#222),#27,.F.);
#1207=ADVANCED_FACE('',(#223),#28,.F.);
#1208=ADVANCED_FACE('',(#224,#65),#1160,.T.);
#1209=ADVANCED_FACE('',(#225),#29,.F.);
#1210=ADVANCED_FACE('',(#226),#30,.F.);
#1211=ADVANCED_FACE('',(#227,#66),#1161,.T.);
#1212=ADVANCED_FACE('',(#228),#31,.F.);
#1213=ADVANCED_FACE('',(#229),#32,.F.);
#1214=ADVANCED_FACE('',(#230,#67),#1162,.T.);
#1215=ADVANCED_FACE('',(#231),#33,.F.);
#1216=ADVANCED_FACE('',(#232),#34,.F.);
#1217=ADVANCED_FACE('',(#233,#68),#1163,.T.);
#1218=ADVANCED_FACE('',(#234),#35,.F.);
#1219=ADVANCED_FACE('',(#235),#36,.F.);
#1220=ADVANCED_FACE('',(#236,#69),#1164,.T.);
#1221=ADVANCED_FACE('',(#237),#37,.F.);
#1222=ADVANCED_FACE('',(#238),#38,.F.);
#1223=ADVANCED_FACE('',(#239,#70),#1165,.T.);
#1224=ADVANCED_FACE('',(#240),#39,.F.);
#1225=ADVANCED_FACE('',(#241),#40,.F.);
#1226=ADVANCED_FACE('',(#242,#71),#1166,.T.);
#1227=ADVANCED_FACE('',(#243),#41,.F.);
#1228=ADVANCED_FACE('',(#244),#42,.F.);
#1229=ADVANCED_FACE('',(#245,#72),#1167,.T.);
#1230=ADVANCED_FACE('',(#246),#43,.F.);
#1231=ADVANCED_FACE('',(#247),#44,.F.);
#1232=ADVANCED_FACE('',(#248,#73),#1168,.T.);
#1233=ADVANCED_FACE('',(#249),#45,.F.);
#1234=ADVANCED_FACE('',(#250),#46,.F.);
#1235=ADVANCED_FACE('',(#251,#74),#1169,.T.);
#1236=ADVANCED_FACE('',(#252),#47,.F.);
#1237=ADVANCED_FACE('',(#253),#48,.F.);
#1238=ADVANCED_FACE('',(#254,#75),#1170,.T.);
#1239=ADVANCED_FACE('',(#255),#49,.F.);
#1240=ADVANCED_FACE('',(#256),#50,.F.);
#1241=ADVANCED_FACE('',(#257,#76),#1171,.T.);
#1242=ADVANCED_FACE('',(#258),#51,.F.);
#1243=ADVANCED_FACE('',(#259),#52,.F.);
#1244=ADVANCED_FACE('',(#260,#77),#1172,.T.);
#1245=ADVANCED_FACE('',(#261),#53,.F.);
#1246=ADVANCED_FACE('',(#262),#54,.F.);
#1247=ADVANCED_FACE('',(#263),#1173,.T.);
#1248=ADVANCED_FACE('',(#264,#78,#79,#80,#81,#82,#83,#84,#85,#86,#87,#88),
#1174,.T.);
#1249=ADVANCED_FACE('',(#265,#89,#90,#91,#92,#93,#94,#95,#96),#1175,.T.);
#1250=ADVANCED_FACE('',(#266),#1176,.T.);
#1251=ADVANCED_FACE('',(#267),#1177,.T.);
#1252=ADVANCED_FACE('',(#268),#1178,.T.);
#1253=ADVANCED_FACE('',(#269,#97,#98,#99,#100,#101,#102,#103,#104,#105,
#106,#107,#108,#109,#110,#111,#112,#113,#114,#115),#1179,.F.);
#1254=CLOSED_SHELL('',(#1180,#1181,#1182,#1183,#1184,#1185,#1186,#1187,
#1188,#1189,#1190,#1191,#1192,#1193,#1194,#1195,#1196,#1197,#1198,#1199,
#1200,#1201,#1202,#1203,#1204,#1205,#1206,#1207,#1208,#1209,#1210,#1211,
#1212,#1213,#1214,#1215,#1216,#1217,#1218,#1219,#1220,#1221,#1222,#1223,
#1224,#1225,#1226,#1227,#1228,#1229,#1230,#1231,#1232,#1233,#1234,#1235,
#1236,#1237,#1238,#1239,#1240,#1241,#1242,#1243,#1244,#1245,#1246,#1247,
#1248,#1249,#1250,#1251,#1252,#1253));
#1255=DERIVED_UNIT_ELEMENT(#1257,1.);
#1256=DERIVED_UNIT_ELEMENT(#2167,-3.);
#1257=(
CONVERSION_BASED_UNIT('gram',#1259)
MASS_UNIT()
NAMED_UNIT(#2164)
);
#1258=(
MASS_UNIT()
NAMED_UNIT(*)
SI_UNIT(.KILO.,.GRAM.)
);
#1259=MASS_MEASURE_WITH_UNIT(MASS_MEASURE(0.001),#1258);
#1260=DERIVED_UNIT((#1255,#1256));
#1261=MEASURE_REPRESENTATION_ITEM('density measure',
POSITIVE_RATIO_MEASURE(1.),#1260);
#1262=PROPERTY_DEFINITION_REPRESENTATION(#1267,#1264);
#1263=PROPERTY_DEFINITION_REPRESENTATION(#1268,#1265);
#1264=REPRESENTATION('material name',(#1266),#2161);
#1265=REPRESENTATION('density',(#1261),#2161);
#1266=DESCRIPTIVE_REPRESENTATION_ITEM('Generic','Generic');
#1267=PROPERTY_DEFINITION('material property','material name',#2175);
#1268=PROPERTY_DEFINITION('material property','density of part',#2175);
#1269=DATE_TIME_ROLE('creation_date');
#1270=APPLIED_DATE_AND_TIME_ASSIGNMENT(#1271,#1269,(#2175));
#1271=DATE_AND_TIME(#1272,#1273);
#1272=CALENDAR_DATE(2025,17,12);
#1273=LOCAL_TIME(0,0,0.,#1274);
#1274=COORDINATED_UNIVERSAL_TIME_OFFSET(0,0,.BEHIND.);
#1275=AXIS2_PLACEMENT_3D('',#1819,#1430,#1431);
#1276=AXIS2_PLACEMENT_3D('',#1820,#1432,#1433);
#1277=AXIS2_PLACEMENT_3D('',#1829,#1438,#1439);
#1278=AXIS2_PLACEMENT_3D('',#1836,#1443,#1444);
#1279=AXIS2_PLACEMENT_3D('',#1838,#1445,#1446);
#1280=AXIS2_PLACEMENT_3D('',#1839,#1447,#1448);
#1281=AXIS2_PLACEMENT_3D('',#1843,#1451,#1452);
#1282=AXIS2_PLACEMENT_3D('',#1847,#1455,#1456);
#1283=AXIS2_PLACEMENT_3D('',#1857,#1462,#1463);
#1284=AXIS2_PLACEMENT_3D('',#1860,#1465,#1466);
#1285=AXIS2_PLACEMENT_3D('',#1861,#1467,#1468);
#1286=AXIS2_PLACEMENT_3D('',#1864,#1470,#1471);
#1287=AXIS2_PLACEMENT_3D('',#1865,#1472,#1473);
#1288=AXIS2_PLACEMENT_3D('',#1871,#1477,#1478);
#1289=AXIS2_PLACEMENT_3D('',#1875,#1481,#1482);
#1290=AXIS2_PLACEMENT_3D('',#1883,#1487,#1488);
#1291=AXIS2_PLACEMENT_3D('',#1885,#1489,#1490);
#1292=AXIS2_PLACEMENT_3D('',#1887,#1491,#1492);
#1293=AXIS2_PLACEMENT_3D('',#1888,#1493,#1494);
#1294=AXIS2_PLACEMENT_3D('',#1890,#1495,#1496);
#1295=AXIS2_PLACEMENT_3D('',#1892,#1498,#1499);
#1296=AXIS2_PLACEMENT_3D('',#1895,#1501,#1502);
#1297=AXIS2_PLACEMENT_3D('',#1896,#1503,#1504);
#1298=AXIS2_PLACEMENT_3D('',#1898,#1505,#1506);
#1299=AXIS2_PLACEMENT_3D('',#1900,#1507,#1508);
#1300=AXIS2_PLACEMENT_3D('',#1901,#1509,#1510);
#1301=AXIS2_PLACEMENT_3D('',#1903,#1511,#1512);
#1302=AXIS2_PLACEMENT_3D('',#1905,#1514,#1515);
#1303=AXIS2_PLACEMENT_3D('',#1908,#1517,#1518);
#1304=AXIS2_PLACEMENT_3D('',#1909,#1519,#1520);
#1305=AXIS2_PLACEMENT_3D('',#1911,#1521,#1522);
#1306=AXIS2_PLACEMENT_3D('',#1913,#1523,#1524);
#1307=AXIS2_PLACEMENT_3D('',#1914,#1525,#1526);
#1308=AXIS2_PLACEMENT_3D('',#1916,#1527,#1528);
#1309=AXIS2_PLACEMENT_3D('',#1918,#1530,#1531);
#1310=AXIS2_PLACEMENT_3D('',#1921,#1533,#1534);
#1311=AXIS2_PLACEMENT_3D('',#1922,#1535,#1536);
#1312=AXIS2_PLACEMENT_3D('',#1924,#1537,#1538);
#1313=AXIS2_PLACEMENT_3D('',#1926,#1539,#1540);
#1314=AXIS2_PLACEMENT_3D('',#1927,#1541,#1542);
#1315=AXIS2_PLACEMENT_3D('',#1929,#1543,#1544);
#1316=AXIS2_PLACEMENT_3D('',#1931,#1546,#1547);
#1317=AXIS2_PLACEMENT_3D('',#1934,#1549,#1550);
#1318=AXIS2_PLACEMENT_3D('',#1935,#1551,#1552);
#1319=AXIS2_PLACEMENT_3D('',#1937,#1553,#1554);
#1320=AXIS2_PLACEMENT_3D('',#1939,#1555,#1556);
#1321=AXIS2_PLACEMENT_3D('',#1940,#1557,#1558);
#1322=AXIS2_PLACEMENT_3D('',#1942,#1559,#1560);
#1323=AXIS2_PLACEMENT_3D('',#1944,#1562,#1563);
#1324=AXIS2_PLACEMENT_3D('',#1947,#1565,#1566);
#1325=AXIS2_PLACEMENT_3D('',#1948,#1567,#1568);
#1326=AXIS2_PLACEMENT_3D('',#1950,#1569,#1570);
#1327=AXIS2_PLACEMENT_3D('',#1952,#1571,#1572);
#1328=AXIS2_PLACEMENT_3D('',#1953,#1573,#1574);
#1329=AXIS2_PLACEMENT_3D('',#1955,#1575,#1576);
#1330=AXIS2_PLACEMENT_3D('',#1957,#1578,#1579);
#1331=AXIS2_PLACEMENT_3D('',#1960,#1581,#1582);
#1332=AXIS2_PLACEMENT_3D('',#1961,#1583,#1584);
#1333=AXIS2_PLACEMENT_3D('',#1963,#1585,#1586);
#1334=AXIS2_PLACEMENT_3D('',#1965,#1587,#1588);
#1335=AXIS2_PLACEMENT_3D('',#1966,#1589,#1590);
#1336=AXIS2_PLACEMENT_3D('',#1968,#1591,#1592);
#1337=AXIS2_PLACEMENT_3D('',#1970,#1594,#1595);
#1338=AXIS2_PLACEMENT_3D('',#1973,#1597,#1598);
#1339=AXIS2_PLACEMENT_3D('',#1974,#1599,#1600);
#1340=AXIS2_PLACEMENT_3D('',#1976,#1601,#1602);
#1341=AXIS2_PLACEMENT_3D('',#1978,#1603,#1604);
#1342=AXIS2_PLACEMENT_3D('',#1979,#1605,#1606);
#1343=AXIS2_PLACEMENT_3D('',#1981,#1607,#1608);
#1344=AXIS2_PLACEMENT_3D('',#1983,#1610,#1611);
#1345=AXIS2_PLACEMENT_3D('',#1986,#1613,#1614);
#1346=AXIS2_PLACEMENT_3D('',#1987,#1615,#1616);
#1347=AXIS2_PLACEMENT_3D('',#1989,#1617,#1618);
#1348=AXIS2_PLACEMENT_3D('',#1991,#1619,#1620);
#1349=AXIS2_PLACEMENT_3D('',#1992,#1621,#1622);
#1350=AXIS2_PLACEMENT_3D('',#1994,#1623,#1624);
#1351=AXIS2_PLACEMENT_3D('',#1996,#1626,#1627);
#1352=AXIS2_PLACEMENT_3D('',#1999,#1629,#1630);
#1353=AXIS2_PLACEMENT_3D('',#2000,#1631,#1632);
#1354=AXIS2_PLACEMENT_3D('',#2002,#1633,#1634);
#1355=AXIS2_PLACEMENT_3D('',#2004,#1635,#1636);
#1356=AXIS2_PLACEMENT_3D('',#2005,#1637,#1638);
#1357=AXIS2_PLACEMENT_3D('',#2007,#1639,#1640);
#1358=AXIS2_PLACEMENT_3D('',#2009,#1642,#1643);
#1359=AXIS2_PLACEMENT_3D('',#2012,#1645,#1646);
#1360=AXIS2_PLACEMENT_3D('',#2013,#1647,#1648);
#1361=AXIS2_PLACEMENT_3D('',#2015,#1649,#1650);
#1362=AXIS2_PLACEMENT_3D('',#2017,#1651,#1652);
#1363=AXIS2_PLACEMENT_3D('',#2018,#1653,#1654);
#1364=AXIS2_PLACEMENT_3D('',#2020,#1655,#1656);
#1365=AXIS2_PLACEMENT_3D('',#2022,#1658,#1659);
#1366=AXIS2_PLACEMENT_3D('',#2025,#1661,#1662);
#1367=AXIS2_PLACEMENT_3D('',#2026,#1663,#1664);
#1368=AXIS2_PLACEMENT_3D('',#2028,#1665,#1666);
#1369=AXIS2_PLACEMENT_3D('',#2030,#1667,#1668);
#1370=AXIS2_PLACEMENT_3D('',#2031,#1669,#1670);
#1371=AXIS2_PLACEMENT_3D('',#2033,#1671,#1672);
#1372=AXIS2_PLACEMENT_3D('',#2035,#1674,#1675);
#1373=AXIS2_PLACEMENT_3D('',#2038,#1677,#1678);
#1374=AXIS2_PLACEMENT_3D('',#2039,#1679,#1680);
#1375=AXIS2_PLACEMENT_3D('',#2041,#1681,#1682);
#1376=AXIS2_PLACEMENT_3D('',#2043,#1683,#1684);
#1377=AXIS2_PLACEMENT_3D('',#2044,#1685,#1686);
#1378=AXIS2_PLACEMENT_3D('',#2046,#1687,#1688);
#1379=AXIS2_PLACEMENT_3D('',#2048,#1690,#1691);
#1380=AXIS2_PLACEMENT_3D('',#2051,#1693,#1694);
#1381=AXIS2_PLACEMENT_3D('',#2052,#1695,#1696);
#1382=AXIS2_PLACEMENT_3D('',#2054,#1697,#1698);
#1383=AXIS2_PLACEMENT_3D('',#2056,#1699,#1700);
#1384=AXIS2_PLACEMENT_3D('',#2057,#1701,#1702);
#1385=AXIS2_PLACEMENT_3D('',#2059,#1703,#1704);
#1386=AXIS2_PLACEMENT_3D('',#2061,#1706,#1707);
#1387=AXIS2_PLACEMENT_3D('',#2064,#1709,#1710);
#1388=AXIS2_PLACEMENT_3D('',#2065,#1711,#1712);
#1389=AXIS2_PLACEMENT_3D('',#2067,#1713,#1714);
#1390=AXIS2_PLACEMENT_3D('',#2069,#1715,#1716);
#1391=AXIS2_PLACEMENT_3D('',#2070,#1717,#1718);
#1392=AXIS2_PLACEMENT_3D('',#2072,#1719,#1720);
#1393=AXIS2_PLACEMENT_3D('',#2074,#1722,#1723);
#1394=AXIS2_PLACEMENT_3D('',#2077,#1725,#1726);
#1395=AXIS2_PLACEMENT_3D('',#2078,#1727,#1728);
#1396=AXIS2_PLACEMENT_3D('',#2080,#1729,#1730);
#1397=AXIS2_PLACEMENT_3D('',#2082,#1731,#1732);
#1398=AXIS2_PLACEMENT_3D('',#2083,#1733,#1734);
#1399=AXIS2_PLACEMENT_3D('',#2085,#1735,#1736);
#1400=AXIS2_PLACEMENT_3D('',#2087,#1738,#1739);
#1401=AXIS2_PLACEMENT_3D('',#2090,#1741,#1742);
#1402=AXIS2_PLACEMENT_3D('',#2091,#1743,#1744);
#1403=AXIS2_PLACEMENT_3D('',#2093,#1745,#1746);
#1404=AXIS2_PLACEMENT_3D('',#2095,#1747,#1748);
#1405=AXIS2_PLACEMENT_3D('',#2096,#1749,#1750);
#1406=AXIS2_PLACEMENT_3D('',#2098,#1751,#1752);
#1407=AXIS2_PLACEMENT_3D('',#2100,#1754,#1755);
#1408=AXIS2_PLACEMENT_3D('',#2103,#1757,#1758);
#1409=AXIS2_PLACEMENT_3D('',#2104,#1759,#1760);
#1410=AXIS2_PLACEMENT_3D('',#2106,#1761,#1762);
#1411=AXIS2_PLACEMENT_3D('',#2108,#1763,#1764);
#1412=AXIS2_PLACEMENT_3D('',#2109,#1765,#1766);
#1413=AXIS2_PLACEMENT_3D('',#2111,#1767,#1768);
#1414=AXIS2_PLACEMENT_3D('',#2113,#1770,#1771);
#1415=AXIS2_PLACEMENT_3D('',#2116,#1773,#1774);
#1416=AXIS2_PLACEMENT_3D('',#2117,#1775,#1776);
#1417=AXIS2_PLACEMENT_3D('',#2119,#1777,#1778);
#1418=AXIS2_PLACEMENT_3D('',#2121,#1779,#1780);
#1419=AXIS2_PLACEMENT_3D('',#2122,#1781,#1782);
#1420=AXIS2_PLACEMENT_3D('',#2124,#1783,#1784);
#1421=AXIS2_PLACEMENT_3D('',#2126,#1786,#1787);
#1422=AXIS2_PLACEMENT_3D('',#2129,#1789,#1790);
#1423=AXIS2_PLACEMENT_3D('',#2130,#1791,#1792);
#1424=AXIS2_PLACEMENT_3D('',#2139,#1797,#1798);
#1425=AXIS2_PLACEMENT_3D('',#2142,#1801,#1802);
#1426=AXIS2_PLACEMENT_3D('',#2148,#1806,#1807);
#1427=AXIS2_PLACEMENT_3D('',#2154,#1811,#1812);
#1428=AXIS2_PLACEMENT_3D('',#2156,#1814,#1815);
#1429=AXIS2_PLACEMENT_3D('',#2158,#1817,#1818);
#1430=DIRECTION('axis',(0.,0.,1.));
#1431=DIRECTION('refdir',(1.,0.,0.));
#1432=DIRECTION('center_axis',(4.66235390918701E-16,0.,1.));
#1433=DIRECTION('ref_axis',(-1.,-1.99815167536586E-16,4.66235390918701E-16));
#1434=DIRECTION('',(0.,-1.,0.));
#1435=DIRECTION('',(-1.,-1.99815167536586E-16,4.66235390918701E-16));
#1436=DIRECTION('',(0.,-1.,0.));
#1437=DIRECTION('',(-1.,-1.99815167536586E-16,4.66235390918701E-16));
#1438=DIRECTION('center_axis',(-1.99815167536586E-16,1.,0.));
#1439=DIRECTION('ref_axis',(0.,0.,1.));
#1440=DIRECTION('',(0.,0.,-1.));
#1441=DIRECTION('',(5.59482469102441E-16,1.11793083297487E-31,1.));
#1442=DIRECTION('',(1.,1.99815167536586E-16,-1.16558847729675E-16));
#1443=DIRECTION('center_axis',(-1.99815167536586E-16,1.,0.));
#1444=DIRECTION('ref_axis',(1.,1.99815167536586E-16,0.));
#1445=DIRECTION('center_axis',(-1.99815167536586E-16,1.,0.));
#1446=DIRECTION('ref_axis',(1.,1.99815167536586E-16,0.));
#1447=DIRECTION('center_axis',(1.,0.,-5.59482469102441E-16));
#1448=DIRECTION('ref_axis',(5.59482469102441E-16,1.11793083297487E-31,1.));
#1449=DIRECTION('',(5.59482469102441E-16,1.11793083297487E-31,1.));
#1450=DIRECTION('',(0.,-1.,0.));
#1451=DIRECTION('center_axis',(-1.16558847729675E-16,0.,-1.));
#1452=DIRECTION('ref_axis',(1.,1.99815167536586E-16,-1.16558847729675E-16));
#1453=DIRECTION('',(0.,1.,0.));
#1454=DIRECTION('',(1.,1.99815167536586E-16,-1.16558847729675E-16));
#1455=DIRECTION('center_axis',(-1.,0.,0.));
#1456=DIRECTION('ref_axis',(0.,0.,-1.));
#1457=DIRECTION('',(0.,0.,-1.));
#1458=DIRECTION('',(0.,-1.,0.));
#1459=DIRECTION('',(0.,0.,-1.));
#1460=DIRECTION('',(0.,-1.,0.));
#1461=DIRECTION('',(0.,0.,-1.));
#1462=DIRECTION('center_axis',(-1.99815167536586E-16,1.,0.));
#1463=DIRECTION('ref_axis',(1.,1.99815167536586E-16,0.));
#1464=DIRECTION('',(1.99815167536586E-16,-1.,0.));
#1465=DIRECTION('center_axis',(0.,1.,0.));
#1466=DIRECTION('ref_axis',(1.,1.99815167536586E-16,0.));
#1467=DIRECTION('center_axis',(-1.99815167536586E-16,1.,0.));
#1468=DIRECTION('ref_axis',(1.,1.99815167536586E-16,0.));
#1469=DIRECTION('',(1.99815167536586E-16,-1.,0.));
#1470=DIRECTION('center_axis',(0.,1.,0.));
#1471=DIRECTION('ref_axis',(1.,1.99815167536586E-16,0.));
#1472=DIRECTION('center_axis',(-3.81465319842574E-16,0.,1.));
#1473=DIRECTION('ref_axis',(-1.,-1.99815167536586E-16,-3.81465319842574E-16));
#1474=DIRECTION('',(-1.,-1.99815167536586E-16,-3.81465319842574E-16));
#1475=DIRECTION('',(-1.,-1.99815167536586E-16,-3.81465319842574E-16));
#1476=DIRECTION('',(0.,-1.,0.));
#1477=DIRECTION('center_axis',(0.,-1.,0.));
#1478=DIRECTION('ref_axis',(0.,0.,-1.));
#1479=DIRECTION('',(1.,1.99815167536586E-16,0.));
#1480=DIRECTION('',(1.554117969729E-16,3.10536342493019E-32,1.));
#1481=DIRECTION('center_axis',(1.99815167536586E-16,-1.,0.));
#1482=DIRECTION('ref_axis',(0.,0.,-1.));
#1483=DIRECTION('',(1.554117969729E-16,3.10536342493019E-32,1.));
#1484=DIRECTION('',(1.,0.,0.));
#1485=DIRECTION('',(0.,0.,1.));
#1486=DIRECTION('',(1.,1.99815167536586E-16,0.));
#1487=DIRECTION('center_axis',(0.,0.,1.));
#1488=DIRECTION('ref_axis',(1.,0.,0.));
#1489=DIRECTION('center_axis',(0.,0.,1.));
#1490=DIRECTION('ref_axis',(1.,0.,0.));
#1491=DIRECTION('center_axis',(0.,0.,1.));
#1492=DIRECTION('ref_axis',(1.,0.,0.));
#1493=DIRECTION('center_axis',(0.,0.,1.));
#1494=DIRECTION('ref_axis',(1.,0.,0.));
#1495=DIRECTION('center_axis',(0.,0.,-1.));
#1496=DIRECTION('ref_axis',(1.,0.,0.));
#1497=DIRECTION('',(0.,0.,-1.));
#1498=DIRECTION('center_axis',(0.,0.,1.));
#1499=DIRECTION('ref_axis',(1.,0.,0.));
#1500=DIRECTION('',(0.,0.,-1.));
#1501=DIRECTION('center_axis',(0.,0.,1.));
#1502=DIRECTION('ref_axis',(1.,0.,0.));
#1503=DIRECTION('center_axis',(0.,0.,1.));
#1504=DIRECTION('ref_axis',(1.,0.,0.));
#1505=DIRECTION('center_axis',(0.,0.,1.));
#1506=DIRECTION('ref_axis',(1.,0.,0.));
#1507=DIRECTION('center_axis',(0.,0.,1.));
#1508=DIRECTION('ref_axis',(1.,0.,0.));
#1509=DIRECTION('center_axis',(0.,0.,1.));
#1510=DIRECTION('ref_axis',(1.,0.,0.));
#1511=DIRECTION('center_axis',(0.,0.,-1.));
#1512=DIRECTION('ref_axis',(1.,0.,0.));
#1513=DIRECTION('',(0.,0.,-1.));
#1514=DIRECTION('center_axis',(0.,0.,1.));
#1515=DIRECTION('ref_axis',(1.,0.,0.));
#1516=DIRECTION('',(0.,0.,-1.));
#1517=DIRECTION('center_axis',(0.,0.,1.));
#1518=DIRECTION('ref_axis',(1.,0.,0.));
#1519=DIRECTION('center_axis',(0.,0.,1.));
#1520=DIRECTION('ref_axis',(1.,0.,0.));
#1521=DIRECTION('center_axis',(0.,0.,1.));
#1522=DIRECTION('ref_axis',(1.,0.,0.));
#1523=DIRECTION('center_axis',(0.,0.,1.));
#1524=DIRECTION('ref_axis',(1.,0.,0.));
#1525=DIRECTION('center_axis',(0.,0.,1.));
#1526=DIRECTION('ref_axis',(1.,0.,0.));
#1527=DIRECTION('center_axis',(0.,0.,-1.));
#1528=DIRECTION('ref_axis',(1.,0.,0.));
#1529=DIRECTION('',(0.,0.,-1.));
#1530=DIRECTION('center_axis',(0.,0.,1.));
#1531=DIRECTION('ref_axis',(1.,0.,0.));
#1532=DIRECTION('',(0.,0.,-1.));
#1533=DIRECTION('center_axis',(0.,0.,1.));
#1534=DIRECTION('ref_axis',(1.,0.,0.));
#1535=DIRECTION('center_axis',(0.,0.,1.));
#1536=DIRECTION('ref_axis',(1.,0.,0.));
#1537=DIRECTION('center_axis',(0.,0.,1.));
#1538=DIRECTION('ref_axis',(1.,0.,0.));
#1539=DIRECTION('center_axis',(0.,0.,1.));
#1540=DIRECTION('ref_axis',(1.,0.,0.));
#1541=DIRECTION('center_axis',(0.,0.,1.));
#1542=DIRECTION('ref_axis',(1.,0.,0.));
#1543=DIRECTION('center_axis',(0.,0.,-1.));
#1544=DIRECTION('ref_axis',(1.,0.,0.));
#1545=DIRECTION('',(0.,0.,-1.));
#1546=DIRECTION('center_axis',(0.,0.,1.));
#1547=DIRECTION('ref_axis',(1.,0.,0.));
#1548=DIRECTION('',(0.,0.,-1.));
#1549=DIRECTION('center_axis',(0.,0.,1.));
#1550=DIRECTION('ref_axis',(1.,0.,0.));
#1551=DIRECTION('center_axis',(0.,0.,1.));
#1552=DIRECTION('ref_axis',(1.,0.,0.));
#1553=DIRECTION('center_axis',(0.,0.,1.));
#1554=DIRECTION('ref_axis',(1.,0.,0.));
#1555=DIRECTION('center_axis',(0.,0.,1.));
#1556=DIRECTION('ref_axis',(1.,0.,0.));
#1557=DIRECTION('center_axis',(0.,0.,1.));
#1558=DIRECTION('ref_axis',(1.,0.,0.));
#1559=DIRECTION('center_axis',(0.,0.,-1.));
#1560=DIRECTION('ref_axis',(1.,0.,0.));
#1561=DIRECTION('',(0.,0.,-1.));
#1562=DIRECTION('center_axis',(0.,0.,1.));
#1563=DIRECTION('ref_axis',(1.,0.,0.));
#1564=DIRECTION('',(0.,0.,-1.));
#1565=DIRECTION('center_axis',(0.,0.,1.));
#1566=DIRECTION('ref_axis',(1.,0.,0.));
#1567=DIRECTION('center_axis',(0.,0.,1.));
#1568=DIRECTION('ref_axis',(1.,0.,0.));
#1569=DIRECTION('center_axis',(0.,0.,1.));
#1570=DIRECTION('ref_axis',(1.,0.,0.));
#1571=DIRECTION('center_axis',(0.,0.,1.));
#1572=DIRECTION('ref_axis',(1.,0.,0.));
#1573=DIRECTION('center_axis',(0.,0.,1.));
#1574=DIRECTION('ref_axis',(1.,0.,0.));
#1575=DIRECTION('center_axis',(0.,0.,-1.));
#1576=DIRECTION('ref_axis',(1.,0.,0.));
#1577=DIRECTION('',(0.,0.,-1.));
#1578=DIRECTION('center_axis',(0.,0.,1.));
#1579=DIRECTION('ref_axis',(1.,0.,0.));
#1580=DIRECTION('',(0.,0.,-1.));
#1581=DIRECTION('center_axis',(0.,0.,1.));
#1582=DIRECTION('ref_axis',(1.,0.,0.));
#1583=DIRECTION('center_axis',(0.,0.,1.));
#1584=DIRECTION('ref_axis',(1.,0.,0.));
#1585=DIRECTION('center_axis',(0.,0.,1.));
#1586=DIRECTION('ref_axis',(1.,0.,0.));
#1587=DIRECTION('center_axis',(0.,0.,1.));
#1588=DIRECTION('ref_axis',(1.,0.,0.));
#1589=DIRECTION('center_axis',(0.,0.,1.));
#1590=DIRECTION('ref_axis',(1.,0.,0.));
#1591=DIRECTION('center_axis',(0.,0.,-1.));
#1592=DIRECTION('ref_axis',(1.,0.,0.));
#1593=DIRECTION('',(0.,0.,-1.));
#1594=DIRECTION('center_axis',(0.,0.,1.));
#1595=DIRECTION('ref_axis',(1.,0.,0.));
#1596=DIRECTION('',(0.,0.,-1.));
#1597=DIRECTION('center_axis',(0.,0.,1.));
#1598=DIRECTION('ref_axis',(1.,0.,0.));
#1599=DIRECTION('center_axis',(0.,0.,1.));
#1600=DIRECTION('ref_axis',(1.,0.,0.));
#1601=DIRECTION('center_axis',(0.,0.,1.));
#1602=DIRECTION('ref_axis',(1.,0.,0.));
#1603=DIRECTION('center_axis',(0.,0.,1.));
#1604=DIRECTION('ref_axis',(1.,0.,0.));
#1605=DIRECTION('center_axis',(0.,0.,1.));
#1606=DIRECTION('ref_axis',(1.,0.,0.));
#1607=DIRECTION('center_axis',(0.,0.,-1.));
#1608=DIRECTION('ref_axis',(1.,0.,0.));
#1609=DIRECTION('',(0.,0.,-1.));
#1610=DIRECTION('center_axis',(0.,0.,1.));
#1611=DIRECTION('ref_axis',(1.,0.,0.));
#1612=DIRECTION('',(0.,0.,-1.));
#1613=DIRECTION('center_axis',(0.,0.,1.));
#1614=DIRECTION('ref_axis',(1.,0.,0.));
#1615=DIRECTION('center_axis',(0.,0.,1.));
#1616=DIRECTION('ref_axis',(1.,0.,0.));
#1617=DIRECTION('center_axis',(0.,0.,1.));
#1618=DIRECTION('ref_axis',(1.,0.,0.));
#1619=DIRECTION('center_axis',(0.,0.,1.));
#1620=DIRECTION('ref_axis',(1.,0.,0.));
#1621=DIRECTION('center_axis',(0.,0.,1.));
#1622=DIRECTION('ref_axis',(1.,0.,0.));
#1623=DIRECTION('center_axis',(0.,0.,-1.));
#1624=DIRECTION('ref_axis',(1.,0.,0.));
#1625=DIRECTION('',(0.,0.,-1.));
#1626=DIRECTION('center_axis',(0.,0.,1.));
#1627=DIRECTION('ref_axis',(1.,0.,0.));
#1628=DIRECTION('',(0.,0.,-1.));
#1629=DIRECTION('center_axis',(0.,0.,1.));
#1630=DIRECTION('ref_axis',(1.,0.,0.));
#1631=DIRECTION('center_axis',(0.,0.,1.));
#1632=DIRECTION('ref_axis',(1.,0.,0.));
#1633=DIRECTION('center_axis',(0.,0.,1.));
#1634=DIRECTION('ref_axis',(1.,0.,0.));
#1635=DIRECTION('center_axis',(0.,0.,1.));
#1636=DIRECTION('ref_axis',(1.,0.,0.));
#1637=DIRECTION('center_axis',(0.,0.,1.));
#1638=DIRECTION('ref_axis',(1.,0.,0.));
#1639=DIRECTION('center_axis',(0.,0.,-1.));
#1640=DIRECTION('ref_axis',(1.,0.,0.));
#1641=DIRECTION('',(0.,0.,-1.));
#1642=DIRECTION('center_axis',(0.,0.,1.));
#1643=DIRECTION('ref_axis',(1.,0.,0.));
#1644=DIRECTION('',(0.,0.,-1.));
#1645=DIRECTION('center_axis',(0.,0.,1.));
#1646=DIRECTION('ref_axis',(1.,0.,0.));
#1647=DIRECTION('center_axis',(0.,0.,1.));
#1648=DIRECTION('ref_axis',(1.,0.,0.));
#1649=DIRECTION('center_axis',(0.,0.,1.));
#1650=DIRECTION('ref_axis',(1.,0.,0.));
#1651=DIRECTION('center_axis',(0.,0.,1.));
#1652=DIRECTION('ref_axis',(1.,0.,0.));
#1653=DIRECTION('center_axis',(0.,0.,1.));
#1654=DIRECTION('ref_axis',(1.,0.,0.));
#1655=DIRECTION('center_axis',(0.,0.,-1.));
#1656=DIRECTION('ref_axis',(1.,0.,0.));
#1657=DIRECTION('',(0.,0.,-1.));
#1658=DIRECTION('center_axis',(0.,0.,1.));
#1659=DIRECTION('ref_axis',(1.,0.,0.));
#1660=DIRECTION('',(0.,0.,-1.));
#1661=DIRECTION('center_axis',(0.,0.,1.));
#1662=DIRECTION('ref_axis',(1.,0.,0.));
#1663=DIRECTION('center_axis',(0.,0.,1.));
#1664=DIRECTION('ref_axis',(1.,0.,0.));
#1665=DIRECTION('center_axis',(0.,0.,1.));
#1666=DIRECTION('ref_axis',(1.,0.,0.));
#1667=DIRECTION('center_axis',(0.,0.,1.));
#1668=DIRECTION('ref_axis',(1.,0.,0.));
#1669=DIRECTION('center_axis',(0.,0.,1.));
#1670=DIRECTION('ref_axis',(1.,0.,0.));
#1671=DIRECTION('center_axis',(0.,0.,-1.));
#1672=DIRECTION('ref_axis',(1.,0.,0.));
#1673=DIRECTION('',(0.,0.,-1.));
#1674=DIRECTION('center_axis',(0.,0.,1.));
#1675=DIRECTION('ref_axis',(1.,0.,0.));
#1676=DIRECTION('',(0.,0.,-1.));
#1677=DIRECTION('center_axis',(0.,0.,1.));
#1678=DIRECTION('ref_axis',(1.,0.,0.));
#1679=DIRECTION('center_axis',(0.,0.,1.));
#1680=DIRECTION('ref_axis',(1.,0.,0.));
#1681=DIRECTION('center_axis',(0.,0.,1.));
#1682=DIRECTION('ref_axis',(1.,0.,0.));
#1683=DIRECTION('center_axis',(0.,0.,1.));
#1684=DIRECTION('ref_axis',(1.,0.,0.));
#1685=DIRECTION('center_axis',(0.,0.,1.));
#1686=DIRECTION('ref_axis',(1.,0.,0.));
#1687=DIRECTION('center_axis',(0.,0.,-1.));
#1688=DIRECTION('ref_axis',(1.,0.,0.));
#1689=DIRECTION('',(0.,0.,-1.));
#1690=DIRECTION('center_axis',(0.,0.,1.));
#1691=DIRECTION('ref_axis',(1.,0.,0.));
#1692=DIRECTION('',(0.,0.,-1.));
#1693=DIRECTION('center_axis',(0.,0.,1.));
#1694=DIRECTION('ref_axis',(1.,0.,0.));
#1695=DIRECTION('center_axis',(0.,0.,1.));
#1696=DIRECTION('ref_axis',(1.,0.,0.));
#1697=DIRECTION('center_axis',(0.,0.,1.));
#1698=DIRECTION('ref_axis',(1.,0.,0.));
#1699=DIRECTION('center_axis',(0.,0.,1.));
#1700=DIRECTION('ref_axis',(1.,0.,0.));
#1701=DIRECTION('center_axis',(0.,0.,1.));
#1702=DIRECTION('ref_axis',(1.,0.,0.));
#1703=DIRECTION('center_axis',(0.,0.,-1.));
#1704=DIRECTION('ref_axis',(1.,0.,0.));
#1705=DIRECTION('',(0.,0.,-1.));
#1706=DIRECTION('center_axis',(0.,0.,1.));
#1707=DIRECTION('ref_axis',(1.,0.,0.));
#1708=DIRECTION('',(0.,0.,-1.));
#1709=DIRECTION('center_axis',(0.,0.,1.));
#1710=DIRECTION('ref_axis',(1.,0.,0.));
#1711=DIRECTION('center_axis',(0.,0.,1.));
#1712=DIRECTION('ref_axis',(1.,0.,0.));
#1713=DIRECTION('center_axis',(0.,0.,1.));
#1714=DIRECTION('ref_axis',(1.,0.,0.));
#1715=DIRECTION('center_axis',(0.,0.,1.));
#1716=DIRECTION('ref_axis',(1.,0.,0.));
#1717=DIRECTION('center_axis',(0.,0.,1.));
#1718=DIRECTION('ref_axis',(1.,0.,0.));
#1719=DIRECTION('center_axis',(0.,0.,-1.));
#1720=DIRECTION('ref_axis',(1.,0.,0.));
#1721=DIRECTION('',(0.,0.,-1.));
#1722=DIRECTION('center_axis',(0.,0.,1.));
#1723=DIRECTION('ref_axis',(1.,0.,0.));
#1724=DIRECTION('',(0.,0.,-1.));
#1725=DIRECTION('center_axis',(0.,0.,1.));
#1726=DIRECTION('ref_axis',(1.,0.,0.));
#1727=DIRECTION('center_axis',(0.,0.,1.));
#1728=DIRECTION('ref_axis',(1.,0.,0.));
#1729=DIRECTION('center_axis',(0.,0.,1.));
#1730=DIRECTION('ref_axis',(1.,0.,0.));
#1731=DIRECTION('center_axis',(0.,0.,1.));
#1732=DIRECTION('ref_axis',(1.,0.,0.));
#1733=DIRECTION('center_axis',(0.,0.,1.));
#1734=DIRECTION('ref_axis',(1.,0.,0.));
#1735=DIRECTION('center_axis',(0.,0.,-1.));
#1736=DIRECTION('ref_axis',(1.,0.,0.));
#1737=DIRECTION('',(0.,0.,-1.));
#1738=DIRECTION('center_axis',(0.,0.,1.));
#1739=DIRECTION('ref_axis',(1.,0.,0.));
#1740=DIRECTION('',(0.,0.,-1.));
#1741=DIRECTION('center_axis',(0.,0.,1.));
#1742=DIRECTION('ref_axis',(1.,0.,0.));
#1743=DIRECTION('center_axis',(0.,0.,-1.));
#1744=DIRECTION('ref_axis',(-1.,0.,0.));
#1745=DIRECTION('center_axis',(0.,0.,-1.));
#1746=DIRECTION('ref_axis',(-1.,0.,0.));
#1747=DIRECTION('center_axis',(0.,0.,-1.));
#1748=DIRECTION('ref_axis',(-1.,0.,0.));
#1749=DIRECTION('center_axis',(0.,0.,-1.));
#1750=DIRECTION('ref_axis',(-1.,0.,0.));
#1751=DIRECTION('center_axis',(0.,0.,1.));
#1752=DIRECTION('ref_axis',(-1.,0.,0.));
#1753=DIRECTION('',(0.,0.,1.));
#1754=DIRECTION('center_axis',(0.,0.,-1.));
#1755=DIRECTION('ref_axis',(-1.,0.,0.));
#1756=DIRECTION('',(0.,0.,1.));
#1757=DIRECTION('center_axis',(0.,0.,-1.));
#1758=DIRECTION('ref_axis',(-1.,0.,0.));
#1759=DIRECTION('center_axis',(0.,0.,-1.));
#1760=DIRECTION('ref_axis',(-1.,0.,0.));
#1761=DIRECTION('center_axis',(0.,0.,-1.));
#1762=DIRECTION('ref_axis',(-1.,0.,0.));
#1763=DIRECTION('center_axis',(0.,0.,-1.));
#1764=DIRECTION('ref_axis',(-1.,0.,0.));
#1765=DIRECTION('center_axis',(0.,0.,-1.));
#1766=DIRECTION('ref_axis',(-1.,0.,0.));
#1767=DIRECTION('center_axis',(0.,0.,1.));
#1768=DIRECTION('ref_axis',(-1.,0.,0.));
#1769=DIRECTION('',(0.,0.,1.));
#1770=DIRECTION('center_axis',(0.,0.,-1.));
#1771=DIRECTION('ref_axis',(-1.,0.,0.));
#1772=DIRECTION('',(0.,0.,1.));
#1773=DIRECTION('center_axis',(0.,0.,-1.));
#1774=DIRECTION('ref_axis',(-1.,0.,0.));
#1775=DIRECTION('center_axis',(0.,0.,-1.));
#1776=DIRECTION('ref_axis',(-1.,0.,0.));
#1777=DIRECTION('center_axis',(0.,0.,-1.));
#1778=DIRECTION('ref_axis',(-1.,0.,0.));
#1779=DIRECTION('center_axis',(0.,0.,-1.));
#1780=DIRECTION('ref_axis',(-1.,0.,0.));
#1781=DIRECTION('center_axis',(0.,0.,-1.));
#1782=DIRECTION('ref_axis',(-1.,0.,0.));
#1783=DIRECTION('center_axis',(0.,0.,1.));
#1784=DIRECTION('ref_axis',(-1.,0.,0.));
#1785=DIRECTION('',(0.,0.,1.));
#1786=DIRECTION('center_axis',(0.,0.,-1.));
#1787=DIRECTION('ref_axis',(-1.,0.,0.));
#1788=DIRECTION('',(0.,0.,1.));
#1789=DIRECTION('center_axis',(0.,0.,-1.));
#1790=DIRECTION('ref_axis',(-1.,0.,0.));
#1791=DIRECTION('center_axis',(-9.9907583768293E-17,1.,0.));
#1792=DIRECTION('ref_axis',(-1.,-9.9907583768293E-17,0.));
#1793=DIRECTION('',(1.,9.9907583768293E-17,0.));
#1794=DIRECTION('',(0.,0.,1.));
#1795=DIRECTION('',(-1.,-9.9907583768293E-17,0.));
#1796=DIRECTION('',(0.,0.,1.));
#1797=DIRECTION('center_axis',(0.,0.,1.));
#1798=DIRECTION('ref_axis',(1.,0.,0.));
#1799=DIRECTION('',(-2.3311769545935E-16,1.,0.));
#1800=DIRECTION('',(5.82794238648376E-17,-1.,0.));
#1801=DIRECTION('center_axis',(0.,0.,1.));
#1802=DIRECTION('ref_axis',(1.,0.,0.));
#1803=DIRECTION('',(-1.74838271594513E-16,1.,0.));
#1804=DIRECTION('',(-1.,-1.99815167536586E-16,0.));
#1805=DIRECTION('',(5.82794238648376E-17,-1.,0.));
#1806=DIRECTION('center_axis',(-1.99815167536586E-16,1.,0.));
#1807=DIRECTION('ref_axis',(-1.,-1.99815167536586E-16,0.));
#1808=DIRECTION('',(-1.,-1.99815167536586E-16,0.));
#1809=DIRECTION('',(0.,0.,1.));
#1810=DIRECTION('',(0.,0.,1.));
#1811=DIRECTION('center_axis',(1.,1.74838271594513E-16,0.));
#1812=DIRECTION('ref_axis',(-1.74838271594513E-16,1.,0.));
#1813=DIRECTION('',(0.,-1.,0.));
#1814=DIRECTION('center_axis',(-1.,-5.82794238648376E-17,0.));
#1815=DIRECTION('ref_axis',(5.82794238648376E-17,-1.,0.));
#1816=DIRECTION('',(5.82794238648376E-17,-1.,0.));
#1817=DIRECTION('center_axis',(0.,0.,1.));
#1818=DIRECTION('ref_axis',(1.,0.,0.));
#1819=CARTESIAN_POINT('',(0.,0.,0.));
#1820=CARTESIAN_POINT('Origin',(-6.332,-3.,4.07));
#1821=CARTESIAN_POINT('',(-9.25,-3.,4.07));
#1822=CARTESIAN_POINT('',(-9.25,-3.041,4.07));
#1823=CARTESIAN_POINT('',(-9.25,-3.,4.07));
#1824=CARTESIAN_POINT('',(-6.332,-3.,4.07));
#1825=CARTESIAN_POINT('',(-5.041,-3.,4.07));
#1826=CARTESIAN_POINT('',(-6.332,-3.041,4.07));
#1827=CARTESIAN_POINT('',(-6.332,-3.,4.07));
#1828=CARTESIAN_POINT('',(-9.332,-3.041,4.07));
#1829=CARTESIAN_POINT('Origin',(-7.832,-3.041,2.82));
#1830=CARTESIAN_POINT('',(-9.25,-3.041,1.57));
#1831=CARTESIAN_POINT('',(-9.25,-3.041,3.66));
#1832=CARTESIAN_POINT('',(-6.332,-3.041,1.57));
#1833=CARTESIAN_POINT('',(-6.332,-3.041,4.07));
#1834=CARTESIAN_POINT('',(-6.332,-3.041,1.57));
#1835=CARTESIAN_POINT('',(-7.18,-3.041,2.82));
#1836=CARTESIAN_POINT('Origin',(-7.082,-3.041,2.82));
#1837=CARTESIAN_POINT('',(-8.18,-3.041,2.82));
#1838=CARTESIAN_POINT('Origin',(-8.082,-3.041,2.82));
#1839=CARTESIAN_POINT('Origin',(-6.332,-3.,1.57));
#1840=CARTESIAN_POINT('',(-6.332,-3.,1.57));
#1841=CARTESIAN_POINT('',(-6.332,-3.,1.91));
#1842=CARTESIAN_POINT('',(-6.332,-3.,1.57));
#1843=CARTESIAN_POINT('Origin',(-9.332,-3.,1.57));
#1844=CARTESIAN_POINT('',(-9.25,-3.,1.57));
#1845=CARTESIAN_POINT('',(-9.25,-3.,1.57));
#1846=CARTESIAN_POINT('',(-6.541,-3.,1.57));
#1847=CARTESIAN_POINT('Origin',(-9.25,-3.,4.5));
#1848=CARTESIAN_POINT('',(-9.25,-3.,0.));
#1849=CARTESIAN_POINT('',(-9.25,-3.,4.5));
#1850=CARTESIAN_POINT('',(-9.25,-3.25,0.));
#1851=CARTESIAN_POINT('',(-9.25,-3.,0.));
#1852=CARTESIAN_POINT('',(-9.25,-3.25,4.5));
#1853=CARTESIAN_POINT('',(-9.25,-3.25,4.5));
#1854=CARTESIAN_POINT('',(-9.25,-3.,4.5));
#1855=CARTESIAN_POINT('',(-9.25,-3.,4.5));
#1856=CARTESIAN_POINT('',(-9.25,-3.,4.5));
#1857=CARTESIAN_POINT('Origin',(-8.082,-16.4280490019958,2.82));
#1858=CARTESIAN_POINT('',(-8.18,-3.25,2.82));
#1859=CARTESIAN_POINT('',(-8.18,-16.4280490019958,2.82));
#1860=CARTESIAN_POINT('Origin',(-8.082,-3.25,2.82));
#1861=CARTESIAN_POINT('Origin',(-7.082,-16.4280490019958,2.82));
#1862=CARTESIAN_POINT('',(-7.18,-3.25,2.82));
#1863=CARTESIAN_POINT('',(-7.18,-16.4280490019958,2.82));
#1864=CARTESIAN_POINT('Origin',(-7.082,-3.25,2.82));
#1865=CARTESIAN_POINT('Origin',(1.75,-3.,4.5));
#1866=CARTESIAN_POINT('',(1.75,-3.,4.5));
#1867=CARTESIAN_POINT('',(1.75,-3.,4.5));
#1868=CARTESIAN_POINT('',(1.75,-3.25,4.5));
#1869=CARTESIAN_POINT('',(1.75,-3.25,4.5));
#1870=CARTESIAN_POINT('',(1.75,-3.,4.5));
#1871=CARTESIAN_POINT('Origin',(-3.75,-3.25,2.25));
#1872=CARTESIAN_POINT('',(1.75,-3.25,0.));
#1873=CARTESIAN_POINT('',(-9.25,-3.25,0.));
#1874=CARTESIAN_POINT('',(1.75,-3.25,0.));
#1875=CARTESIAN_POINT('Origin',(-3.75,-3.,2.25));
#1876=CARTESIAN_POINT('',(1.75,-3.,1.32));
#1877=CARTESIAN_POINT('',(1.75,-3.,0.));
#1878=CARTESIAN_POINT('',(-1.75,-3.,1.32));
#1879=CARTESIAN_POINT('',(-1.75,-3.,1.32));
#1880=CARTESIAN_POINT('',(-1.75,-3.,0.));
#1881=CARTESIAN_POINT('',(-1.75,-3.,0.));
#1882=CARTESIAN_POINT('',(-9.25,-3.,0.));
#1883=CARTESIAN_POINT('Origin',(0.492126,-0.965881889763779,1.02));
#1884=CARTESIAN_POINT('',(0.292126,-0.965881889763779,1.02));
#1885=CARTESIAN_POINT('Origin',(0.492126,-0.965881889763779,1.02));
#1886=CARTESIAN_POINT('',(0.367126,-0.965881889763779,1.02));
#1887=CARTESIAN_POINT('Origin',(0.492126,-0.965881889763779,1.02));
#1888=CARTESIAN_POINT('Origin',(0.492126,-0.965881889763779,1.17));
#1889=CARTESIAN_POINT('',(0.292126,-0.965881889763779,1.32));
#1890=CARTESIAN_POINT('Origin',(0.492126,-0.965881889763779,1.32));
#1891=CARTESIAN_POINT('',(0.292126,-0.965881889763779,1.17));
#1892=CARTESIAN_POINT('Origin',(0.492126,-0.965881889763779,-5.75053039028898));
#1893=CARTESIAN_POINT('',(0.367126,-0.965881889763779,0.));
#1894=CARTESIAN_POINT('',(0.367126,-0.965881889763779,-5.75053039028898));
#1895=CARTESIAN_POINT('Origin',(0.492126,-0.965881889763779,0.));
#1896=CARTESIAN_POINT('Origin',(0.492126,-0.473755905511811,1.02));
#1897=CARTESIAN_POINT('',(0.292126,-0.473755905511811,1.02));
#1898=CARTESIAN_POINT('Origin',(0.492126,-0.473755905511811,1.02));
#1899=CARTESIAN_POINT('',(0.367126,-0.473755905511811,1.02));
#1900=CARTESIAN_POINT('Origin',(0.492126,-0.473755905511811,1.02));
#1901=CARTESIAN_POINT('Origin',(0.492126,-0.473755905511811,1.17));
#1902=CARTESIAN_POINT('',(0.292126,-0.473755905511811,1.32));
#1903=CARTESIAN_POINT('Origin',(0.492126,-0.473755905511811,1.32));
#1904=CARTESIAN_POINT('',(0.292126,-0.473755905511811,1.17));
#1905=CARTESIAN_POINT('Origin',(0.492126,-0.473755905511811,-5.75053039028898));
#1906=CARTESIAN_POINT('',(0.367126,-0.473755905511811,0.));
#1907=CARTESIAN_POINT('',(0.367126,-0.473755905511811,-5.75053039028898));
#1908=CARTESIAN_POINT('Origin',(0.492126,-0.473755905511811,0.));
#1909=CARTESIAN_POINT('Origin',(0.492125968503936,-2.44225984251968,1.02));
#1910=CARTESIAN_POINT('',(0.292125968503936,-2.44225984251968,1.02));
#1911=CARTESIAN_POINT('Origin',(0.492125968503936,-2.44225984251968,1.02));
#1912=CARTESIAN_POINT('',(0.367125968503936,-2.44225984251968,1.02));
#1913=CARTESIAN_POINT('Origin',(0.492125968503936,-2.44225984251968,1.02));
#1914=CARTESIAN_POINT('Origin',(0.492125968503936,-2.44225984251968,1.17));
#1915=CARTESIAN_POINT('',(0.292125968503936,-2.44225984251968,1.32));
#1916=CARTESIAN_POINT('Origin',(0.492125968503936,-2.44225984251968,1.32));
#1917=CARTESIAN_POINT('',(0.292125968503936,-2.44225984251968,1.17));
#1918=CARTESIAN_POINT('Origin',(0.492125968503936,-2.44225984251968,-5.75053039028898));
#1919=CARTESIAN_POINT('',(0.367125968503936,-2.44225984251968,0.));
#1920=CARTESIAN_POINT('',(0.367125968503936,-2.44225984251968,-5.75053039028898));
#1921=CARTESIAN_POINT('Origin',(0.492125968503936,-2.44225984251968,0.));
#1922=CARTESIAN_POINT('Origin',(-0.492126000000001,-2.44225984251968,1.02));
#1923=CARTESIAN_POINT('',(-0.692126000000001,-2.44225984251968,1.02));
#1924=CARTESIAN_POINT('Origin',(-0.492126000000001,-2.44225984251968,1.02));
#1925=CARTESIAN_POINT('',(-0.617126000000001,-2.44225984251968,1.02));
#1926=CARTESIAN_POINT('Origin',(-0.492126000000001,-2.44225984251968,1.02));
#1927=CARTESIAN_POINT('Origin',(-0.492126000000001,-2.44225984251968,1.17));
#1928=CARTESIAN_POINT('',(-0.692126000000001,-2.44225984251968,1.32));
#1929=CARTESIAN_POINT('Origin',(-0.492126000000001,-2.44225984251968,1.32));
#1930=CARTESIAN_POINT('',(-0.692126000000001,-2.44225984251968,1.17));
#1931=CARTESIAN_POINT('Origin',(-0.492126000000001,-2.44225984251968,-5.75053039028898));
#1932=CARTESIAN_POINT('',(-0.617126000000001,-2.44225984251968,0.));
#1933=CARTESIAN_POINT('',(-0.617126000000001,-2.44225984251968,-5.75053039028898));
#1934=CARTESIAN_POINT('Origin',(-0.492126000000001,-2.44225984251968,0.));
#1935=CARTESIAN_POINT('Origin',(0.492125968503936,-1.95013385826772,1.02));
#1936=CARTESIAN_POINT('',(0.292125968503936,-1.95013385826772,1.02));
#1937=CARTESIAN_POINT('Origin',(0.492125968503936,-1.95013385826772,1.02));
#1938=CARTESIAN_POINT('',(0.367125968503936,-1.95013385826772,1.02));
#1939=CARTESIAN_POINT('Origin',(0.492125968503936,-1.95013385826772,1.02));
#1940=CARTESIAN_POINT('Origin',(0.492125968503936,-1.95013385826772,1.17));
#1941=CARTESIAN_POINT('',(0.292125968503936,-1.95013385826772,1.32));
#1942=CARTESIAN_POINT('Origin',(0.492125968503936,-1.95013385826772,1.32));
#1943=CARTESIAN_POINT('',(0.292125968503936,-1.95013385826772,1.17));
#1944=CARTESIAN_POINT('Origin',(0.492125968503936,-1.95013385826772,-5.75053039028898));
#1945=CARTESIAN_POINT('',(0.367125968503936,-1.95013385826772,0.));
#1946=CARTESIAN_POINT('',(0.367125968503936,-1.95013385826772,-5.75053039028898));
#1947=CARTESIAN_POINT('Origin',(0.492125968503936,-1.95013385826772,0.));
#1948=CARTESIAN_POINT('Origin',(-0.492126000000001,-1.95013385826772,1.02));
#1949=CARTESIAN_POINT('',(-0.692126000000001,-1.95013385826772,1.02));
#1950=CARTESIAN_POINT('Origin',(-0.492126000000001,-1.95013385826772,1.02));
#1951=CARTESIAN_POINT('',(-0.617126000000001,-1.95013385826772,1.02));
#1952=CARTESIAN_POINT('Origin',(-0.492126000000001,-1.95013385826772,1.02));
#1953=CARTESIAN_POINT('Origin',(-0.492126000000001,-1.95013385826772,1.17));
#1954=CARTESIAN_POINT('',(-0.692126000000001,-1.95013385826772,1.32));
#1955=CARTESIAN_POINT('Origin',(-0.492126000000001,-1.95013385826772,1.32));
#1956=CARTESIAN_POINT('',(-0.692126000000001,-1.95013385826772,1.17));
#1957=CARTESIAN_POINT('Origin',(-0.492126000000001,-1.95013385826772,-5.75053039028898));
#1958=CARTESIAN_POINT('',(-0.617126000000001,-1.95013385826772,0.));
#1959=CARTESIAN_POINT('',(-0.617126000000001,-1.95013385826772,-5.75053039028898));
#1960=CARTESIAN_POINT('Origin',(-0.492126000000001,-1.95013385826772,0.));
#1961=CARTESIAN_POINT('Origin',(0.492125968503936,-1.45800787401575,1.02));
#1962=CARTESIAN_POINT('',(0.292125968503936,-1.45800787401575,1.02));
#1963=CARTESIAN_POINT('Origin',(0.492125968503936,-1.45800787401575,1.02));
#1964=CARTESIAN_POINT('',(0.367125968503936,-1.45800787401575,1.02));
#1965=CARTESIAN_POINT('Origin',(0.492125968503936,-1.45800787401575,1.02));
#1966=CARTESIAN_POINT('Origin',(0.492125968503936,-1.45800787401575,1.17));
#1967=CARTESIAN_POINT('',(0.292125968503936,-1.45800787401575,1.32));
#1968=CARTESIAN_POINT('Origin',(0.492125968503936,-1.45800787401575,1.32));
#1969=CARTESIAN_POINT('',(0.292125968503936,-1.45800787401575,1.17));
#1970=CARTESIAN_POINT('Origin',(0.492125968503936,-1.45800787401575,-5.75053039028898));
#1971=CARTESIAN_POINT('',(0.367125968503936,-1.45800787401575,0.));
#1972=CARTESIAN_POINT('',(0.367125968503936,-1.45800787401575,-5.75053039028898));
#1973=CARTESIAN_POINT('Origin',(0.492125968503936,-1.45800787401575,0.));
#1974=CARTESIAN_POINT('Origin',(-0.492126000000001,-1.45800787401575,1.02));
#1975=CARTESIAN_POINT('',(-0.692126000000001,-1.45800787401575,1.02));
#1976=CARTESIAN_POINT('Origin',(-0.492126000000001,-1.45800787401575,1.02));
#1977=CARTESIAN_POINT('',(-0.617126000000001,-1.45800787401575,1.02));
#1978=CARTESIAN_POINT('Origin',(-0.492126000000001,-1.45800787401575,1.02));
#1979=CARTESIAN_POINT('Origin',(-0.492126000000001,-1.45800787401575,1.17));
#1980=CARTESIAN_POINT('',(-0.692126000000001,-1.45800787401575,1.32));
#1981=CARTESIAN_POINT('Origin',(-0.492126000000001,-1.45800787401575,1.32));
#1982=CARTESIAN_POINT('',(-0.692126000000001,-1.45800787401575,1.17));
#1983=CARTESIAN_POINT('Origin',(-0.492126000000001,-1.45800787401575,-5.75053039028898));
#1984=CARTESIAN_POINT('',(-0.617126000000001,-1.45800787401575,0.));
#1985=CARTESIAN_POINT('',(-0.617126000000001,-1.45800787401575,-5.75053039028898));
#1986=CARTESIAN_POINT('Origin',(-0.492126000000001,-1.45800787401575,0.));
#1987=CARTESIAN_POINT('Origin',(0.492125968503935,0.0183700787401575,1.02));
#1988=CARTESIAN_POINT('',(0.292125968503935,0.0183700787401575,1.02));
#1989=CARTESIAN_POINT('Origin',(0.492125968503935,0.0183700787401575,1.02));
#1990=CARTESIAN_POINT('',(0.367125968503935,0.0183700787401575,1.02));
#1991=CARTESIAN_POINT('Origin',(0.492125968503935,0.0183700787401575,1.02));
#1992=CARTESIAN_POINT('Origin',(0.492125968503935,0.0183700787401575,1.17));
#1993=CARTESIAN_POINT('',(0.292125968503935,0.0183700787401575,1.32));
#1994=CARTESIAN_POINT('Origin',(0.492125968503935,0.0183700787401575,1.32));
#1995=CARTESIAN_POINT('',(0.292125968503935,0.0183700787401575,1.17));
#1996=CARTESIAN_POINT('Origin',(0.492125968503935,0.0183700787401575,-5.75053039028898));
#1997=CARTESIAN_POINT('',(0.367125968503935,0.0183700787401575,0.));
#1998=CARTESIAN_POINT('',(0.367125968503935,0.0183700787401575,-5.75053039028898));
#1999=CARTESIAN_POINT('Origin',(0.492125968503935,0.0183700787401575,0.));
#2000=CARTESIAN_POINT('Origin',(-0.492126000000002,0.0183700787401575,1.02));
#2001=CARTESIAN_POINT('',(-0.692126000000001,0.0183700787401575,1.02));
#2002=CARTESIAN_POINT('Origin',(-0.492126000000002,0.0183700787401575,1.02));
#2003=CARTESIAN_POINT('',(-0.617126000000002,0.0183700787401575,1.02));
#2004=CARTESIAN_POINT('Origin',(-0.492126000000002,0.0183700787401575,1.02));
#2005=CARTESIAN_POINT('Origin',(-0.492126000000002,0.0183700787401575,1.17));
#2006=CARTESIAN_POINT('',(-0.692126000000001,0.0183700787401575,1.32));
#2007=CARTESIAN_POINT('Origin',(-0.492126000000002,0.0183700787401575,1.32));
#2008=CARTESIAN_POINT('',(-0.692126000000001,0.0183700787401575,1.17));
#2009=CARTESIAN_POINT('Origin',(-0.492126000000002,0.0183700787401575,-5.75053039028898));
#2010=CARTESIAN_POINT('',(-0.617126000000002,0.0183700787401575,0.));
#2011=CARTESIAN_POINT('',(-0.617126000000002,0.0183700787401575,-5.75053039028898));
#2012=CARTESIAN_POINT('Origin',(-0.492126000000002,0.0183700787401575,0.));
#2013=CARTESIAN_POINT('Origin',(0.492125968503936,1.00262204724409,0.2));
#2014=CARTESIAN_POINT('',(0.292125968503936,1.00262204724409,0.2));
#2015=CARTESIAN_POINT('Origin',(0.492125968503936,1.00262204724409,0.2));
#2016=CARTESIAN_POINT('',(0.367125968503936,1.00262204724409,0.2));
#2017=CARTESIAN_POINT('Origin',(0.492125968503936,1.00262204724409,0.2));
#2018=CARTESIAN_POINT('Origin',(0.492125968503936,1.00262204724409,0.35));
#2019=CARTESIAN_POINT('',(0.292125968503936,1.00262204724409,0.5));
#2020=CARTESIAN_POINT('Origin',(0.492125968503936,1.00262204724409,0.5));
#2021=CARTESIAN_POINT('',(0.292125968503936,1.00262204724409,0.35));
#2022=CARTESIAN_POINT('Origin',(0.492125968503936,1.00262204724409,-6.57053039028898));
#2023=CARTESIAN_POINT('',(0.367125968503936,1.00262204724409,0.));
#2024=CARTESIAN_POINT('',(0.367125968503936,1.00262204724409,-6.57053039028898));
#2025=CARTESIAN_POINT('Origin',(0.492125968503936,1.00262204724409,0.));
#2026=CARTESIAN_POINT('Origin',(-0.492126000000001,1.00262204724409,0.2));
#2027=CARTESIAN_POINT('',(-0.692126000000001,1.00262204724409,0.2));
#2028=CARTESIAN_POINT('Origin',(-0.492126000000001,1.00262204724409,0.2));
#2029=CARTESIAN_POINT('',(-0.617126000000001,1.00262204724409,0.2));
#2030=CARTESIAN_POINT('Origin',(-0.492126000000001,1.00262204724409,0.2));
#2031=CARTESIAN_POINT('Origin',(-0.492126000000001,1.00262204724409,0.35));
#2032=CARTESIAN_POINT('',(-0.692126000000001,1.00262204724409,0.5));
#2033=CARTESIAN_POINT('Origin',(-0.492126000000001,1.00262204724409,0.5));
#2034=CARTESIAN_POINT('',(-0.692126000000001,1.00262204724409,0.35));
#2035=CARTESIAN_POINT('Origin',(-0.492126000000001,1.00262204724409,-6.57053039028898));
#2036=CARTESIAN_POINT('',(-0.617126000000001,1.00262204724409,0.));
#2037=CARTESIAN_POINT('',(-0.617126000000001,1.00262204724409,-6.57053039028898));
#2038=CARTESIAN_POINT('Origin',(-0.492126000000001,1.00262204724409,0.));
#2039=CARTESIAN_POINT('Origin',(0.492125968503936,1.98687401574803,0.2));
#2040=CARTESIAN_POINT('',(0.292125968503936,1.98687401574803,0.2));
#2041=CARTESIAN_POINT('Origin',(0.492125968503936,1.98687401574803,0.2));
#2042=CARTESIAN_POINT('',(0.367125968503936,1.98687401574803,0.2));
#2043=CARTESIAN_POINT('Origin',(0.492125968503936,1.98687401574803,0.2));
#2044=CARTESIAN_POINT('Origin',(0.492125968503936,1.98687401574803,0.35));
#2045=CARTESIAN_POINT('',(0.292125968503936,1.98687401574803,0.5));
#2046=CARTESIAN_POINT('Origin',(0.492125968503936,1.98687401574803,0.5));
#2047=CARTESIAN_POINT('',(0.292125968503936,1.98687401574803,0.35));
#2048=CARTESIAN_POINT('Origin',(0.492125968503936,1.98687401574803,-6.57053039028898));
#2049=CARTESIAN_POINT('',(0.367125968503936,1.98687401574803,0.));
#2050=CARTESIAN_POINT('',(0.367125968503936,1.98687401574803,-6.57053039028898));
#2051=CARTESIAN_POINT('Origin',(0.492125968503936,1.98687401574803,0.));
#2052=CARTESIAN_POINT('Origin',(-0.492126000000001,1.98687401574803,0.2));
#2053=CARTESIAN_POINT('',(-0.692126000000001,1.98687401574803,0.2));
#2054=CARTESIAN_POINT('Origin',(-0.492126000000001,1.98687401574803,0.2));
#2055=CARTESIAN_POINT('',(-0.617126000000001,1.98687401574803,0.2));
#2056=CARTESIAN_POINT('Origin',(-0.492126000000001,1.98687401574803,0.2));
#2057=CARTESIAN_POINT('Origin',(-0.492126000000001,1.98687401574803,0.35));
#2058=CARTESIAN_POINT('',(-0.692126000000001,1.98687401574803,0.5));
#2059=CARTESIAN_POINT('Origin',(-0.492126000000001,1.98687401574803,0.5));
#2060=CARTESIAN_POINT('',(-0.692126000000001,1.98687401574803,0.35));
#2061=CARTESIAN_POINT('Origin',(-0.492126000000001,1.98687401574803,-6.57053039028898));
#2062=CARTESIAN_POINT('',(-0.617126000000001,1.98687401574803,0.));
#2063=CARTESIAN_POINT('',(-0.617126000000001,1.98687401574803,-6.57053039028898));
#2064=CARTESIAN_POINT('Origin',(-0.492126000000001,1.98687401574803,0.));
#2065=CARTESIAN_POINT('Origin',(0.492125968503936,2.479,0.2));
#2066=CARTESIAN_POINT('',(0.292125968503936,2.479,0.2));
#2067=CARTESIAN_POINT('Origin',(0.492125968503936,2.479,0.2));
#2068=CARTESIAN_POINT('',(0.367125968503936,2.479,0.2));
#2069=CARTESIAN_POINT('Origin',(0.492125968503936,2.479,0.2));
#2070=CARTESIAN_POINT('Origin',(0.492125968503936,2.479,0.35));
#2071=CARTESIAN_POINT('',(0.292125968503936,2.479,0.5));
#2072=CARTESIAN_POINT('Origin',(0.492125968503936,2.479,0.5));
#2073=CARTESIAN_POINT('',(0.292125968503936,2.479,0.35));
#2074=CARTESIAN_POINT('Origin',(0.492125968503936,2.479,-6.57053039028898));
#2075=CARTESIAN_POINT('',(0.367125968503936,2.479,0.));
#2076=CARTESIAN_POINT('',(0.367125968503936,2.479,-6.57053039028898));
#2077=CARTESIAN_POINT('Origin',(0.492125968503936,2.479,0.));
#2078=CARTESIAN_POINT('Origin',(-0.492126000000001,2.479,0.2));
#2079=CARTESIAN_POINT('',(-0.692126000000001,2.479,0.2));
#2080=CARTESIAN_POINT('Origin',(-0.492126000000001,2.479,0.2));
#2081=CARTESIAN_POINT('',(-0.617126000000001,2.479,0.2));
#2082=CARTESIAN_POINT('Origin',(-0.492126000000001,2.479,0.2));
#2083=CARTESIAN_POINT('Origin',(-0.492126000000001,2.479,0.35));
#2084=CARTESIAN_POINT('',(-0.692126000000001,2.479,0.5));
#2085=CARTESIAN_POINT('Origin',(-0.492126000000001,2.479,0.5));
#2086=CARTESIAN_POINT('',(-0.692126000000001,2.479,0.35));
#2087=CARTESIAN_POINT('Origin',(-0.492126000000001,2.479,-6.57053039028898));
#2088=CARTESIAN_POINT('',(-0.617126000000001,2.479,0.));
#2089=CARTESIAN_POINT('',(-0.617126000000001,2.479,-6.57053039028898));
#2090=CARTESIAN_POINT('Origin',(-0.492126000000001,2.479,0.));
#2091=CARTESIAN_POINT('Origin',(-0.281748031496063,1.41484251968504,0.3));
#2092=CARTESIAN_POINT('',(-0.0817480314960628,1.41484251968504,0.3));
#2093=CARTESIAN_POINT('Origin',(-0.281748031496063,1.41484251968504,0.3));
#2094=CARTESIAN_POINT('',(-0.156748031496063,1.41484251968504,0.3));
#2095=CARTESIAN_POINT('Origin',(-0.281748031496063,1.41484251968504,0.3));
#2096=CARTESIAN_POINT('Origin',(-0.281748031496063,1.41484251968504,0.15));
#2097=CARTESIAN_POINT('',(-0.0817480314960628,1.41484251968504,0.));
#2098=CARTESIAN_POINT('Origin',(-0.281748031496063,1.41484251968504,0.));
#2099=CARTESIAN_POINT('',(-0.0817480314960628,1.41484251968504,0.15));
#2100=CARTESIAN_POINT('Origin',(-0.281748031496063,1.41484251968504,7.07053039028898));
#2101=CARTESIAN_POINT('',(-0.156748031496063,1.41484251968504,0.5));
#2102=CARTESIAN_POINT('',(-0.156748031496063,1.41484251968504,7.07053039028898));
#2103=CARTESIAN_POINT('Origin',(-0.281748031496063,1.41484251968504,0.5));
#2104=CARTESIAN_POINT('Origin',(-1.266,1.41484251968504,0.3));
#2105=CARTESIAN_POINT('',(-1.066,1.41484251968504,0.3));
#2106=CARTESIAN_POINT('Origin',(-1.266,1.41484251968504,0.3));
#2107=CARTESIAN_POINT('',(-1.141,1.41484251968504,0.3));
#2108=CARTESIAN_POINT('Origin',(-1.266,1.41484251968504,0.3));
#2109=CARTESIAN_POINT('Origin',(-1.266,1.41484251968504,0.15));
#2110=CARTESIAN_POINT('',(-1.066,1.41484251968504,0.));
#2111=CARTESIAN_POINT('Origin',(-1.266,1.41484251968504,0.));
#2112=CARTESIAN_POINT('',(-1.066,1.41484251968504,0.15));
#2113=CARTESIAN_POINT('Origin',(-1.266,1.41484251968504,7.07053039028898));
#2114=CARTESIAN_POINT('',(-1.141,1.41484251968504,0.5));
#2115=CARTESIAN_POINT('',(-1.141,1.41484251968504,7.07053039028898));
#2116=CARTESIAN_POINT('Origin',(-1.266,1.41484251968504,0.5));
#2117=CARTESIAN_POINT('Origin',(-0.749999999999999,-0.6,0.3));
#2118=CARTESIAN_POINT('',(-0.549999999999999,-0.6,0.3));
#2119=CARTESIAN_POINT('Origin',(-0.749999999999999,-0.6,0.3));
#2120=CARTESIAN_POINT('',(-0.624999999999999,-0.6,0.3));
#2121=CARTESIAN_POINT('Origin',(-0.749999999999999,-0.6,0.3));
#2122=CARTESIAN_POINT('Origin',(-0.749999999999999,-0.6,0.15));
#2123=CARTESIAN_POINT('',(-0.549999999999999,-0.6,0.));
#2124=CARTESIAN_POINT('Origin',(-0.749999999999999,-0.6,0.));
#2125=CARTESIAN_POINT('',(-0.549999999999999,-0.6,0.15));
#2126=CARTESIAN_POINT('Origin',(-0.749999999999999,-0.6,7.07053039028898));
#2127=CARTESIAN_POINT('',(-0.624999999999999,-0.6,1.32));
#2128=CARTESIAN_POINT('',(-0.624999999999999,-0.6,7.07053039028898));
#2129=CARTESIAN_POINT('Origin',(-0.749999999999999,-0.6,1.32));
#2130=CARTESIAN_POINT('Origin',(1.75,0.78,0.5));
#2131=CARTESIAN_POINT('',(-1.75,0.779999999999999,0.5));
#2132=CARTESIAN_POINT('',(1.75,0.78,0.5));
#2133=CARTESIAN_POINT('',(0.875,0.78,0.5));
#2134=CARTESIAN_POINT('',(-1.75,0.78,1.32));
#2135=CARTESIAN_POINT('',(-1.75,0.779999999999999,0.5));
#2136=CARTESIAN_POINT('',(1.75,0.78,1.32));
#2137=CARTESIAN_POINT('',(1.75,0.78,1.32));
#2138=CARTESIAN_POINT('',(1.75,0.78,0.5));
#2139=CARTESIAN_POINT('Origin',(-3.49676543189026E-16,-1.11,1.32));
#2140=CARTESIAN_POINT('',(1.75,-3.,1.32));
#2141=CARTESIAN_POINT('',(-1.75,3.,1.32));
#2142=CARTESIAN_POINT('Origin',(3.49676543189026E-16,0.,0.5));
#2143=CARTESIAN_POINT('',(1.75,3.,0.5));
#2144=CARTESIAN_POINT('',(1.75,-3.,0.5));
#2145=CARTESIAN_POINT('',(-1.75,3.,0.5));
#2146=CARTESIAN_POINT('',(1.75,3.,0.5));
#2147=CARTESIAN_POINT('',(-1.75,3.,0.5));
#2148=CARTESIAN_POINT('Origin',(1.75,3.,0.));
#2149=CARTESIAN_POINT('',(1.75,3.,0.));
#2150=CARTESIAN_POINT('',(-1.75,3.,0.));
#2151=CARTESIAN_POINT('',(1.75,3.,0.));
#2152=CARTESIAN_POINT('',(-1.75,3.,0.));
#2153=CARTESIAN_POINT('',(1.75,3.,0.));
#2154=CARTESIAN_POINT('Origin',(1.75,-3.,0.));
#2155=CARTESIAN_POINT('',(1.75,-3.,0.));
#2156=CARTESIAN_POINT('Origin',(-1.75,3.,0.));
#2157=CARTESIAN_POINT('',(-1.75,3.,0.));
#2158=CARTESIAN_POINT('Origin',(1.74838271594513E-16,0.,0.));
#2159=UNCERTAINTY_MEASURE_WITH_UNIT(LENGTH_MEASURE(0.000393700787401575),
#2165,'DISTANCE_ACCURACY_VALUE',
'Maximum model space distance between geometric entities at asserted c
onnectivities');
#2160=UNCERTAINTY_MEASURE_WITH_UNIT(LENGTH_MEASURE(0.000393700787401575),
#2165,'DISTANCE_ACCURACY_VALUE',
'Maximum model space distance between geometric entities at asserted c
onnectivities');
#2161=(
GEOMETRIC_REPRESENTATION_CONTEXT(3)
GLOBAL_UNCERTAINTY_ASSIGNED_CONTEXT((#2159))
GLOBAL_UNIT_ASSIGNED_CONTEXT((#2165,#2169,#2170))
REPRESENTATION_CONTEXT('','3D')
);
#2162=(
GEOMETRIC_REPRESENTATION_CONTEXT(3)
GLOBAL_UNCERTAINTY_ASSIGNED_CONTEXT((#2160))
GLOBAL_UNIT_ASSIGNED_CONTEXT((#2165,#2169,#2170))
REPRESENTATION_CONTEXT('','3D')
);
#2163=DIMENSIONAL_EXPONENTS(1.,0.,0.,0.,0.,0.,0.);
#2164=DIMENSIONAL_EXPONENTS(0.,1.,0.,0.,0.,0.,0.);
#2165=(
CONVERSION_BASED_UNIT('inch',#2168)
LENGTH_UNIT()
NAMED_UNIT(#2163)
);
#2166=(
LENGTH_UNIT()
NAMED_UNIT(*)
SI_UNIT(.MILLI.,.METRE.)
);
#2167=(
LENGTH_UNIT()
NAMED_UNIT(*)
SI_UNIT(.CENTI.,.METRE.)
);
#2168=LENGTH_MEASURE_WITH_UNIT(LENGTH_MEASURE(25.4),#2166);
#2169=(
NAMED_UNIT(*)
PLANE_ANGLE_UNIT()
SI_UNIT($,.RADIAN.)
);
#2170=(
NAMED_UNIT(*)
SI_UNIT($,.STERADIAN.)
SOLID_ANGLE_UNIT()
);
#2171=SHAPE_DEFINITION_REPRESENTATION(#2172,#2173);
#2172=PRODUCT_DEFINITION_SHAPE('',$,#2175);
#2173=SHAPE_REPRESENTATION('',(#1275),#2161);
#2174=PRODUCT_DEFINITION_CONTEXT('part definition',#2179,'design');
#2175=PRODUCT_DEFINITION('Baseplate as 1 V3','Baseplate as 1 V3',#2176,
#2174);
#2176=PRODUCT_DEFINITION_FORMATION('',$,#2181);
#2177=PRODUCT_RELATED_PRODUCT_CATEGORY('Baseplate as 1 V3',
'Baseplate as 1 V3',(#2181));
#2178=APPLICATION_PROTOCOL_DEFINITION('international standard',
'automotive_design',2009,#2179);
#2179=APPLICATION_CONTEXT(
'Core Data for Automotive Mechanical Design Process');
#2180=PRODUCT_CONTEXT('part definition',#2179,'mechanical');
#2181=PRODUCT('Baseplate as 1 V3','Baseplate as 1 V3',$,(#2180));
#2182=PRESENTATION_STYLE_ASSIGNMENT((#2183));
#2183=SURFACE_STYLE_USAGE(.BOTH.,#2186);
#2184=SURFACE_STYLE_RENDERING_WITH_PROPERTIES($,#2190,(#2185));
#2185=SURFACE_STYLE_TRANSPARENT(0.);
#2186=SURFACE_SIDE_STYLE('',(#2187,#2184));
#2187=SURFACE_STYLE_FILL_AREA(#2188);
#2188=FILL_AREA_STYLE('',(#2189));
#2189=FILL_AREA_STYLE_COLOUR('',#2190);
#2190=COLOUR_RGB('',0.749019607843137,0.749019607843137,0.749019607843137);
ENDSEC;
END-ISO-10303-21;
