ISO-10303-21;
HEADER;
/* Generated by software containing ST-Developer
 * from STEP Tools, Inc. (www.steptools.com) 
 */

FILE_DESCRIPTION(
/* description */ (''),
/* implementation_level */ '2;1');

FILE_NAME(
/* name */ 'LNR25MtoPolarisAdapter.stp',
/* time_stamp */ '2026-05-13T11:36:58-05:00',
/* author */ ('FiolkaLab'),
/* organization */ (''),
/* preprocessor_version */ 'ST-DEVELOPER v20.1',
/* originating_system */ 'Autodesk Inventor 2026',
/* authorisation */ '');

FILE_SCHEMA (('AUTOMOTIVE_DESIGN { 1 0 10303 214 3 1 1 }'));
ENDSEC;

DATA;
#10=MECHANICAL_DESIGN_GEOMETRIC_PRESENTATION_REPRESENTATION('',(#30,#31,
#32,#33,#34,#35,#36,#37,#38,#39,#40),#1257);
#11=GEOMETRICALLY_BOUNDED_WIREFRAME_SHAPE_REPRESENTATION('',(#12,#13),#1256);
#12=GEOMETRIC_CURVE_SET('Sketch2',(#17,#18,#19,#20,#299,#21,#22,#300,#301,
#23,#302,#303,#304,#24,#25,#305,#306,#307,#308,#309,#310,#311,#26,#27,#312,
#313,#1236,#1237,#1238,#1239,#1240,#1241,#1242,#1243));
#13=GEOMETRIC_CURVE_SET('Sketch3',(#314,#28,#29,#315,#316,#317,#1252,#1253));
#14=SHAPE_REPRESENTATION_RELATIONSHIP('SRR','None',#1268,#16);
#15=SHAPE_REPRESENTATION_RELATIONSHIP('SRR','None',#1268,#11);
#16=ADVANCED_BREP_SHAPE_REPRESENTATION('',(#41),#1256);
#17=POLYLINE('',(#1199,#1200));
#18=POLYLINE('',(#1201,#1202));
#19=POLYLINE('',(#1203,#1204));
#20=POLYLINE('',(#1205,#1206));
#21=POLYLINE('',(#1208,#1209));
#22=POLYLINE('',(#1210,#1211));
#23=POLYLINE('',(#1214,#1215));
#24=POLYLINE('',(#1219,#1220));
#25=POLYLINE('',(#1221,#1222));
#26=POLYLINE('',(#1230,#1231));
#27=POLYLINE('',(#1232,#1233));
#28=POLYLINE('',(#1245,#1246));
#29=POLYLINE('',(#1247,#1248));
#30=STYLED_ITEM('',(#1277),#41);
#31=STYLED_ITEM('',(#1278),#17);
#32=STYLED_ITEM('',(#1279),#18);
#33=STYLED_ITEM('',(#1279),#21);
#34=STYLED_ITEM('',(#1279),#22);
#35=STYLED_ITEM('',(#1278),#314);
#36=STYLED_ITEM('',(#1279),#28);
#37=STYLED_ITEM('',(#1279),#29);
#38=STYLED_ITEM('',(#1279),#315);
#39=STYLED_ITEM('',(#1279),#316);
#40=STYLED_ITEM('',(#1279),#317);
#41=MANIFOLD_SOLID_BREP('Solid1',#665);
#42=FACE_BOUND('',#126,.T.);
#43=FACE_BOUND('',#127,.T.);
#44=FACE_BOUND('',#128,.T.);
#45=FACE_BOUND('',#129,.T.);
#46=FACE_BOUND('',#130,.T.);
#47=FACE_BOUND('',#131,.T.);
#48=FACE_BOUND('',#132,.T.);
#49=FACE_BOUND('',#133,.T.);
#50=FACE_BOUND('',#134,.T.);
#51=FACE_BOUND('',#141,.T.);
#52=FACE_BOUND('',#152,.T.);
#53=FACE_BOUND('',#155,.T.);
#54=FACE_BOUND('',#158,.T.);
#55=FACE_BOUND('',#161,.T.);
#56=FACE_BOUND('',#164,.T.);
#57=FACE_BOUND('',#167,.T.);
#58=FACE_BOUND('',#178,.T.);
#59=FACE_BOUND('',#179,.T.);
#60=FACE_BOUND('',#180,.T.);
#61=FACE_BOUND('',#181,.T.);
#62=FACE_BOUND('',#182,.T.);
#63=FACE_BOUND('',#183,.T.);
#64=FACE_BOUND('',#184,.T.);
#65=FACE_BOUND('',#185,.T.);
#66=FACE_BOUND('',#186,.T.);
#67=PLANE('',#690);
#68=PLANE('',#691);
#69=PLANE('',#706);
#70=PLANE('',#714);
#71=PLANE('',#719);
#72=PLANE('',#723);
#73=PLANE('',#726);
#74=PLANE('',#729);
#75=PLANE('',#732);
#76=PLANE('',#736);
#77=PLANE('',#740);
#78=PLANE('',#744);
#79=PLANE('',#748);
#80=PLANE('',#752);
#81=PLANE('',#767);
#82=PLANE('',#768);
#83=PLANE('',#769);
#84=FACE_OUTER_BOUND('',#123,.T.);
#85=FACE_OUTER_BOUND('',#124,.T.);
#86=FACE_OUTER_BOUND('',#125,.T.);
#87=FACE_OUTER_BOUND('',#135,.T.);
#88=FACE_OUTER_BOUND('',#136,.T.);
#89=FACE_OUTER_BOUND('',#137,.T.);
#90=FACE_OUTER_BOUND('',#138,.T.);
#91=FACE_OUTER_BOUND('',#139,.T.);
#92=FACE_OUTER_BOUND('',#140,.T.);
#93=FACE_OUTER_BOUND('',#142,.T.);
#94=FACE_OUTER_BOUND('',#143,.T.);
#95=FACE_OUTER_BOUND('',#144,.T.);
#96=FACE_OUTER_BOUND('',#145,.T.);
#97=FACE_OUTER_BOUND('',#146,.T.);
#98=FACE_OUTER_BOUND('',#147,.T.);
#99=FACE_OUTER_BOUND('',#148,.T.);
#100=FACE_OUTER_BOUND('',#149,.T.);
#101=FACE_OUTER_BOUND('',#150,.T.);
#102=FACE_OUTER_BOUND('',#151,.T.);
#103=FACE_OUTER_BOUND('',#153,.T.);
#104=FACE_OUTER_BOUND('',#154,.T.);
#105=FACE_OUTER_BOUND('',#156,.T.);
#106=FACE_OUTER_BOUND('',#157,.T.);
#107=FACE_OUTER_BOUND('',#159,.T.);
#108=FACE_OUTER_BOUND('',#160,.T.);
#109=FACE_OUTER_BOUND('',#162,.T.);
#110=FACE_OUTER_BOUND('',#163,.T.);
#111=FACE_OUTER_BOUND('',#165,.T.);
#112=FACE_OUTER_BOUND('',#166,.T.);
#113=FACE_OUTER_BOUND('',#168,.T.);
#114=FACE_OUTER_BOUND('',#169,.T.);
#115=FACE_OUTER_BOUND('',#170,.T.);
#116=FACE_OUTER_BOUND('',#171,.T.);
#117=FACE_OUTER_BOUND('',#172,.T.);
#118=FACE_OUTER_BOUND('',#173,.T.);
#119=FACE_OUTER_BOUND('',#174,.T.);
#120=FACE_OUTER_BOUND('',#175,.T.);
#121=FACE_OUTER_BOUND('',#176,.T.);
#122=FACE_OUTER_BOUND('',#177,.T.);
#123=EDGE_LOOP('',(#448,#449,#450,#451));
#124=EDGE_LOOP('',(#452,#453,#454,#455));
#125=EDGE_LOOP('',(#456,#457,#458,#459,#460,#461,#462,#463));
#126=EDGE_LOOP('',(#464));
#127=EDGE_LOOP('',(#465));
#128=EDGE_LOOP('',(#466));
#129=EDGE_LOOP('',(#467));
#130=EDGE_LOOP('',(#468));
#131=EDGE_LOOP('',(#469));
#132=EDGE_LOOP('',(#470));
#133=EDGE_LOOP('',(#471));
#134=EDGE_LOOP('',(#472));
#135=EDGE_LOOP('',(#473,#474,#475,#476));
#136=EDGE_LOOP('',(#477,#478,#479,#480));
#137=EDGE_LOOP('',(#481,#482,#483,#484));
#138=EDGE_LOOP('',(#485,#486,#487,#488));
#139=EDGE_LOOP('',(#489,#490,#491,#492));
#140=EDGE_LOOP('',(#493));
#141=EDGE_LOOP('',(#494));
#142=EDGE_LOOP('',(#495,#496,#497,#498));
#143=EDGE_LOOP('',(#499));
#144=EDGE_LOOP('',(#500,#501,#502,#503));
#145=EDGE_LOOP('',(#504));
#146=EDGE_LOOP('',(#505,#506,#507,#508));
#147=EDGE_LOOP('',(#509));
#148=EDGE_LOOP('',(#510,#511,#512,#513));
#149=EDGE_LOOP('',(#514));
#150=EDGE_LOOP('',(#515,#516,#517,#518));
#151=EDGE_LOOP('',(#519));
#152=EDGE_LOOP('',(#520));
#153=EDGE_LOOP('',(#521,#522,#523,#524));
#154=EDGE_LOOP('',(#525));
#155=EDGE_LOOP('',(#526));
#156=EDGE_LOOP('',(#527,#528,#529,#530));
#157=EDGE_LOOP('',(#531));
#158=EDGE_LOOP('',(#532));
#159=EDGE_LOOP('',(#533,#534,#535,#536));
#160=EDGE_LOOP('',(#537));
#161=EDGE_LOOP('',(#538));
#162=EDGE_LOOP('',(#539,#540,#541,#542));
#163=EDGE_LOOP('',(#543));
#164=EDGE_LOOP('',(#544));
#165=EDGE_LOOP('',(#545,#546,#547,#548));
#166=EDGE_LOOP('',(#549));
#167=EDGE_LOOP('',(#550));
#168=EDGE_LOOP('',(#551,#552,#553,#554));
#169=EDGE_LOOP('',(#555,#556,#557,#558));
#170=EDGE_LOOP('',(#559,#560,#561,#562));
#171=EDGE_LOOP('',(#563,#564,#565,#566));
#172=EDGE_LOOP('',(#567,#568,#569,#570));
#173=EDGE_LOOP('',(#571,#572,#573,#574));
#174=EDGE_LOOP('',(#575,#576,#577,#578));
#175=EDGE_LOOP('',(#579,#580,#581,#582));
#176=EDGE_LOOP('',(#583,#584,#585,#586));
#177=EDGE_LOOP('',(#587,#588,#589,#590,#591,#592,#593,#594));
#178=EDGE_LOOP('',(#595));
#179=EDGE_LOOP('',(#596));
#180=EDGE_LOOP('',(#597));
#181=EDGE_LOOP('',(#598));
#182=EDGE_LOOP('',(#599));
#183=EDGE_LOOP('',(#600));
#184=EDGE_LOOP('',(#601));
#185=EDGE_LOOP('',(#602));
#186=EDGE_LOOP('',(#603));
#187=LINE('',#1035,#221);
#188=LINE('',#1038,#222);
#189=LINE('',#1041,#223);
#190=LINE('',#1043,#224);
#191=LINE('',#1044,#225);
#192=LINE('',#1047,#226);
#193=LINE('',#1051,#227);
#194=LINE('',#1055,#228);
#195=LINE('',#1077,#229);
#196=LINE('',#1080,#230);
#197=LINE('',#1083,#231);
#198=LINE('',#1084,#232);
#199=LINE('',#1088,#233);
#200=LINE('',#1091,#234);
#201=LINE('',#1097,#235);
#202=LINE('',#1106,#236);
#203=LINE('',#1113,#237);
#204=LINE('',#1118,#238);
#205=LINE('',#1123,#239);
#206=LINE('',#1128,#240);
#207=LINE('',#1135,#241);
#208=LINE('',#1142,#242);
#209=LINE('',#1149,#243);
#210=LINE('',#1156,#244);
#211=LINE('',#1163,#245);
#212=LINE('',#1170,#246);
#213=LINE('',#1173,#247);
#214=LINE('',#1176,#248);
#215=LINE('',#1180,#249);
#216=LINE('',#1184,#250);
#217=LINE('',#1188,#251);
#218=LINE('',#1192,#252);
#219=LINE('',#1195,#253);
#220=LINE('',#1197,#254);
#221=VECTOR('',#795,0.393700787401575);
#222=VECTOR('',#798,0.393700787401575);
#223=VECTOR('',#801,0.393700787401575);
#224=VECTOR('',#802,0.393700787401575);
#225=VECTOR('',#803,0.393700787401575);
#226=VECTOR('',#806,0.393700787401575);
#227=VECTOR('',#809,0.393700787401575);
#228=VECTOR('',#812,0.393700787401575);
#229=VECTOR('',#835,0.393700787401575);
#230=VECTOR('',#838,0.393700787401575);
#231=VECTOR('',#841,0.393700787401575);
#232=VECTOR('',#842,0.393700787401575);
#233=VECTOR('',#847,0.393700787401575);
#234=VECTOR('',#850,0.393700787401575);
#235=VECTOR('',#857,0.2);
#236=VECTOR('',#868,0.0595472440944881);
#237=VECTOR('',#877,0.0595472440944882);
#238=VECTOR('',#884,0.0398622047244094);
#239=VECTOR('',#891,0.0398622047244094);
#240=VECTOR('',#898,0.2);
#241=VECTOR('',#907,0.2);
#242=VECTOR('',#916,0.2);
#243=VECTOR('',#925,0.2);
#244=VECTOR('',#934,0.2);
#245=VECTOR('',#943,0.2);
#246=VECTOR('',#952,0.125);
#247=VECTOR('',#957,0.125);
#248=VECTOR('',#960,0.125);
#249=VECTOR('',#965,0.125);
#250=VECTOR('',#970,0.125);
#251=VECTOR('',#975,0.125);
#252=VECTOR('',#980,0.125);
#253=VECTOR('',#985,0.393700787401575);
#254=VECTOR('',#988,0.393700787401575);
#255=CIRCLE('',#688,0.125);
#256=CIRCLE('',#689,0.125);
#257=CIRCLE('',#692,0.125);
#258=CIRCLE('',#693,0.125);
#259=CIRCLE('',#694,0.125);
#260=CIRCLE('',#695,0.0398622047244094);
#261=CIRCLE('',#696,0.0398622047244094);
#262=CIRCLE('',#697,0.2);
#263=CIRCLE('',#698,0.2);
#264=CIRCLE('',#699,0.2);
#265=CIRCLE('',#700,0.2);
#266=CIRCLE('',#701,0.2);
#267=CIRCLE('',#702,0.2);
#268=CIRCLE('',#703,0.125);
#269=CIRCLE('',#705,0.125);
#270=CIRCLE('',#708,0.125);
#271=CIRCLE('',#710,0.125);
#272=CIRCLE('',#712,0.2);
#273=CIRCLE('',#713,0.2);
#274=CIRCLE('',#715,0.125);
#275=CIRCLE('',#717,0.0595472440944882);
#276=CIRCLE('',#718,0.0595472440944882);
#277=CIRCLE('',#721,0.0595472440944882);
#278=CIRCLE('',#722,0.0595472440944882);
#279=CIRCLE('',#725,0.0398622047244094);
#280=CIRCLE('',#728,0.0398622047244094);
#281=CIRCLE('',#731,0.2);
#282=CIRCLE('',#733,0.125);
#283=CIRCLE('',#735,0.2);
#284=CIRCLE('',#737,0.125);
#285=CIRCLE('',#739,0.2);
#286=CIRCLE('',#741,0.125);
#287=CIRCLE('',#743,0.2);
#288=CIRCLE('',#745,0.125);
#289=CIRCLE('',#747,0.2);
#290=CIRCLE('',#749,0.125);
#291=CIRCLE('',#751,0.2);
#292=CIRCLE('',#753,0.125);
#293=CIRCLE('',#755,0.125);
#294=CIRCLE('',#758,0.125);
#295=CIRCLE('',#760,0.125);
#296=CIRCLE('',#762,0.125);
#297=CIRCLE('',#764,0.125);
#298=CIRCLE('',#766,0.125);
#299=CIRCLE('',#770,0.2);
#300=CIRCLE('',#771,0.2);
#301=CIRCLE('',#772,0.2);
#302=CIRCLE('',#773,0.2);
#303=CIRCLE('',#774,0.2);
#304=CIRCLE('',#775,0.2);
#305=CIRCLE('',#776,0.125);
#306=CIRCLE('',#777,0.125);
#307=CIRCLE('',#778,0.125);
#308=CIRCLE('',#779,0.125);
#309=CIRCLE('',#780,0.125);
#310=CIRCLE('',#781,0.125);
#311=CIRCLE('',#782,0.125);
#312=CIRCLE('',#783,0.0398622047244094);
#313=CIRCLE('',#784,0.0398622047244094);
#314=CIRCLE('',#785,0.125);
#315=CIRCLE('',#786,0.0595472440944882);
#316=CIRCLE('',#787,0.0595472440944882);
#317=CIRCLE('',#788,0.2);
#318=VERTEX_POINT('',#1031);
#319=VERTEX_POINT('',#1032);
#320=VERTEX_POINT('',#1034);
#321=VERTEX_POINT('',#1036);
#322=VERTEX_POINT('',#1040);
#323=VERTEX_POINT('',#1042);
#324=VERTEX_POINT('',#1046);
#325=VERTEX_POINT('',#1048);
#326=VERTEX_POINT('',#1050);
#327=VERTEX_POINT('',#1052);
#328=VERTEX_POINT('',#1054);
#329=VERTEX_POINT('',#1057);
#330=VERTEX_POINT('',#1059);
#331=VERTEX_POINT('',#1061);
#332=VERTEX_POINT('',#1063);
#333=VERTEX_POINT('',#1065);
#334=VERTEX_POINT('',#1067);
#335=VERTEX_POINT('',#1069);
#336=VERTEX_POINT('',#1071);
#337=VERTEX_POINT('',#1073);
#338=VERTEX_POINT('',#1076);
#339=VERTEX_POINT('',#1078);
#340=VERTEX_POINT('',#1082);
#341=VERTEX_POINT('',#1086);
#342=VERTEX_POINT('',#1090);
#343=VERTEX_POINT('',#1094);
#344=VERTEX_POINT('',#1096);
#345=VERTEX_POINT('',#1100);
#346=VERTEX_POINT('',#1103);
#347=VERTEX_POINT('',#1105);
#348=VERTEX_POINT('',#1110);
#349=VERTEX_POINT('',#1112);
#350=VERTEX_POINT('',#1117);
#351=VERTEX_POINT('',#1122);
#352=VERTEX_POINT('',#1127);
#353=VERTEX_POINT('',#1131);
#354=VERTEX_POINT('',#1134);
#355=VERTEX_POINT('',#1138);
#356=VERTEX_POINT('',#1141);
#357=VERTEX_POINT('',#1145);
#358=VERTEX_POINT('',#1148);
#359=VERTEX_POINT('',#1152);
#360=VERTEX_POINT('',#1155);
#361=VERTEX_POINT('',#1159);
#362=VERTEX_POINT('',#1162);
#363=VERTEX_POINT('',#1166);
#364=VERTEX_POINT('',#1169);
#365=VERTEX_POINT('',#1175);
#366=VERTEX_POINT('',#1179);
#367=VERTEX_POINT('',#1183);
#368=VERTEX_POINT('',#1187);
#369=VERTEX_POINT('',#1191);
#370=EDGE_CURVE('',#318,#319,#255,.T.);
#371=EDGE_CURVE('',#319,#320,#187,.T.);
#372=EDGE_CURVE('',#320,#321,#256,.T.);
#373=EDGE_CURVE('',#321,#318,#188,.T.);
#374=EDGE_CURVE('',#322,#319,#189,.T.);
#375=EDGE_CURVE('',#323,#322,#190,.T.);
#376=EDGE_CURVE('',#323,#320,#191,.T.);
#377=EDGE_CURVE('',#318,#324,#192,.T.);
#378=EDGE_CURVE('',#325,#324,#257,.T.);
#379=EDGE_CURVE('',#325,#326,#193,.T.);
#380=EDGE_CURVE('',#327,#326,#258,.T.);
#381=EDGE_CURVE('',#327,#328,#194,.T.);
#382=EDGE_CURVE('',#322,#328,#259,.T.);
#383=EDGE_CURVE('',#329,#329,#260,.T.);
#384=EDGE_CURVE('',#330,#330,#261,.T.);
#385=EDGE_CURVE('',#331,#331,#262,.T.);
#386=EDGE_CURVE('',#332,#332,#263,.T.);
#387=EDGE_CURVE('',#333,#333,#264,.T.);
#388=EDGE_CURVE('',#334,#334,#265,.T.);
#389=EDGE_CURVE('',#335,#335,#266,.T.);
#390=EDGE_CURVE('',#336,#336,#267,.T.);
#391=EDGE_CURVE('',#337,#337,#268,.T.);
#392=EDGE_CURVE('',#324,#338,#195,.T.);
#393=EDGE_CURVE('',#338,#339,#269,.T.);
#394=EDGE_CURVE('',#339,#325,#196,.T.);
#395=EDGE_CURVE('',#339,#340,#197,.T.);
#396=EDGE_CURVE('',#326,#340,#198,.T.);
#397=EDGE_CURVE('',#340,#341,#270,.T.);
#398=EDGE_CURVE('',#341,#327,#199,.T.);
#399=EDGE_CURVE('',#328,#342,#200,.T.);
#400=EDGE_CURVE('',#342,#323,#271,.T.);
#401=EDGE_CURVE('',#343,#343,#272,.T.);
#402=EDGE_CURVE('',#343,#344,#201,.T.);
#403=EDGE_CURVE('',#344,#344,#273,.T.);
#404=EDGE_CURVE('',#345,#345,#274,.T.);
#405=EDGE_CURVE('',#346,#346,#275,.T.);
#406=EDGE_CURVE('',#346,#347,#202,.T.);
#407=EDGE_CURVE('',#347,#347,#276,.T.);
#408=EDGE_CURVE('',#348,#348,#277,.T.);
#409=EDGE_CURVE('',#348,#349,#203,.T.);
#410=EDGE_CURVE('',#349,#349,#278,.T.);
#411=EDGE_CURVE('',#329,#350,#204,.T.);
#412=EDGE_CURVE('',#350,#350,#279,.T.);
#413=EDGE_CURVE('',#330,#351,#205,.T.);
#414=EDGE_CURVE('',#351,#351,#280,.T.);
#415=EDGE_CURVE('',#331,#352,#206,.T.);
#416=EDGE_CURVE('',#352,#352,#281,.T.);
#417=EDGE_CURVE('',#353,#353,#282,.T.);
#418=EDGE_CURVE('',#332,#354,#207,.T.);
#419=EDGE_CURVE('',#354,#354,#283,.T.);
#420=EDGE_CURVE('',#355,#355,#284,.T.);
#421=EDGE_CURVE('',#333,#356,#208,.T.);
#422=EDGE_CURVE('',#356,#356,#285,.T.);
#423=EDGE_CURVE('',#357,#357,#286,.T.);
#424=EDGE_CURVE('',#334,#358,#209,.T.);
#425=EDGE_CURVE('',#358,#358,#287,.T.);
#426=EDGE_CURVE('',#359,#359,#288,.T.);
#427=EDGE_CURVE('',#335,#360,#210,.T.);
#428=EDGE_CURVE('',#360,#360,#289,.T.);
#429=EDGE_CURVE('',#361,#361,#290,.T.);
#430=EDGE_CURVE('',#336,#362,#211,.T.);
#431=EDGE_CURVE('',#362,#362,#291,.T.);
#432=EDGE_CURVE('',#363,#363,#292,.T.);
#433=EDGE_CURVE('',#353,#364,#212,.T.);
#434=EDGE_CURVE('',#364,#364,#293,.T.);
#435=EDGE_CURVE('',#337,#345,#213,.T.);
#436=EDGE_CURVE('',#359,#365,#214,.T.);
#437=EDGE_CURVE('',#365,#365,#294,.T.);
#438=EDGE_CURVE('',#357,#366,#215,.T.);
#439=EDGE_CURVE('',#366,#366,#295,.T.);
#440=EDGE_CURVE('',#355,#367,#216,.T.);
#441=EDGE_CURVE('',#367,#367,#296,.T.);
#442=EDGE_CURVE('',#361,#368,#217,.T.);
#443=EDGE_CURVE('',#368,#368,#297,.T.);
#444=EDGE_CURVE('',#363,#369,#218,.T.);
#445=EDGE_CURVE('',#369,#369,#298,.T.);
#446=EDGE_CURVE('',#341,#342,#219,.T.);
#447=EDGE_CURVE('',#321,#338,#220,.T.);
#448=ORIENTED_EDGE('',*,*,#370,.T.);
#449=ORIENTED_EDGE('',*,*,#371,.T.);
#450=ORIENTED_EDGE('',*,*,#372,.T.);
#451=ORIENTED_EDGE('',*,*,#373,.T.);
#452=ORIENTED_EDGE('',*,*,#371,.F.);
#453=ORIENTED_EDGE('',*,*,#374,.F.);
#454=ORIENTED_EDGE('',*,*,#375,.F.);
#455=ORIENTED_EDGE('',*,*,#376,.T.);
#456=ORIENTED_EDGE('',*,*,#370,.F.);
#457=ORIENTED_EDGE('',*,*,#377,.T.);
#458=ORIENTED_EDGE('',*,*,#378,.F.);
#459=ORIENTED_EDGE('',*,*,#379,.T.);
#460=ORIENTED_EDGE('',*,*,#380,.F.);
#461=ORIENTED_EDGE('',*,*,#381,.T.);
#462=ORIENTED_EDGE('',*,*,#382,.F.);
#463=ORIENTED_EDGE('',*,*,#374,.T.);
#464=ORIENTED_EDGE('',*,*,#383,.T.);
#465=ORIENTED_EDGE('',*,*,#384,.T.);
#466=ORIENTED_EDGE('',*,*,#385,.T.);
#467=ORIENTED_EDGE('',*,*,#386,.T.);
#468=ORIENTED_EDGE('',*,*,#387,.T.);
#469=ORIENTED_EDGE('',*,*,#388,.T.);
#470=ORIENTED_EDGE('',*,*,#389,.T.);
#471=ORIENTED_EDGE('',*,*,#390,.T.);
#472=ORIENTED_EDGE('',*,*,#391,.T.);
#473=ORIENTED_EDGE('',*,*,#378,.T.);
#474=ORIENTED_EDGE('',*,*,#392,.T.);
#475=ORIENTED_EDGE('',*,*,#393,.T.);
#476=ORIENTED_EDGE('',*,*,#394,.T.);
#477=ORIENTED_EDGE('',*,*,#394,.F.);
#478=ORIENTED_EDGE('',*,*,#395,.T.);
#479=ORIENTED_EDGE('',*,*,#396,.F.);
#480=ORIENTED_EDGE('',*,*,#379,.F.);
#481=ORIENTED_EDGE('',*,*,#380,.T.);
#482=ORIENTED_EDGE('',*,*,#396,.T.);
#483=ORIENTED_EDGE('',*,*,#397,.T.);
#484=ORIENTED_EDGE('',*,*,#398,.T.);
#485=ORIENTED_EDGE('',*,*,#382,.T.);
#486=ORIENTED_EDGE('',*,*,#399,.T.);
#487=ORIENTED_EDGE('',*,*,#400,.T.);
#488=ORIENTED_EDGE('',*,*,#375,.T.);
#489=ORIENTED_EDGE('',*,*,#401,.F.);
#490=ORIENTED_EDGE('',*,*,#402,.T.);
#491=ORIENTED_EDGE('',*,*,#403,.T.);
#492=ORIENTED_EDGE('',*,*,#402,.F.);
#493=ORIENTED_EDGE('',*,*,#403,.F.);
#494=ORIENTED_EDGE('',*,*,#404,.F.);
#495=ORIENTED_EDGE('',*,*,#405,.F.);
#496=ORIENTED_EDGE('',*,*,#406,.T.);
#497=ORIENTED_EDGE('',*,*,#407,.T.);
#498=ORIENTED_EDGE('',*,*,#406,.F.);
#499=ORIENTED_EDGE('',*,*,#407,.F.);
#500=ORIENTED_EDGE('',*,*,#408,.F.);
#501=ORIENTED_EDGE('',*,*,#409,.T.);
#502=ORIENTED_EDGE('',*,*,#410,.T.);
#503=ORIENTED_EDGE('',*,*,#409,.F.);
#504=ORIENTED_EDGE('',*,*,#410,.F.);
#505=ORIENTED_EDGE('',*,*,#383,.F.);
#506=ORIENTED_EDGE('',*,*,#411,.T.);
#507=ORIENTED_EDGE('',*,*,#412,.T.);
#508=ORIENTED_EDGE('',*,*,#411,.F.);
#509=ORIENTED_EDGE('',*,*,#412,.F.);
#510=ORIENTED_EDGE('',*,*,#384,.F.);
#511=ORIENTED_EDGE('',*,*,#413,.T.);
#512=ORIENTED_EDGE('',*,*,#414,.T.);
#513=ORIENTED_EDGE('',*,*,#413,.F.);
#514=ORIENTED_EDGE('',*,*,#414,.F.);
#515=ORIENTED_EDGE('',*,*,#385,.F.);
#516=ORIENTED_EDGE('',*,*,#415,.T.);
#517=ORIENTED_EDGE('',*,*,#416,.T.);
#518=ORIENTED_EDGE('',*,*,#415,.F.);
#519=ORIENTED_EDGE('',*,*,#416,.F.);
#520=ORIENTED_EDGE('',*,*,#417,.F.);
#521=ORIENTED_EDGE('',*,*,#386,.F.);
#522=ORIENTED_EDGE('',*,*,#418,.T.);
#523=ORIENTED_EDGE('',*,*,#419,.T.);
#524=ORIENTED_EDGE('',*,*,#418,.F.);
#525=ORIENTED_EDGE('',*,*,#419,.F.);
#526=ORIENTED_EDGE('',*,*,#420,.F.);
#527=ORIENTED_EDGE('',*,*,#387,.F.);
#528=ORIENTED_EDGE('',*,*,#421,.T.);
#529=ORIENTED_EDGE('',*,*,#422,.T.);
#530=ORIENTED_EDGE('',*,*,#421,.F.);
#531=ORIENTED_EDGE('',*,*,#422,.F.);
#532=ORIENTED_EDGE('',*,*,#423,.F.);
#533=ORIENTED_EDGE('',*,*,#388,.F.);
#534=ORIENTED_EDGE('',*,*,#424,.T.);
#535=ORIENTED_EDGE('',*,*,#425,.T.);
#536=ORIENTED_EDGE('',*,*,#424,.F.);
#537=ORIENTED_EDGE('',*,*,#425,.F.);
#538=ORIENTED_EDGE('',*,*,#426,.F.);
#539=ORIENTED_EDGE('',*,*,#389,.F.);
#540=ORIENTED_EDGE('',*,*,#427,.T.);
#541=ORIENTED_EDGE('',*,*,#428,.T.);
#542=ORIENTED_EDGE('',*,*,#427,.F.);
#543=ORIENTED_EDGE('',*,*,#428,.F.);
#544=ORIENTED_EDGE('',*,*,#429,.F.);
#545=ORIENTED_EDGE('',*,*,#390,.F.);
#546=ORIENTED_EDGE('',*,*,#430,.T.);
#547=ORIENTED_EDGE('',*,*,#431,.T.);
#548=ORIENTED_EDGE('',*,*,#430,.F.);
#549=ORIENTED_EDGE('',*,*,#431,.F.);
#550=ORIENTED_EDGE('',*,*,#432,.F.);
#551=ORIENTED_EDGE('',*,*,#417,.T.);
#552=ORIENTED_EDGE('',*,*,#433,.T.);
#553=ORIENTED_EDGE('',*,*,#434,.F.);
#554=ORIENTED_EDGE('',*,*,#433,.F.);
#555=ORIENTED_EDGE('',*,*,#391,.F.);
#556=ORIENTED_EDGE('',*,*,#435,.T.);
#557=ORIENTED_EDGE('',*,*,#404,.T.);
#558=ORIENTED_EDGE('',*,*,#435,.F.);
#559=ORIENTED_EDGE('',*,*,#426,.T.);
#560=ORIENTED_EDGE('',*,*,#436,.T.);
#561=ORIENTED_EDGE('',*,*,#437,.F.);
#562=ORIENTED_EDGE('',*,*,#436,.F.);
#563=ORIENTED_EDGE('',*,*,#423,.T.);
#564=ORIENTED_EDGE('',*,*,#438,.T.);
#565=ORIENTED_EDGE('',*,*,#439,.F.);
#566=ORIENTED_EDGE('',*,*,#438,.F.);
#567=ORIENTED_EDGE('',*,*,#420,.T.);
#568=ORIENTED_EDGE('',*,*,#440,.T.);
#569=ORIENTED_EDGE('',*,*,#441,.F.);
#570=ORIENTED_EDGE('',*,*,#440,.F.);
#571=ORIENTED_EDGE('',*,*,#429,.T.);
#572=ORIENTED_EDGE('',*,*,#442,.T.);
#573=ORIENTED_EDGE('',*,*,#443,.F.);
#574=ORIENTED_EDGE('',*,*,#442,.F.);
#575=ORIENTED_EDGE('',*,*,#432,.T.);
#576=ORIENTED_EDGE('',*,*,#444,.T.);
#577=ORIENTED_EDGE('',*,*,#445,.F.);
#578=ORIENTED_EDGE('',*,*,#444,.F.);
#579=ORIENTED_EDGE('',*,*,#398,.F.);
#580=ORIENTED_EDGE('',*,*,#446,.T.);
#581=ORIENTED_EDGE('',*,*,#399,.F.);
#582=ORIENTED_EDGE('',*,*,#381,.F.);
#583=ORIENTED_EDGE('',*,*,#373,.F.);
#584=ORIENTED_EDGE('',*,*,#447,.T.);
#585=ORIENTED_EDGE('',*,*,#392,.F.);
#586=ORIENTED_EDGE('',*,*,#377,.F.);
#587=ORIENTED_EDGE('',*,*,#372,.F.);
#588=ORIENTED_EDGE('',*,*,#376,.F.);
#589=ORIENTED_EDGE('',*,*,#400,.F.);
#590=ORIENTED_EDGE('',*,*,#446,.F.);
#591=ORIENTED_EDGE('',*,*,#397,.F.);
#592=ORIENTED_EDGE('',*,*,#395,.F.);
#593=ORIENTED_EDGE('',*,*,#393,.F.);
#594=ORIENTED_EDGE('',*,*,#447,.F.);
#595=ORIENTED_EDGE('',*,*,#401,.T.);
#596=ORIENTED_EDGE('',*,*,#405,.T.);
#597=ORIENTED_EDGE('',*,*,#408,.T.);
#598=ORIENTED_EDGE('',*,*,#434,.T.);
#599=ORIENTED_EDGE('',*,*,#437,.T.);
#600=ORIENTED_EDGE('',*,*,#439,.T.);
#601=ORIENTED_EDGE('',*,*,#441,.T.);
#602=ORIENTED_EDGE('',*,*,#443,.T.);
#603=ORIENTED_EDGE('',*,*,#445,.T.);
#604=CYLINDRICAL_SURFACE('',#687,0.125);
#605=CYLINDRICAL_SURFACE('',#704,0.125);
#606=CYLINDRICAL_SURFACE('',#707,0.125);
#607=CYLINDRICAL_SURFACE('',#709,0.125);
#608=CYLINDRICAL_SURFACE('',#711,0.2);
#609=CYLINDRICAL_SURFACE('',#716,0.0595472440944882);
#610=CYLINDRICAL_SURFACE('',#720,0.0595472440944882);
#611=CYLINDRICAL_SURFACE('',#724,0.0398622047244094);
#612=CYLINDRICAL_SURFACE('',#727,0.0398622047244094);
#613=CYLINDRICAL_SURFACE('',#730,0.2);
#614=CYLINDRICAL_SURFACE('',#734,0.2);
#615=CYLINDRICAL_SURFACE('',#738,0.2);
#616=CYLINDRICAL_SURFACE('',#742,0.2);
#617=CYLINDRICAL_SURFACE('',#746,0.2);
#618=CYLINDRICAL_SURFACE('',#750,0.2);
#619=CYLINDRICAL_SURFACE('',#754,0.125);
#620=CYLINDRICAL_SURFACE('',#756,0.125);
#621=CYLINDRICAL_SURFACE('',#757,0.125);
#622=CYLINDRICAL_SURFACE('',#759,0.125);
#623=CYLINDRICAL_SURFACE('',#761,0.125);
#624=CYLINDRICAL_SURFACE('',#763,0.125);
#625=CYLINDRICAL_SURFACE('',#765,0.125);
#626=ADVANCED_FACE('',(#84),#604,.T.);
#627=ADVANCED_FACE('',(#85),#67,.T.);
#628=ADVANCED_FACE('',(#86,#42,#43,#44,#45,#46,#47,#48,#49,#50),#68,.T.);
#629=ADVANCED_FACE('',(#87),#605,.T.);
#630=ADVANCED_FACE('',(#88),#69,.T.);
#631=ADVANCED_FACE('',(#89),#606,.T.);
#632=ADVANCED_FACE('',(#90),#607,.T.);
#633=ADVANCED_FACE('',(#91),#608,.F.);
#634=ADVANCED_FACE('',(#92,#51),#70,.T.);
#635=ADVANCED_FACE('',(#93),#609,.F.);
#636=ADVANCED_FACE('',(#94),#71,.T.);
#637=ADVANCED_FACE('',(#95),#610,.F.);
#638=ADVANCED_FACE('',(#96),#72,.T.);
#639=ADVANCED_FACE('',(#97),#611,.F.);
#640=ADVANCED_FACE('',(#98),#73,.T.);
#641=ADVANCED_FACE('',(#99),#612,.F.);
#642=ADVANCED_FACE('',(#100),#74,.T.);
#643=ADVANCED_FACE('',(#101),#613,.F.);
#644=ADVANCED_FACE('',(#102,#52),#75,.T.);
#645=ADVANCED_FACE('',(#103),#614,.F.);
#646=ADVANCED_FACE('',(#104,#53),#76,.T.);
#647=ADVANCED_FACE('',(#105),#615,.F.);
#648=ADVANCED_FACE('',(#106,#54),#77,.T.);
#649=ADVANCED_FACE('',(#107),#616,.F.);
#650=ADVANCED_FACE('',(#108,#55),#78,.T.);
#651=ADVANCED_FACE('',(#109),#617,.F.);
#652=ADVANCED_FACE('',(#110,#56),#79,.T.);
#653=ADVANCED_FACE('',(#111),#618,.F.);
#654=ADVANCED_FACE('',(#112,#57),#80,.T.);
#655=ADVANCED_FACE('',(#113),#619,.F.);
#656=ADVANCED_FACE('',(#114),#620,.F.);
#657=ADVANCED_FACE('',(#115),#621,.F.);
#658=ADVANCED_FACE('',(#116),#622,.F.);
#659=ADVANCED_FACE('',(#117),#623,.F.);
#660=ADVANCED_FACE('',(#118),#624,.F.);
#661=ADVANCED_FACE('',(#119),#625,.F.);
#662=ADVANCED_FACE('',(#120),#81,.T.);
#663=ADVANCED_FACE('',(#121),#82,.T.);
#664=ADVANCED_FACE('',(#122,#58,#59,#60,#61,#62,#63,#64,#65,#66),#83,.F.);
#665=CLOSED_SHELL('',(#626,#627,#628,#629,#630,#631,#632,#633,#634,#635,
#636,#637,#638,#639,#640,#641,#642,#643,#644,#645,#646,#647,#648,#649,#650,
#651,#652,#653,#654,#655,#656,#657,#658,#659,#660,#661,#662,#663,#664));
#666=DERIVED_UNIT_ELEMENT(#668,1.);
#667=DERIVED_UNIT_ELEMENT(#1262,-3.);
#668=(
CONVERSION_BASED_UNIT('gram',#670)
MASS_UNIT()
NAMED_UNIT(#1259)
);
#669=(
MASS_UNIT()
NAMED_UNIT(*)
SI_UNIT(.KILO.,.GRAM.)
);
#670=MASS_MEASURE_WITH_UNIT(MASS_MEASURE(0.001),#669);
#671=DERIVED_UNIT((#666,#667));
#672=MEASURE_REPRESENTATION_ITEM('density measure',
POSITIVE_RATIO_MEASURE(1.),#671);
#673=PROPERTY_DEFINITION_REPRESENTATION(#678,#675);
#674=PROPERTY_DEFINITION_REPRESENTATION(#679,#676);
#675=REPRESENTATION('material name',(#677),#1256);
#676=REPRESENTATION('density',(#672),#1256);
#677=DESCRIPTIVE_REPRESENTATION_ITEM('Generic','Generic');
#678=PROPERTY_DEFINITION('material property','material name',#1270);
#679=PROPERTY_DEFINITION('material property','density of part',#1270);
#680=DATE_TIME_ROLE('creation_date');
#681=APPLIED_DATE_AND_TIME_ASSIGNMENT(#682,#680,(#1270));
#682=DATE_AND_TIME(#683,#684);
#683=CALENDAR_DATE(2026,16,1);
#684=LOCAL_TIME(0,0,0.,#685);
#685=COORDINATED_UNIVERSAL_TIME_OFFSET(0,0,.BEHIND.);
#686=AXIS2_PLACEMENT_3D('',#1029,#789,#790);
#687=AXIS2_PLACEMENT_3D('',#1030,#791,#792);
#688=AXIS2_PLACEMENT_3D('',#1033,#793,#794);
#689=AXIS2_PLACEMENT_3D('',#1037,#796,#797);
#690=AXIS2_PLACEMENT_3D('',#1039,#799,#800);
#691=AXIS2_PLACEMENT_3D('',#1045,#804,#805);
#692=AXIS2_PLACEMENT_3D('',#1049,#807,#808);
#693=AXIS2_PLACEMENT_3D('',#1053,#810,#811);
#694=AXIS2_PLACEMENT_3D('',#1056,#813,#814);
#695=AXIS2_PLACEMENT_3D('',#1058,#815,#816);
#696=AXIS2_PLACEMENT_3D('',#1060,#817,#818);
#697=AXIS2_PLACEMENT_3D('',#1062,#819,#820);
#698=AXIS2_PLACEMENT_3D('',#1064,#821,#822);
#699=AXIS2_PLACEMENT_3D('',#1066,#823,#824);
#700=AXIS2_PLACEMENT_3D('',#1068,#825,#826);
#701=AXIS2_PLACEMENT_3D('',#1070,#827,#828);
#702=AXIS2_PLACEMENT_3D('',#1072,#829,#830);
#703=AXIS2_PLACEMENT_3D('',#1074,#831,#832);
#704=AXIS2_PLACEMENT_3D('',#1075,#833,#834);
#705=AXIS2_PLACEMENT_3D('',#1079,#836,#837);
#706=AXIS2_PLACEMENT_3D('',#1081,#839,#840);
#707=AXIS2_PLACEMENT_3D('',#1085,#843,#844);
#708=AXIS2_PLACEMENT_3D('',#1087,#845,#846);
#709=AXIS2_PLACEMENT_3D('',#1089,#848,#849);
#710=AXIS2_PLACEMENT_3D('',#1092,#851,#852);
#711=AXIS2_PLACEMENT_3D('',#1093,#853,#854);
#712=AXIS2_PLACEMENT_3D('',#1095,#855,#856);
#713=AXIS2_PLACEMENT_3D('',#1098,#858,#859);
#714=AXIS2_PLACEMENT_3D('',#1099,#860,#861);
#715=AXIS2_PLACEMENT_3D('',#1101,#862,#863);
#716=AXIS2_PLACEMENT_3D('',#1102,#864,#865);
#717=AXIS2_PLACEMENT_3D('',#1104,#866,#867);
#718=AXIS2_PLACEMENT_3D('',#1107,#869,#870);
#719=AXIS2_PLACEMENT_3D('',#1108,#871,#872);
#720=AXIS2_PLACEMENT_3D('',#1109,#873,#874);
#721=AXIS2_PLACEMENT_3D('',#1111,#875,#876);
#722=AXIS2_PLACEMENT_3D('',#1114,#878,#879);
#723=AXIS2_PLACEMENT_3D('',#1115,#880,#881);
#724=AXIS2_PLACEMENT_3D('',#1116,#882,#883);
#725=AXIS2_PLACEMENT_3D('',#1119,#885,#886);
#726=AXIS2_PLACEMENT_3D('',#1120,#887,#888);
#727=AXIS2_PLACEMENT_3D('',#1121,#889,#890);
#728=AXIS2_PLACEMENT_3D('',#1124,#892,#893);
#729=AXIS2_PLACEMENT_3D('',#1125,#894,#895);
#730=AXIS2_PLACEMENT_3D('',#1126,#896,#897);
#731=AXIS2_PLACEMENT_3D('',#1129,#899,#900);
#732=AXIS2_PLACEMENT_3D('',#1130,#901,#902);
#733=AXIS2_PLACEMENT_3D('',#1132,#903,#904);
#734=AXIS2_PLACEMENT_3D('',#1133,#905,#906);
#735=AXIS2_PLACEMENT_3D('',#1136,#908,#909);
#736=AXIS2_PLACEMENT_3D('',#1137,#910,#911);
#737=AXIS2_PLACEMENT_3D('',#1139,#912,#913);
#738=AXIS2_PLACEMENT_3D('',#1140,#914,#915);
#739=AXIS2_PLACEMENT_3D('',#1143,#917,#918);
#740=AXIS2_PLACEMENT_3D('',#1144,#919,#920);
#741=AXIS2_PLACEMENT_3D('',#1146,#921,#922);
#742=AXIS2_PLACEMENT_3D('',#1147,#923,#924);
#743=AXIS2_PLACEMENT_3D('',#1150,#926,#927);
#744=AXIS2_PLACEMENT_3D('',#1151,#928,#929);
#745=AXIS2_PLACEMENT_3D('',#1153,#930,#931);
#746=AXIS2_PLACEMENT_3D('',#1154,#932,#933);
#747=AXIS2_PLACEMENT_3D('',#1157,#935,#936);
#748=AXIS2_PLACEMENT_3D('',#1158,#937,#938);
#749=AXIS2_PLACEMENT_3D('',#1160,#939,#940);
#750=AXIS2_PLACEMENT_3D('',#1161,#941,#942);
#751=AXIS2_PLACEMENT_3D('',#1164,#944,#945);
#752=AXIS2_PLACEMENT_3D('',#1165,#946,#947);
#753=AXIS2_PLACEMENT_3D('',#1167,#948,#949);
#754=AXIS2_PLACEMENT_3D('',#1168,#950,#951);
#755=AXIS2_PLACEMENT_3D('',#1171,#953,#954);
#756=AXIS2_PLACEMENT_3D('',#1172,#955,#956);
#757=AXIS2_PLACEMENT_3D('',#1174,#958,#959);
#758=AXIS2_PLACEMENT_3D('',#1177,#961,#962);
#759=AXIS2_PLACEMENT_3D('',#1178,#963,#964);
#760=AXIS2_PLACEMENT_3D('',#1181,#966,#967);
#761=AXIS2_PLACEMENT_3D('',#1182,#968,#969);
#762=AXIS2_PLACEMENT_3D('',#1185,#971,#972);
#763=AXIS2_PLACEMENT_3D('',#1186,#973,#974);
#764=AXIS2_PLACEMENT_3D('',#1189,#976,#977);
#765=AXIS2_PLACEMENT_3D('',#1190,#978,#979);
#766=AXIS2_PLACEMENT_3D('',#1193,#981,#982);
#767=AXIS2_PLACEMENT_3D('',#1194,#983,#984);
#768=AXIS2_PLACEMENT_3D('',#1196,#986,#987);
#769=AXIS2_PLACEMENT_3D('',#1198,#989,#990);
#770=AXIS2_PLACEMENT_3D('',#1207,#991,#992);
#771=AXIS2_PLACEMENT_3D('',#1212,#993,#994);
#772=AXIS2_PLACEMENT_3D('',#1213,#995,#996);
#773=AXIS2_PLACEMENT_3D('',#1216,#997,#998);
#774=AXIS2_PLACEMENT_3D('',#1217,#999,#1000);
#775=AXIS2_PLACEMENT_3D('',#1218,#1001,#1002);
#776=AXIS2_PLACEMENT_3D('',#1223,#1003,#1004);
#777=AXIS2_PLACEMENT_3D('',#1224,#1005,#1006);
#778=AXIS2_PLACEMENT_3D('',#1225,#1007,#1008);
#779=AXIS2_PLACEMENT_3D('',#1226,#1009,#1010);
#780=AXIS2_PLACEMENT_3D('',#1227,#1011,#1012);
#781=AXIS2_PLACEMENT_3D('',#1228,#1013,#1014);
#782=AXIS2_PLACEMENT_3D('',#1229,#1015,#1016);
#783=AXIS2_PLACEMENT_3D('',#1234,#1017,#1018);
#784=AXIS2_PLACEMENT_3D('',#1235,#1019,#1020);
#785=AXIS2_PLACEMENT_3D('',#1244,#1021,#1022);
#786=AXIS2_PLACEMENT_3D('',#1249,#1023,#1024);
#787=AXIS2_PLACEMENT_3D('',#1250,#1025,#1026);
#788=AXIS2_PLACEMENT_3D('',#1251,#1027,#1028);
#789=DIRECTION('axis',(0.,0.,1.));
#790=DIRECTION('refdir',(1.,0.,0.));
#791=DIRECTION('center_axis',(0.,1.,0.));
#792=DIRECTION('ref_axis',(-0.70710678118655,0.,-0.707106781186546));
#793=DIRECTION('center_axis',(0.,-1.,0.));
#794=DIRECTION('ref_axis',(-0.70710678118655,0.,-0.707106781186546));
#795=DIRECTION('',(0.,-1.,0.));
#796=DIRECTION('center_axis',(0.,1.,0.));
#797=DIRECTION('ref_axis',(-0.70710678118655,0.,-0.707106781186546));
#798=DIRECTION('',(0.,1.,0.));
#799=DIRECTION('center_axis',(0.,0.,-1.));
#800=DIRECTION('ref_axis',(-1.,0.,0.));
#801=DIRECTION('',(-1.,0.,0.));
#802=DIRECTION('',(0.,1.,0.));
#803=DIRECTION('',(-1.,0.,0.));
#804=DIRECTION('center_axis',(0.,1.,0.));
#805=DIRECTION('ref_axis',(0.,0.,1.));
#806=DIRECTION('',(1.49524986481503E-16,0.,1.));
#807=DIRECTION('center_axis',(0.,-1.,0.));
#808=DIRECTION('ref_axis',(-0.707106781186546,0.,0.707106781186549));
#809=DIRECTION('',(1.,0.,0.));
#810=DIRECTION('center_axis',(0.,-1.,0.));
#811=DIRECTION('ref_axis',(0.707106781186547,0.,0.707106781186548));
#812=DIRECTION('',(-1.49524986481503E-16,0.,-1.));
#813=DIRECTION('center_axis',(0.,-1.,0.));
#814=DIRECTION('ref_axis',(0.707106781186549,0.,-0.707106781186546));
#815=DIRECTION('center_axis',(0.,-1.,0.));
#816=DIRECTION('ref_axis',(1.,0.,0.));
#817=DIRECTION('center_axis',(0.,-1.,0.));
#818=DIRECTION('ref_axis',(1.,0.,0.));
#819=DIRECTION('center_axis',(0.,-1.,0.));
#820=DIRECTION('ref_axis',(1.,0.,0.));
#821=DIRECTION('center_axis',(0.,-1.,0.));
#822=DIRECTION('ref_axis',(1.,0.,0.));
#823=DIRECTION('center_axis',(0.,-1.,0.));
#824=DIRECTION('ref_axis',(1.,0.,0.));
#825=DIRECTION('center_axis',(0.,-1.,0.));
#826=DIRECTION('ref_axis',(1.,0.,0.));
#827=DIRECTION('center_axis',(0.,-1.,0.));
#828=DIRECTION('ref_axis',(1.,0.,0.));
#829=DIRECTION('center_axis',(0.,-1.,0.));
#830=DIRECTION('ref_axis',(1.,0.,0.));
#831=DIRECTION('center_axis',(0.,-1.,0.));
#832=DIRECTION('ref_axis',(1.,0.,0.));
#833=DIRECTION('center_axis',(0.,1.,0.));
#834=DIRECTION('ref_axis',(-0.707106781186546,0.,0.707106781186549));
#835=DIRECTION('',(0.,-1.,0.));
#836=DIRECTION('center_axis',(0.,1.,0.));
#837=DIRECTION('ref_axis',(-0.707106781186546,0.,0.707106781186549));
#838=DIRECTION('',(0.,1.,0.));
#839=DIRECTION('center_axis',(0.,0.,1.));
#840=DIRECTION('ref_axis',(1.,0.,0.));
#841=DIRECTION('',(1.,0.,0.));
#842=DIRECTION('',(0.,-1.,0.));
#843=DIRECTION('center_axis',(0.,1.,0.));
#844=DIRECTION('ref_axis',(0.707106781186547,0.,0.707106781186548));
#845=DIRECTION('center_axis',(0.,1.,0.));
#846=DIRECTION('ref_axis',(0.707106781186547,0.,0.707106781186548));
#847=DIRECTION('',(0.,1.,0.));
#848=DIRECTION('center_axis',(0.,1.,0.));
#849=DIRECTION('ref_axis',(0.707106781186549,0.,-0.707106781186546));
#850=DIRECTION('',(0.,-1.,0.));
#851=DIRECTION('center_axis',(0.,1.,0.));
#852=DIRECTION('ref_axis',(0.707106781186549,0.,-0.707106781186546));
#853=DIRECTION('center_axis',(0.,1.,0.));
#854=DIRECTION('ref_axis',(1.,0.,0.));
#855=DIRECTION('center_axis',(0.,1.,0.));
#856=DIRECTION('ref_axis',(1.,0.,0.));
#857=DIRECTION('',(0.,1.,0.));
#858=DIRECTION('center_axis',(0.,1.,0.));
#859=DIRECTION('ref_axis',(1.,0.,0.));
#860=DIRECTION('center_axis',(0.,-1.,0.));
#861=DIRECTION('ref_axis',(0.,0.,-1.));
#862=DIRECTION('center_axis',(0.,-1.,0.));
#863=DIRECTION('ref_axis',(1.,0.,0.));
#864=DIRECTION('center_axis',(0.,1.,0.));
#865=DIRECTION('ref_axis',(1.,0.,0.));
#866=DIRECTION('center_axis',(0.,1.,0.));
#867=DIRECTION('ref_axis',(1.,0.,0.));
#868=DIRECTION('',(0.,1.,0.));
#869=DIRECTION('center_axis',(0.,1.,0.));
#870=DIRECTION('ref_axis',(1.,0.,0.));
#871=DIRECTION('center_axis',(0.,-1.,0.));
#872=DIRECTION('ref_axis',(0.,0.,-1.));
#873=DIRECTION('center_axis',(0.,1.,0.));
#874=DIRECTION('ref_axis',(1.,0.,0.));
#875=DIRECTION('center_axis',(0.,1.,0.));
#876=DIRECTION('ref_axis',(1.,0.,0.));
#877=DIRECTION('',(0.,1.,0.));
#878=DIRECTION('center_axis',(0.,1.,0.));
#879=DIRECTION('ref_axis',(1.,0.,0.));
#880=DIRECTION('center_axis',(0.,-1.,0.));
#881=DIRECTION('ref_axis',(0.,0.,-1.));
#882=DIRECTION('center_axis',(0.,-1.,0.));
#883=DIRECTION('ref_axis',(1.,0.,0.));
#884=DIRECTION('',(0.,-1.,0.));
#885=DIRECTION('center_axis',(0.,-1.,0.));
#886=DIRECTION('ref_axis',(1.,0.,0.));
#887=DIRECTION('center_axis',(0.,1.,0.));
#888=DIRECTION('ref_axis',(0.,0.,1.));
#889=DIRECTION('center_axis',(0.,-1.,0.));
#890=DIRECTION('ref_axis',(1.,0.,0.));
#891=DIRECTION('',(0.,-1.,0.));
#892=DIRECTION('center_axis',(0.,-1.,0.));
#893=DIRECTION('ref_axis',(1.,0.,0.));
#894=DIRECTION('center_axis',(0.,1.,0.));
#895=DIRECTION('ref_axis',(0.,0.,1.));
#896=DIRECTION('center_axis',(0.,-1.,0.));
#897=DIRECTION('ref_axis',(1.,0.,0.));
#898=DIRECTION('',(0.,-1.,0.));
#899=DIRECTION('center_axis',(0.,-1.,0.));
#900=DIRECTION('ref_axis',(1.,0.,0.));
#901=DIRECTION('center_axis',(0.,1.,0.));
#902=DIRECTION('ref_axis',(0.,0.,1.));
#903=DIRECTION('center_axis',(0.,1.,0.));
#904=DIRECTION('ref_axis',(1.,0.,0.));
#905=DIRECTION('center_axis',(0.,-1.,0.));
#906=DIRECTION('ref_axis',(1.,0.,0.));
#907=DIRECTION('',(0.,-1.,0.));
#908=DIRECTION('center_axis',(0.,-1.,0.));
#909=DIRECTION('ref_axis',(1.,0.,0.));
#910=DIRECTION('center_axis',(0.,1.,0.));
#911=DIRECTION('ref_axis',(0.,0.,1.));
#912=DIRECTION('center_axis',(0.,1.,0.));
#913=DIRECTION('ref_axis',(1.,0.,0.));
#914=DIRECTION('center_axis',(0.,-1.,0.));
#915=DIRECTION('ref_axis',(1.,0.,0.));
#916=DIRECTION('',(0.,-1.,0.));
#917=DIRECTION('center_axis',(0.,-1.,0.));
#918=DIRECTION('ref_axis',(1.,0.,0.));
#919=DIRECTION('center_axis',(0.,1.,0.));
#920=DIRECTION('ref_axis',(0.,0.,1.));
#921=DIRECTION('center_axis',(0.,1.,0.));
#922=DIRECTION('ref_axis',(1.,0.,0.));
#923=DIRECTION('center_axis',(0.,-1.,0.));
#924=DIRECTION('ref_axis',(1.,0.,0.));
#925=DIRECTION('',(0.,-1.,0.));
#926=DIRECTION('center_axis',(0.,-1.,0.));
#927=DIRECTION('ref_axis',(1.,0.,0.));
#928=DIRECTION('center_axis',(0.,1.,0.));
#929=DIRECTION('ref_axis',(0.,0.,1.));
#930=DIRECTION('center_axis',(0.,1.,0.));
#931=DIRECTION('ref_axis',(1.,0.,0.));
#932=DIRECTION('center_axis',(0.,-1.,0.));
#933=DIRECTION('ref_axis',(1.,0.,0.));
#934=DIRECTION('',(0.,-1.,0.));
#935=DIRECTION('center_axis',(0.,-1.,0.));
#936=DIRECTION('ref_axis',(1.,0.,0.));
#937=DIRECTION('center_axis',(0.,1.,0.));
#938=DIRECTION('ref_axis',(0.,0.,1.));
#939=DIRECTION('center_axis',(0.,1.,0.));
#940=DIRECTION('ref_axis',(1.,0.,0.));
#941=DIRECTION('center_axis',(0.,-1.,0.));
#942=DIRECTION('ref_axis',(1.,0.,0.));
#943=DIRECTION('',(0.,-1.,0.));
#944=DIRECTION('center_axis',(0.,-1.,0.));
#945=DIRECTION('ref_axis',(1.,0.,0.));
#946=DIRECTION('center_axis',(0.,1.,0.));
#947=DIRECTION('ref_axis',(0.,0.,1.));
#948=DIRECTION('center_axis',(0.,1.,0.));
#949=DIRECTION('ref_axis',(1.,0.,0.));
#950=DIRECTION('center_axis',(0.,-1.,0.));
#951=DIRECTION('ref_axis',(1.,0.,0.));
#952=DIRECTION('',(0.,-1.,0.));
#953=DIRECTION('center_axis',(0.,1.,0.));
#954=DIRECTION('ref_axis',(1.,0.,0.));
#955=DIRECTION('center_axis',(0.,-1.,0.));
#956=DIRECTION('ref_axis',(1.,0.,0.));
#957=DIRECTION('',(0.,-1.,0.));
#958=DIRECTION('center_axis',(0.,-1.,0.));
#959=DIRECTION('ref_axis',(1.,0.,0.));
#960=DIRECTION('',(0.,-1.,0.));
#961=DIRECTION('center_axis',(0.,1.,0.));
#962=DIRECTION('ref_axis',(1.,0.,0.));
#963=DIRECTION('center_axis',(0.,-1.,0.));
#964=DIRECTION('ref_axis',(1.,0.,0.));
#965=DIRECTION('',(0.,-1.,0.));
#966=DIRECTION('center_axis',(0.,1.,0.));
#967=DIRECTION('ref_axis',(1.,0.,0.));
#968=DIRECTION('center_axis',(0.,-1.,0.));
#969=DIRECTION('ref_axis',(1.,0.,0.));
#970=DIRECTION('',(0.,-1.,0.));
#971=DIRECTION('center_axis',(0.,1.,0.));
#972=DIRECTION('ref_axis',(1.,0.,0.));
#973=DIRECTION('center_axis',(0.,-1.,0.));
#974=DIRECTION('ref_axis',(1.,0.,0.));
#975=DIRECTION('',(0.,-1.,0.));
#976=DIRECTION('center_axis',(0.,1.,0.));
#977=DIRECTION('ref_axis',(1.,0.,0.));
#978=DIRECTION('center_axis',(0.,-1.,0.));
#979=DIRECTION('ref_axis',(1.,0.,0.));
#980=DIRECTION('',(0.,-1.,0.));
#981=DIRECTION('center_axis',(0.,1.,0.));
#982=DIRECTION('ref_axis',(1.,0.,0.));
#983=DIRECTION('center_axis',(1.,0.,-1.49524986481503E-16));
#984=DIRECTION('ref_axis',(-1.49524986481503E-16,0.,-1.));
#985=DIRECTION('',(-1.49524986481503E-16,0.,-1.));
#986=DIRECTION('center_axis',(-1.,0.,1.49524986481503E-16));
#987=DIRECTION('ref_axis',(1.49524986481503E-16,0.,1.));
#988=DIRECTION('',(1.49524986481503E-16,0.,1.));
#989=DIRECTION('center_axis',(0.,1.,0.));
#990=DIRECTION('ref_axis',(0.,0.,1.));
#991=DIRECTION('center_axis',(0.,1.,0.));
#992=DIRECTION('ref_axis',(1.,0.,0.));
#993=DIRECTION('center_axis',(0.,1.,0.));
#994=DIRECTION('ref_axis',(1.,0.,0.));
#995=DIRECTION('center_axis',(0.,1.,0.));
#996=DIRECTION('ref_axis',(1.,0.,0.));
#997=DIRECTION('center_axis',(0.,1.,0.));
#998=DIRECTION('ref_axis',(1.,0.,0.));
#999=DIRECTION('center_axis',(0.,1.,0.));
#1000=DIRECTION('ref_axis',(1.,0.,0.));
#1001=DIRECTION('center_axis',(0.,1.,0.));
#1002=DIRECTION('ref_axis',(1.,0.,0.));
#1003=DIRECTION('center_axis',(0.,1.,0.));
#1004=DIRECTION('ref_axis',(1.,0.,0.));
#1005=DIRECTION('center_axis',(0.,1.,0.));
#1006=DIRECTION('ref_axis',(1.,0.,0.));
#1007=DIRECTION('center_axis',(0.,1.,0.));
#1008=DIRECTION('ref_axis',(1.,0.,0.));
#1009=DIRECTION('center_axis',(0.,1.,0.));
#1010=DIRECTION('ref_axis',(1.,0.,0.));
#1011=DIRECTION('center_axis',(0.,1.,0.));
#1012=DIRECTION('ref_axis',(1.,0.,0.));
#1013=DIRECTION('center_axis',(0.,1.,0.));
#1014=DIRECTION('ref_axis',(1.,0.,0.));
#1015=DIRECTION('center_axis',(0.,1.,0.));
#1016=DIRECTION('ref_axis',(1.,0.,0.));
#1017=DIRECTION('center_axis',(0.,1.,0.));
#1018=DIRECTION('ref_axis',(1.,0.,0.));
#1019=DIRECTION('center_axis',(0.,1.,0.));
#1020=DIRECTION('ref_axis',(1.,0.,0.));
#1021=DIRECTION('center_axis',(0.,-1.,0.));
#1022=DIRECTION('ref_axis',(1.,0.,0.));
#1023=DIRECTION('center_axis',(0.,-1.,0.));
#1024=DIRECTION('ref_axis',(1.,0.,0.));
#1025=DIRECTION('center_axis',(0.,-1.,0.));
#1026=DIRECTION('ref_axis',(1.,0.,0.));
#1027=DIRECTION('center_axis',(0.,-1.,0.));
#1028=DIRECTION('ref_axis',(1.,0.,0.));
#1029=CARTESIAN_POINT('',(0.,0.,0.));
#1030=CARTESIAN_POINT('Origin',(-2.21358267716535,0.,-2.21358267716535));
#1031=CARTESIAN_POINT('',(-2.33858267716535,0.71259842519685,-2.21358267716535));
#1032=CARTESIAN_POINT('',(-2.21358267716535,0.71259842519685,-2.33858267716535));
#1033=CARTESIAN_POINT('Origin',(-2.21358267716535,0.71259842519685,-2.21358267716535));
#1034=CARTESIAN_POINT('',(-2.21358267716535,0.,-2.33858267716535));
#1035=CARTESIAN_POINT('',(-2.21358267716535,0.,-2.33858267716535));
#1036=CARTESIAN_POINT('',(-2.33858267716535,0.,-2.21358267716535));
#1037=CARTESIAN_POINT('Origin',(-2.21358267716535,0.,-2.21358267716535));
#1038=CARTESIAN_POINT('',(-2.33858267716535,0.,-2.21358267716535));
#1039=CARTESIAN_POINT('Origin',(-3.49676543189026E-16,0.,-2.33858267716535));
#1040=CARTESIAN_POINT('',(-0.125,0.71259842519685,-2.33858267716535));
#1041=CARTESIAN_POINT('',(-3.49676543189026E-16,0.71259842519685,-2.33858267716535));
#1042=CARTESIAN_POINT('',(-0.125,0.,-2.33858267716535));
#1043=CARTESIAN_POINT('',(-0.125,0.,-2.33858267716535));
#1044=CARTESIAN_POINT('',(-3.49676543189026E-16,0.,-2.33858267716535));
#1045=CARTESIAN_POINT('Origin',(-1.16929133858268,0.71259842519685,-1.16929133858268));
#1046=CARTESIAN_POINT('',(-2.33858267716535,0.71259842519685,-0.125));
#1047=CARTESIAN_POINT('',(-2.33858267716535,0.71259842519685,-2.33858267716535));
#1048=CARTESIAN_POINT('',(-2.21358267716535,0.71259842519685,0.));
#1049=CARTESIAN_POINT('Origin',(-2.21358267716535,0.71259842519685,-0.125));
#1050=CARTESIAN_POINT('',(-0.125,0.71259842519685,0.));
#1051=CARTESIAN_POINT('',(-2.33858267716535,0.71259842519685,0.));
#1052=CARTESIAN_POINT('',(-1.86906233101878E-17,0.71259842519685,-0.125));
#1053=CARTESIAN_POINT('Origin',(-0.125,0.71259842519685,-0.125));
#1054=CARTESIAN_POINT('',(-3.30985919878838E-16,0.71259842519685,-2.21358267716535));
#1055=CARTESIAN_POINT('',(0.,0.71259842519685,0.));
#1056=CARTESIAN_POINT('Origin',(-0.125,0.71259842519685,-2.21358267716535));
#1057=CARTESIAN_POINT('',(-1.20915354330709,0.71259842519685,-1.36629921259843));
#1058=CARTESIAN_POINT('Origin',(-1.16929133858268,0.71259842519685,-1.36629921259843));
#1059=CARTESIAN_POINT('',(-1.20915354330709,0.71259842519685,-0.972283464566929));
#1060=CARTESIAN_POINT('Origin',(-1.16929133858268,0.71259842519685,-0.972283464566929));
#1061=CARTESIAN_POINT('',(-0.869291338582677,0.71259842519685,-0.669291338582677));
#1062=CARTESIAN_POINT('Origin',(-0.669291338582677,0.71259842519685,-0.669291338582677));
#1063=CARTESIAN_POINT('',(-1.86929133858268,0.71259842519685,-1.66929133858268));
#1064=CARTESIAN_POINT('Origin',(-1.66929133858268,0.71259842519685,-1.66929133858268));
#1065=CARTESIAN_POINT('',(-1.36929133858268,0.71259842519685,-0.669291338582677));
#1066=CARTESIAN_POINT('Origin',(-1.16929133858268,0.71259842519685,-0.669291338582677));
#1067=CARTESIAN_POINT('',(-0.869291338582677,0.71259842519685,-1.66929133858268));
#1068=CARTESIAN_POINT('Origin',(-0.669291338582677,0.71259842519685,-1.66929133858268));
#1069=CARTESIAN_POINT('',(-1.36929133858268,0.71259842519685,-1.66929133858268));
#1070=CARTESIAN_POINT('Origin',(-1.16929133858268,0.71259842519685,-1.66929133858268));
#1071=CARTESIAN_POINT('',(-1.86929133858268,0.71259842519685,-0.669291338582677));
#1072=CARTESIAN_POINT('Origin',(-1.66929133858268,0.71259842519685,-0.669291338582677));
#1073=CARTESIAN_POINT('',(-1.29429133858268,0.71259842519685,-1.16929133858268));
#1074=CARTESIAN_POINT('Origin',(-1.16929133858268,0.71259842519685,-1.16929133858268));
#1075=CARTESIAN_POINT('Origin',(-2.21358267716535,0.,-0.125));
#1076=CARTESIAN_POINT('',(-2.33858267716535,0.,-0.125));
#1077=CARTESIAN_POINT('',(-2.33858267716535,0.,-0.125));
#1078=CARTESIAN_POINT('',(-2.21358267716535,0.,0.));
#1079=CARTESIAN_POINT('Origin',(-2.21358267716535,0.,-0.125));
#1080=CARTESIAN_POINT('',(-2.21358267716535,0.,0.));
#1081=CARTESIAN_POINT('Origin',(-2.33858267716535,0.,0.));
#1082=CARTESIAN_POINT('',(-0.125,0.,0.));
#1083=CARTESIAN_POINT('',(-2.33858267716535,0.,0.));
#1084=CARTESIAN_POINT('',(-0.125,0.,0.));
#1085=CARTESIAN_POINT('Origin',(-0.125,0.,-0.125));
#1086=CARTESIAN_POINT('',(-1.86906233101878E-17,0.,-0.125));
#1087=CARTESIAN_POINT('Origin',(-0.125,0.,-0.125));
#1088=CARTESIAN_POINT('',(-2.18547839493141E-17,0.,-0.125));
#1089=CARTESIAN_POINT('Origin',(-0.125,0.,-2.21358267716535));
#1090=CARTESIAN_POINT('',(-3.30985919878838E-16,0.,-2.21358267716535));
#1091=CARTESIAN_POINT('',(-3.27821759239712E-16,0.,-2.21358267716535));
#1092=CARTESIAN_POINT('Origin',(-0.125,0.,-2.21358267716535));
#1093=CARTESIAN_POINT('Origin',(-1.16929133858268,0.,-1.16929133858268));
#1094=CARTESIAN_POINT('',(-1.36929133858268,0.,-1.16929133858268));
#1095=CARTESIAN_POINT('Origin',(-1.16929133858268,0.,-1.16929133858268));
#1096=CARTESIAN_POINT('',(-1.36929133858268,0.3,-1.16929133858268));
#1097=CARTESIAN_POINT('',(-1.36929133858268,0.,-1.16929133858268));
#1098=CARTESIAN_POINT('Origin',(-1.16929133858268,0.3,-1.16929133858268));
#1099=CARTESIAN_POINT('Origin',(-1.16929133858268,0.3,-1.16929133858268));
#1100=CARTESIAN_POINT('',(-1.29429133858268,0.3,-1.16929133858268));
#1101=CARTESIAN_POINT('Origin',(-1.16929133858268,0.3,-1.16929133858268));
#1102=CARTESIAN_POINT('Origin',(-1.16929133858268,0.,-2.03543307086614));
#1103=CARTESIAN_POINT('',(-1.22883858267717,0.,-2.03543307086614));
#1104=CARTESIAN_POINT('Origin',(-1.16929133858268,0.,-2.03543307086614));
#1105=CARTESIAN_POINT('',(-1.22883858267717,0.175,-2.03543307086614));
#1106=CARTESIAN_POINT('',(-1.22883858267717,0.,-2.03543307086614));
#1107=CARTESIAN_POINT('Origin',(-1.16929133858268,0.175,-2.03543307086614));
#1108=CARTESIAN_POINT('Origin',(-1.16929133858268,0.175,-2.03543307086614));
#1109=CARTESIAN_POINT('Origin',(-1.16929133858268,0.,-0.303149606299213));
#1110=CARTESIAN_POINT('',(-1.22883858267717,0.,-0.303149606299213));
#1111=CARTESIAN_POINT('Origin',(-1.16929133858268,0.,-0.303149606299213));
#1112=CARTESIAN_POINT('',(-1.22883858267717,0.175,-0.303149606299213));
#1113=CARTESIAN_POINT('',(-1.22883858267717,0.,-0.303149606299213));
#1114=CARTESIAN_POINT('Origin',(-1.16929133858268,0.175,-0.303149606299213));
#1115=CARTESIAN_POINT('Origin',(-1.16929133858268,0.175,-0.303149606299213));
#1116=CARTESIAN_POINT('Origin',(-1.16929133858268,0.71259842519685,-1.36629921259843));
#1117=CARTESIAN_POINT('',(-1.20915354330709,0.53759842519685,-1.36629921259843));
#1118=CARTESIAN_POINT('',(-1.20915354330709,0.71259842519685,-1.36629921259843));
#1119=CARTESIAN_POINT('Origin',(-1.16929133858268,0.53759842519685,-1.36629921259843));
#1120=CARTESIAN_POINT('Origin',(-1.16929133858268,0.53759842519685,-1.36629921259843));
#1121=CARTESIAN_POINT('Origin',(-1.16929133858268,0.71259842519685,-0.972283464566929));
#1122=CARTESIAN_POINT('',(-1.20915354330709,0.53759842519685,-0.972283464566929));
#1123=CARTESIAN_POINT('',(-1.20915354330709,0.71259842519685,-0.972283464566929));
#1124=CARTESIAN_POINT('Origin',(-1.16929133858268,0.53759842519685,-0.972283464566929));
#1125=CARTESIAN_POINT('Origin',(-1.16929133858268,0.53759842519685,-0.972283464566929));
#1126=CARTESIAN_POINT('Origin',(-0.669291338582677,0.71259842519685,-0.669291338582677));
#1127=CARTESIAN_POINT('',(-0.869291338582677,0.41259842519685,-0.669291338582677));
#1128=CARTESIAN_POINT('',(-0.869291338582677,0.71259842519685,-0.669291338582677));
#1129=CARTESIAN_POINT('Origin',(-0.669291338582677,0.41259842519685,-0.669291338582677));
#1130=CARTESIAN_POINT('Origin',(-0.669291338582677,0.41259842519685,-0.669291338582677));
#1131=CARTESIAN_POINT('',(-0.794291338582678,0.41259842519685,-0.669291338582677));
#1132=CARTESIAN_POINT('Origin',(-0.669291338582678,0.41259842519685,-0.669291338582677));
#1133=CARTESIAN_POINT('Origin',(-1.66929133858268,0.71259842519685,-1.66929133858268));
#1134=CARTESIAN_POINT('',(-1.86929133858268,0.41259842519685,-1.66929133858268));
#1135=CARTESIAN_POINT('',(-1.86929133858268,0.71259842519685,-1.66929133858268));
#1136=CARTESIAN_POINT('Origin',(-1.66929133858268,0.41259842519685,-1.66929133858268));
#1137=CARTESIAN_POINT('Origin',(-1.66929133858268,0.41259842519685,-1.66929133858268));
#1138=CARTESIAN_POINT('',(-1.79429133858268,0.41259842519685,-1.66929133858268));
#1139=CARTESIAN_POINT('Origin',(-1.66929133858268,0.41259842519685,-1.66929133858268));
#1140=CARTESIAN_POINT('Origin',(-1.16929133858268,0.71259842519685,-0.669291338582677));
#1141=CARTESIAN_POINT('',(-1.36929133858268,0.41259842519685,-0.669291338582677));
#1142=CARTESIAN_POINT('',(-1.36929133858268,0.71259842519685,-0.669291338582677));
#1143=CARTESIAN_POINT('Origin',(-1.16929133858268,0.41259842519685,-0.669291338582677));
#1144=CARTESIAN_POINT('Origin',(-1.16929133858268,0.41259842519685,-0.669291338582677));
#1145=CARTESIAN_POINT('',(-1.29429133858268,0.41259842519685,-0.669291338582677));
#1146=CARTESIAN_POINT('Origin',(-1.16929133858268,0.41259842519685,-0.669291338582677));
#1147=CARTESIAN_POINT('Origin',(-0.669291338582677,0.71259842519685,-1.66929133858268));
#1148=CARTESIAN_POINT('',(-0.869291338582677,0.41259842519685,-1.66929133858268));
#1149=CARTESIAN_POINT('',(-0.869291338582677,0.71259842519685,-1.66929133858268));
#1150=CARTESIAN_POINT('Origin',(-0.669291338582677,0.41259842519685,-1.66929133858268));
#1151=CARTESIAN_POINT('Origin',(-0.669291338582677,0.41259842519685,-1.66929133858268));
#1152=CARTESIAN_POINT('',(-0.794291338582677,0.41259842519685,-1.66929133858268));
#1153=CARTESIAN_POINT('Origin',(-0.669291338582677,0.41259842519685,-1.66929133858268));
#1154=CARTESIAN_POINT('Origin',(-1.16929133858268,0.71259842519685,-1.66929133858268));
#1155=CARTESIAN_POINT('',(-1.36929133858268,0.41259842519685,-1.66929133858268));
#1156=CARTESIAN_POINT('',(-1.36929133858268,0.71259842519685,-1.66929133858268));
#1157=CARTESIAN_POINT('Origin',(-1.16929133858268,0.41259842519685,-1.66929133858268));
#1158=CARTESIAN_POINT('Origin',(-1.16929133858268,0.41259842519685,-1.66929133858268));
#1159=CARTESIAN_POINT('',(-1.29429133858268,0.41259842519685,-1.66929133858268));
#1160=CARTESIAN_POINT('Origin',(-1.16929133858268,0.41259842519685,-1.66929133858268));
#1161=CARTESIAN_POINT('Origin',(-1.66929133858268,0.71259842519685,-0.669291338582677));
#1162=CARTESIAN_POINT('',(-1.86929133858268,0.41259842519685,-0.669291338582677));
#1163=CARTESIAN_POINT('',(-1.86929133858268,0.71259842519685,-0.669291338582677));
#1164=CARTESIAN_POINT('Origin',(-1.66929133858268,0.41259842519685,-0.669291338582677));
#1165=CARTESIAN_POINT('Origin',(-1.66929133858268,0.41259842519685,-0.669291338582677));
#1166=CARTESIAN_POINT('',(-1.79429133858268,0.41259842519685,-0.669291338582677));
#1167=CARTESIAN_POINT('Origin',(-1.66929133858268,0.41259842519685,-0.669291338582677));
#1168=CARTESIAN_POINT('Origin',(-0.669291338582678,0.71259842519685,-0.669291338582677));
#1169=CARTESIAN_POINT('',(-0.794291338582678,0.,-0.669291338582677));
#1170=CARTESIAN_POINT('',(-0.794291338582678,0.71259842519685,-0.669291338582677));
#1171=CARTESIAN_POINT('Origin',(-0.669291338582678,0.,-0.669291338582677));
#1172=CARTESIAN_POINT('Origin',(-1.16929133858268,0.71259842519685,-1.16929133858268));
#1173=CARTESIAN_POINT('',(-1.29429133858268,0.71259842519685,-1.16929133858268));
#1174=CARTESIAN_POINT('Origin',(-0.669291338582677,0.71259842519685,-1.66929133858268));
#1175=CARTESIAN_POINT('',(-0.794291338582677,0.,-1.66929133858268));
#1176=CARTESIAN_POINT('',(-0.794291338582677,0.71259842519685,-1.66929133858268));
#1177=CARTESIAN_POINT('Origin',(-0.669291338582677,0.,-1.66929133858268));
#1178=CARTESIAN_POINT('Origin',(-1.16929133858268,0.71259842519685,-0.669291338582677));
#1179=CARTESIAN_POINT('',(-1.29429133858268,0.,-0.669291338582677));
#1180=CARTESIAN_POINT('',(-1.29429133858268,0.71259842519685,-0.669291338582677));
#1181=CARTESIAN_POINT('Origin',(-1.16929133858268,0.,-0.669291338582677));
#1182=CARTESIAN_POINT('Origin',(-1.66929133858268,0.71259842519685,-1.66929133858268));
#1183=CARTESIAN_POINT('',(-1.79429133858268,0.,-1.66929133858268));
#1184=CARTESIAN_POINT('',(-1.79429133858268,0.71259842519685,-1.66929133858268));
#1185=CARTESIAN_POINT('Origin',(-1.66929133858268,0.,-1.66929133858268));
#1186=CARTESIAN_POINT('Origin',(-1.16929133858268,0.71259842519685,-1.66929133858268));
#1187=CARTESIAN_POINT('',(-1.29429133858268,0.,-1.66929133858268));
#1188=CARTESIAN_POINT('',(-1.29429133858268,0.71259842519685,-1.66929133858268));
#1189=CARTESIAN_POINT('Origin',(-1.16929133858268,0.,-1.66929133858268));
#1190=CARTESIAN_POINT('Origin',(-1.66929133858268,0.71259842519685,-0.669291338582677));
#1191=CARTESIAN_POINT('',(-1.79429133858268,0.,-0.669291338582677));
#1192=CARTESIAN_POINT('',(-1.79429133858268,0.71259842519685,-0.669291338582677));
#1193=CARTESIAN_POINT('Origin',(-1.66929133858268,0.,-0.669291338582677));
#1194=CARTESIAN_POINT('Origin',(0.,0.,0.));
#1195=CARTESIAN_POINT('',(0.,0.,0.));
#1196=CARTESIAN_POINT('Origin',(-2.33858267716535,0.,-2.33858267716535));
#1197=CARTESIAN_POINT('',(-2.33858267716535,0.,-2.33858267716535));
#1198=CARTESIAN_POINT('Origin',(-1.16929133858268,0.,-1.16929133858268));
#1199=CARTESIAN_POINT('polyline point',(-2.33858267716535,0.71259842519685,
-2.33858267716535));
#1200=CARTESIAN_POINT('polyline point',(-2.33858267716535,0.71259842519685,
0.));
#1201=CARTESIAN_POINT('polyline point',(-2.33858267716535,0.71259842519685,
-1.16929133858268));
#1202=CARTESIAN_POINT('polyline point',(0.,0.71259842519685,-1.16929133858268));
#1203=CARTESIAN_POINT('polyline point',(-1.16929133858268,0.71259842519685,
-1.16929133858268));
#1204=CARTESIAN_POINT('polyline point',(-1.16929133858268,0.71259842519685,
-2.33858267716535));
#1205=CARTESIAN_POINT('polyline point',(-1.16929133858268,0.71259842519685,
-1.16929133858268));
#1206=CARTESIAN_POINT('polyline point',(-1.16929133858268,0.71259842519685,
-0.669291338582677));
#1207=CARTESIAN_POINT('Origin',(-1.16929133858268,0.71259842519685,-0.669291338582677));
#1208=CARTESIAN_POINT('polyline point',(-1.16929133858268,0.71259842519685,
-0.669291338582677));
#1209=CARTESIAN_POINT('polyline point',(-1.66929133858268,0.71259842519685,
-0.669291338582677));
#1210=CARTESIAN_POINT('polyline point',(-1.16929133858268,0.71259842519685,
-0.669291338582677));
#1211=CARTESIAN_POINT('polyline point',(-0.669291338582677,0.71259842519685,
-0.669291338582677));
#1212=CARTESIAN_POINT('Origin',(-1.66929133858268,0.71259842519685,-0.669291338582677));
#1213=CARTESIAN_POINT('Origin',(-0.669291338582677,0.71259842519685,-0.669291338582677));
#1214=CARTESIAN_POINT('polyline point',(-1.16929133858268,0.71259842519685,
-1.16929133858268));
#1215=CARTESIAN_POINT('polyline point',(-1.16929133858268,0.71259842519685,
-1.66929133858268));
#1216=CARTESIAN_POINT('Origin',(-0.669291338582677,0.71259842519685,-1.66929133858268));
#1217=CARTESIAN_POINT('Origin',(-1.16929133858268,0.71259842519685,-1.66929133858268));
#1218=CARTESIAN_POINT('Origin',(-1.66929133858268,0.71259842519685,-1.66929133858268));
#1219=CARTESIAN_POINT('polyline point',(-1.16929133858268,0.71259842519685,
-1.66929133858268));
#1220=CARTESIAN_POINT('polyline point',(-1.66929133858268,0.71259842519685,
-1.66929133858268));
#1221=CARTESIAN_POINT('polyline point',(-1.16929133858268,0.71259842519685,
-1.66929133858268));
#1222=CARTESIAN_POINT('polyline point',(-0.669291338582677,0.71259842519685,
-1.66929133858268));
#1223=CARTESIAN_POINT('Origin',(-1.16929133858268,0.71259842519685,-0.669291338582677));
#1224=CARTESIAN_POINT('Origin',(-1.66929133858268,0.71259842519685,-0.669291338582677));
#1225=CARTESIAN_POINT('Origin',(-0.669291338582678,0.71259842519685,-0.669291338582677));
#1226=CARTESIAN_POINT('Origin',(-1.16929133858268,0.71259842519685,-1.66929133858268));
#1227=CARTESIAN_POINT('Origin',(-1.66929133858268,0.71259842519685,-1.66929133858268));
#1228=CARTESIAN_POINT('Origin',(-0.669291338582677,0.71259842519685,-1.66929133858268));
#1229=CARTESIAN_POINT('Origin',(-1.16929133858268,0.71259842519685,-1.16929133858268));
#1230=CARTESIAN_POINT('polyline point',(-1.16929133858268,0.71259842519685,
-1.16929133858268));
#1231=CARTESIAN_POINT('polyline point',(-1.16929133858268,0.71259842519685,
-1.36629921259843));
#1232=CARTESIAN_POINT('polyline point',(-1.16929133858268,0.71259842519685,
-1.16929133858268));
#1233=CARTESIAN_POINT('polyline point',(-1.16929133858268,0.71259842519685,
-0.972283464566929));
#1234=CARTESIAN_POINT('Origin',(-1.16929133858268,0.71259842519685,-0.972283464566929));
#1235=CARTESIAN_POINT('Origin',(-1.16929133858268,0.71259842519685,-1.36629921259843));
#1236=CARTESIAN_POINT('',(0.,0.71259842519685,0.));
#1237=CARTESIAN_POINT('',(-1.66929133858268,0.71259842519685,-0.669291338582677));
#1238=CARTESIAN_POINT('',(-0.669291338582677,0.71259842519685,-0.669291338582677));
#1239=CARTESIAN_POINT('',(-1.66929133858268,0.71259842519685,-0.669291338582677));
#1240=CARTESIAN_POINT('',(-0.669291338582678,0.71259842519685,-0.669291338582677));
#1241=CARTESIAN_POINT('',(-1.16929133858268,0.71259842519685,-1.66929133858268));
#1242=CARTESIAN_POINT('',(-1.66929133858268,0.71259842519685,-1.66929133858268));
#1243=CARTESIAN_POINT('',(-0.669291338582677,0.71259842519685,-1.66929133858268));
#1244=CARTESIAN_POINT('Origin',(-1.16929133858268,0.,-1.16929133858268));
#1245=CARTESIAN_POINT('polyline point',(-1.16929133858268,0.,-1.16929133858268));
#1246=CARTESIAN_POINT('polyline point',(-1.16929133858268,0.,-2.03543307086614));
#1247=CARTESIAN_POINT('polyline point',(-1.16929133858268,0.,-1.16929133858268));
#1248=CARTESIAN_POINT('polyline point',(-1.16929133858268,0.,-0.303149606299213));
#1249=CARTESIAN_POINT('Origin',(-1.16929133858268,0.,-0.303149606299213));
#1250=CARTESIAN_POINT('Origin',(-1.16929133858268,0.,-2.03543307086614));
#1251=CARTESIAN_POINT('Origin',(-1.16929133858268,0.,-1.16929133858268));
#1252=CARTESIAN_POINT('',(0.,0.,0.));
#1253=CARTESIAN_POINT('',(-1.16929133858268,0.,-1.16929133858268));
#1254=UNCERTAINTY_MEASURE_WITH_UNIT(LENGTH_MEASURE(0.000393700787401575),
#1260,'DISTANCE_ACCURACY_VALUE',
'Maximum model space distance between geometric entities at asserted c
onnectivities');
#1255=UNCERTAINTY_MEASURE_WITH_UNIT(LENGTH_MEASURE(0.000393700787401575),
#1260,'DISTANCE_ACCURACY_VALUE',
'Maximum model space distance between geometric entities at asserted c
onnectivities');
#1256=(
GEOMETRIC_REPRESENTATION_CONTEXT(3)
GLOBAL_UNCERTAINTY_ASSIGNED_CONTEXT((#1254))
GLOBAL_UNIT_ASSIGNED_CONTEXT((#1260,#1264,#1265))
REPRESENTATION_CONTEXT('','3D')
);
#1257=(
GEOMETRIC_REPRESENTATION_CONTEXT(3)
GLOBAL_UNCERTAINTY_ASSIGNED_CONTEXT((#1255))
GLOBAL_UNIT_ASSIGNED_CONTEXT((#1260,#1264,#1265))
REPRESENTATION_CONTEXT('','3D')
);
#1258=DIMENSIONAL_EXPONENTS(1.,0.,0.,0.,0.,0.,0.);
#1259=DIMENSIONAL_EXPONENTS(0.,1.,0.,0.,0.,0.,0.);
#1260=(
CONVERSION_BASED_UNIT('inch',#1263)
LENGTH_UNIT()
NAMED_UNIT(#1258)
);
#1261=(
LENGTH_UNIT()
NAMED_UNIT(*)
SI_UNIT(.MILLI.,.METRE.)
);
#1262=(
LENGTH_UNIT()
NAMED_UNIT(*)
SI_UNIT(.CENTI.,.METRE.)
);
#1263=LENGTH_MEASURE_WITH_UNIT(LENGTH_MEASURE(25.4),#1261);
#1264=(
NAMED_UNIT(*)
PLANE_ANGLE_UNIT()
SI_UNIT($,.RADIAN.)
);
#1265=(
NAMED_UNIT(*)
SI_UNIT($,.STERADIAN.)
SOLID_ANGLE_UNIT()
);
#1266=SHAPE_DEFINITION_REPRESENTATION(#1267,#1268);
#1267=PRODUCT_DEFINITION_SHAPE('',$,#1270);
#1268=SHAPE_REPRESENTATION('',(#686),#1256);
#1269=PRODUCT_DEFINITION_CONTEXT('part definition',#1274,'design');
#1270=PRODUCT_DEFINITION('LNR25MtoPolarisAdapter',
'LNR25MtoPolarisAdapter',#1271,#1269);
#1271=PRODUCT_DEFINITION_FORMATION('',$,#1276);
#1272=PRODUCT_RELATED_PRODUCT_CATEGORY('LNR25MtoPolarisAdapter',
'LNR25MtoPolarisAdapter',(#1276));
#1273=APPLICATION_PROTOCOL_DEFINITION('international standard',
'automotive_design',2009,#1274);
#1274=APPLICATION_CONTEXT(
'Core Data for Automotive Mechanical Design Process');
#1275=PRODUCT_CONTEXT('part definition',#1274,'mechanical');
#1276=PRODUCT('LNR25MtoPolarisAdapter','LNR25MtoPolarisAdapter',$,(#1275));
#1277=PRESENTATION_STYLE_ASSIGNMENT((#1280));
#1278=PRESENTATION_STYLE_ASSIGNMENT((#1281));
#1279=PRESENTATION_STYLE_ASSIGNMENT((#1282));
#1280=SURFACE_STYLE_USAGE(.BOTH.,#1285);
#1281=SURFACE_STYLE_USAGE(.BOTH.,#1286);
#1282=SURFACE_STYLE_USAGE(.BOTH.,#1287);
#1283=SURFACE_STYLE_RENDERING_WITH_PROPERTIES($,#1297,(#1284));
#1284=SURFACE_STYLE_TRANSPARENT(0.);
#1285=SURFACE_SIDE_STYLE('',(#1288,#1283));
#1286=SURFACE_SIDE_STYLE('',(#1289));
#1287=SURFACE_SIDE_STYLE('',(#1290));
#1288=SURFACE_STYLE_FILL_AREA(#1291);
#1289=SURFACE_STYLE_FILL_AREA(#1292);
#1290=SURFACE_STYLE_FILL_AREA(#1293);
#1291=FILL_AREA_STYLE('',(#1294));
#1292=FILL_AREA_STYLE('',(#1295));
#1293=FILL_AREA_STYLE('',(#1296));
#1294=FILL_AREA_STYLE_COLOUR('',#1297);
#1295=FILL_AREA_STYLE_COLOUR('',#1298);
#1296=FILL_AREA_STYLE_COLOUR('',#1299);
#1297=COLOUR_RGB('',0.749019607843137,0.749019607843137,0.749019607843137);
#1298=COLOUR_RGB('',0.913725490196078,0.913725490196078,0.);
#1299=COLOUR_RGB('',1.,1.,1.);
ENDSEC;
END-ISO-10303-21;
