ISO-10303-21;
HEADER;
/* Generated by software containing ST-Developer
 * from STEP Tools, Inc. (www.steptools.com) 
 */

FILE_DESCRIPTION(
/* description */ (''),
/* implementation_level */ '2;1');

FILE_NAME(
/* name */ 'Sample Holder Base.stp',
/* time_stamp */ '2026-05-13T10:02:53-05:00',
/* author */ ('FiolkaLab'),
/* organization */ (''),
/* preprocessor_version */ 'ST-DEVELOPER v20.1',
/* originating_system */ 'Autodesk Inventor 2026',
/* authorisation */ '');

FILE_SCHEMA (('AUTOMOTIVE_DESIGN { 1 0 10303 214 3 1 1 }'));
ENDSEC;

DATA;
#10=MECHANICAL_DESIGN_GEOMETRIC_PRESENTATION_REPRESENTATION('',(#13),#2155);
#11=SHAPE_REPRESENTATION_RELATIONSHIP('SRR','None',#2166,#12);
#12=ADVANCED_BREP_SHAPE_REPRESENTATION('',(#14),#2154);
#13=STYLED_ITEM('',(#2175),#14);
#14=MANIFOLD_SOLID_BREP('Solid2',#1243);
#15=CONICAL_SURFACE('',#1357,0.021225,1.02974425867665);
#16=CONICAL_SURFACE('',#1361,0.021225,1.02974425867665);
#17=CONICAL_SURFACE('',#1365,0.021225,1.02974425867665);
#18=CONICAL_SURFACE('',#1369,0.021225,1.02974425867665);
#19=TOROIDAL_SURFACE('',#1297,0.15,0.1);
#20=TOROIDAL_SURFACE('',#1304,0.15,0.1);
#21=TOROIDAL_SURFACE('',#1310,0.15,0.1);
#22=TOROIDAL_SURFACE('',#1316,0.15,0.1);
#23=FACE_BOUND('',#144,.T.);
#24=FACE_BOUND('',#163,.T.);
#25=FACE_BOUND('',#170,.T.);
#26=FACE_BOUND('',#187,.T.);
#27=FACE_BOUND('',#203,.T.);
#28=FACE_BOUND('',#208,.T.);
#29=FACE_BOUND('',#209,.T.);
#30=FACE_BOUND('',#210,.T.);
#31=FACE_BOUND('',#211,.T.);
#32=FACE_BOUND('',#212,.T.);
#33=PLANE('',#1268);
#34=PLANE('',#1272);
#35=PLANE('',#1276);
#36=PLANE('',#1280);
#37=PLANE('',#1284);
#38=PLANE('',#1285);
#39=PLANE('',#1291);
#40=PLANE('',#1296);
#41=PLANE('',#1321);
#42=PLANE('',#1324);
#43=PLANE('',#1327);
#44=PLANE('',#1336);
#45=PLANE('',#1340);
#46=PLANE('',#1341);
#47=PLANE('',#1351);
#48=PLANE('',#1354);
#49=PLANE('',#1375);
#50=PLANE('',#1376);
#51=PLANE('',#1381);
#52=PLANE('',#1383);
#53=PLANE('',#1385);
#54=PLANE('',#1386);
#55=PLANE('',#1389);
#56=PLANE('',#1392);
#57=PLANE('',#1395);
#58=PLANE('',#1398);
#59=PLANE('',#1399);
#60=PLANE('',#1400);
#61=PLANE('',#1401);
#62=PLANE('',#1402);
#63=FACE_OUTER_BOUND('',#133,.T.);
#64=FACE_OUTER_BOUND('',#134,.T.);
#65=FACE_OUTER_BOUND('',#135,.T.);
#66=FACE_OUTER_BOUND('',#136,.T.);
#67=FACE_OUTER_BOUND('',#137,.T.);
#68=FACE_OUTER_BOUND('',#138,.T.);
#69=FACE_OUTER_BOUND('',#139,.T.);
#70=FACE_OUTER_BOUND('',#140,.T.);
#71=FACE_OUTER_BOUND('',#141,.T.);
#72=FACE_OUTER_BOUND('',#142,.T.);
#73=FACE_OUTER_BOUND('',#143,.T.);
#74=FACE_OUTER_BOUND('',#145,.T.);
#75=FACE_OUTER_BOUND('',#146,.T.);
#76=FACE_OUTER_BOUND('',#147,.T.);
#77=FACE_OUTER_BOUND('',#148,.T.);
#78=FACE_OUTER_BOUND('',#149,.T.);
#79=FACE_OUTER_BOUND('',#150,.T.);
#80=FACE_OUTER_BOUND('',#151,.T.);
#81=FACE_OUTER_BOUND('',#152,.T.);
#82=FACE_OUTER_BOUND('',#153,.T.);
#83=FACE_OUTER_BOUND('',#154,.T.);
#84=FACE_OUTER_BOUND('',#155,.T.);
#85=FACE_OUTER_BOUND('',#156,.T.);
#86=FACE_OUTER_BOUND('',#157,.T.);
#87=FACE_OUTER_BOUND('',#158,.T.);
#88=FACE_OUTER_BOUND('',#159,.T.);
#89=FACE_OUTER_BOUND('',#160,.T.);
#90=FACE_OUTER_BOUND('',#161,.T.);
#91=FACE_OUTER_BOUND('',#162,.T.);
#92=FACE_OUTER_BOUND('',#164,.T.);
#93=FACE_OUTER_BOUND('',#165,.T.);
#94=FACE_OUTER_BOUND('',#166,.T.);
#95=FACE_OUTER_BOUND('',#167,.T.);
#96=FACE_OUTER_BOUND('',#168,.T.);
#97=FACE_OUTER_BOUND('',#169,.T.);
#98=FACE_OUTER_BOUND('',#171,.T.);
#99=FACE_OUTER_BOUND('',#172,.T.);
#100=FACE_OUTER_BOUND('',#173,.T.);
#101=FACE_OUTER_BOUND('',#174,.T.);
#102=FACE_OUTER_BOUND('',#175,.T.);
#103=FACE_OUTER_BOUND('',#176,.T.);
#104=FACE_OUTER_BOUND('',#177,.T.);
#105=FACE_OUTER_BOUND('',#178,.T.);
#106=FACE_OUTER_BOUND('',#179,.T.);
#107=FACE_OUTER_BOUND('',#180,.T.);
#108=FACE_OUTER_BOUND('',#181,.T.);
#109=FACE_OUTER_BOUND('',#182,.T.);
#110=FACE_OUTER_BOUND('',#183,.T.);
#111=FACE_OUTER_BOUND('',#184,.T.);
#112=FACE_OUTER_BOUND('',#185,.T.);
#113=FACE_OUTER_BOUND('',#186,.T.);
#114=FACE_OUTER_BOUND('',#188,.T.);
#115=FACE_OUTER_BOUND('',#189,.T.);
#116=FACE_OUTER_BOUND('',#190,.T.);
#117=FACE_OUTER_BOUND('',#191,.T.);
#118=FACE_OUTER_BOUND('',#192,.T.);
#119=FACE_OUTER_BOUND('',#193,.T.);
#120=FACE_OUTER_BOUND('',#194,.T.);
#121=FACE_OUTER_BOUND('',#195,.T.);
#122=FACE_OUTER_BOUND('',#196,.T.);
#123=FACE_OUTER_BOUND('',#197,.T.);
#124=FACE_OUTER_BOUND('',#198,.T.);
#125=FACE_OUTER_BOUND('',#199,.T.);
#126=FACE_OUTER_BOUND('',#200,.T.);
#127=FACE_OUTER_BOUND('',#201,.T.);
#128=FACE_OUTER_BOUND('',#202,.T.);
#129=FACE_OUTER_BOUND('',#204,.T.);
#130=FACE_OUTER_BOUND('',#205,.T.);
#131=FACE_OUTER_BOUND('',#206,.T.);
#132=FACE_OUTER_BOUND('',#207,.T.);
#133=EDGE_LOOP('',(#789,#790,#791,#792));
#134=EDGE_LOOP('',(#793,#794,#795,#796));
#135=EDGE_LOOP('',(#797,#798,#799,#800));
#136=EDGE_LOOP('',(#801,#802,#803,#804));
#137=EDGE_LOOP('',(#805,#806,#807,#808));
#138=EDGE_LOOP('',(#809,#810,#811,#812));
#139=EDGE_LOOP('',(#813,#814,#815,#816));
#140=EDGE_LOOP('',(#817,#818,#819,#820));
#141=EDGE_LOOP('',(#821,#822,#823,#824));
#142=EDGE_LOOP('',(#825,#826,#827,#828));
#143=EDGE_LOOP('',(#829,#830,#831,#832,#833,#834,#835,#836));
#144=EDGE_LOOP('',(#837,#838,#839,#840,#841,#842,#843,#844));
#145=EDGE_LOOP('',(#845,#846,#847,#848));
#146=EDGE_LOOP('',(#849,#850,#851,#852));
#147=EDGE_LOOP('',(#853,#854,#855,#856));
#148=EDGE_LOOP('',(#857,#858,#859,#860));
#149=EDGE_LOOP('',(#861,#862,#863,#864));
#150=EDGE_LOOP('',(#865,#866,#867,#868));
#151=EDGE_LOOP('',(#869,#870,#871,#872));
#152=EDGE_LOOP('',(#873,#874,#875,#876));
#153=EDGE_LOOP('',(#877,#878,#879,#880));
#154=EDGE_LOOP('',(#881,#882,#883,#884));
#155=EDGE_LOOP('',(#885,#886,#887,#888));
#156=EDGE_LOOP('',(#889,#890,#891,#892));
#157=EDGE_LOOP('',(#893,#894,#895,#896));
#158=EDGE_LOOP('',(#897,#898,#899,#900));
#159=EDGE_LOOP('',(#901,#902,#903,#904));
#160=EDGE_LOOP('',(#905,#906,#907,#908));
#161=EDGE_LOOP('',(#909,#910,#911,#912));
#162=EDGE_LOOP('',(#913,#914,#915,#916,#917,#918,#919,#920));
#163=EDGE_LOOP('',(#921,#922,#923,#924,#925,#926,#927,#928));
#164=EDGE_LOOP('',(#929,#930,#931,#932));
#165=EDGE_LOOP('',(#933,#934,#935,#936));
#166=EDGE_LOOP('',(#937,#938,#939,#940));
#167=EDGE_LOOP('',(#941,#942,#943,#944));
#168=EDGE_LOOP('',(#945,#946,#947,#948));
#169=EDGE_LOOP('',(#949,#950,#951,#952,#953,#954,#955,#956));
#170=EDGE_LOOP('',(#957,#958,#959,#960,#961,#962,#963,#964));
#171=EDGE_LOOP('',(#965,#966,#967,#968));
#172=EDGE_LOOP('',(#969,#970,#971,#972));
#173=EDGE_LOOP('',(#973,#974,#975,#976));
#174=EDGE_LOOP('',(#977,#978,#979,#980));
#175=EDGE_LOOP('',(#981,#982,#983,#984));
#176=EDGE_LOOP('',(#985,#986,#987));
#177=EDGE_LOOP('',(#988,#989,#990,#991));
#178=EDGE_LOOP('',(#992,#993,#994));
#179=EDGE_LOOP('',(#995,#996,#997,#998));
#180=EDGE_LOOP('',(#999,#1000,#1001));
#181=EDGE_LOOP('',(#1002,#1003,#1004,#1005));
#182=EDGE_LOOP('',(#1006,#1007,#1008));
#183=EDGE_LOOP('',(#1009,#1010,#1011,#1012));
#184=EDGE_LOOP('',(#1013,#1014,#1015,#1016));
#185=EDGE_LOOP('',(#1017,#1018,#1019,#1020));
#186=EDGE_LOOP('',(#1021,#1022,#1023,#1024,#1025,#1026,#1027,#1028));
#187=EDGE_LOOP('',(#1029,#1030,#1031,#1032,#1033,#1034,#1035,#1036));
#188=EDGE_LOOP('',(#1037,#1038,#1039,#1040));
#189=EDGE_LOOP('',(#1041,#1042,#1043,#1044));
#190=EDGE_LOOP('',(#1045,#1046,#1047,#1048));
#191=EDGE_LOOP('',(#1049,#1050,#1051,#1052));
#192=EDGE_LOOP('',(#1053,#1054,#1055,#1056));
#193=EDGE_LOOP('',(#1057,#1058,#1059,#1060));
#194=EDGE_LOOP('',(#1061,#1062,#1063,#1064));
#195=EDGE_LOOP('',(#1065,#1066,#1067,#1068));
#196=EDGE_LOOP('',(#1069,#1070,#1071,#1072));
#197=EDGE_LOOP('',(#1073,#1074,#1075,#1076));
#198=EDGE_LOOP('',(#1077,#1078,#1079,#1080));
#199=EDGE_LOOP('',(#1081,#1082,#1083,#1084));
#200=EDGE_LOOP('',(#1085,#1086,#1087,#1088));
#201=EDGE_LOOP('',(#1089,#1090,#1091,#1092));
#202=EDGE_LOOP('',(#1093,#1094,#1095,#1096,#1097,#1098,#1099,#1100));
#203=EDGE_LOOP('',(#1101,#1102,#1103,#1104,#1105,#1106,#1107,#1108));
#204=EDGE_LOOP('',(#1109,#1110,#1111,#1112));
#205=EDGE_LOOP('',(#1113,#1114,#1115,#1116));
#206=EDGE_LOOP('',(#1117,#1118,#1119,#1120));
#207=EDGE_LOOP('',(#1121,#1122,#1123,#1124,#1125,#1126,#1127,#1128));
#208=EDGE_LOOP('',(#1129));
#209=EDGE_LOOP('',(#1130));
#210=EDGE_LOOP('',(#1131));
#211=EDGE_LOOP('',(#1132));
#212=EDGE_LOOP('',(#1133,#1134,#1135,#1136,#1137,#1138,#1139,#1140));
#213=LINE('',#1795,#321);
#214=LINE('',#1798,#322);
#215=LINE('',#1801,#323);
#216=LINE('',#1803,#324);
#217=LINE('',#1804,#325);
#218=LINE('',#1810,#326);
#219=LINE('',#1813,#327);
#220=LINE('',#1815,#328);
#221=LINE('',#1816,#329);
#222=LINE('',#1821,#330);
#223=LINE('',#1825,#331);
#224=LINE('',#1827,#332);
#225=LINE('',#1828,#333);
#226=LINE('',#1833,#334);
#227=LINE('',#1836,#335);
#228=LINE('',#1837,#336);
#229=LINE('',#1843,#337);
#230=LINE('',#1846,#338);
#231=LINE('',#1849,#339);
#232=LINE('',#1851,#340);
#233=LINE('',#1852,#341);
#234=LINE('',#1855,#342);
#235=LINE('',#1859,#343);
#236=LINE('',#1863,#344);
#237=LINE('',#1867,#345);
#238=LINE('',#1870,#346);
#239=LINE('',#1873,#347);
#240=LINE('',#1874,#348);
#241=LINE('',#1877,#349);
#242=LINE('',#1882,#350);
#243=LINE('',#1884,#351);
#244=LINE('',#1898,#352);
#245=LINE('',#1899,#353);
#246=LINE('',#1910,#354);
#247=LINE('',#1911,#355);
#248=LINE('',#1922,#356);
#249=LINE('',#1923,#357);
#250=LINE('',#1931,#358);
#251=LINE('',#1932,#359);
#252=LINE('',#1935,#360);
#253=LINE('',#1937,#361);
#254=LINE('',#1938,#362);
#255=LINE('',#1941,#363);
#256=LINE('',#1945,#364);
#257=LINE('',#1946,#365);
#258=LINE('',#1949,#366);
#259=LINE('',#1954,#367);
#260=LINE('',#1958,#368);
#261=LINE('',#1962,#369);
#262=LINE('',#1966,#370);
#263=LINE('',#1971,#371);
#264=LINE('',#1974,#372);
#265=LINE('',#1977,#373);
#266=LINE('',#1979,#374);
#267=LINE('',#1985,#375);
#268=LINE('',#1988,#376);
#269=LINE('',#1991,#377);
#270=LINE('',#1993,#378);
#271=LINE('',#1994,#379);
#272=LINE('',#1997,#380);
#273=LINE('',#2001,#381);
#274=LINE('',#2005,#382);
#275=LINE('',#2009,#383);
#276=LINE('',#2013,#384);
#277=LINE('',#2017,#385);
#278=LINE('',#2021,#386);
#279=LINE('',#2026,#387);
#280=LINE('',#2029,#388);
#281=LINE('',#2030,#389);
#282=LINE('',#2034,#390);
#283=LINE('',#2037,#391);
#284=LINE('',#2038,#392);
#285=LINE('',#2042,#393);
#286=LINE('',#2046,#394);
#287=LINE('',#2050,#395);
#288=LINE('',#2055,#396);
#289=LINE('',#2059,#397);
#290=LINE('',#2064,#398);
#291=LINE('',#2068,#399);
#292=LINE('',#2073,#400);
#293=LINE('',#2077,#401);
#294=LINE('',#2083,#402);
#295=LINE('',#2084,#403);
#296=LINE('',#2087,#404);
#297=LINE('',#2088,#405);
#298=LINE('',#2091,#406);
#299=LINE('',#2095,#407);
#300=LINE('',#2099,#408);
#301=LINE('',#2102,#409);
#302=LINE('',#2104,#410);
#303=LINE('',#2106,#411);
#304=LINE('',#2108,#412);
#305=LINE('',#2110,#413);
#306=LINE('',#2112,#414);
#307=LINE('',#2115,#415);
#308=LINE('',#2117,#416);
#309=LINE('',#2118,#417);
#310=LINE('',#2121,#418);
#311=LINE('',#2125,#419);
#312=LINE('',#2126,#420);
#313=LINE('',#2129,#421);
#314=LINE('',#2133,#422);
#315=LINE('',#2134,#423);
#316=LINE('',#2137,#424);
#317=LINE('',#2141,#425);
#318=LINE('',#2142,#426);
#319=LINE('',#2148,#427);
#320=LINE('',#2150,#428);
#321=VECTOR('',#1409,0.393700787401575);
#322=VECTOR('',#1412,0.393700787401575);
#323=VECTOR('',#1415,0.393700787401575);
#324=VECTOR('',#1416,0.393700787401575);
#325=VECTOR('',#1417,0.393700787401575);
#326=VECTOR('',#1422,0.393700787401575);
#327=VECTOR('',#1425,0.393700787401575);
#328=VECTOR('',#1428,0.393700787401575);
#329=VECTOR('',#1429,0.393700787401575);
#330=VECTOR('',#1434,0.393700787401575);
#331=VECTOR('',#1439,0.393700787401575);
#332=VECTOR('',#1440,0.393700787401575);
#333=VECTOR('',#1441,0.393700787401575);
#334=VECTOR('',#1446,0.393700787401575);
#335=VECTOR('',#1451,0.393700787401575);
#336=VECTOR('',#1452,0.393700787401575);
#337=VECTOR('',#1457,0.393700787401575);
#338=VECTOR('',#1460,0.393700787401575);
#339=VECTOR('',#1463,0.393700787401575);
#340=VECTOR('',#1464,0.393700787401575);
#341=VECTOR('',#1465,0.393700787401575);
#342=VECTOR('',#1468,0.393700787401575);
#343=VECTOR('',#1471,0.393700787401575);
#344=VECTOR('',#1474,0.393700787401575);
#345=VECTOR('',#1479,0.393700787401575);
#346=VECTOR('',#1482,0.393700787401575);
#347=VECTOR('',#1485,0.393700787401575);
#348=VECTOR('',#1486,0.393700787401575);
#349=VECTOR('',#1489,0.393700787401575);
#350=VECTOR('',#1496,0.393700787401575);
#351=VECTOR('',#1499,0.393700787401575);
#352=VECTOR('',#1514,0.393700787401575);
#353=VECTOR('',#1515,0.393700787401575);
#354=VECTOR('',#1528,0.393700787401575);
#355=VECTOR('',#1529,0.393700787401575);
#356=VECTOR('',#1542,0.393700787401575);
#357=VECTOR('',#1543,0.393700787401575);
#358=VECTOR('',#1554,0.393700787401575);
#359=VECTOR('',#1555,0.393700787401575);
#360=VECTOR('',#1558,0.393700787401575);
#361=VECTOR('',#1559,0.393700787401575);
#362=VECTOR('',#1560,0.393700787401575);
#363=VECTOR('',#1563,0.393700787401575);
#364=VECTOR('',#1568,0.393700787401575);
#365=VECTOR('',#1569,0.393700787401575);
#366=VECTOR('',#1572,0.393700787401575);
#367=VECTOR('',#1577,0.393700787401575);
#368=VECTOR('',#1580,0.393700787401575);
#369=VECTOR('',#1583,0.393700787401575);
#370=VECTOR('',#1586,0.393700787401575);
#371=VECTOR('',#1593,0.393700787401575);
#372=VECTOR('',#1596,0.393700787401575);
#373=VECTOR('',#1599,0.393700787401575);
#374=VECTOR('',#1602,0.393700787401575);
#375=VECTOR('',#1607,0.393700787401575);
#376=VECTOR('',#1610,0.393700787401575);
#377=VECTOR('',#1613,0.393700787401575);
#378=VECTOR('',#1614,0.393700787401575);
#379=VECTOR('',#1615,0.393700787401575);
#380=VECTOR('',#1618,0.393700787401575);
#381=VECTOR('',#1621,0.393700787401575);
#382=VECTOR('',#1624,0.393700787401575);
#383=VECTOR('',#1627,0.393700787401575);
#384=VECTOR('',#1630,0.393700787401575);
#385=VECTOR('',#1633,0.393700787401575);
#386=VECTOR('',#1636,0.393700787401575);
#387=VECTOR('',#1643,0.393700787401575);
#388=VECTOR('',#1646,0.393700787401575);
#389=VECTOR('',#1647,0.393700787401575);
#390=VECTOR('',#1652,0.393700787401575);
#391=VECTOR('',#1655,0.393700787401575);
#392=VECTOR('',#1656,0.393700787401575);
#393=VECTOR('',#1661,0.393700787401575);
#394=VECTOR('',#1664,0.021225);
#395=VECTOR('',#1669,0.04245);
#396=VECTOR('',#1674,0.021225);
#397=VECTOR('',#1679,0.04245);
#398=VECTOR('',#1684,0.021225);
#399=VECTOR('',#1689,0.04245);
#400=VECTOR('',#1694,0.021225);
#401=VECTOR('',#1699,0.04245);
#402=VECTOR('',#1706,0.393700787401575);
#403=VECTOR('',#1707,0.393700787401575);
#404=VECTOR('',#1710,0.393700787401575);
#405=VECTOR('',#1711,0.393700787401575);
#406=VECTOR('',#1714,0.393700787401575);
#407=VECTOR('',#1717,0.393700787401575);
#408=VECTOR('',#1720,0.393700787401575);
#409=VECTOR('',#1725,0.393700787401575);
#410=VECTOR('',#1728,0.393700787401575);
#411=VECTOR('',#1731,0.393700787401575);
#412=VECTOR('',#1734,0.393700787401575);
#413=VECTOR('',#1737,0.393700787401575);
#414=VECTOR('',#1740,0.393700787401575);
#415=VECTOR('',#1743,0.393700787401575);
#416=VECTOR('',#1744,0.393700787401575);
#417=VECTOR('',#1745,0.393700787401575);
#418=VECTOR('',#1748,0.393700787401575);
#419=VECTOR('',#1753,0.393700787401575);
#420=VECTOR('',#1754,0.393700787401575);
#421=VECTOR('',#1757,0.393700787401575);
#422=VECTOR('',#1762,0.393700787401575);
#423=VECTOR('',#1763,0.393700787401575);
#424=VECTOR('',#1766,0.393700787401575);
#425=VECTOR('',#1771,0.393700787401575);
#426=VECTOR('',#1772,0.393700787401575);
#427=VECTOR('',#1783,0.393700787401575);
#428=VECTOR('',#1786,0.393700787401575);
#429=CIRCLE('',#1266,0.1);
#430=CIRCLE('',#1267,0.1);
#431=CIRCLE('',#1270,0.1);
#432=CIRCLE('',#1271,0.1);
#433=CIRCLE('',#1274,0.1);
#434=CIRCLE('',#1275,0.1);
#435=CIRCLE('',#1278,0.1);
#436=CIRCLE('',#1279,0.1);
#437=CIRCLE('',#1282,0.009);
#438=CIRCLE('',#1283,0.009);
#439=CIRCLE('',#1286,0.009);
#440=CIRCLE('',#1287,0.009);
#441=CIRCLE('',#1288,0.009);
#442=CIRCLE('',#1290,0.009);
#443=CIRCLE('',#1293,0.009);
#444=CIRCLE('',#1295,0.009);
#445=CIRCLE('',#1298,0.1);
#446=CIRCLE('',#1299,0.25);
#447=CIRCLE('',#1300,0.0999999999999998);
#448=CIRCLE('',#1301,0.15);
#449=CIRCLE('',#1303,0.0999999999999991);
#450=CIRCLE('',#1305,0.1);
#451=CIRCLE('',#1306,0.15);
#452=CIRCLE('',#1307,0.25);
#453=CIRCLE('',#1309,0.1);
#454=CIRCLE('',#1311,0.0999999999999998);
#455=CIRCLE('',#1312,0.15);
#456=CIRCLE('',#1313,0.25);
#457=CIRCLE('',#1315,0.0999999999999991);
#458=CIRCLE('',#1317,0.1);
#459=CIRCLE('',#1318,0.15);
#460=CIRCLE('',#1319,0.25);
#461=CIRCLE('',#1323,0.25);
#462=CIRCLE('',#1326,0.25);
#463=CIRCLE('',#1328,0.0589999999999999);
#464=CIRCLE('',#1329,0.0589999999999999);
#465=CIRCLE('',#1330,0.0589999999999999);
#466=CIRCLE('',#1331,0.0589999999999999);
#467=CIRCLE('',#1333,0.25);
#468=CIRCLE('',#1335,0.25);
#469=CIRCLE('',#1338,0.25);
#470=CIRCLE('',#1339,0.25);
#471=CIRCLE('',#1342,0.25);
#472=CIRCLE('',#1343,0.25);
#473=CIRCLE('',#1344,0.25);
#474=CIRCLE('',#1345,0.3);
#475=CIRCLE('',#1346,0.3);
#476=CIRCLE('',#1347,0.3);
#477=CIRCLE('',#1348,0.3);
#478=CIRCLE('',#1350,0.25);
#479=CIRCLE('',#1353,0.25);
#480=CIRCLE('',#1356,0.25);
#481=CIRCLE('',#1358,0.04245);
#482=CIRCLE('',#1360,0.04245);
#483=CIRCLE('',#1362,0.04245);
#484=CIRCLE('',#1364,0.04245);
#485=CIRCLE('',#1366,0.04245);
#486=CIRCLE('',#1368,0.04245);
#487=CIRCLE('',#1370,0.04245);
#488=CIRCLE('',#1372,0.04245);
#489=CIRCLE('',#1374,0.3);
#490=CIRCLE('',#1377,0.3);
#491=CIRCLE('',#1378,0.3);
#492=CIRCLE('',#1379,0.3);
#493=CIRCLE('',#1388,0.0589999999999999);
#494=CIRCLE('',#1391,0.0589999999999999);
#495=CIRCLE('',#1394,0.0589999999999999);
#496=CIRCLE('',#1397,0.0589999999999999);
#497=VERTEX_POINT('',#1791);
#498=VERTEX_POINT('',#1792);
#499=VERTEX_POINT('',#1794);
#500=VERTEX_POINT('',#1796);
#501=VERTEX_POINT('',#1800);
#502=VERTEX_POINT('',#1802);
#503=VERTEX_POINT('',#1806);
#504=VERTEX_POINT('',#1807);
#505=VERTEX_POINT('',#1809);
#506=VERTEX_POINT('',#1811);
#507=VERTEX_POINT('',#1818);
#508=VERTEX_POINT('',#1820);
#509=VERTEX_POINT('',#1824);
#510=VERTEX_POINT('',#1826);
#511=VERTEX_POINT('',#1830);
#512=VERTEX_POINT('',#1832);
#513=VERTEX_POINT('',#1839);
#514=VERTEX_POINT('',#1840);
#515=VERTEX_POINT('',#1842);
#516=VERTEX_POINT('',#1844);
#517=VERTEX_POINT('',#1848);
#518=VERTEX_POINT('',#1850);
#519=VERTEX_POINT('',#1854);
#520=VERTEX_POINT('',#1856);
#521=VERTEX_POINT('',#1858);
#522=VERTEX_POINT('',#1860);
#523=VERTEX_POINT('',#1862);
#524=VERTEX_POINT('',#1866);
#525=VERTEX_POINT('',#1868);
#526=VERTEX_POINT('',#1872);
#527=VERTEX_POINT('',#1876);
#528=VERTEX_POINT('',#1880);
#529=VERTEX_POINT('',#1886);
#530=VERTEX_POINT('',#1887);
#531=VERTEX_POINT('',#1889);
#532=VERTEX_POINT('',#1891);
#533=VERTEX_POINT('',#1895);
#534=VERTEX_POINT('',#1896);
#535=VERTEX_POINT('',#1901);
#536=VERTEX_POINT('',#1902);
#537=VERTEX_POINT('',#1907);
#538=VERTEX_POINT('',#1908);
#539=VERTEX_POINT('',#1913);
#540=VERTEX_POINT('',#1914);
#541=VERTEX_POINT('',#1919);
#542=VERTEX_POINT('',#1920);
#543=VERTEX_POINT('',#1925);
#544=VERTEX_POINT('',#1926);
#545=VERTEX_POINT('',#1934);
#546=VERTEX_POINT('',#1936);
#547=VERTEX_POINT('',#1940);
#548=VERTEX_POINT('',#1944);
#549=VERTEX_POINT('',#1948);
#550=VERTEX_POINT('',#1952);
#551=VERTEX_POINT('',#1953);
#552=VERTEX_POINT('',#1955);
#553=VERTEX_POINT('',#1957);
#554=VERTEX_POINT('',#1959);
#555=VERTEX_POINT('',#1961);
#556=VERTEX_POINT('',#1963);
#557=VERTEX_POINT('',#1965);
#558=VERTEX_POINT('',#1969);
#559=VERTEX_POINT('',#1973);
#560=VERTEX_POINT('',#1975);
#561=VERTEX_POINT('',#1981);
#562=VERTEX_POINT('',#1982);
#563=VERTEX_POINT('',#1984);
#564=VERTEX_POINT('',#1986);
#565=VERTEX_POINT('',#1990);
#566=VERTEX_POINT('',#1992);
#567=VERTEX_POINT('',#1996);
#568=VERTEX_POINT('',#1998);
#569=VERTEX_POINT('',#2000);
#570=VERTEX_POINT('',#2002);
#571=VERTEX_POINT('',#2004);
#572=VERTEX_POINT('',#2007);
#573=VERTEX_POINT('',#2008);
#574=VERTEX_POINT('',#2010);
#575=VERTEX_POINT('',#2012);
#576=VERTEX_POINT('',#2014);
#577=VERTEX_POINT('',#2016);
#578=VERTEX_POINT('',#2018);
#579=VERTEX_POINT('',#2020);
#580=VERTEX_POINT('',#2024);
#581=VERTEX_POINT('',#2028);
#582=VERTEX_POINT('',#2032);
#583=VERTEX_POINT('',#2036);
#584=VERTEX_POINT('',#2040);
#585=VERTEX_POINT('',#2044);
#586=VERTEX_POINT('',#2045);
#587=VERTEX_POINT('',#2049);
#588=VERTEX_POINT('',#2053);
#589=VERTEX_POINT('',#2054);
#590=VERTEX_POINT('',#2058);
#591=VERTEX_POINT('',#2062);
#592=VERTEX_POINT('',#2063);
#593=VERTEX_POINT('',#2067);
#594=VERTEX_POINT('',#2071);
#595=VERTEX_POINT('',#2072);
#596=VERTEX_POINT('',#2076);
#597=VERTEX_POINT('',#2080);
#598=VERTEX_POINT('',#2081);
#599=VERTEX_POINT('',#2086);
#600=VERTEX_POINT('',#2090);
#601=VERTEX_POINT('',#2092);
#602=VERTEX_POINT('',#2094);
#603=VERTEX_POINT('',#2096);
#604=VERTEX_POINT('',#2098);
#605=VERTEX_POINT('',#2114);
#606=VERTEX_POINT('',#2116);
#607=VERTEX_POINT('',#2120);
#608=VERTEX_POINT('',#2124);
#609=VERTEX_POINT('',#2128);
#610=VERTEX_POINT('',#2132);
#611=VERTEX_POINT('',#2136);
#612=VERTEX_POINT('',#2140);
#613=EDGE_CURVE('',#497,#498,#429,.T.);
#614=EDGE_CURVE('',#498,#499,#213,.T.);
#615=EDGE_CURVE('',#499,#500,#430,.T.);
#616=EDGE_CURVE('',#500,#497,#214,.T.);
#617=EDGE_CURVE('',#501,#498,#215,.T.);
#618=EDGE_CURVE('',#502,#501,#216,.T.);
#619=EDGE_CURVE('',#499,#502,#217,.T.);
#620=EDGE_CURVE('',#503,#504,#431,.T.);
#621=EDGE_CURVE('',#504,#505,#218,.T.);
#622=EDGE_CURVE('',#505,#506,#432,.T.);
#623=EDGE_CURVE('',#506,#503,#219,.T.);
#624=EDGE_CURVE('',#505,#500,#220,.T.);
#625=EDGE_CURVE('',#497,#504,#221,.T.);
#626=EDGE_CURVE('',#501,#507,#433,.T.);
#627=EDGE_CURVE('',#507,#508,#222,.T.);
#628=EDGE_CURVE('',#508,#502,#434,.T.);
#629=EDGE_CURVE('',#509,#507,#223,.T.);
#630=EDGE_CURVE('',#510,#509,#224,.T.);
#631=EDGE_CURVE('',#508,#510,#225,.T.);
#632=EDGE_CURVE('',#509,#511,#435,.T.);
#633=EDGE_CURVE('',#511,#512,#226,.T.);
#634=EDGE_CURVE('',#512,#510,#436,.T.);
#635=EDGE_CURVE('',#512,#506,#227,.T.);
#636=EDGE_CURVE('',#503,#511,#228,.T.);
#637=EDGE_CURVE('',#513,#514,#437,.T.);
#638=EDGE_CURVE('',#514,#515,#229,.T.);
#639=EDGE_CURVE('',#515,#516,#438,.F.);
#640=EDGE_CURVE('',#516,#513,#230,.T.);
#641=EDGE_CURVE('',#517,#514,#231,.T.);
#642=EDGE_CURVE('',#518,#517,#232,.T.);
#643=EDGE_CURVE('',#518,#515,#233,.T.);
#644=EDGE_CURVE('',#513,#519,#234,.T.);
#645=EDGE_CURVE('',#520,#519,#439,.T.);
#646=EDGE_CURVE('',#520,#521,#235,.T.);
#647=EDGE_CURVE('',#522,#521,#440,.T.);
#648=EDGE_CURVE('',#522,#523,#236,.T.);
#649=EDGE_CURVE('',#517,#523,#441,.T.);
#650=EDGE_CURVE('',#519,#524,#237,.T.);
#651=EDGE_CURVE('',#524,#525,#442,.F.);
#652=EDGE_CURVE('',#525,#520,#238,.T.);
#653=EDGE_CURVE('',#525,#526,#239,.T.);
#654=EDGE_CURVE('',#521,#526,#240,.T.);
#655=EDGE_CURVE('',#523,#527,#241,.T.);
#656=EDGE_CURVE('',#527,#518,#443,.F.);
#657=EDGE_CURVE('',#526,#528,#444,.F.);
#658=EDGE_CURVE('',#528,#522,#242,.T.);
#659=EDGE_CURVE('',#528,#527,#243,.T.);
#660=EDGE_CURVE('',#529,#530,#445,.T.);
#661=EDGE_CURVE('',#530,#531,#446,.T.);
#662=EDGE_CURVE('',#531,#532,#447,.T.);
#663=EDGE_CURVE('',#532,#529,#448,.T.);
#664=EDGE_CURVE('',#533,#534,#449,.T.);
#665=EDGE_CURVE('',#534,#532,#244,.T.);
#666=EDGE_CURVE('',#531,#533,#245,.T.);
#667=EDGE_CURVE('',#535,#536,#450,.T.);
#668=EDGE_CURVE('',#536,#534,#451,.T.);
#669=EDGE_CURVE('',#533,#535,#452,.T.);
#670=EDGE_CURVE('',#537,#538,#453,.T.);
#671=EDGE_CURVE('',#538,#536,#246,.T.);
#672=EDGE_CURVE('',#535,#537,#247,.T.);
#673=EDGE_CURVE('',#539,#540,#454,.T.);
#674=EDGE_CURVE('',#540,#538,#455,.T.);
#675=EDGE_CURVE('',#537,#539,#456,.T.);
#676=EDGE_CURVE('',#541,#542,#457,.T.);
#677=EDGE_CURVE('',#542,#540,#248,.T.);
#678=EDGE_CURVE('',#539,#541,#249,.T.);
#679=EDGE_CURVE('',#543,#544,#458,.T.);
#680=EDGE_CURVE('',#544,#542,#459,.T.);
#681=EDGE_CURVE('',#541,#543,#460,.T.);
#682=EDGE_CURVE('',#543,#530,#250,.T.);
#683=EDGE_CURVE('',#529,#544,#251,.T.);
#684=EDGE_CURVE('',#545,#535,#252,.T.);
#685=EDGE_CURVE('',#546,#545,#253,.T.);
#686=EDGE_CURVE('',#537,#546,#254,.T.);
#687=EDGE_CURVE('',#533,#547,#255,.T.);
#688=EDGE_CURVE('',#547,#545,#461,.T.);
#689=EDGE_CURVE('',#548,#531,#256,.T.);
#690=EDGE_CURVE('',#547,#548,#257,.T.);
#691=EDGE_CURVE('',#530,#549,#258,.T.);
#692=EDGE_CURVE('',#549,#548,#462,.T.);
#693=EDGE_CURVE('',#550,#551,#259,.T.);
#694=EDGE_CURVE('',#551,#552,#463,.T.);
#695=EDGE_CURVE('',#552,#553,#260,.T.);
#696=EDGE_CURVE('',#553,#554,#464,.T.);
#697=EDGE_CURVE('',#554,#555,#261,.T.);
#698=EDGE_CURVE('',#555,#556,#465,.T.);
#699=EDGE_CURVE('',#556,#557,#262,.T.);
#700=EDGE_CURVE('',#557,#550,#466,.T.);
#701=EDGE_CURVE('',#546,#558,#467,.T.);
#702=EDGE_CURVE('',#558,#539,#263,.T.);
#703=EDGE_CURVE('',#541,#559,#264,.T.);
#704=EDGE_CURVE('',#559,#560,#468,.T.);
#705=EDGE_CURVE('',#560,#543,#265,.T.);
#706=EDGE_CURVE('',#549,#560,#266,.T.);
#707=EDGE_CURVE('',#561,#562,#469,.T.);
#708=EDGE_CURVE('',#562,#563,#267,.T.);
#709=EDGE_CURVE('',#563,#564,#470,.T.);
#710=EDGE_CURVE('',#564,#561,#268,.T.);
#711=EDGE_CURVE('',#564,#565,#269,.T.);
#712=EDGE_CURVE('',#566,#565,#270,.T.);
#713=EDGE_CURVE('',#561,#566,#271,.T.);
#714=EDGE_CURVE('',#567,#563,#272,.T.);
#715=EDGE_CURVE('',#568,#567,#471,.T.);
#716=EDGE_CURVE('',#569,#568,#273,.T.);
#717=EDGE_CURVE('',#570,#569,#472,.T.);
#718=EDGE_CURVE('',#571,#570,#274,.T.);
#719=EDGE_CURVE('',#565,#571,#473,.T.);
#720=EDGE_CURVE('',#572,#573,#275,.T.);
#721=EDGE_CURVE('',#574,#573,#474,.F.);
#722=EDGE_CURVE('',#574,#575,#276,.T.);
#723=EDGE_CURVE('',#576,#575,#475,.F.);
#724=EDGE_CURVE('',#576,#577,#277,.T.);
#725=EDGE_CURVE('',#578,#577,#476,.F.);
#726=EDGE_CURVE('',#578,#579,#278,.T.);
#727=EDGE_CURVE('',#572,#579,#477,.F.);
#728=EDGE_CURVE('',#580,#566,#478,.T.);
#729=EDGE_CURVE('',#571,#580,#279,.T.);
#730=EDGE_CURVE('',#581,#570,#280,.T.);
#731=EDGE_CURVE('',#580,#581,#281,.T.);
#732=EDGE_CURVE('',#582,#581,#479,.T.);
#733=EDGE_CURVE('',#569,#582,#282,.T.);
#734=EDGE_CURVE('',#583,#568,#283,.T.);
#735=EDGE_CURVE('',#582,#583,#284,.T.);
#736=EDGE_CURVE('',#584,#583,#480,.T.);
#737=EDGE_CURVE('',#567,#584,#285,.T.);
#738=EDGE_CURVE('',#585,#586,#286,.T.);
#739=EDGE_CURVE('',#586,#586,#481,.T.);
#740=EDGE_CURVE('',#586,#587,#287,.T.);
#741=EDGE_CURVE('',#587,#587,#482,.T.);
#742=EDGE_CURVE('',#588,#589,#288,.T.);
#743=EDGE_CURVE('',#589,#589,#483,.T.);
#744=EDGE_CURVE('',#589,#590,#289,.T.);
#745=EDGE_CURVE('',#590,#590,#484,.T.);
#746=EDGE_CURVE('',#591,#592,#290,.T.);
#747=EDGE_CURVE('',#592,#592,#485,.T.);
#748=EDGE_CURVE('',#592,#593,#291,.T.);
#749=EDGE_CURVE('',#593,#593,#486,.T.);
#750=EDGE_CURVE('',#594,#595,#292,.T.);
#751=EDGE_CURVE('',#595,#595,#487,.T.);
#752=EDGE_CURVE('',#595,#596,#293,.T.);
#753=EDGE_CURVE('',#596,#596,#488,.T.);
#754=EDGE_CURVE('',#597,#598,#489,.T.);
#755=EDGE_CURVE('',#598,#572,#294,.T.);
#756=EDGE_CURVE('',#579,#597,#295,.T.);
#757=EDGE_CURVE('',#599,#598,#296,.T.);
#758=EDGE_CURVE('',#573,#599,#297,.T.);
#759=EDGE_CURVE('',#597,#600,#298,.T.);
#760=EDGE_CURVE('',#601,#600,#490,.T.);
#761=EDGE_CURVE('',#601,#602,#299,.T.);
#762=EDGE_CURVE('',#603,#602,#491,.T.);
#763=EDGE_CURVE('',#603,#604,#300,.T.);
#764=EDGE_CURVE('',#599,#604,#492,.T.);
#765=EDGE_CURVE('',#604,#574,#301,.T.);
#766=EDGE_CURVE('',#575,#603,#302,.T.);
#767=EDGE_CURVE('',#602,#576,#303,.T.);
#768=EDGE_CURVE('',#577,#601,#304,.T.);
#769=EDGE_CURVE('',#600,#578,#305,.T.);
#770=EDGE_CURVE('',#516,#524,#306,.T.);
#771=EDGE_CURVE('',#550,#605,#307,.T.);
#772=EDGE_CURVE('',#605,#606,#308,.T.);
#773=EDGE_CURVE('',#551,#606,#309,.T.);
#774=EDGE_CURVE('',#557,#607,#310,.T.);
#775=EDGE_CURVE('',#607,#605,#493,.T.);
#776=EDGE_CURVE('',#556,#608,#311,.T.);
#777=EDGE_CURVE('',#608,#607,#312,.T.);
#778=EDGE_CURVE('',#555,#609,#313,.T.);
#779=EDGE_CURVE('',#609,#608,#494,.T.);
#780=EDGE_CURVE('',#554,#610,#314,.T.);
#781=EDGE_CURVE('',#610,#609,#315,.T.);
#782=EDGE_CURVE('',#553,#611,#316,.T.);
#783=EDGE_CURVE('',#611,#610,#495,.T.);
#784=EDGE_CURVE('',#552,#612,#317,.T.);
#785=EDGE_CURVE('',#612,#611,#318,.T.);
#786=EDGE_CURVE('',#606,#612,#496,.T.);
#787=EDGE_CURVE('',#559,#558,#319,.T.);
#788=EDGE_CURVE('',#584,#562,#320,.T.);
#789=ORIENTED_EDGE('',*,*,#613,.T.);
#790=ORIENTED_EDGE('',*,*,#614,.T.);
#791=ORIENTED_EDGE('',*,*,#615,.T.);
#792=ORIENTED_EDGE('',*,*,#616,.T.);
#793=ORIENTED_EDGE('',*,*,#614,.F.);
#794=ORIENTED_EDGE('',*,*,#617,.F.);
#795=ORIENTED_EDGE('',*,*,#618,.F.);
#796=ORIENTED_EDGE('',*,*,#619,.F.);
#797=ORIENTED_EDGE('',*,*,#620,.T.);
#798=ORIENTED_EDGE('',*,*,#621,.T.);
#799=ORIENTED_EDGE('',*,*,#622,.T.);
#800=ORIENTED_EDGE('',*,*,#623,.T.);
#801=ORIENTED_EDGE('',*,*,#616,.F.);
#802=ORIENTED_EDGE('',*,*,#624,.F.);
#803=ORIENTED_EDGE('',*,*,#621,.F.);
#804=ORIENTED_EDGE('',*,*,#625,.F.);
#805=ORIENTED_EDGE('',*,*,#626,.T.);
#806=ORIENTED_EDGE('',*,*,#627,.T.);
#807=ORIENTED_EDGE('',*,*,#628,.T.);
#808=ORIENTED_EDGE('',*,*,#618,.T.);
#809=ORIENTED_EDGE('',*,*,#627,.F.);
#810=ORIENTED_EDGE('',*,*,#629,.F.);
#811=ORIENTED_EDGE('',*,*,#630,.F.);
#812=ORIENTED_EDGE('',*,*,#631,.F.);
#813=ORIENTED_EDGE('',*,*,#632,.T.);
#814=ORIENTED_EDGE('',*,*,#633,.T.);
#815=ORIENTED_EDGE('',*,*,#634,.T.);
#816=ORIENTED_EDGE('',*,*,#630,.T.);
#817=ORIENTED_EDGE('',*,*,#623,.F.);
#818=ORIENTED_EDGE('',*,*,#635,.F.);
#819=ORIENTED_EDGE('',*,*,#633,.F.);
#820=ORIENTED_EDGE('',*,*,#636,.F.);
#821=ORIENTED_EDGE('',*,*,#637,.T.);
#822=ORIENTED_EDGE('',*,*,#638,.T.);
#823=ORIENTED_EDGE('',*,*,#639,.T.);
#824=ORIENTED_EDGE('',*,*,#640,.T.);
#825=ORIENTED_EDGE('',*,*,#638,.F.);
#826=ORIENTED_EDGE('',*,*,#641,.F.);
#827=ORIENTED_EDGE('',*,*,#642,.F.);
#828=ORIENTED_EDGE('',*,*,#643,.T.);
#829=ORIENTED_EDGE('',*,*,#637,.F.);
#830=ORIENTED_EDGE('',*,*,#644,.T.);
#831=ORIENTED_EDGE('',*,*,#645,.F.);
#832=ORIENTED_EDGE('',*,*,#646,.T.);
#833=ORIENTED_EDGE('',*,*,#647,.F.);
#834=ORIENTED_EDGE('',*,*,#648,.T.);
#835=ORIENTED_EDGE('',*,*,#649,.F.);
#836=ORIENTED_EDGE('',*,*,#641,.T.);
#837=ORIENTED_EDGE('',*,*,#619,.T.);
#838=ORIENTED_EDGE('',*,*,#628,.F.);
#839=ORIENTED_EDGE('',*,*,#631,.T.);
#840=ORIENTED_EDGE('',*,*,#634,.F.);
#841=ORIENTED_EDGE('',*,*,#635,.T.);
#842=ORIENTED_EDGE('',*,*,#622,.F.);
#843=ORIENTED_EDGE('',*,*,#624,.T.);
#844=ORIENTED_EDGE('',*,*,#615,.F.);
#845=ORIENTED_EDGE('',*,*,#645,.T.);
#846=ORIENTED_EDGE('',*,*,#650,.T.);
#847=ORIENTED_EDGE('',*,*,#651,.T.);
#848=ORIENTED_EDGE('',*,*,#652,.T.);
#849=ORIENTED_EDGE('',*,*,#652,.F.);
#850=ORIENTED_EDGE('',*,*,#653,.T.);
#851=ORIENTED_EDGE('',*,*,#654,.F.);
#852=ORIENTED_EDGE('',*,*,#646,.F.);
#853=ORIENTED_EDGE('',*,*,#649,.T.);
#854=ORIENTED_EDGE('',*,*,#655,.T.);
#855=ORIENTED_EDGE('',*,*,#656,.T.);
#856=ORIENTED_EDGE('',*,*,#642,.T.);
#857=ORIENTED_EDGE('',*,*,#647,.T.);
#858=ORIENTED_EDGE('',*,*,#654,.T.);
#859=ORIENTED_EDGE('',*,*,#657,.T.);
#860=ORIENTED_EDGE('',*,*,#658,.T.);
#861=ORIENTED_EDGE('',*,*,#655,.F.);
#862=ORIENTED_EDGE('',*,*,#648,.F.);
#863=ORIENTED_EDGE('',*,*,#658,.F.);
#864=ORIENTED_EDGE('',*,*,#659,.T.);
#865=ORIENTED_EDGE('',*,*,#660,.T.);
#866=ORIENTED_EDGE('',*,*,#661,.T.);
#867=ORIENTED_EDGE('',*,*,#662,.T.);
#868=ORIENTED_EDGE('',*,*,#663,.T.);
#869=ORIENTED_EDGE('',*,*,#664,.T.);
#870=ORIENTED_EDGE('',*,*,#665,.T.);
#871=ORIENTED_EDGE('',*,*,#662,.F.);
#872=ORIENTED_EDGE('',*,*,#666,.T.);
#873=ORIENTED_EDGE('',*,*,#667,.T.);
#874=ORIENTED_EDGE('',*,*,#668,.T.);
#875=ORIENTED_EDGE('',*,*,#664,.F.);
#876=ORIENTED_EDGE('',*,*,#669,.T.);
#877=ORIENTED_EDGE('',*,*,#670,.T.);
#878=ORIENTED_EDGE('',*,*,#671,.T.);
#879=ORIENTED_EDGE('',*,*,#667,.F.);
#880=ORIENTED_EDGE('',*,*,#672,.T.);
#881=ORIENTED_EDGE('',*,*,#673,.T.);
#882=ORIENTED_EDGE('',*,*,#674,.T.);
#883=ORIENTED_EDGE('',*,*,#670,.F.);
#884=ORIENTED_EDGE('',*,*,#675,.T.);
#885=ORIENTED_EDGE('',*,*,#676,.T.);
#886=ORIENTED_EDGE('',*,*,#677,.T.);
#887=ORIENTED_EDGE('',*,*,#673,.F.);
#888=ORIENTED_EDGE('',*,*,#678,.T.);
#889=ORIENTED_EDGE('',*,*,#679,.T.);
#890=ORIENTED_EDGE('',*,*,#680,.T.);
#891=ORIENTED_EDGE('',*,*,#676,.F.);
#892=ORIENTED_EDGE('',*,*,#681,.T.);
#893=ORIENTED_EDGE('',*,*,#679,.F.);
#894=ORIENTED_EDGE('',*,*,#682,.T.);
#895=ORIENTED_EDGE('',*,*,#660,.F.);
#896=ORIENTED_EDGE('',*,*,#683,.T.);
#897=ORIENTED_EDGE('',*,*,#672,.F.);
#898=ORIENTED_EDGE('',*,*,#684,.F.);
#899=ORIENTED_EDGE('',*,*,#685,.F.);
#900=ORIENTED_EDGE('',*,*,#686,.F.);
#901=ORIENTED_EDGE('',*,*,#669,.F.);
#902=ORIENTED_EDGE('',*,*,#687,.T.);
#903=ORIENTED_EDGE('',*,*,#688,.T.);
#904=ORIENTED_EDGE('',*,*,#684,.T.);
#905=ORIENTED_EDGE('',*,*,#666,.F.);
#906=ORIENTED_EDGE('',*,*,#689,.F.);
#907=ORIENTED_EDGE('',*,*,#690,.F.);
#908=ORIENTED_EDGE('',*,*,#687,.F.);
#909=ORIENTED_EDGE('',*,*,#661,.F.);
#910=ORIENTED_EDGE('',*,*,#691,.T.);
#911=ORIENTED_EDGE('',*,*,#692,.T.);
#912=ORIENTED_EDGE('',*,*,#689,.T.);
#913=ORIENTED_EDGE('',*,*,#663,.F.);
#914=ORIENTED_EDGE('',*,*,#665,.F.);
#915=ORIENTED_EDGE('',*,*,#668,.F.);
#916=ORIENTED_EDGE('',*,*,#671,.F.);
#917=ORIENTED_EDGE('',*,*,#674,.F.);
#918=ORIENTED_EDGE('',*,*,#677,.F.);
#919=ORIENTED_EDGE('',*,*,#680,.F.);
#920=ORIENTED_EDGE('',*,*,#683,.F.);
#921=ORIENTED_EDGE('',*,*,#693,.T.);
#922=ORIENTED_EDGE('',*,*,#694,.T.);
#923=ORIENTED_EDGE('',*,*,#695,.T.);
#924=ORIENTED_EDGE('',*,*,#696,.T.);
#925=ORIENTED_EDGE('',*,*,#697,.T.);
#926=ORIENTED_EDGE('',*,*,#698,.T.);
#927=ORIENTED_EDGE('',*,*,#699,.T.);
#928=ORIENTED_EDGE('',*,*,#700,.T.);
#929=ORIENTED_EDGE('',*,*,#675,.F.);
#930=ORIENTED_EDGE('',*,*,#686,.T.);
#931=ORIENTED_EDGE('',*,*,#701,.T.);
#932=ORIENTED_EDGE('',*,*,#702,.T.);
#933=ORIENTED_EDGE('',*,*,#681,.F.);
#934=ORIENTED_EDGE('',*,*,#703,.T.);
#935=ORIENTED_EDGE('',*,*,#704,.T.);
#936=ORIENTED_EDGE('',*,*,#705,.T.);
#937=ORIENTED_EDGE('',*,*,#682,.F.);
#938=ORIENTED_EDGE('',*,*,#705,.F.);
#939=ORIENTED_EDGE('',*,*,#706,.F.);
#940=ORIENTED_EDGE('',*,*,#691,.F.);
#941=ORIENTED_EDGE('',*,*,#707,.T.);
#942=ORIENTED_EDGE('',*,*,#708,.T.);
#943=ORIENTED_EDGE('',*,*,#709,.T.);
#944=ORIENTED_EDGE('',*,*,#710,.T.);
#945=ORIENTED_EDGE('',*,*,#710,.F.);
#946=ORIENTED_EDGE('',*,*,#711,.T.);
#947=ORIENTED_EDGE('',*,*,#712,.F.);
#948=ORIENTED_EDGE('',*,*,#713,.F.);
#949=ORIENTED_EDGE('',*,*,#709,.F.);
#950=ORIENTED_EDGE('',*,*,#714,.F.);
#951=ORIENTED_EDGE('',*,*,#715,.F.);
#952=ORIENTED_EDGE('',*,*,#716,.F.);
#953=ORIENTED_EDGE('',*,*,#717,.F.);
#954=ORIENTED_EDGE('',*,*,#718,.F.);
#955=ORIENTED_EDGE('',*,*,#719,.F.);
#956=ORIENTED_EDGE('',*,*,#711,.F.);
#957=ORIENTED_EDGE('',*,*,#720,.T.);
#958=ORIENTED_EDGE('',*,*,#721,.F.);
#959=ORIENTED_EDGE('',*,*,#722,.T.);
#960=ORIENTED_EDGE('',*,*,#723,.F.);
#961=ORIENTED_EDGE('',*,*,#724,.T.);
#962=ORIENTED_EDGE('',*,*,#725,.F.);
#963=ORIENTED_EDGE('',*,*,#726,.T.);
#964=ORIENTED_EDGE('',*,*,#727,.F.);
#965=ORIENTED_EDGE('',*,*,#728,.T.);
#966=ORIENTED_EDGE('',*,*,#712,.T.);
#967=ORIENTED_EDGE('',*,*,#719,.T.);
#968=ORIENTED_EDGE('',*,*,#729,.T.);
#969=ORIENTED_EDGE('',*,*,#729,.F.);
#970=ORIENTED_EDGE('',*,*,#718,.T.);
#971=ORIENTED_EDGE('',*,*,#730,.F.);
#972=ORIENTED_EDGE('',*,*,#731,.F.);
#973=ORIENTED_EDGE('',*,*,#732,.T.);
#974=ORIENTED_EDGE('',*,*,#730,.T.);
#975=ORIENTED_EDGE('',*,*,#717,.T.);
#976=ORIENTED_EDGE('',*,*,#733,.T.);
#977=ORIENTED_EDGE('',*,*,#733,.F.);
#978=ORIENTED_EDGE('',*,*,#716,.T.);
#979=ORIENTED_EDGE('',*,*,#734,.F.);
#980=ORIENTED_EDGE('',*,*,#735,.F.);
#981=ORIENTED_EDGE('',*,*,#736,.T.);
#982=ORIENTED_EDGE('',*,*,#734,.T.);
#983=ORIENTED_EDGE('',*,*,#715,.T.);
#984=ORIENTED_EDGE('',*,*,#737,.T.);
#985=ORIENTED_EDGE('',*,*,#738,.T.);
#986=ORIENTED_EDGE('',*,*,#739,.T.);
#987=ORIENTED_EDGE('',*,*,#738,.F.);
#988=ORIENTED_EDGE('',*,*,#739,.F.);
#989=ORIENTED_EDGE('',*,*,#740,.T.);
#990=ORIENTED_EDGE('',*,*,#741,.F.);
#991=ORIENTED_EDGE('',*,*,#740,.F.);
#992=ORIENTED_EDGE('',*,*,#742,.T.);
#993=ORIENTED_EDGE('',*,*,#743,.T.);
#994=ORIENTED_EDGE('',*,*,#742,.F.);
#995=ORIENTED_EDGE('',*,*,#743,.F.);
#996=ORIENTED_EDGE('',*,*,#744,.T.);
#997=ORIENTED_EDGE('',*,*,#745,.F.);
#998=ORIENTED_EDGE('',*,*,#744,.F.);
#999=ORIENTED_EDGE('',*,*,#746,.T.);
#1000=ORIENTED_EDGE('',*,*,#747,.T.);
#1001=ORIENTED_EDGE('',*,*,#746,.F.);
#1002=ORIENTED_EDGE('',*,*,#747,.F.);
#1003=ORIENTED_EDGE('',*,*,#748,.T.);
#1004=ORIENTED_EDGE('',*,*,#749,.F.);
#1005=ORIENTED_EDGE('',*,*,#748,.F.);
#1006=ORIENTED_EDGE('',*,*,#750,.T.);
#1007=ORIENTED_EDGE('',*,*,#751,.T.);
#1008=ORIENTED_EDGE('',*,*,#750,.F.);
#1009=ORIENTED_EDGE('',*,*,#751,.F.);
#1010=ORIENTED_EDGE('',*,*,#752,.T.);
#1011=ORIENTED_EDGE('',*,*,#753,.F.);
#1012=ORIENTED_EDGE('',*,*,#752,.F.);
#1013=ORIENTED_EDGE('',*,*,#754,.T.);
#1014=ORIENTED_EDGE('',*,*,#755,.T.);
#1015=ORIENTED_EDGE('',*,*,#727,.T.);
#1016=ORIENTED_EDGE('',*,*,#756,.T.);
#1017=ORIENTED_EDGE('',*,*,#755,.F.);
#1018=ORIENTED_EDGE('',*,*,#757,.F.);
#1019=ORIENTED_EDGE('',*,*,#758,.F.);
#1020=ORIENTED_EDGE('',*,*,#720,.F.);
#1021=ORIENTED_EDGE('',*,*,#754,.F.);
#1022=ORIENTED_EDGE('',*,*,#759,.T.);
#1023=ORIENTED_EDGE('',*,*,#760,.F.);
#1024=ORIENTED_EDGE('',*,*,#761,.T.);
#1025=ORIENTED_EDGE('',*,*,#762,.F.);
#1026=ORIENTED_EDGE('',*,*,#763,.T.);
#1027=ORIENTED_EDGE('',*,*,#764,.F.);
#1028=ORIENTED_EDGE('',*,*,#757,.T.);
#1029=ORIENTED_EDGE('',*,*,#617,.T.);
#1030=ORIENTED_EDGE('',*,*,#613,.F.);
#1031=ORIENTED_EDGE('',*,*,#625,.T.);
#1032=ORIENTED_EDGE('',*,*,#620,.F.);
#1033=ORIENTED_EDGE('',*,*,#636,.T.);
#1034=ORIENTED_EDGE('',*,*,#632,.F.);
#1035=ORIENTED_EDGE('',*,*,#629,.T.);
#1036=ORIENTED_EDGE('',*,*,#626,.F.);
#1037=ORIENTED_EDGE('',*,*,#764,.T.);
#1038=ORIENTED_EDGE('',*,*,#765,.T.);
#1039=ORIENTED_EDGE('',*,*,#721,.T.);
#1040=ORIENTED_EDGE('',*,*,#758,.T.);
#1041=ORIENTED_EDGE('',*,*,#765,.F.);
#1042=ORIENTED_EDGE('',*,*,#763,.F.);
#1043=ORIENTED_EDGE('',*,*,#766,.F.);
#1044=ORIENTED_EDGE('',*,*,#722,.F.);
#1045=ORIENTED_EDGE('',*,*,#762,.T.);
#1046=ORIENTED_EDGE('',*,*,#767,.T.);
#1047=ORIENTED_EDGE('',*,*,#723,.T.);
#1048=ORIENTED_EDGE('',*,*,#766,.T.);
#1049=ORIENTED_EDGE('',*,*,#767,.F.);
#1050=ORIENTED_EDGE('',*,*,#761,.F.);
#1051=ORIENTED_EDGE('',*,*,#768,.F.);
#1052=ORIENTED_EDGE('',*,*,#724,.F.);
#1053=ORIENTED_EDGE('',*,*,#760,.T.);
#1054=ORIENTED_EDGE('',*,*,#769,.T.);
#1055=ORIENTED_EDGE('',*,*,#725,.T.);
#1056=ORIENTED_EDGE('',*,*,#768,.T.);
#1057=ORIENTED_EDGE('',*,*,#640,.F.);
#1058=ORIENTED_EDGE('',*,*,#770,.T.);
#1059=ORIENTED_EDGE('',*,*,#650,.F.);
#1060=ORIENTED_EDGE('',*,*,#644,.F.);
#1061=ORIENTED_EDGE('',*,*,#693,.F.);
#1062=ORIENTED_EDGE('',*,*,#771,.T.);
#1063=ORIENTED_EDGE('',*,*,#772,.T.);
#1064=ORIENTED_EDGE('',*,*,#773,.F.);
#1065=ORIENTED_EDGE('',*,*,#700,.F.);
#1066=ORIENTED_EDGE('',*,*,#774,.T.);
#1067=ORIENTED_EDGE('',*,*,#775,.T.);
#1068=ORIENTED_EDGE('',*,*,#771,.F.);
#1069=ORIENTED_EDGE('',*,*,#699,.F.);
#1070=ORIENTED_EDGE('',*,*,#776,.T.);
#1071=ORIENTED_EDGE('',*,*,#777,.T.);
#1072=ORIENTED_EDGE('',*,*,#774,.F.);
#1073=ORIENTED_EDGE('',*,*,#698,.F.);
#1074=ORIENTED_EDGE('',*,*,#778,.T.);
#1075=ORIENTED_EDGE('',*,*,#779,.T.);
#1076=ORIENTED_EDGE('',*,*,#776,.F.);
#1077=ORIENTED_EDGE('',*,*,#697,.F.);
#1078=ORIENTED_EDGE('',*,*,#780,.T.);
#1079=ORIENTED_EDGE('',*,*,#781,.T.);
#1080=ORIENTED_EDGE('',*,*,#778,.F.);
#1081=ORIENTED_EDGE('',*,*,#696,.F.);
#1082=ORIENTED_EDGE('',*,*,#782,.T.);
#1083=ORIENTED_EDGE('',*,*,#783,.T.);
#1084=ORIENTED_EDGE('',*,*,#780,.F.);
#1085=ORIENTED_EDGE('',*,*,#695,.F.);
#1086=ORIENTED_EDGE('',*,*,#784,.T.);
#1087=ORIENTED_EDGE('',*,*,#785,.T.);
#1088=ORIENTED_EDGE('',*,*,#782,.F.);
#1089=ORIENTED_EDGE('',*,*,#694,.F.);
#1090=ORIENTED_EDGE('',*,*,#773,.T.);
#1091=ORIENTED_EDGE('',*,*,#786,.T.);
#1092=ORIENTED_EDGE('',*,*,#784,.F.);
#1093=ORIENTED_EDGE('',*,*,#786,.F.);
#1094=ORIENTED_EDGE('',*,*,#772,.F.);
#1095=ORIENTED_EDGE('',*,*,#775,.F.);
#1096=ORIENTED_EDGE('',*,*,#777,.F.);
#1097=ORIENTED_EDGE('',*,*,#779,.F.);
#1098=ORIENTED_EDGE('',*,*,#781,.F.);
#1099=ORIENTED_EDGE('',*,*,#783,.F.);
#1100=ORIENTED_EDGE('',*,*,#785,.F.);
#1101=ORIENTED_EDGE('',*,*,#657,.F.);
#1102=ORIENTED_EDGE('',*,*,#653,.F.);
#1103=ORIENTED_EDGE('',*,*,#651,.F.);
#1104=ORIENTED_EDGE('',*,*,#770,.F.);
#1105=ORIENTED_EDGE('',*,*,#639,.F.);
#1106=ORIENTED_EDGE('',*,*,#643,.F.);
#1107=ORIENTED_EDGE('',*,*,#656,.F.);
#1108=ORIENTED_EDGE('',*,*,#659,.F.);
#1109=ORIENTED_EDGE('',*,*,#756,.F.);
#1110=ORIENTED_EDGE('',*,*,#726,.F.);
#1111=ORIENTED_EDGE('',*,*,#769,.F.);
#1112=ORIENTED_EDGE('',*,*,#759,.F.);
#1113=ORIENTED_EDGE('',*,*,#678,.F.);
#1114=ORIENTED_EDGE('',*,*,#702,.F.);
#1115=ORIENTED_EDGE('',*,*,#787,.F.);
#1116=ORIENTED_EDGE('',*,*,#703,.F.);
#1117=ORIENTED_EDGE('',*,*,#708,.F.);
#1118=ORIENTED_EDGE('',*,*,#788,.F.);
#1119=ORIENTED_EDGE('',*,*,#737,.F.);
#1120=ORIENTED_EDGE('',*,*,#714,.T.);
#1121=ORIENTED_EDGE('',*,*,#707,.F.);
#1122=ORIENTED_EDGE('',*,*,#713,.T.);
#1123=ORIENTED_EDGE('',*,*,#728,.F.);
#1124=ORIENTED_EDGE('',*,*,#731,.T.);
#1125=ORIENTED_EDGE('',*,*,#732,.F.);
#1126=ORIENTED_EDGE('',*,*,#735,.T.);
#1127=ORIENTED_EDGE('',*,*,#736,.F.);
#1128=ORIENTED_EDGE('',*,*,#788,.T.);
#1129=ORIENTED_EDGE('',*,*,#741,.T.);
#1130=ORIENTED_EDGE('',*,*,#745,.T.);
#1131=ORIENTED_EDGE('',*,*,#749,.T.);
#1132=ORIENTED_EDGE('',*,*,#753,.T.);
#1133=ORIENTED_EDGE('',*,*,#706,.T.);
#1134=ORIENTED_EDGE('',*,*,#704,.F.);
#1135=ORIENTED_EDGE('',*,*,#787,.T.);
#1136=ORIENTED_EDGE('',*,*,#701,.F.);
#1137=ORIENTED_EDGE('',*,*,#685,.T.);
#1138=ORIENTED_EDGE('',*,*,#688,.F.);
#1139=ORIENTED_EDGE('',*,*,#690,.T.);
#1140=ORIENTED_EDGE('',*,*,#692,.F.);
#1141=CYLINDRICAL_SURFACE('',#1265,0.1);
#1142=CYLINDRICAL_SURFACE('',#1269,0.1);
#1143=CYLINDRICAL_SURFACE('',#1273,0.1);
#1144=CYLINDRICAL_SURFACE('',#1277,0.1);
#1145=CYLINDRICAL_SURFACE('',#1281,0.009);
#1146=CYLINDRICAL_SURFACE('',#1289,0.009);
#1147=CYLINDRICAL_SURFACE('',#1292,0.009);
#1148=CYLINDRICAL_SURFACE('',#1294,0.009);
#1149=CYLINDRICAL_SURFACE('',#1302,0.1);
#1150=CYLINDRICAL_SURFACE('',#1308,0.1);
#1151=CYLINDRICAL_SURFACE('',#1314,0.1);
#1152=CYLINDRICAL_SURFACE('',#1320,0.1);
#1153=CYLINDRICAL_SURFACE('',#1322,0.25);
#1154=CYLINDRICAL_SURFACE('',#1325,0.25);
#1155=CYLINDRICAL_SURFACE('',#1332,0.25);
#1156=CYLINDRICAL_SURFACE('',#1334,0.25);
#1157=CYLINDRICAL_SURFACE('',#1337,0.25);
#1158=CYLINDRICAL_SURFACE('',#1349,0.25);
#1159=CYLINDRICAL_SURFACE('',#1352,0.25);
#1160=CYLINDRICAL_SURFACE('',#1355,0.25);
#1161=CYLINDRICAL_SURFACE('',#1359,0.04245);
#1162=CYLINDRICAL_SURFACE('',#1363,0.04245);
#1163=CYLINDRICAL_SURFACE('',#1367,0.04245);
#1164=CYLINDRICAL_SURFACE('',#1371,0.04245);
#1165=CYLINDRICAL_SURFACE('',#1373,0.3);
#1166=CYLINDRICAL_SURFACE('',#1380,0.3);
#1167=CYLINDRICAL_SURFACE('',#1382,0.3);
#1168=CYLINDRICAL_SURFACE('',#1384,0.3);
#1169=CYLINDRICAL_SURFACE('',#1387,0.0589999999999999);
#1170=CYLINDRICAL_SURFACE('',#1390,0.0589999999999999);
#1171=CYLINDRICAL_SURFACE('',#1393,0.0589999999999999);
#1172=CYLINDRICAL_SURFACE('',#1396,0.0589999999999999);
#1173=ADVANCED_FACE('',(#63),#1141,.F.);
#1174=ADVANCED_FACE('',(#64),#33,.F.);
#1175=ADVANCED_FACE('',(#65),#1142,.F.);
#1176=ADVANCED_FACE('',(#66),#34,.F.);
#1177=ADVANCED_FACE('',(#67),#1143,.F.);
#1178=ADVANCED_FACE('',(#68),#35,.F.);
#1179=ADVANCED_FACE('',(#69),#1144,.F.);
#1180=ADVANCED_FACE('',(#70),#36,.F.);
#1181=ADVANCED_FACE('',(#71),#1145,.T.);
#1182=ADVANCED_FACE('',(#72),#37,.F.);
#1183=ADVANCED_FACE('',(#73,#23),#38,.F.);
#1184=ADVANCED_FACE('',(#74),#1146,.T.);
#1185=ADVANCED_FACE('',(#75),#39,.F.);
#1186=ADVANCED_FACE('',(#76),#1147,.T.);
#1187=ADVANCED_FACE('',(#77),#1148,.T.);
#1188=ADVANCED_FACE('',(#78),#40,.F.);
#1189=ADVANCED_FACE('',(#79),#19,.F.);
#1190=ADVANCED_FACE('',(#80),#1149,.F.);
#1191=ADVANCED_FACE('',(#81),#20,.F.);
#1192=ADVANCED_FACE('',(#82),#1150,.F.);
#1193=ADVANCED_FACE('',(#83),#21,.F.);
#1194=ADVANCED_FACE('',(#84),#1151,.F.);
#1195=ADVANCED_FACE('',(#85),#22,.F.);
#1196=ADVANCED_FACE('',(#86),#1152,.F.);
#1197=ADVANCED_FACE('',(#87),#41,.F.);
#1198=ADVANCED_FACE('',(#88),#1153,.F.);
#1199=ADVANCED_FACE('',(#89),#42,.F.);
#1200=ADVANCED_FACE('',(#90),#1154,.F.);
#1201=ADVANCED_FACE('',(#91,#24),#43,.F.);
#1202=ADVANCED_FACE('',(#92),#1155,.F.);
#1203=ADVANCED_FACE('',(#93),#1156,.F.);
#1204=ADVANCED_FACE('',(#94),#44,.F.);
#1205=ADVANCED_FACE('',(#95),#1157,.T.);
#1206=ADVANCED_FACE('',(#96),#45,.T.);
#1207=ADVANCED_FACE('',(#97,#25),#46,.F.);
#1208=ADVANCED_FACE('',(#98),#1158,.T.);
#1209=ADVANCED_FACE('',(#99),#47,.T.);
#1210=ADVANCED_FACE('',(#100),#1159,.T.);
#1211=ADVANCED_FACE('',(#101),#48,.T.);
#1212=ADVANCED_FACE('',(#102),#1160,.T.);
#1213=ADVANCED_FACE('',(#103),#15,.F.);
#1214=ADVANCED_FACE('',(#104),#1161,.F.);
#1215=ADVANCED_FACE('',(#105),#16,.F.);
#1216=ADVANCED_FACE('',(#106),#1162,.F.);
#1217=ADVANCED_FACE('',(#107),#17,.F.);
#1218=ADVANCED_FACE('',(#108),#1163,.F.);
#1219=ADVANCED_FACE('',(#109),#18,.F.);
#1220=ADVANCED_FACE('',(#110),#1164,.F.);
#1221=ADVANCED_FACE('',(#111),#1165,.T.);
#1222=ADVANCED_FACE('',(#112),#49,.T.);
#1223=ADVANCED_FACE('',(#113,#26),#50,.T.);
#1224=ADVANCED_FACE('',(#114),#1166,.T.);
#1225=ADVANCED_FACE('',(#115),#51,.T.);
#1226=ADVANCED_FACE('',(#116),#1167,.T.);
#1227=ADVANCED_FACE('',(#117),#52,.T.);
#1228=ADVANCED_FACE('',(#118),#1168,.T.);
#1229=ADVANCED_FACE('',(#119),#53,.F.);
#1230=ADVANCED_FACE('',(#120),#54,.F.);
#1231=ADVANCED_FACE('',(#121),#1169,.F.);
#1232=ADVANCED_FACE('',(#122),#55,.F.);
#1233=ADVANCED_FACE('',(#123),#1170,.F.);
#1234=ADVANCED_FACE('',(#124),#56,.F.);
#1235=ADVANCED_FACE('',(#125),#1171,.F.);
#1236=ADVANCED_FACE('',(#126),#57,.F.);
#1237=ADVANCED_FACE('',(#127),#1172,.F.);
#1238=ADVANCED_FACE('',(#128,#27),#58,.T.);
#1239=ADVANCED_FACE('',(#129),#59,.T.);
#1240=ADVANCED_FACE('',(#130),#60,.F.);
#1241=ADVANCED_FACE('',(#131),#61,.T.);
#1242=ADVANCED_FACE('',(#132,#28,#29,#30,#31,#32),#62,.T.);
#1243=CLOSED_SHELL('',(#1173,#1174,#1175,#1176,#1177,#1178,#1179,#1180,
#1181,#1182,#1183,#1184,#1185,#1186,#1187,#1188,#1189,#1190,#1191,#1192,
#1193,#1194,#1195,#1196,#1197,#1198,#1199,#1200,#1201,#1202,#1203,#1204,
#1205,#1206,#1207,#1208,#1209,#1210,#1211,#1212,#1213,#1214,#1215,#1216,
#1217,#1218,#1219,#1220,#1221,#1222,#1223,#1224,#1225,#1226,#1227,#1228,
#1229,#1230,#1231,#1232,#1233,#1234,#1235,#1236,#1237,#1238,#1239,#1240,
#1241,#1242));
#1244=DERIVED_UNIT_ELEMENT(#1246,1.);
#1245=DERIVED_UNIT_ELEMENT(#2160,-3.);
#1246=(
CONVERSION_BASED_UNIT('gram',#1248)
MASS_UNIT()
NAMED_UNIT(#2157)
);
#1247=(
MASS_UNIT()
NAMED_UNIT(*)
SI_UNIT(.KILO.,.GRAM.)
);
#1248=MASS_MEASURE_WITH_UNIT(MASS_MEASURE(0.001),#1247);
#1249=DERIVED_UNIT((#1244,#1245));
#1250=MEASURE_REPRESENTATION_ITEM('density measure',
POSITIVE_RATIO_MEASURE(1.),#1249);
#1251=PROPERTY_DEFINITION_REPRESENTATION(#1256,#1253);
#1252=PROPERTY_DEFINITION_REPRESENTATION(#1257,#1254);
#1253=REPRESENTATION('material name',(#1255),#2154);
#1254=REPRESENTATION('density',(#1250),#2154);
#1255=DESCRIPTIVE_REPRESENTATION_ITEM('Generic','Generic');
#1256=PROPERTY_DEFINITION('material property','material name',#2168);
#1257=PROPERTY_DEFINITION('material property','density of part',#2168);
#1258=DATE_TIME_ROLE('creation_date');
#1259=APPLIED_DATE_AND_TIME_ASSIGNMENT(#1260,#1258,(#2168));
#1260=DATE_AND_TIME(#1261,#1262);
#1261=CALENDAR_DATE(2024,24,12);
#1262=LOCAL_TIME(14,1,55.,#1263);
#1263=COORDINATED_UNIVERSAL_TIME_OFFSET(0,0,.BEHIND.);
#1264=AXIS2_PLACEMENT_3D('',#1789,#1403,#1404);
#1265=AXIS2_PLACEMENT_3D('',#1790,#1405,#1406);
#1266=AXIS2_PLACEMENT_3D('',#1793,#1407,#1408);
#1267=AXIS2_PLACEMENT_3D('',#1797,#1410,#1411);
#1268=AXIS2_PLACEMENT_3D('',#1799,#1413,#1414);
#1269=AXIS2_PLACEMENT_3D('',#1805,#1418,#1419);
#1270=AXIS2_PLACEMENT_3D('',#1808,#1420,#1421);
#1271=AXIS2_PLACEMENT_3D('',#1812,#1423,#1424);
#1272=AXIS2_PLACEMENT_3D('',#1814,#1426,#1427);
#1273=AXIS2_PLACEMENT_3D('',#1817,#1430,#1431);
#1274=AXIS2_PLACEMENT_3D('',#1819,#1432,#1433);
#1275=AXIS2_PLACEMENT_3D('',#1822,#1435,#1436);
#1276=AXIS2_PLACEMENT_3D('',#1823,#1437,#1438);
#1277=AXIS2_PLACEMENT_3D('',#1829,#1442,#1443);
#1278=AXIS2_PLACEMENT_3D('',#1831,#1444,#1445);
#1279=AXIS2_PLACEMENT_3D('',#1834,#1447,#1448);
#1280=AXIS2_PLACEMENT_3D('',#1835,#1449,#1450);
#1281=AXIS2_PLACEMENT_3D('',#1838,#1453,#1454);
#1282=AXIS2_PLACEMENT_3D('',#1841,#1455,#1456);
#1283=AXIS2_PLACEMENT_3D('',#1845,#1458,#1459);
#1284=AXIS2_PLACEMENT_3D('',#1847,#1461,#1462);
#1285=AXIS2_PLACEMENT_3D('',#1853,#1466,#1467);
#1286=AXIS2_PLACEMENT_3D('',#1857,#1469,#1470);
#1287=AXIS2_PLACEMENT_3D('',#1861,#1472,#1473);
#1288=AXIS2_PLACEMENT_3D('',#1864,#1475,#1476);
#1289=AXIS2_PLACEMENT_3D('',#1865,#1477,#1478);
#1290=AXIS2_PLACEMENT_3D('',#1869,#1480,#1481);
#1291=AXIS2_PLACEMENT_3D('',#1871,#1483,#1484);
#1292=AXIS2_PLACEMENT_3D('',#1875,#1487,#1488);
#1293=AXIS2_PLACEMENT_3D('',#1878,#1490,#1491);
#1294=AXIS2_PLACEMENT_3D('',#1879,#1492,#1493);
#1295=AXIS2_PLACEMENT_3D('',#1881,#1494,#1495);
#1296=AXIS2_PLACEMENT_3D('',#1883,#1497,#1498);
#1297=AXIS2_PLACEMENT_3D('',#1885,#1500,#1501);
#1298=AXIS2_PLACEMENT_3D('',#1888,#1502,#1503);
#1299=AXIS2_PLACEMENT_3D('',#1890,#1504,#1505);
#1300=AXIS2_PLACEMENT_3D('',#1892,#1506,#1507);
#1301=AXIS2_PLACEMENT_3D('',#1893,#1508,#1509);
#1302=AXIS2_PLACEMENT_3D('',#1894,#1510,#1511);
#1303=AXIS2_PLACEMENT_3D('',#1897,#1512,#1513);
#1304=AXIS2_PLACEMENT_3D('',#1900,#1516,#1517);
#1305=AXIS2_PLACEMENT_3D('',#1903,#1518,#1519);
#1306=AXIS2_PLACEMENT_3D('',#1904,#1520,#1521);
#1307=AXIS2_PLACEMENT_3D('',#1905,#1522,#1523);
#1308=AXIS2_PLACEMENT_3D('',#1906,#1524,#1525);
#1309=AXIS2_PLACEMENT_3D('',#1909,#1526,#1527);
#1310=AXIS2_PLACEMENT_3D('',#1912,#1530,#1531);
#1311=AXIS2_PLACEMENT_3D('',#1915,#1532,#1533);
#1312=AXIS2_PLACEMENT_3D('',#1916,#1534,#1535);
#1313=AXIS2_PLACEMENT_3D('',#1917,#1536,#1537);
#1314=AXIS2_PLACEMENT_3D('',#1918,#1538,#1539);
#1315=AXIS2_PLACEMENT_3D('',#1921,#1540,#1541);
#1316=AXIS2_PLACEMENT_3D('',#1924,#1544,#1545);
#1317=AXIS2_PLACEMENT_3D('',#1927,#1546,#1547);
#1318=AXIS2_PLACEMENT_3D('',#1928,#1548,#1549);
#1319=AXIS2_PLACEMENT_3D('',#1929,#1550,#1551);
#1320=AXIS2_PLACEMENT_3D('',#1930,#1552,#1553);
#1321=AXIS2_PLACEMENT_3D('',#1933,#1556,#1557);
#1322=AXIS2_PLACEMENT_3D('',#1939,#1561,#1562);
#1323=AXIS2_PLACEMENT_3D('',#1942,#1564,#1565);
#1324=AXIS2_PLACEMENT_3D('',#1943,#1566,#1567);
#1325=AXIS2_PLACEMENT_3D('',#1947,#1570,#1571);
#1326=AXIS2_PLACEMENT_3D('',#1950,#1573,#1574);
#1327=AXIS2_PLACEMENT_3D('',#1951,#1575,#1576);
#1328=AXIS2_PLACEMENT_3D('',#1956,#1578,#1579);
#1329=AXIS2_PLACEMENT_3D('',#1960,#1581,#1582);
#1330=AXIS2_PLACEMENT_3D('',#1964,#1584,#1585);
#1331=AXIS2_PLACEMENT_3D('',#1967,#1587,#1588);
#1332=AXIS2_PLACEMENT_3D('',#1968,#1589,#1590);
#1333=AXIS2_PLACEMENT_3D('',#1970,#1591,#1592);
#1334=AXIS2_PLACEMENT_3D('',#1972,#1594,#1595);
#1335=AXIS2_PLACEMENT_3D('',#1976,#1597,#1598);
#1336=AXIS2_PLACEMENT_3D('',#1978,#1600,#1601);
#1337=AXIS2_PLACEMENT_3D('',#1980,#1603,#1604);
#1338=AXIS2_PLACEMENT_3D('',#1983,#1605,#1606);
#1339=AXIS2_PLACEMENT_3D('',#1987,#1608,#1609);
#1340=AXIS2_PLACEMENT_3D('',#1989,#1611,#1612);
#1341=AXIS2_PLACEMENT_3D('',#1995,#1616,#1617);
#1342=AXIS2_PLACEMENT_3D('',#1999,#1619,#1620);
#1343=AXIS2_PLACEMENT_3D('',#2003,#1622,#1623);
#1344=AXIS2_PLACEMENT_3D('',#2006,#1625,#1626);
#1345=AXIS2_PLACEMENT_3D('',#2011,#1628,#1629);
#1346=AXIS2_PLACEMENT_3D('',#2015,#1631,#1632);
#1347=AXIS2_PLACEMENT_3D('',#2019,#1634,#1635);
#1348=AXIS2_PLACEMENT_3D('',#2022,#1637,#1638);
#1349=AXIS2_PLACEMENT_3D('',#2023,#1639,#1640);
#1350=AXIS2_PLACEMENT_3D('',#2025,#1641,#1642);
#1351=AXIS2_PLACEMENT_3D('',#2027,#1644,#1645);
#1352=AXIS2_PLACEMENT_3D('',#2031,#1648,#1649);
#1353=AXIS2_PLACEMENT_3D('',#2033,#1650,#1651);
#1354=AXIS2_PLACEMENT_3D('',#2035,#1653,#1654);
#1355=AXIS2_PLACEMENT_3D('',#2039,#1657,#1658);
#1356=AXIS2_PLACEMENT_3D('',#2041,#1659,#1660);
#1357=AXIS2_PLACEMENT_3D('',#2043,#1662,#1663);
#1358=AXIS2_PLACEMENT_3D('',#2047,#1665,#1666);
#1359=AXIS2_PLACEMENT_3D('',#2048,#1667,#1668);
#1360=AXIS2_PLACEMENT_3D('',#2051,#1670,#1671);
#1361=AXIS2_PLACEMENT_3D('',#2052,#1672,#1673);
#1362=AXIS2_PLACEMENT_3D('',#2056,#1675,#1676);
#1363=AXIS2_PLACEMENT_3D('',#2057,#1677,#1678);
#1364=AXIS2_PLACEMENT_3D('',#2060,#1680,#1681);
#1365=AXIS2_PLACEMENT_3D('',#2061,#1682,#1683);
#1366=AXIS2_PLACEMENT_3D('',#2065,#1685,#1686);
#1367=AXIS2_PLACEMENT_3D('',#2066,#1687,#1688);
#1368=AXIS2_PLACEMENT_3D('',#2069,#1690,#1691);
#1369=AXIS2_PLACEMENT_3D('',#2070,#1692,#1693);
#1370=AXIS2_PLACEMENT_3D('',#2074,#1695,#1696);
#1371=AXIS2_PLACEMENT_3D('',#2075,#1697,#1698);
#1372=AXIS2_PLACEMENT_3D('',#2078,#1700,#1701);
#1373=AXIS2_PLACEMENT_3D('',#2079,#1702,#1703);
#1374=AXIS2_PLACEMENT_3D('',#2082,#1704,#1705);
#1375=AXIS2_PLACEMENT_3D('',#2085,#1708,#1709);
#1376=AXIS2_PLACEMENT_3D('',#2089,#1712,#1713);
#1377=AXIS2_PLACEMENT_3D('',#2093,#1715,#1716);
#1378=AXIS2_PLACEMENT_3D('',#2097,#1718,#1719);
#1379=AXIS2_PLACEMENT_3D('',#2100,#1721,#1722);
#1380=AXIS2_PLACEMENT_3D('',#2101,#1723,#1724);
#1381=AXIS2_PLACEMENT_3D('',#2103,#1726,#1727);
#1382=AXIS2_PLACEMENT_3D('',#2105,#1729,#1730);
#1383=AXIS2_PLACEMENT_3D('',#2107,#1732,#1733);
#1384=AXIS2_PLACEMENT_3D('',#2109,#1735,#1736);
#1385=AXIS2_PLACEMENT_3D('',#2111,#1738,#1739);
#1386=AXIS2_PLACEMENT_3D('',#2113,#1741,#1742);
#1387=AXIS2_PLACEMENT_3D('',#2119,#1746,#1747);
#1388=AXIS2_PLACEMENT_3D('',#2122,#1749,#1750);
#1389=AXIS2_PLACEMENT_3D('',#2123,#1751,#1752);
#1390=AXIS2_PLACEMENT_3D('',#2127,#1755,#1756);
#1391=AXIS2_PLACEMENT_3D('',#2130,#1758,#1759);
#1392=AXIS2_PLACEMENT_3D('',#2131,#1760,#1761);
#1393=AXIS2_PLACEMENT_3D('',#2135,#1764,#1765);
#1394=AXIS2_PLACEMENT_3D('',#2138,#1767,#1768);
#1395=AXIS2_PLACEMENT_3D('',#2139,#1769,#1770);
#1396=AXIS2_PLACEMENT_3D('',#2143,#1773,#1774);
#1397=AXIS2_PLACEMENT_3D('',#2144,#1775,#1776);
#1398=AXIS2_PLACEMENT_3D('',#2145,#1777,#1778);
#1399=AXIS2_PLACEMENT_3D('',#2146,#1779,#1780);
#1400=AXIS2_PLACEMENT_3D('',#2147,#1781,#1782);
#1401=AXIS2_PLACEMENT_3D('',#2149,#1784,#1785);
#1402=AXIS2_PLACEMENT_3D('',#2151,#1787,#1788);
#1403=DIRECTION('axis',(0.,0.,1.));
#1404=DIRECTION('refdir',(1.,0.,0.));
#1405=DIRECTION('center_axis',(0.,0.,1.));
#1406=DIRECTION('ref_axis',(0.707106781186546,-0.707106781186549,0.));
#1407=DIRECTION('center_axis',(0.,0.,-1.));
#1408=DIRECTION('ref_axis',(0.707106781186546,-0.707106781186549,0.));
#1409=DIRECTION('',(0.,0.,1.));
#1410=DIRECTION('center_axis',(0.,0.,1.));
#1411=DIRECTION('ref_axis',(0.707106781186546,-0.707106781186549,0.));
#1412=DIRECTION('',(0.,0.,-1.));
#1413=DIRECTION('center_axis',(0.,-1.,0.));
#1414=DIRECTION('ref_axis',(1.,0.,0.));
#1415=DIRECTION('',(1.,0.,0.));
#1416=DIRECTION('',(0.,0.,-1.));
#1417=DIRECTION('',(-1.,0.,0.));
#1418=DIRECTION('center_axis',(0.,0.,1.));
#1419=DIRECTION('ref_axis',(0.707106781186549,0.707106781186546,0.));
#1420=DIRECTION('center_axis',(0.,0.,-1.));
#1421=DIRECTION('ref_axis',(0.707106781186549,0.707106781186546,0.));
#1422=DIRECTION('',(0.,0.,1.));
#1423=DIRECTION('center_axis',(0.,0.,1.));
#1424=DIRECTION('ref_axis',(0.707106781186549,0.707106781186546,0.));
#1425=DIRECTION('',(0.,0.,-1.));
#1426=DIRECTION('center_axis',(1.,0.,0.));
#1427=DIRECTION('ref_axis',(0.,1.,0.));
#1428=DIRECTION('',(0.,-1.,0.));
#1429=DIRECTION('',(0.,1.,0.));
#1430=DIRECTION('center_axis',(0.,0.,1.));
#1431=DIRECTION('ref_axis',(-0.707106781186549,-0.707106781186546,0.));
#1432=DIRECTION('center_axis',(0.,0.,-1.));
#1433=DIRECTION('ref_axis',(-0.707106781186549,-0.707106781186546,0.));
#1434=DIRECTION('',(0.,0.,1.));
#1435=DIRECTION('center_axis',(0.,0.,1.));
#1436=DIRECTION('ref_axis',(-0.707106781186549,-0.707106781186546,0.));
#1437=DIRECTION('center_axis',(-1.,0.,0.));
#1438=DIRECTION('ref_axis',(0.,-1.,0.));
#1439=DIRECTION('',(0.,-1.,0.));
#1440=DIRECTION('',(0.,0.,-1.));
#1441=DIRECTION('',(0.,1.,0.));
#1442=DIRECTION('center_axis',(0.,0.,1.));
#1443=DIRECTION('ref_axis',(-0.707106781186546,0.707106781186549,0.));
#1444=DIRECTION('center_axis',(0.,0.,-1.));
#1445=DIRECTION('ref_axis',(-0.707106781186546,0.707106781186549,0.));
#1446=DIRECTION('',(0.,0.,1.));
#1447=DIRECTION('center_axis',(0.,0.,1.));
#1448=DIRECTION('ref_axis',(-0.707106781186546,0.707106781186549,0.));
#1449=DIRECTION('center_axis',(0.,1.,0.));
#1450=DIRECTION('ref_axis',(-1.,0.,0.));
#1451=DIRECTION('',(1.,0.,0.));
#1452=DIRECTION('',(-1.,0.,0.));
#1453=DIRECTION('center_axis',(0.,0.,-1.));
#1454=DIRECTION('ref_axis',(0.707106781186534,-0.707106781186561,0.));
#1455=DIRECTION('center_axis',(0.,0.,-1.));
#1456=DIRECTION('ref_axis',(0.707106781186534,-0.707106781186561,0.));
#1457=DIRECTION('',(0.,0.,-1.));
#1458=DIRECTION('center_axis',(0.,0.,-1.));
#1459=DIRECTION('ref_axis',(0.707106781186534,-0.707106781186561,0.));
#1460=DIRECTION('',(0.,0.,1.));
#1461=DIRECTION('center_axis',(-3.20021241478669E-16,1.,0.));
#1462=DIRECTION('ref_axis',(1.,3.20021241478669E-16,0.));
#1463=DIRECTION('',(1.,3.20021241478669E-16,0.));
#1464=DIRECTION('',(0.,0.,1.));
#1465=DIRECTION('',(1.,3.20021241478669E-16,0.));
#1466=DIRECTION('center_axis',(0.,0.,-1.));
#1467=DIRECTION('ref_axis',(-1.,0.,0.));
#1468=DIRECTION('',(-1.26419574544116E-16,1.,0.));
#1469=DIRECTION('center_axis',(0.,0.,-1.));
#1470=DIRECTION('ref_axis',(0.707106781186534,0.707106781186561,0.));
#1471=DIRECTION('',(-1.,-1.06673747159556E-16,0.));
#1472=DIRECTION('center_axis',(0.,0.,-1.));
#1473=DIRECTION('ref_axis',(-0.707106781186534,0.707106781186561,0.));
#1474=DIRECTION('',(5.05678298176465E-16,-1.,0.));
#1475=DIRECTION('center_axis',(0.,0.,-1.));
#1476=DIRECTION('ref_axis',(-0.707106781186534,-0.707106781186561,0.));
#1477=DIRECTION('center_axis',(0.,0.,-1.));
#1478=DIRECTION('ref_axis',(0.707106781186534,0.707106781186561,0.));
#1479=DIRECTION('',(0.,0.,-1.));
#1480=DIRECTION('center_axis',(0.,0.,-1.));
#1481=DIRECTION('ref_axis',(0.707106781186534,0.707106781186561,0.));
#1482=DIRECTION('',(0.,0.,1.));
#1483=DIRECTION('center_axis',(1.06673747159556E-16,-1.,0.));
#1484=DIRECTION('ref_axis',(-1.,-1.06673747159556E-16,0.));
#1485=DIRECTION('',(-1.,-1.06673747159556E-16,0.));
#1486=DIRECTION('',(0.,0.,-1.));
#1487=DIRECTION('center_axis',(0.,0.,-1.));
#1488=DIRECTION('ref_axis',(-0.707106781186534,-0.707106781186561,0.));
#1489=DIRECTION('',(0.,0.,-1.));
#1490=DIRECTION('center_axis',(0.,0.,-1.));
#1491=DIRECTION('ref_axis',(-0.707106781186534,-0.707106781186561,0.));
#1492=DIRECTION('center_axis',(0.,0.,-1.));
#1493=DIRECTION('ref_axis',(-0.707106781186534,0.707106781186561,0.));
#1494=DIRECTION('center_axis',(0.,0.,-1.));
#1495=DIRECTION('ref_axis',(-0.707106781186534,0.707106781186561,0.));
#1496=DIRECTION('',(0.,0.,1.));
#1497=DIRECTION('center_axis',(1.,5.05678298176465E-16,0.));
#1498=DIRECTION('ref_axis',(5.05678298176465E-16,-1.,0.));
#1499=DIRECTION('',(5.05678298176465E-16,-1.,0.));
#1500=DIRECTION('center_axis',(0.,0.,1.));
#1501=DIRECTION('ref_axis',(1.,0.,0.));
#1502=DIRECTION('center_axis',(1.,0.,0.));
#1503=DIRECTION('ref_axis',(0.,0.,-1.));
#1504=DIRECTION('center_axis',(0.,0.,1.));
#1505=DIRECTION('ref_axis',(-0.707106781186547,0.707106781186548,0.));
#1506=DIRECTION('center_axis',(0.,-1.,0.));
#1507=DIRECTION('ref_axis',(-1.,0.,0.));
#1508=DIRECTION('center_axis',(0.,0.,-1.));
#1509=DIRECTION('ref_axis',(-0.707106781186547,0.707106781186548,0.));
#1510=DIRECTION('center_axis',(-2.6898195629925E-16,1.,0.));
#1511=DIRECTION('ref_axis',(-0.707106781186544,-1.90198965316022E-16,-0.707106781186551));
#1512=DIRECTION('center_axis',(0.,-1.,0.));
#1513=DIRECTION('ref_axis',(-1.,0.,0.));
#1514=DIRECTION('',(-2.6898195629925E-16,1.,0.));
#1515=DIRECTION('',(2.6898195629925E-16,-1.,0.));
#1516=DIRECTION('center_axis',(0.,0.,1.));
#1517=DIRECTION('ref_axis',(1.,0.,0.));
#1518=DIRECTION('center_axis',(1.,0.,0.));
#1519=DIRECTION('ref_axis',(0.,-1.,0.));
#1520=DIRECTION('center_axis',(0.,0.,-1.));
#1521=DIRECTION('ref_axis',(-0.707106781186548,-0.707106781186547,0.));
#1522=DIRECTION('center_axis',(0.,0.,1.));
#1523=DIRECTION('ref_axis',(-0.707106781186548,-0.707106781186547,0.));
#1524=DIRECTION('center_axis',(-1.,0.,0.));
#1525=DIRECTION('ref_axis',(0.,-0.707106781186549,-0.707106781186546));
#1526=DIRECTION('center_axis',(1.,0.,0.));
#1527=DIRECTION('ref_axis',(0.,-1.,0.));
#1528=DIRECTION('',(-1.,0.,0.));
#1529=DIRECTION('',(1.,0.,0.));
#1530=DIRECTION('center_axis',(0.,0.,1.));
#1531=DIRECTION('ref_axis',(1.,0.,0.));
#1532=DIRECTION('center_axis',(0.,1.,0.));
#1533=DIRECTION('ref_axis',(1.,0.,0.));
#1534=DIRECTION('center_axis',(0.,0.,-1.));
#1535=DIRECTION('ref_axis',(0.707106781186547,-0.707106781186548,0.));
#1536=DIRECTION('center_axis',(0.,0.,1.));
#1537=DIRECTION('ref_axis',(0.707106781186547,-0.707106781186548,0.));
#1538=DIRECTION('center_axis',(2.68981956299251E-16,-1.,0.));
#1539=DIRECTION('ref_axis',(0.707106781186544,1.90198965316023E-16,-0.707106781186551));
#1540=DIRECTION('center_axis',(0.,1.,0.));
#1541=DIRECTION('ref_axis',(1.,0.,0.));
#1542=DIRECTION('',(2.68981956299251E-16,-1.,0.));
#1543=DIRECTION('',(-2.68981956299251E-16,1.,0.));
#1544=DIRECTION('center_axis',(0.,0.,1.));
#1545=DIRECTION('ref_axis',(1.,0.,0.));
#1546=DIRECTION('center_axis',(-1.,0.,0.));
#1547=DIRECTION('ref_axis',(0.,1.,0.));
#1548=DIRECTION('center_axis',(0.,0.,-1.));
#1549=DIRECTION('ref_axis',(0.707106781186548,0.707106781186547,0.));
#1550=DIRECTION('center_axis',(0.,0.,1.));
#1551=DIRECTION('ref_axis',(0.707106781186548,0.707106781186547,0.));
#1552=DIRECTION('center_axis',(1.,-1.01355519764935E-16,0.));
#1553=DIRECTION('ref_axis',(7.16691753364726E-17,0.707106781186547,-0.707106781186548));
#1554=DIRECTION('',(-1.,1.01355519764935E-16,0.));
#1555=DIRECTION('',(1.,-1.01355519764935E-16,0.));
#1556=DIRECTION('center_axis',(0.,-1.,0.));
#1557=DIRECTION('ref_axis',(-1.,0.,0.));
#1558=DIRECTION('',(0.,0.,-1.));
#1559=DIRECTION('',(-1.,0.,0.));
#1560=DIRECTION('',(0.,0.,1.));
#1561=DIRECTION('center_axis',(0.,0.,-1.));
#1562=DIRECTION('ref_axis',(-0.707106781186549,-0.707106781186546,0.));
#1563=DIRECTION('',(0.,0.,1.));
#1564=DIRECTION('center_axis',(0.,0.,1.));
#1565=DIRECTION('ref_axis',(-0.707106781186549,-0.707106781186546,0.));
#1566=DIRECTION('center_axis',(-1.,-2.6898195629925E-16,0.));
#1567=DIRECTION('ref_axis',(-2.6898195629925E-16,1.,0.));
#1568=DIRECTION('',(0.,0.,-1.));
#1569=DIRECTION('',(-2.6898195629925E-16,1.,0.));
#1570=DIRECTION('center_axis',(0.,0.,-1.));
#1571=DIRECTION('ref_axis',(-0.707106781186549,0.707106781186546,0.));
#1572=DIRECTION('',(0.,0.,1.));
#1573=DIRECTION('center_axis',(0.,0.,1.));
#1574=DIRECTION('ref_axis',(-0.707106781186549,0.707106781186546,0.));
#1575=DIRECTION('center_axis',(0.,0.,-1.));
#1576=DIRECTION('ref_axis',(-1.,0.,0.));
#1577=DIRECTION('',(1.26419574544116E-16,-1.,0.));
#1578=DIRECTION('center_axis',(0.,0.,-1.));
#1579=DIRECTION('ref_axis',(0.,-1.,0.));
#1580=DIRECTION('',(-1.,-1.06673747159556E-16,0.));
#1581=DIRECTION('center_axis',(0.,0.,-1.));
#1582=DIRECTION('ref_axis',(-1.,0.,0.));
#1583=DIRECTION('',(-1.26419574544116E-16,1.,0.));
#1584=DIRECTION('center_axis',(0.,0.,-1.));
#1585=DIRECTION('ref_axis',(1.,0.,0.));
#1586=DIRECTION('',(1.,5.33368735797782E-17,0.));
#1587=DIRECTION('center_axis',(0.,0.,-1.));
#1588=DIRECTION('ref_axis',(1.,0.,0.));
#1589=DIRECTION('center_axis',(0.,0.,-1.));
#1590=DIRECTION('ref_axis',(0.707106781186549,-0.707106781186546,0.));
#1591=DIRECTION('center_axis',(0.,0.,1.));
#1592=DIRECTION('ref_axis',(0.707106781186549,-0.707106781186546,0.));
#1593=DIRECTION('',(0.,0.,-1.));
#1594=DIRECTION('center_axis',(0.,0.,-1.));
#1595=DIRECTION('ref_axis',(0.707106781186549,0.707106781186546,0.));
#1596=DIRECTION('',(0.,0.,1.));
#1597=DIRECTION('center_axis',(0.,0.,1.));
#1598=DIRECTION('ref_axis',(0.707106781186549,0.707106781186546,0.));
#1599=DIRECTION('',(0.,0.,-1.));
#1600=DIRECTION('center_axis',(1.01355519764935E-16,1.,0.));
#1601=DIRECTION('ref_axis',(1.,-1.01355519764935E-16,0.));
#1602=DIRECTION('',(1.,-1.01355519764935E-16,0.));
#1603=DIRECTION('center_axis',(0.,0.,1.));
#1604=DIRECTION('ref_axis',(-0.707106781186549,-0.707106781186546,0.));
#1605=DIRECTION('center_axis',(0.,0.,-1.));
#1606=DIRECTION('ref_axis',(-0.707106781186549,-0.707106781186546,0.));
#1607=DIRECTION('',(0.,0.,-1.));
#1608=DIRECTION('center_axis',(0.,0.,1.));
#1609=DIRECTION('ref_axis',(-0.707106781186549,-0.707106781186546,0.));
#1610=DIRECTION('',(0.,0.,1.));
#1611=DIRECTION('center_axis',(0.,-1.,0.));
#1612=DIRECTION('ref_axis',(1.,0.,0.));
#1613=DIRECTION('',(1.,0.,0.));
#1614=DIRECTION('',(0.,0.,-1.));
#1615=DIRECTION('',(1.,0.,0.));
#1616=DIRECTION('center_axis',(0.,0.,1.));
#1617=DIRECTION('ref_axis',(1.,0.,0.));
#1618=DIRECTION('',(2.3311769545935E-16,-1.,0.));
#1619=DIRECTION('center_axis',(0.,0.,1.));
#1620=DIRECTION('ref_axis',(-0.707106781186548,0.707106781186548,0.));
#1621=DIRECTION('',(-1.,1.38030214416721E-16,0.));
#1622=DIRECTION('center_axis',(0.,0.,1.));
#1623=DIRECTION('ref_axis',(0.707106781186549,0.707106781186546,0.));
#1624=DIRECTION('',(-2.3311769545935E-16,1.,0.));
#1625=DIRECTION('center_axis',(0.,0.,1.));
#1626=DIRECTION('ref_axis',(0.707106781186549,-0.707106781186546,0.));
#1627=DIRECTION('',(0.,-1.,0.));
#1628=DIRECTION('center_axis',(0.,0.,1.));
#1629=DIRECTION('ref_axis',(-0.707106781186548,-0.707106781186548,0.));
#1630=DIRECTION('',(1.,-1.11008426409215E-16,0.));
#1631=DIRECTION('center_axis',(0.,0.,1.));
#1632=DIRECTION('ref_axis',(0.707106781186548,-0.707106781186548,0.));
#1633=DIRECTION('',(0.,1.,0.));
#1634=DIRECTION('center_axis',(0.,0.,1.));
#1635=DIRECTION('ref_axis',(0.707106781186548,0.707106781186548,0.));
#1636=DIRECTION('',(-1.,1.66512639613822E-16,0.));
#1637=DIRECTION('center_axis',(0.,0.,1.));
#1638=DIRECTION('ref_axis',(-0.707106781186548,0.707106781186548,0.));
#1639=DIRECTION('center_axis',(0.,0.,1.));
#1640=DIRECTION('ref_axis',(0.707106781186549,-0.707106781186546,0.));
#1641=DIRECTION('center_axis',(0.,0.,-1.));
#1642=DIRECTION('ref_axis',(0.707106781186549,-0.707106781186546,0.));
#1643=DIRECTION('',(0.,0.,1.));
#1644=DIRECTION('center_axis',(1.,2.3311769545935E-16,0.));
#1645=DIRECTION('ref_axis',(-2.3311769545935E-16,1.,0.));
#1646=DIRECTION('',(0.,0.,-1.));
#1647=DIRECTION('',(-2.3311769545935E-16,1.,0.));
#1648=DIRECTION('center_axis',(0.,0.,1.));
#1649=DIRECTION('ref_axis',(0.707106781186549,0.707106781186546,0.));
#1650=DIRECTION('center_axis',(0.,0.,-1.));
#1651=DIRECTION('ref_axis',(0.707106781186549,0.707106781186546,0.));
#1652=DIRECTION('',(0.,0.,1.));
#1653=DIRECTION('center_axis',(1.38030214416721E-16,1.,0.));
#1654=DIRECTION('ref_axis',(-1.,1.38030214416721E-16,0.));
#1655=DIRECTION('',(0.,0.,-1.));
#1656=DIRECTION('',(-1.,1.38030214416721E-16,0.));
#1657=DIRECTION('center_axis',(0.,0.,1.));
#1658=DIRECTION('ref_axis',(-0.707106781186548,0.707106781186548,0.));
#1659=DIRECTION('center_axis',(0.,0.,-1.));
#1660=DIRECTION('ref_axis',(-0.707106781186548,0.707106781186548,0.));
#1661=DIRECTION('',(0.,0.,1.));
#1662=DIRECTION('center_axis',(0.,0.,1.));
#1663=DIRECTION('ref_axis',(1.,0.,0.));
#1664=DIRECTION('',(-0.85716730070211,-1.04972719113862E-16,0.515038074910058));
#1665=DIRECTION('center_axis',(0.,0.,1.));
#1666=DIRECTION('ref_axis',(1.,0.,0.));
#1667=DIRECTION('center_axis',(0.,0.,1.));
#1668=DIRECTION('ref_axis',(1.,0.,0.));
#1669=DIRECTION('',(0.,0.,1.));
#1670=DIRECTION('center_axis',(0.,0.,-1.));
#1671=DIRECTION('ref_axis',(1.,0.,0.));
#1672=DIRECTION('center_axis',(0.,0.,1.));
#1673=DIRECTION('ref_axis',(1.,0.,0.));
#1674=DIRECTION('',(-0.85716730070211,-1.04972719113862E-16,0.515038074910058));
#1675=DIRECTION('center_axis',(0.,0.,1.));
#1676=DIRECTION('ref_axis',(1.,0.,0.));
#1677=DIRECTION('center_axis',(0.,0.,1.));
#1678=DIRECTION('ref_axis',(1.,0.,0.));
#1679=DIRECTION('',(0.,0.,1.));
#1680=DIRECTION('center_axis',(0.,0.,-1.));
#1681=DIRECTION('ref_axis',(1.,0.,0.));
#1682=DIRECTION('center_axis',(0.,0.,1.));
#1683=DIRECTION('ref_axis',(1.,0.,0.));
#1684=DIRECTION('',(-0.85716730070211,-1.04972719113862E-16,0.515038074910058));
#1685=DIRECTION('center_axis',(0.,0.,1.));
#1686=DIRECTION('ref_axis',(1.,0.,0.));
#1687=DIRECTION('center_axis',(0.,0.,1.));
#1688=DIRECTION('ref_axis',(1.,0.,0.));
#1689=DIRECTION('',(0.,0.,1.));
#1690=DIRECTION('center_axis',(0.,0.,-1.));
#1691=DIRECTION('ref_axis',(1.,0.,0.));
#1692=DIRECTION('center_axis',(0.,0.,1.));
#1693=DIRECTION('ref_axis',(1.,0.,0.));
#1694=DIRECTION('',(-0.85716730070211,-1.04972719113862E-16,0.515038074910058));
#1695=DIRECTION('center_axis',(0.,0.,1.));
#1696=DIRECTION('ref_axis',(1.,0.,0.));
#1697=DIRECTION('center_axis',(0.,0.,1.));
#1698=DIRECTION('ref_axis',(1.,0.,0.));
#1699=DIRECTION('',(0.,0.,1.));
#1700=DIRECTION('center_axis',(0.,0.,-1.));
#1701=DIRECTION('ref_axis',(1.,0.,0.));
#1702=DIRECTION('center_axis',(0.,0.,-1.));
#1703=DIRECTION('ref_axis',(-0.707106781186548,0.707106781186548,0.));
#1704=DIRECTION('center_axis',(0.,0.,1.));
#1705=DIRECTION('ref_axis',(-0.707106781186548,0.707106781186548,0.));
#1706=DIRECTION('',(0.,0.,1.));
#1707=DIRECTION('',(0.,0.,-1.));
#1708=DIRECTION('center_axis',(-1.,0.,0.));
#1709=DIRECTION('ref_axis',(0.,1.,0.));
#1710=DIRECTION('',(0.,1.,0.));
#1711=DIRECTION('',(0.,0.,-1.));
#1712=DIRECTION('center_axis',(0.,0.,-1.));
#1713=DIRECTION('ref_axis',(-1.,0.,0.));
#1714=DIRECTION('',(1.,-1.66512639613822E-16,0.));
#1715=DIRECTION('center_axis',(0.,0.,1.));
#1716=DIRECTION('ref_axis',(0.707106781186548,0.707106781186548,0.));
#1717=DIRECTION('',(0.,-1.,0.));
#1718=DIRECTION('center_axis',(0.,0.,1.));
#1719=DIRECTION('ref_axis',(0.707106781186548,-0.707106781186548,0.));
#1720=DIRECTION('',(-1.,1.11008426409215E-16,0.));
#1721=DIRECTION('center_axis',(0.,0.,1.));
#1722=DIRECTION('ref_axis',(-0.707106781186548,-0.707106781186548,0.));
#1723=DIRECTION('center_axis',(0.,0.,-1.));
#1724=DIRECTION('ref_axis',(-0.707106781186548,-0.707106781186548,0.));
#1725=DIRECTION('',(0.,0.,1.));
#1726=DIRECTION('center_axis',(-1.11008426409215E-16,-1.,0.));
#1727=DIRECTION('ref_axis',(-1.,1.11008426409215E-16,0.));
#1728=DIRECTION('',(0.,0.,-1.));
#1729=DIRECTION('center_axis',(0.,0.,-1.));
#1730=DIRECTION('ref_axis',(0.707106781186548,-0.707106781186548,0.));
#1731=DIRECTION('',(0.,0.,1.));
#1732=DIRECTION('center_axis',(1.,0.,0.));
#1733=DIRECTION('ref_axis',(0.,-1.,0.));
#1734=DIRECTION('',(0.,0.,-1.));
#1735=DIRECTION('center_axis',(0.,0.,-1.));
#1736=DIRECTION('ref_axis',(0.707106781186548,0.707106781186548,0.));
#1737=DIRECTION('',(0.,0.,1.));
#1738=DIRECTION('center_axis',(-1.,-1.26419574544116E-16,0.));
#1739=DIRECTION('ref_axis',(-1.26419574544116E-16,1.,0.));
#1740=DIRECTION('',(-1.26419574544116E-16,1.,0.));
#1741=DIRECTION('center_axis',(1.,1.26419574544116E-16,0.));
#1742=DIRECTION('ref_axis',(1.26419574544116E-16,-1.,0.));
#1743=DIRECTION('',(0.,0.,-1.));
#1744=DIRECTION('',(1.26419574544116E-16,-1.,0.));
#1745=DIRECTION('',(0.,0.,-1.));
#1746=DIRECTION('center_axis',(0.,0.,-1.));
#1747=DIRECTION('ref_axis',(1.,0.,0.));
#1748=DIRECTION('',(0.,0.,-1.));
#1749=DIRECTION('center_axis',(0.,0.,-1.));
#1750=DIRECTION('ref_axis',(1.,0.,0.));
#1751=DIRECTION('center_axis',(-5.33368735797782E-17,1.,0.));
#1752=DIRECTION('ref_axis',(1.,5.33368735797782E-17,0.));
#1753=DIRECTION('',(0.,0.,-1.));
#1754=DIRECTION('',(1.,5.33368735797782E-17,0.));
#1755=DIRECTION('center_axis',(0.,0.,-1.));
#1756=DIRECTION('ref_axis',(1.,0.,0.));
#1757=DIRECTION('',(0.,0.,-1.));
#1758=DIRECTION('center_axis',(0.,0.,-1.));
#1759=DIRECTION('ref_axis',(1.,0.,0.));
#1760=DIRECTION('center_axis',(-1.,-1.26419574544116E-16,0.));
#1761=DIRECTION('ref_axis',(-1.26419574544116E-16,1.,0.));
#1762=DIRECTION('',(0.,0.,-1.));
#1763=DIRECTION('',(-1.26419574544116E-16,1.,0.));
#1764=DIRECTION('center_axis',(0.,0.,-1.));
#1765=DIRECTION('ref_axis',(-1.,0.,0.));
#1766=DIRECTION('',(0.,0.,-1.));
#1767=DIRECTION('center_axis',(0.,0.,-1.));
#1768=DIRECTION('ref_axis',(-1.,0.,0.));
#1769=DIRECTION('center_axis',(1.06673747159556E-16,-1.,0.));
#1770=DIRECTION('ref_axis',(-1.,-1.06673747159556E-16,0.));
#1771=DIRECTION('',(0.,0.,-1.));
#1772=DIRECTION('',(-1.,-1.06673747159556E-16,0.));
#1773=DIRECTION('center_axis',(0.,0.,-1.));
#1774=DIRECTION('ref_axis',(0.,-1.,0.));
#1775=DIRECTION('center_axis',(0.,0.,-1.));
#1776=DIRECTION('ref_axis',(0.,-1.,0.));
#1777=DIRECTION('center_axis',(0.,0.,1.));
#1778=DIRECTION('ref_axis',(1.,0.,0.));
#1779=DIRECTION('center_axis',(1.66512639613822E-16,1.,0.));
#1780=DIRECTION('ref_axis',(1.,-1.66512639613822E-16,0.));
#1781=DIRECTION('center_axis',(1.,2.68981956299251E-16,0.));
#1782=DIRECTION('ref_axis',(2.68981956299251E-16,-1.,0.));
#1783=DIRECTION('',(2.68981956299251E-16,-1.,0.));
#1784=DIRECTION('center_axis',(-1.,-2.3311769545935E-16,0.));
#1785=DIRECTION('ref_axis',(2.3311769545935E-16,-1.,0.));
#1786=DIRECTION('',(2.3311769545935E-16,-1.,0.));
#1787=DIRECTION('center_axis',(0.,0.,1.));
#1788=DIRECTION('ref_axis',(1.,0.,0.));
#1789=CARTESIAN_POINT('',(0.,0.,0.));
#1790=CARTESIAN_POINT('Origin',(1.4875,-1.2315,-0.110236220472441));
#1791=CARTESIAN_POINT('',(1.5875,-1.2315,-0.110236220472441));
#1792=CARTESIAN_POINT('',(1.4875,-1.3315,-0.110236220472441));
#1793=CARTESIAN_POINT('Origin',(1.4875,-1.2315,-0.110236220472441));
#1794=CARTESIAN_POINT('',(1.4875,-1.3315,0.00999999999999995));
#1795=CARTESIAN_POINT('',(1.4875,-1.3315,-0.110236220472441));
#1796=CARTESIAN_POINT('',(1.5875,-1.2315,0.00999999999999995));
#1797=CARTESIAN_POINT('Origin',(1.4875,-1.2315,0.00999999999999995));
#1798=CARTESIAN_POINT('',(1.5875,-1.2315,-0.110236220472441));
#1799=CARTESIAN_POINT('Origin',(-1.5875,-1.3315,-0.110236220472441));
#1800=CARTESIAN_POINT('',(-1.4875,-1.3315,-0.110236220472441));
#1801=CARTESIAN_POINT('',(-0.79375,-1.3315,-0.110236220472441));
#1802=CARTESIAN_POINT('',(-1.4875,-1.3315,0.00999999999999995));
#1803=CARTESIAN_POINT('',(-1.4875,-1.3315,-0.110236220472441));
#1804=CARTESIAN_POINT('',(-0.79375,-1.3315,0.00999999999999995));
#1805=CARTESIAN_POINT('Origin',(1.4875,1.2315,-0.110236220472441));
#1806=CARTESIAN_POINT('',(1.4875,1.3315,-0.110236220472441));
#1807=CARTESIAN_POINT('',(1.5875,1.2315,-0.110236220472441));
#1808=CARTESIAN_POINT('Origin',(1.4875,1.2315,-0.110236220472441));
#1809=CARTESIAN_POINT('',(1.5875,1.2315,0.00999999999999995));
#1810=CARTESIAN_POINT('',(1.5875,1.2315,-0.110236220472441));
#1811=CARTESIAN_POINT('',(1.4875,1.3315,0.00999999999999995));
#1812=CARTESIAN_POINT('Origin',(1.4875,1.2315,0.00999999999999995));
#1813=CARTESIAN_POINT('',(1.4875,1.3315,-0.110236220472441));
#1814=CARTESIAN_POINT('Origin',(1.5875,-1.3315,-0.110236220472441));
#1815=CARTESIAN_POINT('',(1.5875,-0.66575,0.00999999999999995));
#1816=CARTESIAN_POINT('',(1.5875,-0.66575,-0.110236220472441));
#1817=CARTESIAN_POINT('Origin',(-1.4875,-1.2315,-0.110236220472441));
#1818=CARTESIAN_POINT('',(-1.5875,-1.2315,-0.110236220472441));
#1819=CARTESIAN_POINT('Origin',(-1.4875,-1.2315,-0.110236220472441));
#1820=CARTESIAN_POINT('',(-1.5875,-1.2315,0.00999999999999995));
#1821=CARTESIAN_POINT('',(-1.5875,-1.2315,-0.110236220472441));
#1822=CARTESIAN_POINT('Origin',(-1.4875,-1.2315,0.00999999999999995));
#1823=CARTESIAN_POINT('Origin',(-1.5875,1.3315,-0.110236220472441));
#1824=CARTESIAN_POINT('',(-1.5875,1.2315,-0.110236220472441));
#1825=CARTESIAN_POINT('',(-1.5875,0.66575,-0.110236220472441));
#1826=CARTESIAN_POINT('',(-1.5875,1.2315,0.00999999999999995));
#1827=CARTESIAN_POINT('',(-1.5875,1.2315,-0.110236220472441));
#1828=CARTESIAN_POINT('',(-1.5875,0.66575,0.00999999999999995));
#1829=CARTESIAN_POINT('Origin',(-1.4875,1.2315,-0.110236220472441));
#1830=CARTESIAN_POINT('',(-1.4875,1.3315,-0.110236220472441));
#1831=CARTESIAN_POINT('Origin',(-1.4875,1.2315,-0.110236220472441));
#1832=CARTESIAN_POINT('',(-1.4875,1.3315,0.00999999999999995));
#1833=CARTESIAN_POINT('',(-1.4875,1.3315,-0.110236220472441));
#1834=CARTESIAN_POINT('Origin',(-1.4875,1.2315,0.00999999999999995));
#1835=CARTESIAN_POINT('Origin',(1.5875,1.3315,-0.110236220472441));
#1836=CARTESIAN_POINT('',(0.79375,1.3315,0.00999999999999995));
#1837=CARTESIAN_POINT('',(0.79375,1.3315,-0.110236220472441));
#1838=CARTESIAN_POINT('Origin',(1.63,-1.374,0.00999999999999995));
#1839=CARTESIAN_POINT('',(1.639,-1.374,0.00999999999999995));
#1840=CARTESIAN_POINT('',(1.63,-1.383,0.00999999999999995));
#1841=CARTESIAN_POINT('Origin',(1.63,-1.374,0.00999999999999995));
#1842=CARTESIAN_POINT('',(1.63,-1.383,-0.039));
#1843=CARTESIAN_POINT('',(1.63,-1.383,0.00999999999999995));
#1844=CARTESIAN_POINT('',(1.639,-1.374,-0.039));
#1845=CARTESIAN_POINT('Origin',(1.63,-1.374,-0.039));
#1846=CARTESIAN_POINT('',(1.639,-1.374,0.00999999999999995));
#1847=CARTESIAN_POINT('Origin',(-1.639,-1.383,0.00999999999999995));
#1848=CARTESIAN_POINT('',(-1.63,-1.383,0.00999999999999995));
#1849=CARTESIAN_POINT('',(-0.819499999999999,-1.383,0.00999999999999995));
#1850=CARTESIAN_POINT('',(-1.63,-1.383,-0.039));
#1851=CARTESIAN_POINT('',(-1.63,-1.383,0.00999999999999995));
#1852=CARTESIAN_POINT('',(1.639,-1.383,-0.039));
#1853=CARTESIAN_POINT('Origin',(0.,3.49676543189026E-16,0.00999999999999995));
#1854=CARTESIAN_POINT('',(1.639,1.374,0.00999999999999995));
#1855=CARTESIAN_POINT('',(1.639,-0.6915,0.00999999999999995));
#1856=CARTESIAN_POINT('',(1.63,1.383,0.00999999999999995));
#1857=CARTESIAN_POINT('Origin',(1.63,1.374,0.00999999999999995));
#1858=CARTESIAN_POINT('',(-1.63,1.383,0.00999999999999995));
#1859=CARTESIAN_POINT('',(0.8195,1.383,0.00999999999999995));
#1860=CARTESIAN_POINT('',(-1.639,1.374,0.00999999999999995));
#1861=CARTESIAN_POINT('Origin',(-1.63,1.374,0.00999999999999995));
#1862=CARTESIAN_POINT('',(-1.639,-1.374,0.00999999999999995));
#1863=CARTESIAN_POINT('',(-1.639,0.6915,0.00999999999999995));
#1864=CARTESIAN_POINT('Origin',(-1.63,-1.374,0.00999999999999995));
#1865=CARTESIAN_POINT('Origin',(1.63,1.374,0.00999999999999995));
#1866=CARTESIAN_POINT('',(1.639,1.374,-0.039));
#1867=CARTESIAN_POINT('',(1.639,1.374,0.00999999999999995));
#1868=CARTESIAN_POINT('',(1.63,1.383,-0.039));
#1869=CARTESIAN_POINT('Origin',(1.63,1.374,-0.039));
#1870=CARTESIAN_POINT('',(1.63,1.383,0.00999999999999995));
#1871=CARTESIAN_POINT('Origin',(1.639,1.383,0.00999999999999995));
#1872=CARTESIAN_POINT('',(-1.63,1.383,-0.039));
#1873=CARTESIAN_POINT('',(-1.639,1.383,-0.039));
#1874=CARTESIAN_POINT('',(-1.63,1.383,0.00999999999999995));
#1875=CARTESIAN_POINT('Origin',(-1.63,-1.374,0.00999999999999995));
#1876=CARTESIAN_POINT('',(-1.639,-1.374,-0.039));
#1877=CARTESIAN_POINT('',(-1.639,-1.374,0.00999999999999995));
#1878=CARTESIAN_POINT('Origin',(-1.63,-1.374,-0.039));
#1879=CARTESIAN_POINT('Origin',(-1.63,1.374,0.00999999999999995));
#1880=CARTESIAN_POINT('',(-1.639,1.374,-0.039));
#1881=CARTESIAN_POINT('Origin',(-1.63,1.374,-0.039));
#1882=CARTESIAN_POINT('',(-1.639,1.374,0.00999999999999995));
#1883=CARTESIAN_POINT('Origin',(-1.639,1.383,0.00999999999999995));
#1884=CARTESIAN_POINT('',(-1.639,-1.383,-0.039));
#1885=CARTESIAN_POINT('Origin',(-3.2,2.35,0.11));
#1886=CARTESIAN_POINT('',(-3.2,2.5,0.00999999999999995));
#1887=CARTESIAN_POINT('',(-3.2,2.6,0.11));
#1888=CARTESIAN_POINT('Origin',(-3.2,2.5,0.11));
#1889=CARTESIAN_POINT('',(-3.45,2.35,0.11));
#1890=CARTESIAN_POINT('Origin',(-3.2,2.35,0.11));
#1891=CARTESIAN_POINT('',(-3.35,2.35,0.00999999999999995));
#1892=CARTESIAN_POINT('Origin',(-3.35,2.35,0.11));
#1893=CARTESIAN_POINT('Origin',(-3.2,2.35,0.00999999999999995));
#1894=CARTESIAN_POINT('Origin',(-3.35,-1.3,0.11));
#1895=CARTESIAN_POINT('',(-3.45,-2.35,0.11));
#1896=CARTESIAN_POINT('',(-3.35,-2.35,0.00999999999999995));
#1897=CARTESIAN_POINT('Origin',(-3.35,-2.35,0.11));
#1898=CARTESIAN_POINT('',(-3.35,-1.3,0.00999999999999995));
#1899=CARTESIAN_POINT('',(-3.45,-1.3,0.11));
#1900=CARTESIAN_POINT('Origin',(-3.2,-2.35,0.11));
#1901=CARTESIAN_POINT('',(-3.2,-2.6,0.11));
#1902=CARTESIAN_POINT('',(-3.2,-2.5,0.00999999999999995));
#1903=CARTESIAN_POINT('Origin',(-3.2,-2.5,0.11));
#1904=CARTESIAN_POINT('Origin',(-3.2,-2.35,0.00999999999999995));
#1905=CARTESIAN_POINT('Origin',(-3.2,-2.35,0.11));
#1906=CARTESIAN_POINT('Origin',(1.725,-2.5,0.11));
#1907=CARTESIAN_POINT('',(3.2,-2.6,0.11));
#1908=CARTESIAN_POINT('',(3.2,-2.5,0.00999999999999995));
#1909=CARTESIAN_POINT('Origin',(3.2,-2.5,0.11));
#1910=CARTESIAN_POINT('',(1.725,-2.5,0.00999999999999995));
#1911=CARTESIAN_POINT('',(1.725,-2.6,0.11));
#1912=CARTESIAN_POINT('Origin',(3.2,-2.35,0.11));
#1913=CARTESIAN_POINT('',(3.45,-2.35,0.11));
#1914=CARTESIAN_POINT('',(3.35,-2.35,0.00999999999999995));
#1915=CARTESIAN_POINT('Origin',(3.35,-2.35,0.11));
#1916=CARTESIAN_POINT('Origin',(3.2,-2.35,0.00999999999999995));
#1917=CARTESIAN_POINT('Origin',(3.2,-2.35,0.11));
#1918=CARTESIAN_POINT('Origin',(3.35,1.3,0.11));
#1919=CARTESIAN_POINT('',(3.45,2.35,0.11));
#1920=CARTESIAN_POINT('',(3.35,2.35,0.00999999999999995));
#1921=CARTESIAN_POINT('Origin',(3.35,2.35,0.11));
#1922=CARTESIAN_POINT('',(3.35,1.3,0.00999999999999995));
#1923=CARTESIAN_POINT('',(3.45,1.3,0.11));
#1924=CARTESIAN_POINT('Origin',(3.2,2.35,0.11));
#1925=CARTESIAN_POINT('',(3.2,2.6,0.11));
#1926=CARTESIAN_POINT('',(3.2,2.5,0.00999999999999995));
#1927=CARTESIAN_POINT('Origin',(3.2,2.5,0.11));
#1928=CARTESIAN_POINT('Origin',(3.2,2.35,0.00999999999999995));
#1929=CARTESIAN_POINT('Origin',(3.2,2.35,0.11));
#1930=CARTESIAN_POINT('Origin',(-1.725,2.5,0.11));
#1931=CARTESIAN_POINT('',(-1.725,2.6,0.11));
#1932=CARTESIAN_POINT('',(-1.725,2.5,0.00999999999999995));
#1933=CARTESIAN_POINT('Origin',(3.45,-2.6,0.85));
#1934=CARTESIAN_POINT('',(-3.2,-2.6,0.85));
#1935=CARTESIAN_POINT('',(-3.2,-2.6,0.85));
#1936=CARTESIAN_POINT('',(3.2,-2.6,0.85));
#1937=CARTESIAN_POINT('',(1.725,-2.6,0.85));
#1938=CARTESIAN_POINT('',(3.2,-2.6,0.85));
#1939=CARTESIAN_POINT('Origin',(-3.2,-2.35,0.85));
#1940=CARTESIAN_POINT('',(-3.45,-2.35,0.85));
#1941=CARTESIAN_POINT('',(-3.45,-2.35,0.85));
#1942=CARTESIAN_POINT('Origin',(-3.2,-2.35,0.85));
#1943=CARTESIAN_POINT('Origin',(-3.45,-2.6,0.85));
#1944=CARTESIAN_POINT('',(-3.45,2.35,0.85));
#1945=CARTESIAN_POINT('',(-3.45,2.35,0.85));
#1946=CARTESIAN_POINT('',(-3.45,-1.3,0.85));
#1947=CARTESIAN_POINT('Origin',(-3.2,2.35,0.85));
#1948=CARTESIAN_POINT('',(-3.2,2.6,0.85));
#1949=CARTESIAN_POINT('',(-3.2,2.6,0.85));
#1950=CARTESIAN_POINT('Origin',(-3.2,2.35,0.85));
#1951=CARTESIAN_POINT('Origin',(0.,3.49676543189026E-16,0.00999999999999995));
#1952=CARTESIAN_POINT('',(1.698,1.383,0.00999999999999995));
#1953=CARTESIAN_POINT('',(1.698,-1.383,0.00999999999999995));
#1954=CARTESIAN_POINT('',(1.698,0.6915,0.00999999999999995));
#1955=CARTESIAN_POINT('',(1.639,-1.442,0.00999999999999995));
#1956=CARTESIAN_POINT('Origin',(1.639,-1.383,0.00999999999999995));
#1957=CARTESIAN_POINT('',(-1.639,-1.442,0.00999999999999995));
#1958=CARTESIAN_POINT('',(0.8195,-1.442,0.00999999999999995));
#1959=CARTESIAN_POINT('',(-1.698,-1.383,0.00999999999999995));
#1960=CARTESIAN_POINT('Origin',(-1.639,-1.383,0.00999999999999995));
#1961=CARTESIAN_POINT('',(-1.698,1.383,0.00999999999999995));
#1962=CARTESIAN_POINT('',(-1.698,-0.6915,0.00999999999999995));
#1963=CARTESIAN_POINT('',(-1.639,1.442,0.00999999999999995));
#1964=CARTESIAN_POINT('Origin',(-1.639,1.383,0.00999999999999995));
#1965=CARTESIAN_POINT('',(1.639,1.442,0.00999999999999995));
#1966=CARTESIAN_POINT('',(-0.8195,1.442,0.00999999999999995));
#1967=CARTESIAN_POINT('Origin',(1.639,1.383,0.00999999999999995));
#1968=CARTESIAN_POINT('Origin',(3.2,-2.35,0.85));
#1969=CARTESIAN_POINT('',(3.45,-2.35,0.85));
#1970=CARTESIAN_POINT('Origin',(3.2,-2.35,0.85));
#1971=CARTESIAN_POINT('',(3.45,-2.35,0.85));
#1972=CARTESIAN_POINT('Origin',(3.2,2.35,0.85));
#1973=CARTESIAN_POINT('',(3.45,2.35,0.85));
#1974=CARTESIAN_POINT('',(3.45,2.35,0.85));
#1975=CARTESIAN_POINT('',(3.2,2.6,0.85));
#1976=CARTESIAN_POINT('Origin',(3.2,2.35,0.85));
#1977=CARTESIAN_POINT('',(3.2,2.6,0.85));
#1978=CARTESIAN_POINT('Origin',(-3.45,2.6,0.85));
#1979=CARTESIAN_POINT('',(-1.725,2.6,0.85));
#1980=CARTESIAN_POINT('Origin',(-3.55,-2.75,0.));
#1981=CARTESIAN_POINT('',(-3.55,-3.,0.85));
#1982=CARTESIAN_POINT('',(-3.8,-2.75,0.85));
#1983=CARTESIAN_POINT('Origin',(-3.55,-2.75,0.85));
#1984=CARTESIAN_POINT('',(-3.8,-2.75,0.));
#1985=CARTESIAN_POINT('',(-3.8,-2.75,0.));
#1986=CARTESIAN_POINT('',(-3.55,-3.,0.));
#1987=CARTESIAN_POINT('Origin',(-3.55,-2.75,0.));
#1988=CARTESIAN_POINT('',(-3.55,-3.,0.));
#1989=CARTESIAN_POINT('Origin',(-3.8,-3.,0.));
#1990=CARTESIAN_POINT('',(3.55,-3.,0.));
#1991=CARTESIAN_POINT('',(-3.8,-3.,0.));
#1992=CARTESIAN_POINT('',(3.55,-3.,0.85));
#1993=CARTESIAN_POINT('',(3.55,-3.,0.));
#1994=CARTESIAN_POINT('',(-3.8,-3.,0.85));
#1995=CARTESIAN_POINT('Origin',(0.,1.74838271594513E-16,0.));
#1996=CARTESIAN_POINT('',(-3.8,2.75,0.));
#1997=CARTESIAN_POINT('',(-3.8,3.,0.));
#1998=CARTESIAN_POINT('',(-3.55,3.,0.));
#1999=CARTESIAN_POINT('Origin',(-3.55,2.75,0.));
#2000=CARTESIAN_POINT('',(3.55,3.,0.));
#2001=CARTESIAN_POINT('',(3.8,3.,0.));
#2002=CARTESIAN_POINT('',(3.8,2.75,0.));
#2003=CARTESIAN_POINT('Origin',(3.55,2.75,0.));
#2004=CARTESIAN_POINT('',(3.8,-2.75,0.));
#2005=CARTESIAN_POINT('',(3.8,-3.,0.));
#2006=CARTESIAN_POINT('Origin',(3.55,-2.75,0.));
#2007=CARTESIAN_POINT('',(-3.15,1.865,0.));
#2008=CARTESIAN_POINT('',(-3.15,-1.865,0.));
#2009=CARTESIAN_POINT('',(-3.15,-1.0825,0.));
#2010=CARTESIAN_POINT('',(-2.85,-2.165,0.));
#2011=CARTESIAN_POINT('Origin',(-2.85,-1.865,0.));
#2012=CARTESIAN_POINT('',(2.85,-2.165,0.));
#2013=CARTESIAN_POINT('',(1.575,-2.165,0.));
#2014=CARTESIAN_POINT('',(3.15,-1.865,0.));
#2015=CARTESIAN_POINT('Origin',(2.85,-1.865,0.));
#2016=CARTESIAN_POINT('',(3.15,1.865,0.));
#2017=CARTESIAN_POINT('',(3.15,1.0825,0.));
#2018=CARTESIAN_POINT('',(2.85,2.165,0.));
#2019=CARTESIAN_POINT('Origin',(2.85,1.865,0.));
#2020=CARTESIAN_POINT('',(-2.85,2.165,0.));
#2021=CARTESIAN_POINT('',(-1.575,2.165,0.));
#2022=CARTESIAN_POINT('Origin',(-2.85,1.865,0.));
#2023=CARTESIAN_POINT('Origin',(3.55,-2.75,0.));
#2024=CARTESIAN_POINT('',(3.8,-2.75,0.85));
#2025=CARTESIAN_POINT('Origin',(3.55,-2.75,0.85));
#2026=CARTESIAN_POINT('',(3.8,-2.75,0.));
#2027=CARTESIAN_POINT('Origin',(3.8,-3.,0.));
#2028=CARTESIAN_POINT('',(3.8,2.75,0.85));
#2029=CARTESIAN_POINT('',(3.8,2.75,0.));
#2030=CARTESIAN_POINT('',(3.8,-3.,0.85));
#2031=CARTESIAN_POINT('Origin',(3.55,2.75,0.));
#2032=CARTESIAN_POINT('',(3.55,3.,0.85));
#2033=CARTESIAN_POINT('Origin',(3.55,2.75,0.85));
#2034=CARTESIAN_POINT('',(3.55,3.,0.));
#2035=CARTESIAN_POINT('Origin',(3.8,3.,0.));
#2036=CARTESIAN_POINT('',(-3.55,3.,0.85));
#2037=CARTESIAN_POINT('',(-3.55,3.,0.));
#2038=CARTESIAN_POINT('',(3.8,3.,0.85));
#2039=CARTESIAN_POINT('Origin',(-3.55,2.75,0.));
#2040=CARTESIAN_POINT('',(-3.8,2.75,0.85));
#2041=CARTESIAN_POINT('Origin',(-3.55,2.75,0.85));
#2042=CARTESIAN_POINT('',(-3.8,2.75,0.));
#2043=CARTESIAN_POINT('Origin',(2.65,-2.76,0.33724673336114));
#2044=CARTESIAN_POINT('',(2.65,-2.76,0.32449346672228));
#2045=CARTESIAN_POINT('',(2.60755,-2.76,0.35));
#2046=CARTESIAN_POINT('',(2.628775,-2.76,0.33724673336114));
#2047=CARTESIAN_POINT('Origin',(2.65,-2.76,0.35));
#2048=CARTESIAN_POINT('Origin',(2.65,-2.76,0.6));
#2049=CARTESIAN_POINT('',(2.60755,-2.76,0.85));
#2050=CARTESIAN_POINT('',(2.60755,-2.76,0.6));
#2051=CARTESIAN_POINT('Origin',(2.65,-2.76,0.85));
#2052=CARTESIAN_POINT('Origin',(-2.65,-2.76,0.33724673336114));
#2053=CARTESIAN_POINT('',(-2.65,-2.76,0.32449346672228));
#2054=CARTESIAN_POINT('',(-2.69245,-2.76,0.35));
#2055=CARTESIAN_POINT('',(-2.671225,-2.76,0.33724673336114));
#2056=CARTESIAN_POINT('Origin',(-2.65,-2.76,0.35));
#2057=CARTESIAN_POINT('Origin',(-2.65,-2.76,0.6));
#2058=CARTESIAN_POINT('',(-2.69245,-2.76,0.85));
#2059=CARTESIAN_POINT('',(-2.69245,-2.76,0.6));
#2060=CARTESIAN_POINT('Origin',(-2.65,-2.76,0.85));
#2061=CARTESIAN_POINT('Origin',(-2.65,2.76,0.33724673336114));
#2062=CARTESIAN_POINT('',(-2.65,2.76,0.32449346672228));
#2063=CARTESIAN_POINT('',(-2.69245,2.76,0.35));
#2064=CARTESIAN_POINT('',(-2.671225,2.76,0.33724673336114));
#2065=CARTESIAN_POINT('Origin',(-2.65,2.76,0.35));
#2066=CARTESIAN_POINT('Origin',(-2.65,2.76,0.6));
#2067=CARTESIAN_POINT('',(-2.69245,2.76,0.85));
#2068=CARTESIAN_POINT('',(-2.69245,2.76,0.6));
#2069=CARTESIAN_POINT('Origin',(-2.65,2.76,0.85));
#2070=CARTESIAN_POINT('Origin',(2.65,2.76,0.33724673336114));
#2071=CARTESIAN_POINT('',(2.65,2.76,0.32449346672228));
#2072=CARTESIAN_POINT('',(2.60755,2.76,0.35));
#2073=CARTESIAN_POINT('',(2.628775,2.76,0.33724673336114));
#2074=CARTESIAN_POINT('Origin',(2.65,2.76,0.35));
#2075=CARTESIAN_POINT('Origin',(2.65,2.76,0.6));
#2076=CARTESIAN_POINT('',(2.60755,2.76,0.85));
#2077=CARTESIAN_POINT('',(2.60755,2.76,0.6));
#2078=CARTESIAN_POINT('Origin',(2.65,2.76,0.85));
#2079=CARTESIAN_POINT('Origin',(-2.85,1.865,0.));
#2080=CARTESIAN_POINT('',(-2.85,2.165,-0.110236220472441));
#2081=CARTESIAN_POINT('',(-3.15,1.865,-0.110236220472441));
#2082=CARTESIAN_POINT('Origin',(-2.85,1.865,-0.110236220472441));
#2083=CARTESIAN_POINT('',(-3.15,1.865,0.));
#2084=CARTESIAN_POINT('',(-2.85,2.165,0.));
#2085=CARTESIAN_POINT('Origin',(-3.15,-2.165,0.));
#2086=CARTESIAN_POINT('',(-3.15,-1.865,-0.110236220472441));
#2087=CARTESIAN_POINT('',(-3.15,-2.165,-0.110236220472441));
#2088=CARTESIAN_POINT('',(-3.15,-1.865,0.));
#2089=CARTESIAN_POINT('Origin',(0.,0.,-0.110236220472441));
#2090=CARTESIAN_POINT('',(2.85,2.165,-0.110236220472441));
#2091=CARTESIAN_POINT('',(-3.15,2.165,-0.110236220472441));
#2092=CARTESIAN_POINT('',(3.15,1.865,-0.110236220472441));
#2093=CARTESIAN_POINT('Origin',(2.85,1.865,-0.110236220472441));
#2094=CARTESIAN_POINT('',(3.15,-1.865,-0.110236220472441));
#2095=CARTESIAN_POINT('',(3.15,2.165,-0.110236220472441));
#2096=CARTESIAN_POINT('',(2.85,-2.165,-0.110236220472441));
#2097=CARTESIAN_POINT('Origin',(2.85,-1.865,-0.110236220472441));
#2098=CARTESIAN_POINT('',(-2.85,-2.165,-0.110236220472441));
#2099=CARTESIAN_POINT('',(3.15,-2.165,-0.110236220472441));
#2100=CARTESIAN_POINT('Origin',(-2.85,-1.865,-0.110236220472441));
#2101=CARTESIAN_POINT('Origin',(-2.85,-1.865,0.));
#2102=CARTESIAN_POINT('',(-2.85,-2.165,0.));
#2103=CARTESIAN_POINT('Origin',(3.15,-2.165,0.));
#2104=CARTESIAN_POINT('',(2.85,-2.165,0.));
#2105=CARTESIAN_POINT('Origin',(2.85,-1.865,0.));
#2106=CARTESIAN_POINT('',(3.15,-1.865,0.));
#2107=CARTESIAN_POINT('Origin',(3.15,2.165,0.));
#2108=CARTESIAN_POINT('',(3.15,1.865,0.));
#2109=CARTESIAN_POINT('Origin',(2.85,1.865,0.));
#2110=CARTESIAN_POINT('',(2.85,2.165,0.));
#2111=CARTESIAN_POINT('Origin',(1.639,-1.383,0.00999999999999995));
#2112=CARTESIAN_POINT('',(1.639,1.383,-0.039));
#2113=CARTESIAN_POINT('Origin',(1.698,1.383,0.00999999999999995));
#2114=CARTESIAN_POINT('',(1.698,1.383,-0.039));
#2115=CARTESIAN_POINT('',(1.698,1.383,0.00999999999999995));
#2116=CARTESIAN_POINT('',(1.698,-1.383,-0.039));
#2117=CARTESIAN_POINT('',(1.698,-1.383,-0.039));
#2118=CARTESIAN_POINT('',(1.698,-1.383,0.00999999999999995));
#2119=CARTESIAN_POINT('Origin',(1.639,1.383,0.00999999999999995));
#2120=CARTESIAN_POINT('',(1.639,1.442,-0.039));
#2121=CARTESIAN_POINT('',(1.639,1.442,0.00999999999999995));
#2122=CARTESIAN_POINT('Origin',(1.639,1.383,-0.039));
#2123=CARTESIAN_POINT('Origin',(-1.639,1.442,0.00999999999999995));
#2124=CARTESIAN_POINT('',(-1.639,1.442,-0.039));
#2125=CARTESIAN_POINT('',(-1.639,1.442,0.00999999999999995));
#2126=CARTESIAN_POINT('',(1.639,1.442,-0.039));
#2127=CARTESIAN_POINT('Origin',(-1.639,1.383,0.00999999999999995));
#2128=CARTESIAN_POINT('',(-1.698,1.383,-0.039));
#2129=CARTESIAN_POINT('',(-1.698,1.383,0.00999999999999995));
#2130=CARTESIAN_POINT('Origin',(-1.639,1.383,-0.039));
#2131=CARTESIAN_POINT('Origin',(-1.698,-1.383,0.00999999999999995));
#2132=CARTESIAN_POINT('',(-1.698,-1.383,-0.039));
#2133=CARTESIAN_POINT('',(-1.698,-1.383,0.00999999999999995));
#2134=CARTESIAN_POINT('',(-1.698,1.383,-0.039));
#2135=CARTESIAN_POINT('Origin',(-1.639,-1.383,0.00999999999999995));
#2136=CARTESIAN_POINT('',(-1.639,-1.442,-0.039));
#2137=CARTESIAN_POINT('',(-1.639,-1.442,0.00999999999999995));
#2138=CARTESIAN_POINT('Origin',(-1.639,-1.383,-0.039));
#2139=CARTESIAN_POINT('Origin',(1.639,-1.442,0.00999999999999995));
#2140=CARTESIAN_POINT('',(1.639,-1.442,-0.039));
#2141=CARTESIAN_POINT('',(1.639,-1.442,0.00999999999999995));
#2142=CARTESIAN_POINT('',(-1.639,-1.442,-0.039));
#2143=CARTESIAN_POINT('Origin',(1.639,-1.383,0.00999999999999995));
#2144=CARTESIAN_POINT('Origin',(1.639,-1.383,-0.039));
#2145=CARTESIAN_POINT('Origin',(0.,-3.49676543189026E-16,-0.039));
#2146=CARTESIAN_POINT('Origin',(-3.15,2.165,0.));
#2147=CARTESIAN_POINT('Origin',(3.45,2.6,0.85));
#2148=CARTESIAN_POINT('',(3.45,1.3,0.85));
#2149=CARTESIAN_POINT('Origin',(-3.8,3.,0.));
#2150=CARTESIAN_POINT('',(-3.8,3.,0.85));
#2151=CARTESIAN_POINT('Origin',(0.,0.,0.85));
#2152=UNCERTAINTY_MEASURE_WITH_UNIT(LENGTH_MEASURE(0.000393700787401575),
#2158,'DISTANCE_ACCURACY_VALUE',
'Maximum model space distance between geometric entities at asserted c
onnectivities');
#2153=UNCERTAINTY_MEASURE_WITH_UNIT(LENGTH_MEASURE(0.000393700787401575),
#2158,'DISTANCE_ACCURACY_VALUE',
'Maximum model space distance between geometric entities at asserted c
onnectivities');
#2154=(
GEOMETRIC_REPRESENTATION_CONTEXT(3)
GLOBAL_UNCERTAINTY_ASSIGNED_CONTEXT((#2152))
GLOBAL_UNIT_ASSIGNED_CONTEXT((#2158,#2162,#2163))
REPRESENTATION_CONTEXT('','3D')
);
#2155=(
GEOMETRIC_REPRESENTATION_CONTEXT(3)
GLOBAL_UNCERTAINTY_ASSIGNED_CONTEXT((#2153))
GLOBAL_UNIT_ASSIGNED_CONTEXT((#2158,#2162,#2163))
REPRESENTATION_CONTEXT('','3D')
);
#2156=DIMENSIONAL_EXPONENTS(1.,0.,0.,0.,0.,0.,0.);
#2157=DIMENSIONAL_EXPONENTS(0.,1.,0.,0.,0.,0.,0.);
#2158=(
CONVERSION_BASED_UNIT('inch',#2161)
LENGTH_UNIT()
NAMED_UNIT(#2156)
);
#2159=(
LENGTH_UNIT()
NAMED_UNIT(*)
SI_UNIT(.MILLI.,.METRE.)
);
#2160=(
LENGTH_UNIT()
NAMED_UNIT(*)
SI_UNIT(.CENTI.,.METRE.)
);
#2161=LENGTH_MEASURE_WITH_UNIT(LENGTH_MEASURE(25.4),#2159);
#2162=(
NAMED_UNIT(*)
PLANE_ANGLE_UNIT()
SI_UNIT($,.RADIAN.)
);
#2163=(
NAMED_UNIT(*)
SI_UNIT($,.STERADIAN.)
SOLID_ANGLE_UNIT()
);
#2164=SHAPE_DEFINITION_REPRESENTATION(#2165,#2166);
#2165=PRODUCT_DEFINITION_SHAPE('',$,#2168);
#2166=SHAPE_REPRESENTATION('',(#1264),#2154);
#2167=PRODUCT_DEFINITION_CONTEXT('part definition',#2172,'design');
#2168=PRODUCT_DEFINITION('i-4023-Tai-Base-V3',
'i-4023-Tai-Base-V3 - Copy',#2169,#2167);
#2169=PRODUCT_DEFINITION_FORMATION('',$,#2174);
#2170=PRODUCT_RELATED_PRODUCT_CATEGORY('i-4023-Tai-Base-V3 - Copy',
'i-4023-Tai-Base-V3 - Copy',(#2174));
#2171=APPLICATION_PROTOCOL_DEFINITION('international standard',
'automotive_design',2009,#2172);
#2172=APPLICATION_CONTEXT(
'Core Data for Automotive Mechanical Design Process');
#2173=PRODUCT_CONTEXT('part definition',#2172,'mechanical');
#2174=PRODUCT('i-4023-Tai-Base-V3','i-4023-Tai-Base-V3 - Copy',$,(#2173));
#2175=PRESENTATION_STYLE_ASSIGNMENT((#2176));
#2176=SURFACE_STYLE_USAGE(.BOTH.,#2179);
#2177=SURFACE_STYLE_RENDERING_WITH_PROPERTIES($,#2183,(#2178));
#2178=SURFACE_STYLE_TRANSPARENT(0.);
#2179=SURFACE_SIDE_STYLE('',(#2180,#2177));
#2180=SURFACE_STYLE_FILL_AREA(#2181);
#2181=FILL_AREA_STYLE('',(#2182));
#2182=FILL_AREA_STYLE_COLOUR('',#2183);
#2183=COLOUR_RGB('',0.749019607843137,0.749019607843137,0.749019607843137);
ENDSEC;
END-ISO-10303-21;
