ISO-10303-21;
HEADER;
/* Generated by software containing ST-Developer
 * from STEP Tools, Inc. (www.steptools.com) 
 */

FILE_DESCRIPTION(
/* description */ (''),
/* implementation_level */ '2;1');

FILE_NAME(
/* name */ 'Sample Holder Cover Top.stp',
/* time_stamp */ '2026-05-13T10:13:07-05:00',
/* author */ ('FiolkaLab'),
/* organization */ (''),
/* preprocessor_version */ 'ST-DEVELOPER v20.1',
/* originating_system */ 'Autodesk Inventor 2026',
/* authorisation */ '');

FILE_SCHEMA (('AUTOMOTIVE_DESIGN { 1 0 10303 214 3 1 1 }'));
ENDSEC;

DATA;
#10=MECHANICAL_DESIGN_GEOMETRIC_PRESENTATION_REPRESENTATION('',(#16),#1535);
#11=GEOMETRICALLY_BOUNDED_WIREFRAME_SHAPE_REPRESENTATION('',(#12),#1534);
#12=GEOMETRIC_CURVE_SET('Sketch8',(#1531));
#13=SHAPE_REPRESENTATION_RELATIONSHIP('SRR','None',#1546,#15);
#14=SHAPE_REPRESENTATION_RELATIONSHIP('SRR','None',#1546,#11);
#15=ADVANCED_BREP_SHAPE_REPRESENTATION('',(#17),#1534);
#16=STYLED_ITEM('',(#1555),#17);
#17=MANIFOLD_SOLID_BREP('Solid2',#882);
#18=TOROIDAL_SURFACE('',#924,0.15,0.1);
#19=TOROIDAL_SURFACE('',#931,0.15,0.1);
#20=TOROIDAL_SURFACE('',#937,0.15,0.1);
#21=TOROIDAL_SURFACE('',#943,0.15,0.1);
#22=FACE_BOUND('',#148,.T.);
#23=FACE_BOUND('',#168,.T.);
#24=FACE_BOUND('',#183,.T.);
#25=FACE_BOUND('',#184,.T.);
#26=FACE_BOUND('',#185,.T.);
#27=FACE_BOUND('',#186,.T.);
#28=FACE_BOUND('',#187,.T.);
#29=FACE_BOUND('',#201,.T.);
#30=FACE_BOUND('',#202,.T.);
#31=FACE_BOUND('',#203,.T.);
#32=FACE_BOUND('',#204,.T.);
#33=FACE_BOUND('',#205,.T.);
#34=CIRCLE('',#911,0.1);
#35=CIRCLE('',#912,0.1);
#36=CIRCLE('',#913,0.1);
#37=CIRCLE('',#914,0.1);
#38=CIRCLE('',#925,0.100000000000001);
#39=CIRCLE('',#926,0.15);
#40=CIRCLE('',#927,0.1);
#41=CIRCLE('',#928,0.25);
#42=CIRCLE('',#930,0.1);
#43=CIRCLE('',#932,0.1);
#44=CIRCLE('',#933,0.25);
#45=CIRCLE('',#934,0.15);
#46=CIRCLE('',#936,0.1);
#47=CIRCLE('',#938,0.1);
#48=CIRCLE('',#939,0.25);
#49=CIRCLE('',#940,0.15);
#50=CIRCLE('',#942,0.1);
#51=CIRCLE('',#944,0.1);
#52=CIRCLE('',#945,0.25);
#53=CIRCLE('',#946,0.15);
#54=CIRCLE('',#950,0.25);
#55=CIRCLE('',#953,0.25);
#56=CIRCLE('',#955,0.1);
#57=CIRCLE('',#956,0.1);
#58=CIRCLE('',#957,0.1);
#59=CIRCLE('',#958,0.1);
#60=CIRCLE('',#961,0.25);
#61=CIRCLE('',#964,0.25);
#62=CIRCLE('',#974,0.25);
#63=CIRCLE('',#975,0.25);
#64=CIRCLE('',#977,0.25);
#65=CIRCLE('',#978,0.25);
#66=CIRCLE('',#979,0.25);
#67=CIRCLE('',#980,0.0645);
#68=CIRCLE('',#981,0.0645);
#69=CIRCLE('',#982,0.0645);
#70=CIRCLE('',#983,0.0645);
#71=CIRCLE('',#986,0.25);
#72=CIRCLE('',#988,0.25);
#73=CIRCLE('',#991,0.25);
#74=CIRCLE('',#993,0.0645);
#75=CIRCLE('',#995,0.0645);
#76=CIRCLE('',#997,0.0645);
#77=CIRCLE('',#999,0.0645);
#78=PLANE('',#907);
#79=PLANE('',#915);
#80=PLANE('',#920);
#81=PLANE('',#923);
#82=PLANE('',#948);
#83=PLANE('',#951);
#84=PLANE('',#954);
#85=PLANE('',#959);
#86=PLANE('',#962);
#87=PLANE('',#966);
#88=PLANE('',#968);
#89=PLANE('',#970);
#90=PLANE('',#972);
#91=PLANE('',#976);
#92=PLANE('',#984);
#93=PLANE('',#989);
#94=PLANE('',#1000);
#95=PLANE('',#1001);
#96=PLANE('',#1002);
#97=PLANE('',#1003);
#98=FACE_OUTER_BOUND('',#146,.T.);
#99=FACE_OUTER_BOUND('',#147,.T.);
#100=FACE_OUTER_BOUND('',#149,.T.);
#101=FACE_OUTER_BOUND('',#150,.T.);
#102=FACE_OUTER_BOUND('',#151,.T.);
#103=FACE_OUTER_BOUND('',#152,.T.);
#104=FACE_OUTER_BOUND('',#153,.T.);
#105=FACE_OUTER_BOUND('',#154,.T.);
#106=FACE_OUTER_BOUND('',#155,.T.);
#107=FACE_OUTER_BOUND('',#156,.T.);
#108=FACE_OUTER_BOUND('',#157,.T.);
#109=FACE_OUTER_BOUND('',#158,.T.);
#110=FACE_OUTER_BOUND('',#159,.T.);
#111=FACE_OUTER_BOUND('',#160,.T.);
#112=FACE_OUTER_BOUND('',#161,.T.);
#113=FACE_OUTER_BOUND('',#162,.T.);
#114=FACE_OUTER_BOUND('',#163,.T.);
#115=FACE_OUTER_BOUND('',#164,.T.);
#116=FACE_OUTER_BOUND('',#165,.T.);
#117=FACE_OUTER_BOUND('',#166,.T.);
#118=FACE_OUTER_BOUND('',#167,.T.);
#119=FACE_OUTER_BOUND('',#169,.T.);
#120=FACE_OUTER_BOUND('',#170,.T.);
#121=FACE_OUTER_BOUND('',#171,.T.);
#122=FACE_OUTER_BOUND('',#172,.T.);
#123=FACE_OUTER_BOUND('',#173,.T.);
#124=FACE_OUTER_BOUND('',#174,.T.);
#125=FACE_OUTER_BOUND('',#175,.T.);
#126=FACE_OUTER_BOUND('',#176,.T.);
#127=FACE_OUTER_BOUND('',#177,.T.);
#128=FACE_OUTER_BOUND('',#178,.T.);
#129=FACE_OUTER_BOUND('',#179,.T.);
#130=FACE_OUTER_BOUND('',#180,.T.);
#131=FACE_OUTER_BOUND('',#181,.T.);
#132=FACE_OUTER_BOUND('',#182,.T.);
#133=FACE_OUTER_BOUND('',#188,.T.);
#134=FACE_OUTER_BOUND('',#189,.T.);
#135=FACE_OUTER_BOUND('',#190,.T.);
#136=FACE_OUTER_BOUND('',#191,.T.);
#137=FACE_OUTER_BOUND('',#192,.T.);
#138=FACE_OUTER_BOUND('',#193,.T.);
#139=FACE_OUTER_BOUND('',#194,.T.);
#140=FACE_OUTER_BOUND('',#195,.T.);
#141=FACE_OUTER_BOUND('',#196,.T.);
#142=FACE_OUTER_BOUND('',#197,.T.);
#143=FACE_OUTER_BOUND('',#198,.T.);
#144=FACE_OUTER_BOUND('',#199,.T.);
#145=FACE_OUTER_BOUND('',#200,.T.);
#146=EDGE_LOOP('',(#562,#563,#564,#565));
#147=EDGE_LOOP('',(#566,#567,#568,#569,#570,#571,#572,#573));
#148=EDGE_LOOP('',(#574,#575,#576,#577,#578,#579,#580,#581));
#149=EDGE_LOOP('',(#582,#583,#584,#585));
#150=EDGE_LOOP('',(#586,#587,#588,#589));
#151=EDGE_LOOP('',(#590,#591,#592,#593));
#152=EDGE_LOOP('',(#594,#595,#596,#597));
#153=EDGE_LOOP('',(#598,#599,#600,#601));
#154=EDGE_LOOP('',(#602,#603,#604,#605));
#155=EDGE_LOOP('',(#606,#607,#608,#609));
#156=EDGE_LOOP('',(#610,#611,#612,#613));
#157=EDGE_LOOP('',(#614,#615,#616,#617));
#158=EDGE_LOOP('',(#618,#619,#620,#621));
#159=EDGE_LOOP('',(#622,#623,#624,#625));
#160=EDGE_LOOP('',(#626,#627,#628,#629));
#161=EDGE_LOOP('',(#630,#631,#632,#633));
#162=EDGE_LOOP('',(#634,#635,#636,#637));
#163=EDGE_LOOP('',(#638,#639,#640,#641));
#164=EDGE_LOOP('',(#642,#643,#644,#645));
#165=EDGE_LOOP('',(#646,#647,#648,#649));
#166=EDGE_LOOP('',(#650,#651,#652,#653));
#167=EDGE_LOOP('',(#654,#655,#656,#657,#658,#659,#660,#661));
#168=EDGE_LOOP('',(#662,#663,#664,#665,#666,#667,#668,#669));
#169=EDGE_LOOP('',(#670,#671,#672,#673));
#170=EDGE_LOOP('',(#674,#675,#676,#677));
#171=EDGE_LOOP('',(#678,#679,#680,#681));
#172=EDGE_LOOP('',(#682,#683,#684,#685));
#173=EDGE_LOOP('',(#686,#687,#688,#689));
#174=EDGE_LOOP('',(#690,#691,#692,#693));
#175=EDGE_LOOP('',(#694,#695,#696,#697));
#176=EDGE_LOOP('',(#698,#699,#700,#701));
#177=EDGE_LOOP('',(#702,#703,#704,#705));
#178=EDGE_LOOP('',(#706,#707,#708,#709));
#179=EDGE_LOOP('',(#710,#711,#712,#713));
#180=EDGE_LOOP('',(#714,#715,#716,#717));
#181=EDGE_LOOP('',(#718,#719,#720,#721));
#182=EDGE_LOOP('',(#722,#723,#724,#725,#726,#727,#728,#729));
#183=EDGE_LOOP('',(#730));
#184=EDGE_LOOP('',(#731));
#185=EDGE_LOOP('',(#732));
#186=EDGE_LOOP('',(#733));
#187=EDGE_LOOP('',(#734,#735,#736,#737,#738,#739,#740,#741));
#188=EDGE_LOOP('',(#742,#743,#744,#745));
#189=EDGE_LOOP('',(#746,#747,#748,#749));
#190=EDGE_LOOP('',(#750,#751,#752,#753));
#191=EDGE_LOOP('',(#754,#755,#756,#757));
#192=EDGE_LOOP('',(#758,#759,#760,#761));
#193=EDGE_LOOP('',(#762,#763,#764,#765));
#194=EDGE_LOOP('',(#766,#767,#768,#769));
#195=EDGE_LOOP('',(#770,#771,#772,#773));
#196=EDGE_LOOP('',(#774,#775,#776,#777));
#197=EDGE_LOOP('',(#778,#779,#780,#781));
#198=EDGE_LOOP('',(#782,#783,#784,#785));
#199=EDGE_LOOP('',(#786,#787,#788,#789));
#200=EDGE_LOOP('',(#790,#791,#792,#793,#794,#795,#796,#797));
#201=EDGE_LOOP('',(#798,#799,#800,#801,#802,#803,#804,#805));
#202=EDGE_LOOP('',(#806));
#203=EDGE_LOOP('',(#807));
#204=EDGE_LOOP('',(#808));
#205=EDGE_LOOP('',(#809));
#206=LINE('',#1284,#278);
#207=LINE('',#1287,#279);
#208=LINE('',#1290,#280);
#209=LINE('',#1294,#281);
#210=LINE('',#1298,#282);
#211=LINE('',#1301,#283);
#212=LINE('',#1306,#284);
#213=LINE('',#1310,#285);
#214=LINE('',#1314,#286);
#215=LINE('',#1317,#287);
#216=LINE('',#1320,#288);
#217=LINE('',#1321,#289);
#218=LINE('',#1325,#290);
#219=LINE('',#1328,#291);
#220=LINE('',#1331,#292);
#221=LINE('',#1334,#293);
#222=LINE('',#1335,#294);
#223=LINE('',#1339,#295);
#224=LINE('',#1341,#296);
#225=LINE('',#1355,#297);
#226=LINE('',#1356,#298);
#227=LINE('',#1367,#299);
#228=LINE('',#1368,#300);
#229=LINE('',#1379,#301);
#230=LINE('',#1380,#302);
#231=LINE('',#1388,#303);
#232=LINE('',#1389,#304);
#233=LINE('',#1392,#305);
#234=LINE('',#1394,#306);
#235=LINE('',#1395,#307);
#236=LINE('',#1398,#308);
#237=LINE('',#1402,#309);
#238=LINE('',#1403,#310);
#239=LINE('',#1406,#311);
#240=LINE('',#1411,#312);
#241=LINE('',#1415,#313);
#242=LINE('',#1419,#314);
#243=LINE('',#1423,#315);
#244=LINE('',#1427,#316);
#245=LINE('',#1428,#317);
#246=LINE('',#1431,#318);
#247=LINE('',#1435,#319);
#248=LINE('',#1436,#320);
#249=LINE('',#1440,#321);
#250=LINE('',#1441,#322);
#251=LINE('',#1443,#323);
#252=LINE('',#1445,#324);
#253=LINE('',#1446,#325);
#254=LINE('',#1449,#326);
#255=LINE('',#1451,#327);
#256=LINE('',#1453,#328);
#257=LINE('',#1460,#329);
#258=LINE('',#1463,#330);
#259=LINE('',#1466,#331);
#260=LINE('',#1470,#332);
#261=LINE('',#1474,#333);
#262=LINE('',#1477,#334);
#263=LINE('',#1488,#335);
#264=LINE('',#1489,#336);
#265=LINE('',#1493,#337);
#266=LINE('',#1498,#338);
#267=LINE('',#1499,#339);
#268=LINE('',#1502,#340);
#269=LINE('',#1503,#341);
#270=LINE('',#1507,#342);
#271=LINE('',#1510,#343);
#272=LINE('',#1514,#344);
#273=LINE('',#1518,#345);
#274=LINE('',#1522,#346);
#275=LINE('',#1525,#347);
#276=LINE('',#1527,#348);
#277=LINE('',#1529,#349);
#278=VECTOR('',#1010,0.393700787401575);
#279=VECTOR('',#1013,0.393700787401575);
#280=VECTOR('',#1016,0.393700787401575);
#281=VECTOR('',#1019,0.393700787401575);
#282=VECTOR('',#1022,0.393700787401575);
#283=VECTOR('',#1025,0.393700787401575);
#284=VECTOR('',#1028,0.393700787401575);
#285=VECTOR('',#1031,0.393700787401575);
#286=VECTOR('',#1034,0.393700787401575);
#287=VECTOR('',#1037,0.393700787401575);
#288=VECTOR('',#1040,0.393700787401575);
#289=VECTOR('',#1041,0.393700787401575);
#290=VECTOR('',#1046,0.393700787401575);
#291=VECTOR('',#1049,0.393700787401575);
#292=VECTOR('',#1052,0.393700787401575);
#293=VECTOR('',#1055,0.393700787401575);
#294=VECTOR('',#1056,0.393700787401575);
#295=VECTOR('',#1061,0.393700787401575);
#296=VECTOR('',#1064,0.393700787401575);
#297=VECTOR('',#1079,0.393700787401575);
#298=VECTOR('',#1080,0.393700787401575);
#299=VECTOR('',#1093,0.393700787401575);
#300=VECTOR('',#1094,0.393700787401575);
#301=VECTOR('',#1107,0.393700787401575);
#302=VECTOR('',#1108,0.393700787401575);
#303=VECTOR('',#1119,0.393700787401575);
#304=VECTOR('',#1120,0.393700787401575);
#305=VECTOR('',#1123,0.393700787401575);
#306=VECTOR('',#1124,0.393700787401575);
#307=VECTOR('',#1125,0.393700787401575);
#308=VECTOR('',#1128,0.393700787401575);
#309=VECTOR('',#1133,0.393700787401575);
#310=VECTOR('',#1134,0.393700787401575);
#311=VECTOR('',#1137,0.393700787401575);
#312=VECTOR('',#1142,0.393700787401575);
#313=VECTOR('',#1145,0.393700787401575);
#314=VECTOR('',#1148,0.393700787401575);
#315=VECTOR('',#1151,0.393700787401575);
#316=VECTOR('',#1156,0.393700787401575);
#317=VECTOR('',#1157,0.393700787401575);
#318=VECTOR('',#1160,0.393700787401575);
#319=VECTOR('',#1165,0.393700787401575);
#320=VECTOR('',#1166,0.393700787401575);
#321=VECTOR('',#1173,0.393700787401575);
#322=VECTOR('',#1174,0.393700787401575);
#323=VECTOR('',#1177,0.393700787401575);
#324=VECTOR('',#1180,0.393700787401575);
#325=VECTOR('',#1181,0.393700787401575);
#326=VECTOR('',#1186,0.393700787401575);
#327=VECTOR('',#1189,0.393700787401575);
#328=VECTOR('',#1192,0.393700787401575);
#329=VECTOR('',#1199,0.393700787401575);
#330=VECTOR('',#1202,0.393700787401575);
#331=VECTOR('',#1205,0.393700787401575);
#332=VECTOR('',#1208,0.393700787401575);
#333=VECTOR('',#1211,0.393700787401575);
#334=VECTOR('',#1214,0.393700787401575);
#335=VECTOR('',#1225,0.393700787401575);
#336=VECTOR('',#1226,0.393700787401575);
#337=VECTOR('',#1231,0.393700787401575);
#338=VECTOR('',#1236,0.393700787401575);
#339=VECTOR('',#1237,0.393700787401575);
#340=VECTOR('',#1240,0.393700787401575);
#341=VECTOR('',#1241,0.393700787401575);
#342=VECTOR('',#1246,0.393700787401575);
#343=VECTOR('',#1249,0.0645);
#344=VECTOR('',#1254,0.0645);
#345=VECTOR('',#1259,0.0645);
#346=VECTOR('',#1264,0.0645);
#347=VECTOR('',#1269,0.393700787401575);
#348=VECTOR('',#1272,0.393700787401575);
#349=VECTOR('',#1275,0.393700787401575);
#350=ELLIPSE('',#905,0.212132034355964,0.15);
#351=ELLIPSE('',#906,0.212132034355964,0.15);
#352=ELLIPSE('',#908,0.212132034355964,0.15);
#353=ELLIPSE('',#909,0.212132034355964,0.15);
#354=ELLIPSE('',#910,0.212132034355964,0.15);
#355=ELLIPSE('',#917,0.212132034355964,0.15);
#356=ELLIPSE('',#919,0.212132034355964,0.15);
#357=ELLIPSE('',#922,0.212132034355964,0.15);
#358=VERTEX_POINT('',#1280);
#359=VERTEX_POINT('',#1281);
#360=VERTEX_POINT('',#1283);
#361=VERTEX_POINT('',#1285);
#362=VERTEX_POINT('',#1289);
#363=VERTEX_POINT('',#1291);
#364=VERTEX_POINT('',#1293);
#365=VERTEX_POINT('',#1295);
#366=VERTEX_POINT('',#1297);
#367=VERTEX_POINT('',#1299);
#368=VERTEX_POINT('',#1302);
#369=VERTEX_POINT('',#1303);
#370=VERTEX_POINT('',#1305);
#371=VERTEX_POINT('',#1307);
#372=VERTEX_POINT('',#1309);
#373=VERTEX_POINT('',#1311);
#374=VERTEX_POINT('',#1313);
#375=VERTEX_POINT('',#1315);
#376=VERTEX_POINT('',#1319);
#377=VERTEX_POINT('',#1323);
#378=VERTEX_POINT('',#1327);
#379=VERTEX_POINT('',#1329);
#380=VERTEX_POINT('',#1333);
#381=VERTEX_POINT('',#1337);
#382=VERTEX_POINT('',#1343);
#383=VERTEX_POINT('',#1344);
#384=VERTEX_POINT('',#1346);
#385=VERTEX_POINT('',#1348);
#386=VERTEX_POINT('',#1352);
#387=VERTEX_POINT('',#1353);
#388=VERTEX_POINT('',#1358);
#389=VERTEX_POINT('',#1359);
#390=VERTEX_POINT('',#1364);
#391=VERTEX_POINT('',#1365);
#392=VERTEX_POINT('',#1370);
#393=VERTEX_POINT('',#1371);
#394=VERTEX_POINT('',#1376);
#395=VERTEX_POINT('',#1377);
#396=VERTEX_POINT('',#1382);
#397=VERTEX_POINT('',#1383);
#398=VERTEX_POINT('',#1391);
#399=VERTEX_POINT('',#1393);
#400=VERTEX_POINT('',#1397);
#401=VERTEX_POINT('',#1401);
#402=VERTEX_POINT('',#1405);
#403=VERTEX_POINT('',#1409);
#404=VERTEX_POINT('',#1410);
#405=VERTEX_POINT('',#1412);
#406=VERTEX_POINT('',#1414);
#407=VERTEX_POINT('',#1416);
#408=VERTEX_POINT('',#1418);
#409=VERTEX_POINT('',#1420);
#410=VERTEX_POINT('',#1422);
#411=VERTEX_POINT('',#1426);
#412=VERTEX_POINT('',#1430);
#413=VERTEX_POINT('',#1434);
#414=VERTEX_POINT('',#1456);
#415=VERTEX_POINT('',#1457);
#416=VERTEX_POINT('',#1459);
#417=VERTEX_POINT('',#1461);
#418=VERTEX_POINT('',#1465);
#419=VERTEX_POINT('',#1467);
#420=VERTEX_POINT('',#1469);
#421=VERTEX_POINT('',#1471);
#422=VERTEX_POINT('',#1473);
#423=VERTEX_POINT('',#1475);
#424=VERTEX_POINT('',#1478);
#425=VERTEX_POINT('',#1480);
#426=VERTEX_POINT('',#1482);
#427=VERTEX_POINT('',#1484);
#428=VERTEX_POINT('',#1487);
#429=VERTEX_POINT('',#1491);
#430=VERTEX_POINT('',#1495);
#431=VERTEX_POINT('',#1496);
#432=VERTEX_POINT('',#1501);
#433=VERTEX_POINT('',#1505);
#434=VERTEX_POINT('',#1509);
#435=VERTEX_POINT('',#1513);
#436=VERTEX_POINT('',#1517);
#437=VERTEX_POINT('',#1521);
#438=EDGE_CURVE('',#358,#359,#350,.T.);
#439=EDGE_CURVE('',#358,#360,#206,.T.);
#440=EDGE_CURVE('',#360,#361,#351,.T.);
#441=EDGE_CURVE('',#361,#359,#207,.T.);
#442=EDGE_CURVE('',#362,#359,#208,.T.);
#443=EDGE_CURVE('',#362,#363,#352,.T.);
#444=EDGE_CURVE('',#364,#363,#209,.T.);
#445=EDGE_CURVE('',#364,#365,#353,.T.);
#446=EDGE_CURVE('',#366,#365,#210,.T.);
#447=EDGE_CURVE('',#366,#367,#354,.T.);
#448=EDGE_CURVE('',#358,#367,#211,.T.);
#449=EDGE_CURVE('',#368,#369,#34,.T.);
#450=EDGE_CURVE('',#370,#368,#212,.T.);
#451=EDGE_CURVE('',#371,#370,#35,.T.);
#452=EDGE_CURVE('',#372,#371,#213,.T.);
#453=EDGE_CURVE('',#373,#372,#36,.T.);
#454=EDGE_CURVE('',#374,#373,#214,.T.);
#455=EDGE_CURVE('',#375,#374,#37,.T.);
#456=EDGE_CURVE('',#369,#375,#215,.T.);
#457=EDGE_CURVE('',#361,#376,#216,.T.);
#458=EDGE_CURVE('',#362,#376,#217,.T.);
#459=EDGE_CURVE('',#376,#377,#355,.T.);
#460=EDGE_CURVE('',#377,#363,#218,.T.);
#461=EDGE_CURVE('',#364,#378,#219,.T.);
#462=EDGE_CURVE('',#378,#379,#356,.T.);
#463=EDGE_CURVE('',#379,#365,#220,.T.);
#464=EDGE_CURVE('',#379,#380,#221,.T.);
#465=EDGE_CURVE('',#366,#380,#222,.T.);
#466=EDGE_CURVE('',#380,#381,#357,.T.);
#467=EDGE_CURVE('',#381,#367,#223,.T.);
#468=EDGE_CURVE('',#360,#381,#224,.T.);
#469=EDGE_CURVE('',#382,#383,#38,.T.);
#470=EDGE_CURVE('',#383,#384,#39,.T.);
#471=EDGE_CURVE('',#384,#385,#40,.T.);
#472=EDGE_CURVE('',#385,#382,#41,.T.);
#473=EDGE_CURVE('',#386,#387,#42,.T.);
#474=EDGE_CURVE('',#387,#385,#225,.T.);
#475=EDGE_CURVE('',#384,#386,#226,.T.);
#476=EDGE_CURVE('',#388,#389,#43,.T.);
#477=EDGE_CURVE('',#389,#387,#44,.T.);
#478=EDGE_CURVE('',#386,#388,#45,.T.);
#479=EDGE_CURVE('',#390,#391,#46,.T.);
#480=EDGE_CURVE('',#391,#389,#227,.T.);
#481=EDGE_CURVE('',#388,#390,#228,.T.);
#482=EDGE_CURVE('',#392,#393,#47,.T.);
#483=EDGE_CURVE('',#393,#391,#48,.T.);
#484=EDGE_CURVE('',#390,#392,#49,.T.);
#485=EDGE_CURVE('',#394,#395,#50,.T.);
#486=EDGE_CURVE('',#395,#393,#229,.T.);
#487=EDGE_CURVE('',#392,#394,#230,.T.);
#488=EDGE_CURVE('',#396,#397,#51,.T.);
#489=EDGE_CURVE('',#397,#395,#52,.T.);
#490=EDGE_CURVE('',#394,#396,#53,.T.);
#491=EDGE_CURVE('',#382,#397,#231,.T.);
#492=EDGE_CURVE('',#396,#383,#232,.T.);
#493=EDGE_CURVE('',#398,#395,#233,.T.);
#494=EDGE_CURVE('',#399,#398,#234,.T.);
#495=EDGE_CURVE('',#393,#399,#235,.T.);
#496=EDGE_CURVE('',#397,#400,#236,.T.);
#497=EDGE_CURVE('',#400,#398,#54,.F.);
#498=EDGE_CURVE('',#401,#382,#237,.T.);
#499=EDGE_CURVE('',#400,#401,#238,.T.);
#500=EDGE_CURVE('',#385,#402,#239,.T.);
#501=EDGE_CURVE('',#402,#401,#55,.F.);
#502=EDGE_CURVE('',#403,#404,#240,.T.);
#503=EDGE_CURVE('',#405,#404,#56,.T.);
#504=EDGE_CURVE('',#405,#406,#241,.T.);
#505=EDGE_CURVE('',#407,#406,#57,.T.);
#506=EDGE_CURVE('',#407,#408,#242,.T.);
#507=EDGE_CURVE('',#409,#408,#58,.T.);
#508=EDGE_CURVE('',#409,#410,#243,.T.);
#509=EDGE_CURVE('',#403,#410,#59,.T.);
#510=EDGE_CURVE('',#411,#387,#244,.T.);
#511=EDGE_CURVE('',#402,#411,#245,.T.);
#512=EDGE_CURVE('',#389,#412,#246,.T.);
#513=EDGE_CURVE('',#412,#411,#60,.F.);
#514=EDGE_CURVE('',#413,#391,#247,.T.);
#515=EDGE_CURVE('',#412,#413,#248,.T.);
#516=EDGE_CURVE('',#399,#413,#61,.F.);
#517=EDGE_CURVE('',#406,#373,#249,.T.);
#518=EDGE_CURVE('',#372,#407,#250,.T.);
#519=EDGE_CURVE('',#374,#405,#251,.T.);
#520=EDGE_CURVE('',#408,#371,#252,.T.);
#521=EDGE_CURVE('',#370,#409,#253,.T.);
#522=EDGE_CURVE('',#404,#375,#254,.T.);
#523=EDGE_CURVE('',#369,#403,#255,.T.);
#524=EDGE_CURVE('',#410,#368,#256,.T.);
#525=EDGE_CURVE('',#414,#415,#62,.T.);
#526=EDGE_CURVE('',#415,#416,#257,.T.);
#527=EDGE_CURVE('',#416,#417,#63,.T.);
#528=EDGE_CURVE('',#417,#414,#258,.T.);
#529=EDGE_CURVE('',#418,#416,#259,.T.);
#530=EDGE_CURVE('',#419,#418,#64,.T.);
#531=EDGE_CURVE('',#420,#419,#260,.T.);
#532=EDGE_CURVE('',#421,#420,#65,.T.);
#533=EDGE_CURVE('',#422,#421,#261,.T.);
#534=EDGE_CURVE('',#423,#422,#66,.T.);
#535=EDGE_CURVE('',#417,#423,#262,.T.);
#536=EDGE_CURVE('',#424,#424,#67,.T.);
#537=EDGE_CURVE('',#425,#425,#68,.T.);
#538=EDGE_CURVE('',#426,#426,#69,.T.);
#539=EDGE_CURVE('',#427,#427,#70,.T.);
#540=EDGE_CURVE('',#428,#415,#263,.T.);
#541=EDGE_CURVE('',#418,#428,#264,.T.);
#542=EDGE_CURVE('',#428,#429,#71,.T.);
#543=EDGE_CURVE('',#429,#419,#265,.T.);
#544=EDGE_CURVE('',#430,#431,#72,.T.);
#545=EDGE_CURVE('',#431,#421,#266,.T.);
#546=EDGE_CURVE('',#420,#430,#267,.T.);
#547=EDGE_CURVE('',#432,#431,#268,.T.);
#548=EDGE_CURVE('',#422,#432,#269,.T.);
#549=EDGE_CURVE('',#432,#433,#73,.T.);
#550=EDGE_CURVE('',#433,#423,#270,.T.);
#551=EDGE_CURVE('',#424,#434,#271,.T.);
#552=EDGE_CURVE('',#434,#434,#74,.T.);
#553=EDGE_CURVE('',#425,#435,#272,.T.);
#554=EDGE_CURVE('',#435,#435,#75,.T.);
#555=EDGE_CURVE('',#426,#436,#273,.T.);
#556=EDGE_CURVE('',#436,#436,#76,.T.);
#557=EDGE_CURVE('',#427,#437,#274,.T.);
#558=EDGE_CURVE('',#437,#437,#77,.T.);
#559=EDGE_CURVE('',#378,#377,#275,.T.);
#560=EDGE_CURVE('',#414,#433,#276,.T.);
#561=EDGE_CURVE('',#430,#429,#277,.T.);
#562=ORIENTED_EDGE('',*,*,#438,.F.);
#563=ORIENTED_EDGE('',*,*,#439,.T.);
#564=ORIENTED_EDGE('',*,*,#440,.T.);
#565=ORIENTED_EDGE('',*,*,#441,.T.);
#566=ORIENTED_EDGE('',*,*,#438,.T.);
#567=ORIENTED_EDGE('',*,*,#442,.F.);
#568=ORIENTED_EDGE('',*,*,#443,.T.);
#569=ORIENTED_EDGE('',*,*,#444,.F.);
#570=ORIENTED_EDGE('',*,*,#445,.T.);
#571=ORIENTED_EDGE('',*,*,#446,.F.);
#572=ORIENTED_EDGE('',*,*,#447,.T.);
#573=ORIENTED_EDGE('',*,*,#448,.F.);
#574=ORIENTED_EDGE('',*,*,#449,.F.);
#575=ORIENTED_EDGE('',*,*,#450,.F.);
#576=ORIENTED_EDGE('',*,*,#451,.F.);
#577=ORIENTED_EDGE('',*,*,#452,.F.);
#578=ORIENTED_EDGE('',*,*,#453,.F.);
#579=ORIENTED_EDGE('',*,*,#454,.F.);
#580=ORIENTED_EDGE('',*,*,#455,.F.);
#581=ORIENTED_EDGE('',*,*,#456,.F.);
#582=ORIENTED_EDGE('',*,*,#441,.F.);
#583=ORIENTED_EDGE('',*,*,#457,.T.);
#584=ORIENTED_EDGE('',*,*,#458,.F.);
#585=ORIENTED_EDGE('',*,*,#442,.T.);
#586=ORIENTED_EDGE('',*,*,#443,.F.);
#587=ORIENTED_EDGE('',*,*,#458,.T.);
#588=ORIENTED_EDGE('',*,*,#459,.T.);
#589=ORIENTED_EDGE('',*,*,#460,.T.);
#590=ORIENTED_EDGE('',*,*,#445,.F.);
#591=ORIENTED_EDGE('',*,*,#461,.T.);
#592=ORIENTED_EDGE('',*,*,#462,.T.);
#593=ORIENTED_EDGE('',*,*,#463,.T.);
#594=ORIENTED_EDGE('',*,*,#463,.F.);
#595=ORIENTED_EDGE('',*,*,#464,.T.);
#596=ORIENTED_EDGE('',*,*,#465,.F.);
#597=ORIENTED_EDGE('',*,*,#446,.T.);
#598=ORIENTED_EDGE('',*,*,#447,.F.);
#599=ORIENTED_EDGE('',*,*,#465,.T.);
#600=ORIENTED_EDGE('',*,*,#466,.T.);
#601=ORIENTED_EDGE('',*,*,#467,.T.);
#602=ORIENTED_EDGE('',*,*,#439,.F.);
#603=ORIENTED_EDGE('',*,*,#448,.T.);
#604=ORIENTED_EDGE('',*,*,#467,.F.);
#605=ORIENTED_EDGE('',*,*,#468,.F.);
#606=ORIENTED_EDGE('',*,*,#469,.T.);
#607=ORIENTED_EDGE('',*,*,#470,.T.);
#608=ORIENTED_EDGE('',*,*,#471,.T.);
#609=ORIENTED_EDGE('',*,*,#472,.T.);
#610=ORIENTED_EDGE('',*,*,#473,.T.);
#611=ORIENTED_EDGE('',*,*,#474,.T.);
#612=ORIENTED_EDGE('',*,*,#471,.F.);
#613=ORIENTED_EDGE('',*,*,#475,.T.);
#614=ORIENTED_EDGE('',*,*,#476,.T.);
#615=ORIENTED_EDGE('',*,*,#477,.T.);
#616=ORIENTED_EDGE('',*,*,#473,.F.);
#617=ORIENTED_EDGE('',*,*,#478,.T.);
#618=ORIENTED_EDGE('',*,*,#479,.T.);
#619=ORIENTED_EDGE('',*,*,#480,.T.);
#620=ORIENTED_EDGE('',*,*,#476,.F.);
#621=ORIENTED_EDGE('',*,*,#481,.T.);
#622=ORIENTED_EDGE('',*,*,#482,.T.);
#623=ORIENTED_EDGE('',*,*,#483,.T.);
#624=ORIENTED_EDGE('',*,*,#479,.F.);
#625=ORIENTED_EDGE('',*,*,#484,.T.);
#626=ORIENTED_EDGE('',*,*,#485,.T.);
#627=ORIENTED_EDGE('',*,*,#486,.T.);
#628=ORIENTED_EDGE('',*,*,#482,.F.);
#629=ORIENTED_EDGE('',*,*,#487,.T.);
#630=ORIENTED_EDGE('',*,*,#488,.T.);
#631=ORIENTED_EDGE('',*,*,#489,.T.);
#632=ORIENTED_EDGE('',*,*,#485,.F.);
#633=ORIENTED_EDGE('',*,*,#490,.T.);
#634=ORIENTED_EDGE('',*,*,#469,.F.);
#635=ORIENTED_EDGE('',*,*,#491,.T.);
#636=ORIENTED_EDGE('',*,*,#488,.F.);
#637=ORIENTED_EDGE('',*,*,#492,.T.);
#638=ORIENTED_EDGE('',*,*,#486,.F.);
#639=ORIENTED_EDGE('',*,*,#493,.F.);
#640=ORIENTED_EDGE('',*,*,#494,.F.);
#641=ORIENTED_EDGE('',*,*,#495,.F.);
#642=ORIENTED_EDGE('',*,*,#489,.F.);
#643=ORIENTED_EDGE('',*,*,#496,.T.);
#644=ORIENTED_EDGE('',*,*,#497,.T.);
#645=ORIENTED_EDGE('',*,*,#493,.T.);
#646=ORIENTED_EDGE('',*,*,#491,.F.);
#647=ORIENTED_EDGE('',*,*,#498,.F.);
#648=ORIENTED_EDGE('',*,*,#499,.F.);
#649=ORIENTED_EDGE('',*,*,#496,.F.);
#650=ORIENTED_EDGE('',*,*,#472,.F.);
#651=ORIENTED_EDGE('',*,*,#500,.T.);
#652=ORIENTED_EDGE('',*,*,#501,.T.);
#653=ORIENTED_EDGE('',*,*,#498,.T.);
#654=ORIENTED_EDGE('',*,*,#470,.F.);
#655=ORIENTED_EDGE('',*,*,#492,.F.);
#656=ORIENTED_EDGE('',*,*,#490,.F.);
#657=ORIENTED_EDGE('',*,*,#487,.F.);
#658=ORIENTED_EDGE('',*,*,#484,.F.);
#659=ORIENTED_EDGE('',*,*,#481,.F.);
#660=ORIENTED_EDGE('',*,*,#478,.F.);
#661=ORIENTED_EDGE('',*,*,#475,.F.);
#662=ORIENTED_EDGE('',*,*,#502,.T.);
#663=ORIENTED_EDGE('',*,*,#503,.F.);
#664=ORIENTED_EDGE('',*,*,#504,.T.);
#665=ORIENTED_EDGE('',*,*,#505,.F.);
#666=ORIENTED_EDGE('',*,*,#506,.T.);
#667=ORIENTED_EDGE('',*,*,#507,.F.);
#668=ORIENTED_EDGE('',*,*,#508,.T.);
#669=ORIENTED_EDGE('',*,*,#509,.F.);
#670=ORIENTED_EDGE('',*,*,#474,.F.);
#671=ORIENTED_EDGE('',*,*,#510,.F.);
#672=ORIENTED_EDGE('',*,*,#511,.F.);
#673=ORIENTED_EDGE('',*,*,#500,.F.);
#674=ORIENTED_EDGE('',*,*,#477,.F.);
#675=ORIENTED_EDGE('',*,*,#512,.T.);
#676=ORIENTED_EDGE('',*,*,#513,.T.);
#677=ORIENTED_EDGE('',*,*,#510,.T.);
#678=ORIENTED_EDGE('',*,*,#480,.F.);
#679=ORIENTED_EDGE('',*,*,#514,.F.);
#680=ORIENTED_EDGE('',*,*,#515,.F.);
#681=ORIENTED_EDGE('',*,*,#512,.F.);
#682=ORIENTED_EDGE('',*,*,#483,.F.);
#683=ORIENTED_EDGE('',*,*,#495,.T.);
#684=ORIENTED_EDGE('',*,*,#516,.T.);
#685=ORIENTED_EDGE('',*,*,#514,.T.);
#686=ORIENTED_EDGE('',*,*,#505,.T.);
#687=ORIENTED_EDGE('',*,*,#517,.T.);
#688=ORIENTED_EDGE('',*,*,#453,.T.);
#689=ORIENTED_EDGE('',*,*,#518,.T.);
#690=ORIENTED_EDGE('',*,*,#517,.F.);
#691=ORIENTED_EDGE('',*,*,#504,.F.);
#692=ORIENTED_EDGE('',*,*,#519,.F.);
#693=ORIENTED_EDGE('',*,*,#454,.T.);
#694=ORIENTED_EDGE('',*,*,#507,.T.);
#695=ORIENTED_EDGE('',*,*,#520,.T.);
#696=ORIENTED_EDGE('',*,*,#451,.T.);
#697=ORIENTED_EDGE('',*,*,#521,.T.);
#698=ORIENTED_EDGE('',*,*,#518,.F.);
#699=ORIENTED_EDGE('',*,*,#452,.T.);
#700=ORIENTED_EDGE('',*,*,#520,.F.);
#701=ORIENTED_EDGE('',*,*,#506,.F.);
#702=ORIENTED_EDGE('',*,*,#503,.T.);
#703=ORIENTED_EDGE('',*,*,#522,.T.);
#704=ORIENTED_EDGE('',*,*,#455,.T.);
#705=ORIENTED_EDGE('',*,*,#519,.T.);
#706=ORIENTED_EDGE('',*,*,#522,.F.);
#707=ORIENTED_EDGE('',*,*,#502,.F.);
#708=ORIENTED_EDGE('',*,*,#523,.F.);
#709=ORIENTED_EDGE('',*,*,#456,.T.);
#710=ORIENTED_EDGE('',*,*,#509,.T.);
#711=ORIENTED_EDGE('',*,*,#524,.T.);
#712=ORIENTED_EDGE('',*,*,#449,.T.);
#713=ORIENTED_EDGE('',*,*,#523,.T.);
#714=ORIENTED_EDGE('',*,*,#521,.F.);
#715=ORIENTED_EDGE('',*,*,#450,.T.);
#716=ORIENTED_EDGE('',*,*,#524,.F.);
#717=ORIENTED_EDGE('',*,*,#508,.F.);
#718=ORIENTED_EDGE('',*,*,#525,.T.);
#719=ORIENTED_EDGE('',*,*,#526,.T.);
#720=ORIENTED_EDGE('',*,*,#527,.T.);
#721=ORIENTED_EDGE('',*,*,#528,.T.);
#722=ORIENTED_EDGE('',*,*,#527,.F.);
#723=ORIENTED_EDGE('',*,*,#529,.F.);
#724=ORIENTED_EDGE('',*,*,#530,.F.);
#725=ORIENTED_EDGE('',*,*,#531,.F.);
#726=ORIENTED_EDGE('',*,*,#532,.F.);
#727=ORIENTED_EDGE('',*,*,#533,.F.);
#728=ORIENTED_EDGE('',*,*,#534,.F.);
#729=ORIENTED_EDGE('',*,*,#535,.F.);
#730=ORIENTED_EDGE('',*,*,#536,.T.);
#731=ORIENTED_EDGE('',*,*,#537,.T.);
#732=ORIENTED_EDGE('',*,*,#538,.T.);
#733=ORIENTED_EDGE('',*,*,#539,.T.);
#734=ORIENTED_EDGE('',*,*,#515,.T.);
#735=ORIENTED_EDGE('',*,*,#516,.F.);
#736=ORIENTED_EDGE('',*,*,#494,.T.);
#737=ORIENTED_EDGE('',*,*,#497,.F.);
#738=ORIENTED_EDGE('',*,*,#499,.T.);
#739=ORIENTED_EDGE('',*,*,#501,.F.);
#740=ORIENTED_EDGE('',*,*,#511,.T.);
#741=ORIENTED_EDGE('',*,*,#513,.F.);
#742=ORIENTED_EDGE('',*,*,#526,.F.);
#743=ORIENTED_EDGE('',*,*,#540,.F.);
#744=ORIENTED_EDGE('',*,*,#541,.F.);
#745=ORIENTED_EDGE('',*,*,#529,.T.);
#746=ORIENTED_EDGE('',*,*,#542,.T.);
#747=ORIENTED_EDGE('',*,*,#543,.T.);
#748=ORIENTED_EDGE('',*,*,#530,.T.);
#749=ORIENTED_EDGE('',*,*,#541,.T.);
#750=ORIENTED_EDGE('',*,*,#544,.T.);
#751=ORIENTED_EDGE('',*,*,#545,.T.);
#752=ORIENTED_EDGE('',*,*,#532,.T.);
#753=ORIENTED_EDGE('',*,*,#546,.T.);
#754=ORIENTED_EDGE('',*,*,#545,.F.);
#755=ORIENTED_EDGE('',*,*,#547,.F.);
#756=ORIENTED_EDGE('',*,*,#548,.F.);
#757=ORIENTED_EDGE('',*,*,#533,.T.);
#758=ORIENTED_EDGE('',*,*,#549,.T.);
#759=ORIENTED_EDGE('',*,*,#550,.T.);
#760=ORIENTED_EDGE('',*,*,#534,.T.);
#761=ORIENTED_EDGE('',*,*,#548,.T.);
#762=ORIENTED_EDGE('',*,*,#536,.F.);
#763=ORIENTED_EDGE('',*,*,#551,.T.);
#764=ORIENTED_EDGE('',*,*,#552,.F.);
#765=ORIENTED_EDGE('',*,*,#551,.F.);
#766=ORIENTED_EDGE('',*,*,#537,.F.);
#767=ORIENTED_EDGE('',*,*,#553,.T.);
#768=ORIENTED_EDGE('',*,*,#554,.F.);
#769=ORIENTED_EDGE('',*,*,#553,.F.);
#770=ORIENTED_EDGE('',*,*,#538,.F.);
#771=ORIENTED_EDGE('',*,*,#555,.T.);
#772=ORIENTED_EDGE('',*,*,#556,.F.);
#773=ORIENTED_EDGE('',*,*,#555,.F.);
#774=ORIENTED_EDGE('',*,*,#539,.F.);
#775=ORIENTED_EDGE('',*,*,#557,.T.);
#776=ORIENTED_EDGE('',*,*,#558,.F.);
#777=ORIENTED_EDGE('',*,*,#557,.F.);
#778=ORIENTED_EDGE('',*,*,#460,.F.);
#779=ORIENTED_EDGE('',*,*,#559,.F.);
#780=ORIENTED_EDGE('',*,*,#461,.F.);
#781=ORIENTED_EDGE('',*,*,#444,.T.);
#782=ORIENTED_EDGE('',*,*,#528,.F.);
#783=ORIENTED_EDGE('',*,*,#535,.T.);
#784=ORIENTED_EDGE('',*,*,#550,.F.);
#785=ORIENTED_EDGE('',*,*,#560,.F.);
#786=ORIENTED_EDGE('',*,*,#543,.F.);
#787=ORIENTED_EDGE('',*,*,#561,.F.);
#788=ORIENTED_EDGE('',*,*,#546,.F.);
#789=ORIENTED_EDGE('',*,*,#531,.T.);
#790=ORIENTED_EDGE('',*,*,#525,.F.);
#791=ORIENTED_EDGE('',*,*,#560,.T.);
#792=ORIENTED_EDGE('',*,*,#549,.F.);
#793=ORIENTED_EDGE('',*,*,#547,.T.);
#794=ORIENTED_EDGE('',*,*,#544,.F.);
#795=ORIENTED_EDGE('',*,*,#561,.T.);
#796=ORIENTED_EDGE('',*,*,#542,.F.);
#797=ORIENTED_EDGE('',*,*,#540,.T.);
#798=ORIENTED_EDGE('',*,*,#468,.T.);
#799=ORIENTED_EDGE('',*,*,#466,.F.);
#800=ORIENTED_EDGE('',*,*,#464,.F.);
#801=ORIENTED_EDGE('',*,*,#462,.F.);
#802=ORIENTED_EDGE('',*,*,#559,.T.);
#803=ORIENTED_EDGE('',*,*,#459,.F.);
#804=ORIENTED_EDGE('',*,*,#457,.F.);
#805=ORIENTED_EDGE('',*,*,#440,.F.);
#806=ORIENTED_EDGE('',*,*,#552,.T.);
#807=ORIENTED_EDGE('',*,*,#554,.T.);
#808=ORIENTED_EDGE('',*,*,#556,.T.);
#809=ORIENTED_EDGE('',*,*,#558,.T.);
#810=CYLINDRICAL_SURFACE('',#904,0.15);
#811=CYLINDRICAL_SURFACE('',#916,0.15);
#812=CYLINDRICAL_SURFACE('',#918,0.15);
#813=CYLINDRICAL_SURFACE('',#921,0.15);
#814=CYLINDRICAL_SURFACE('',#929,0.1);
#815=CYLINDRICAL_SURFACE('',#935,0.1);
#816=CYLINDRICAL_SURFACE('',#941,0.1);
#817=CYLINDRICAL_SURFACE('',#947,0.1);
#818=CYLINDRICAL_SURFACE('',#949,0.25);
#819=CYLINDRICAL_SURFACE('',#952,0.25);
#820=CYLINDRICAL_SURFACE('',#960,0.25);
#821=CYLINDRICAL_SURFACE('',#963,0.25);
#822=CYLINDRICAL_SURFACE('',#965,0.1);
#823=CYLINDRICAL_SURFACE('',#967,0.1);
#824=CYLINDRICAL_SURFACE('',#969,0.1);
#825=CYLINDRICAL_SURFACE('',#971,0.1);
#826=CYLINDRICAL_SURFACE('',#973,0.25);
#827=CYLINDRICAL_SURFACE('',#985,0.25);
#828=CYLINDRICAL_SURFACE('',#987,0.25);
#829=CYLINDRICAL_SURFACE('',#990,0.25);
#830=CYLINDRICAL_SURFACE('',#992,0.0645);
#831=CYLINDRICAL_SURFACE('',#994,0.0645);
#832=CYLINDRICAL_SURFACE('',#996,0.0645);
#833=CYLINDRICAL_SURFACE('',#998,0.0645);
#834=ADVANCED_FACE('',(#98),#810,.F.);
#835=ADVANCED_FACE('',(#99,#22),#78,.F.);
#836=ADVANCED_FACE('',(#100),#79,.T.);
#837=ADVANCED_FACE('',(#101),#811,.F.);
#838=ADVANCED_FACE('',(#102),#812,.F.);
#839=ADVANCED_FACE('',(#103),#80,.T.);
#840=ADVANCED_FACE('',(#104),#813,.F.);
#841=ADVANCED_FACE('',(#105),#81,.F.);
#842=ADVANCED_FACE('',(#106),#18,.T.);
#843=ADVANCED_FACE('',(#107),#814,.T.);
#844=ADVANCED_FACE('',(#108),#19,.T.);
#845=ADVANCED_FACE('',(#109),#815,.T.);
#846=ADVANCED_FACE('',(#110),#20,.T.);
#847=ADVANCED_FACE('',(#111),#816,.T.);
#848=ADVANCED_FACE('',(#112),#21,.T.);
#849=ADVANCED_FACE('',(#113),#817,.T.);
#850=ADVANCED_FACE('',(#114),#82,.T.);
#851=ADVANCED_FACE('',(#115),#818,.T.);
#852=ADVANCED_FACE('',(#116),#83,.T.);
#853=ADVANCED_FACE('',(#117),#819,.T.);
#854=ADVANCED_FACE('',(#118,#23),#84,.F.);
#855=ADVANCED_FACE('',(#119),#85,.T.);
#856=ADVANCED_FACE('',(#120),#820,.T.);
#857=ADVANCED_FACE('',(#121),#86,.T.);
#858=ADVANCED_FACE('',(#122),#821,.T.);
#859=ADVANCED_FACE('',(#123),#822,.F.);
#860=ADVANCED_FACE('',(#124),#87,.F.);
#861=ADVANCED_FACE('',(#125),#823,.F.);
#862=ADVANCED_FACE('',(#126),#88,.F.);
#863=ADVANCED_FACE('',(#127),#824,.F.);
#864=ADVANCED_FACE('',(#128),#89,.F.);
#865=ADVANCED_FACE('',(#129),#825,.F.);
#866=ADVANCED_FACE('',(#130),#90,.F.);
#867=ADVANCED_FACE('',(#131),#826,.T.);
#868=ADVANCED_FACE('',(#132,#24,#25,#26,#27,#28),#91,.F.);
#869=ADVANCED_FACE('',(#133),#92,.T.);
#870=ADVANCED_FACE('',(#134),#827,.T.);
#871=ADVANCED_FACE('',(#135),#828,.T.);
#872=ADVANCED_FACE('',(#136),#93,.T.);
#873=ADVANCED_FACE('',(#137),#829,.T.);
#874=ADVANCED_FACE('',(#138),#830,.F.);
#875=ADVANCED_FACE('',(#139),#831,.F.);
#876=ADVANCED_FACE('',(#140),#832,.F.);
#877=ADVANCED_FACE('',(#141),#833,.F.);
#878=ADVANCED_FACE('',(#142),#94,.F.);
#879=ADVANCED_FACE('',(#143),#95,.T.);
#880=ADVANCED_FACE('',(#144),#96,.T.);
#881=ADVANCED_FACE('',(#145,#29,#30,#31,#32,#33),#97,.T.);
#882=CLOSED_SHELL('',(#834,#835,#836,#837,#838,#839,#840,#841,#842,#843,
#844,#845,#846,#847,#848,#849,#850,#851,#852,#853,#854,#855,#856,#857,#858,
#859,#860,#861,#862,#863,#864,#865,#866,#867,#868,#869,#870,#871,#872,#873,
#874,#875,#876,#877,#878,#879,#880,#881));
#883=DERIVED_UNIT_ELEMENT(#885,1.);
#884=DERIVED_UNIT_ELEMENT(#1540,-3.);
#885=(
CONVERSION_BASED_UNIT('gram',#887)
MASS_UNIT()
NAMED_UNIT(#1537)
);
#886=(
MASS_UNIT()
NAMED_UNIT(*)
SI_UNIT(.KILO.,.GRAM.)
);
#887=MASS_MEASURE_WITH_UNIT(MASS_MEASURE(0.001),#886);
#888=DERIVED_UNIT((#883,#884));
#889=MEASURE_REPRESENTATION_ITEM('density measure',
POSITIVE_RATIO_MEASURE(1.),#888);
#890=PROPERTY_DEFINITION_REPRESENTATION(#895,#892);
#891=PROPERTY_DEFINITION_REPRESENTATION(#896,#893);
#892=REPRESENTATION('material name',(#894),#1534);
#893=REPRESENTATION('density',(#889),#1534);
#894=DESCRIPTIVE_REPRESENTATION_ITEM('Generic','Generic');
#895=PROPERTY_DEFINITION('material property','material name',#1548);
#896=PROPERTY_DEFINITION('material property','density of part',#1548);
#897=DATE_TIME_ROLE('creation_date');
#898=APPLIED_DATE_AND_TIME_ASSIGNMENT(#899,#897,(#1548));
#899=DATE_AND_TIME(#900,#901);
#900=CALENDAR_DATE(2024,24,12);
#901=LOCAL_TIME(14,1,42.,#902);
#902=COORDINATED_UNIVERSAL_TIME_OFFSET(0,0,.BEHIND.);
#903=AXIS2_PLACEMENT_3D('',#1278,#1004,#1005);
#904=AXIS2_PLACEMENT_3D('',#1279,#1006,#1007);
#905=AXIS2_PLACEMENT_3D('',#1282,#1008,#1009);
#906=AXIS2_PLACEMENT_3D('',#1286,#1011,#1012);
#907=AXIS2_PLACEMENT_3D('',#1288,#1014,#1015);
#908=AXIS2_PLACEMENT_3D('',#1292,#1017,#1018);
#909=AXIS2_PLACEMENT_3D('',#1296,#1020,#1021);
#910=AXIS2_PLACEMENT_3D('',#1300,#1023,#1024);
#911=AXIS2_PLACEMENT_3D('',#1304,#1026,#1027);
#912=AXIS2_PLACEMENT_3D('',#1308,#1029,#1030);
#913=AXIS2_PLACEMENT_3D('',#1312,#1032,#1033);
#914=AXIS2_PLACEMENT_3D('',#1316,#1035,#1036);
#915=AXIS2_PLACEMENT_3D('',#1318,#1038,#1039);
#916=AXIS2_PLACEMENT_3D('',#1322,#1042,#1043);
#917=AXIS2_PLACEMENT_3D('',#1324,#1044,#1045);
#918=AXIS2_PLACEMENT_3D('',#1326,#1047,#1048);
#919=AXIS2_PLACEMENT_3D('',#1330,#1050,#1051);
#920=AXIS2_PLACEMENT_3D('',#1332,#1053,#1054);
#921=AXIS2_PLACEMENT_3D('',#1336,#1057,#1058);
#922=AXIS2_PLACEMENT_3D('',#1338,#1059,#1060);
#923=AXIS2_PLACEMENT_3D('',#1340,#1062,#1063);
#924=AXIS2_PLACEMENT_3D('',#1342,#1065,#1066);
#925=AXIS2_PLACEMENT_3D('',#1345,#1067,#1068);
#926=AXIS2_PLACEMENT_3D('',#1347,#1069,#1070);
#927=AXIS2_PLACEMENT_3D('',#1349,#1071,#1072);
#928=AXIS2_PLACEMENT_3D('',#1350,#1073,#1074);
#929=AXIS2_PLACEMENT_3D('',#1351,#1075,#1076);
#930=AXIS2_PLACEMENT_3D('',#1354,#1077,#1078);
#931=AXIS2_PLACEMENT_3D('',#1357,#1081,#1082);
#932=AXIS2_PLACEMENT_3D('',#1360,#1083,#1084);
#933=AXIS2_PLACEMENT_3D('',#1361,#1085,#1086);
#934=AXIS2_PLACEMENT_3D('',#1362,#1087,#1088);
#935=AXIS2_PLACEMENT_3D('',#1363,#1089,#1090);
#936=AXIS2_PLACEMENT_3D('',#1366,#1091,#1092);
#937=AXIS2_PLACEMENT_3D('',#1369,#1095,#1096);
#938=AXIS2_PLACEMENT_3D('',#1372,#1097,#1098);
#939=AXIS2_PLACEMENT_3D('',#1373,#1099,#1100);
#940=AXIS2_PLACEMENT_3D('',#1374,#1101,#1102);
#941=AXIS2_PLACEMENT_3D('',#1375,#1103,#1104);
#942=AXIS2_PLACEMENT_3D('',#1378,#1105,#1106);
#943=AXIS2_PLACEMENT_3D('',#1381,#1109,#1110);
#944=AXIS2_PLACEMENT_3D('',#1384,#1111,#1112);
#945=AXIS2_PLACEMENT_3D('',#1385,#1113,#1114);
#946=AXIS2_PLACEMENT_3D('',#1386,#1115,#1116);
#947=AXIS2_PLACEMENT_3D('',#1387,#1117,#1118);
#948=AXIS2_PLACEMENT_3D('',#1390,#1121,#1122);
#949=AXIS2_PLACEMENT_3D('',#1396,#1126,#1127);
#950=AXIS2_PLACEMENT_3D('',#1399,#1129,#1130);
#951=AXIS2_PLACEMENT_3D('',#1400,#1131,#1132);
#952=AXIS2_PLACEMENT_3D('',#1404,#1135,#1136);
#953=AXIS2_PLACEMENT_3D('',#1407,#1138,#1139);
#954=AXIS2_PLACEMENT_3D('',#1408,#1140,#1141);
#955=AXIS2_PLACEMENT_3D('',#1413,#1143,#1144);
#956=AXIS2_PLACEMENT_3D('',#1417,#1146,#1147);
#957=AXIS2_PLACEMENT_3D('',#1421,#1149,#1150);
#958=AXIS2_PLACEMENT_3D('',#1424,#1152,#1153);
#959=AXIS2_PLACEMENT_3D('',#1425,#1154,#1155);
#960=AXIS2_PLACEMENT_3D('',#1429,#1158,#1159);
#961=AXIS2_PLACEMENT_3D('',#1432,#1161,#1162);
#962=AXIS2_PLACEMENT_3D('',#1433,#1163,#1164);
#963=AXIS2_PLACEMENT_3D('',#1437,#1167,#1168);
#964=AXIS2_PLACEMENT_3D('',#1438,#1169,#1170);
#965=AXIS2_PLACEMENT_3D('',#1439,#1171,#1172);
#966=AXIS2_PLACEMENT_3D('',#1442,#1175,#1176);
#967=AXIS2_PLACEMENT_3D('',#1444,#1178,#1179);
#968=AXIS2_PLACEMENT_3D('',#1447,#1182,#1183);
#969=AXIS2_PLACEMENT_3D('',#1448,#1184,#1185);
#970=AXIS2_PLACEMENT_3D('',#1450,#1187,#1188);
#971=AXIS2_PLACEMENT_3D('',#1452,#1190,#1191);
#972=AXIS2_PLACEMENT_3D('',#1454,#1193,#1194);
#973=AXIS2_PLACEMENT_3D('',#1455,#1195,#1196);
#974=AXIS2_PLACEMENT_3D('',#1458,#1197,#1198);
#975=AXIS2_PLACEMENT_3D('',#1462,#1200,#1201);
#976=AXIS2_PLACEMENT_3D('',#1464,#1203,#1204);
#977=AXIS2_PLACEMENT_3D('',#1468,#1206,#1207);
#978=AXIS2_PLACEMENT_3D('',#1472,#1209,#1210);
#979=AXIS2_PLACEMENT_3D('',#1476,#1212,#1213);
#980=AXIS2_PLACEMENT_3D('',#1479,#1215,#1216);
#981=AXIS2_PLACEMENT_3D('',#1481,#1217,#1218);
#982=AXIS2_PLACEMENT_3D('',#1483,#1219,#1220);
#983=AXIS2_PLACEMENT_3D('',#1485,#1221,#1222);
#984=AXIS2_PLACEMENT_3D('',#1486,#1223,#1224);
#985=AXIS2_PLACEMENT_3D('',#1490,#1227,#1228);
#986=AXIS2_PLACEMENT_3D('',#1492,#1229,#1230);
#987=AXIS2_PLACEMENT_3D('',#1494,#1232,#1233);
#988=AXIS2_PLACEMENT_3D('',#1497,#1234,#1235);
#989=AXIS2_PLACEMENT_3D('',#1500,#1238,#1239);
#990=AXIS2_PLACEMENT_3D('',#1504,#1242,#1243);
#991=AXIS2_PLACEMENT_3D('',#1506,#1244,#1245);
#992=AXIS2_PLACEMENT_3D('',#1508,#1247,#1248);
#993=AXIS2_PLACEMENT_3D('',#1511,#1250,#1251);
#994=AXIS2_PLACEMENT_3D('',#1512,#1252,#1253);
#995=AXIS2_PLACEMENT_3D('',#1515,#1255,#1256);
#996=AXIS2_PLACEMENT_3D('',#1516,#1257,#1258);
#997=AXIS2_PLACEMENT_3D('',#1519,#1260,#1261);
#998=AXIS2_PLACEMENT_3D('',#1520,#1262,#1263);
#999=AXIS2_PLACEMENT_3D('',#1523,#1265,#1266);
#1000=AXIS2_PLACEMENT_3D('',#1524,#1267,#1268);
#1001=AXIS2_PLACEMENT_3D('',#1526,#1270,#1271);
#1002=AXIS2_PLACEMENT_3D('',#1528,#1273,#1274);
#1003=AXIS2_PLACEMENT_3D('',#1530,#1276,#1277);
#1004=DIRECTION('axis',(0.,0.,1.));
#1005=DIRECTION('refdir',(1.,0.,0.));
#1006=DIRECTION('center_axis',(-0.707106781186548,4.84820891982021E-17,
0.707106781186547));
#1007=DIRECTION('ref_axis',(-0.499999999999999,0.707106781186548,-0.5));
#1008=DIRECTION('center_axis',(0.,0.,1.));
#1009=DIRECTION('ref_axis',(-1.,-2.06048879092359E-16,0.));
#1010=DIRECTION('',(-0.707106781186548,4.84820891982021E-17,0.707106781186547));
#1011=DIRECTION('center_axis',(0.,0.,1.));
#1012=DIRECTION('ref_axis',(-1.,-2.06048879092359E-16,0.));
#1013=DIRECTION('',(0.707106781186548,-4.84820891982021E-17,-0.707106781186547));
#1014=DIRECTION('center_axis',(0.,0.,-1.));
#1015=DIRECTION('ref_axis',(-1.,0.,0.));
#1016=DIRECTION('',(-2.97597058033213E-16,1.,0.));
#1017=DIRECTION('center_axis',(0.,0.,1.));
#1018=DIRECTION('ref_axis',(-1.,3.60585538411628E-16,0.));
#1019=DIRECTION('',(-1.,0.,0.));
#1020=DIRECTION('center_axis',(0.,0.,1.));
#1021=DIRECTION('ref_axis',(1.,2.06048879092359E-16,0.));
#1022=DIRECTION('',(2.2319779352491E-16,-1.,0.));
#1023=DIRECTION('center_axis',(0.,0.,1.));
#1024=DIRECTION('ref_axis',(1.,-3.60585538411628E-16,0.));
#1025=DIRECTION('',(1.,-6.85640280762796E-17,0.));
#1026=DIRECTION('center_axis',(0.,0.,1.));
#1027=DIRECTION('ref_axis',(-0.707106781186549,0.707106781186546,0.));
#1028=DIRECTION('',(-1.,0.,0.));
#1029=DIRECTION('center_axis',(0.,0.,1.));
#1030=DIRECTION('ref_axis',(0.707106781186549,0.707106781186546,0.));
#1031=DIRECTION('',(2.61538177403909E-16,1.,0.));
#1032=DIRECTION('center_axis',(0.,0.,1.));
#1033=DIRECTION('ref_axis',(0.707106781186547,-0.707106781186547,0.));
#1034=DIRECTION('',(1.,1.10169043222755E-16,0.));
#1035=DIRECTION('center_axis',(0.,0.,1.));
#1036=DIRECTION('ref_axis',(-0.707106781186549,-0.707106781186546,0.));
#1037=DIRECTION('',(1.30769088701954E-16,-1.,0.));
#1038=DIRECTION('center_axis',(0.707106781186547,2.10432897796452E-16,0.707106781186548));
#1039=DIRECTION('ref_axis',(0.707106781186548,1.23259516440783E-32,-0.707106781186547));
#1040=DIRECTION('',(2.97597058033213E-16,-1.,0.));
#1041=DIRECTION('',(-0.707106781186548,0.,0.707106781186547));
#1042=DIRECTION('center_axis',(0.707106781186548,0.,-0.707106781186547));
#1043=DIRECTION('ref_axis',(-0.499999999999999,-0.707106781186549,-0.499999999999999));
#1044=DIRECTION('center_axis',(0.,0.,1.));
#1045=DIRECTION('ref_axis',(-1.,3.60585538411628E-16,0.));
#1046=DIRECTION('',(0.707106781186548,0.,-0.707106781186547));
#1047=DIRECTION('center_axis',(0.707106781186548,0.,0.707106781186547));
#1048=DIRECTION('ref_axis',(0.499999999999999,-0.707106781186548,-0.5));
#1049=DIRECTION('',(0.707106781186548,0.,0.707106781186547));
#1050=DIRECTION('center_axis',(0.,0.,1.));
#1051=DIRECTION('ref_axis',(1.,2.06048879092359E-16,0.));
#1052=DIRECTION('',(-0.707106781186548,0.,-0.707106781186547));
#1053=DIRECTION('center_axis',(-0.707106781186547,-1.57824673347339E-16,
0.707106781186548));
#1054=DIRECTION('ref_axis',(0.707106781186548,-1.23259516440783E-32,0.707106781186547));
#1055=DIRECTION('',(-2.2319779352491E-16,1.,0.));
#1056=DIRECTION('',(0.707106781186548,-4.84820891982021E-17,0.707106781186547));
#1057=DIRECTION('center_axis',(-0.707106781186548,4.84820891982021E-17,
-0.707106781186547));
#1058=DIRECTION('ref_axis',(0.499999999999999,0.707106781186549,-0.499999999999999));
#1059=DIRECTION('center_axis',(0.,0.,1.));
#1060=DIRECTION('ref_axis',(1.,-3.60585538411628E-16,0.));
#1061=DIRECTION('',(-0.707106781186548,4.84820891982021E-17,-0.707106781186547));
#1062=DIRECTION('center_axis',(6.85640280762796E-17,1.,0.));
#1063=DIRECTION('ref_axis',(1.,-6.85640280762796E-17,0.));
#1064=DIRECTION('',(1.,-6.85640280762796E-17,0.));
#1065=DIRECTION('center_axis',(0.,0.,1.));
#1066=DIRECTION('ref_axis',(1.,0.,0.));
#1067=DIRECTION('center_axis',(-1.,0.,0.));
#1068=DIRECTION('ref_axis',(0.,1.,0.));
#1069=DIRECTION('center_axis',(0.,0.,1.));
#1070=DIRECTION('ref_axis',(-0.707106781186548,0.707106781186547,0.));
#1071=DIRECTION('center_axis',(0.,1.,0.));
#1072=DIRECTION('ref_axis',(0.,0.,-1.));
#1073=DIRECTION('center_axis',(0.,0.,-1.));
#1074=DIRECTION('ref_axis',(-0.707106781186548,0.707106781186547,0.));
#1075=DIRECTION('center_axis',(2.69500225964567E-16,-1.,0.));
#1076=DIRECTION('ref_axis',(-0.707106781186544,-1.90565437310851E-16,-0.707106781186551));
#1077=DIRECTION('center_axis',(3.49676543189029E-15,1.,0.));
#1078=DIRECTION('ref_axis',(0.,0.,-1.));
#1079=DIRECTION('',(-2.69500225964567E-16,1.,0.));
#1080=DIRECTION('',(2.69500225964567E-16,-1.,0.));
#1081=DIRECTION('center_axis',(0.,0.,1.));
#1082=DIRECTION('ref_axis',(1.,0.,0.));
#1083=DIRECTION('center_axis',(-1.,0.,0.));
#1084=DIRECTION('ref_axis',(0.,0.,-1.));
#1085=DIRECTION('center_axis',(0.,0.,-1.));
#1086=DIRECTION('ref_axis',(-0.707106781186546,-0.707106781186549,0.));
#1087=DIRECTION('center_axis',(0.,0.,1.));
#1088=DIRECTION('ref_axis',(-0.707106781186546,-0.707106781186549,0.));
#1089=DIRECTION('center_axis',(1.,0.,0.));
#1090=DIRECTION('ref_axis',(0.,-0.707106781186549,-0.707106781186546));
#1091=DIRECTION('center_axis',(-1.,6.9935308637805E-15,0.));
#1092=DIRECTION('ref_axis',(0.,0.,-1.));
#1093=DIRECTION('',(-1.,0.,0.));
#1094=DIRECTION('',(1.,0.,0.));
#1095=DIRECTION('center_axis',(0.,0.,1.));
#1096=DIRECTION('ref_axis',(1.,0.,0.));
#1097=DIRECTION('center_axis',(0.,-1.,0.));
#1098=DIRECTION('ref_axis',(0.,0.,-1.));
#1099=DIRECTION('center_axis',(0.,0.,-1.));
#1100=DIRECTION('ref_axis',(0.707106781186548,-0.707106781186547,0.));
#1101=DIRECTION('center_axis',(0.,0.,1.));
#1102=DIRECTION('ref_axis',(0.707106781186548,-0.707106781186547,0.));
#1103=DIRECTION('center_axis',(-1.34750112982284E-16,1.,0.));
#1104=DIRECTION('ref_axis',(0.707106781186549,9.52827186554266E-17,-0.707106781186546));
#1105=DIRECTION('center_axis',(-3.49676543189024E-15,-1.,0.));
#1106=DIRECTION('ref_axis',(0.,0.,-1.));
#1107=DIRECTION('',(1.34750112982284E-16,-1.,0.));
#1108=DIRECTION('',(-1.34750112982284E-16,1.,0.));
#1109=DIRECTION('center_axis',(0.,0.,1.));
#1110=DIRECTION('ref_axis',(1.,0.,0.));
#1111=DIRECTION('center_axis',(1.,0.,0.));
#1112=DIRECTION('ref_axis',(0.,0.,-1.));
#1113=DIRECTION('center_axis',(0.,0.,-1.));
#1114=DIRECTION('ref_axis',(0.707106781186547,0.707106781186548,0.));
#1115=DIRECTION('center_axis',(0.,0.,1.));
#1116=DIRECTION('ref_axis',(0.707106781186547,0.707106781186548,0.));
#1117=DIRECTION('center_axis',(-1.,5.07513125092926E-17,0.));
#1118=DIRECTION('ref_axis',(3.58865972294385E-17,0.707106781186549,-0.707106781186546));
#1119=DIRECTION('',(1.,-5.07513125092926E-17,0.));
#1120=DIRECTION('',(-1.,5.07513125092926E-17,0.));
#1121=DIRECTION('center_axis',(1.,1.34750112982284E-16,0.));
#1122=DIRECTION('ref_axis',(-1.34750112982284E-16,1.,0.));
#1123=DIRECTION('',(0.,0.,-1.));
#1124=DIRECTION('',(-1.34750112982284E-16,1.,0.));
#1125=DIRECTION('',(0.,0.,1.));
#1126=DIRECTION('center_axis',(0.,0.,1.));
#1127=DIRECTION('ref_axis',(0.707106781186547,0.707106781186549,0.));
#1128=DIRECTION('',(0.,0.,1.));
#1129=DIRECTION('center_axis',(0.,0.,1.));
#1130=DIRECTION('ref_axis',(0.707106781186547,0.707106781186549,0.));
#1131=DIRECTION('center_axis',(5.07513125092926E-17,1.,0.));
#1132=DIRECTION('ref_axis',(-1.,5.07513125092926E-17,0.));
#1133=DIRECTION('',(0.,0.,-1.));
#1134=DIRECTION('',(-1.,5.07513125092926E-17,0.));
#1135=DIRECTION('center_axis',(0.,0.,1.));
#1136=DIRECTION('ref_axis',(-0.707106781186547,0.707106781186549,0.));
#1137=DIRECTION('',(0.,0.,1.));
#1138=DIRECTION('center_axis',(0.,0.,1.));
#1139=DIRECTION('ref_axis',(-0.707106781186547,0.707106781186549,0.));
#1140=DIRECTION('center_axis',(0.,0.,1.));
#1141=DIRECTION('ref_axis',(1.,0.,0.));
#1142=DIRECTION('',(1.30769088701954E-16,-1.,0.));
#1143=DIRECTION('center_axis',(0.,0.,-1.));
#1144=DIRECTION('ref_axis',(-0.707106781186549,-0.707106781186546,0.));
#1145=DIRECTION('',(1.,1.10169043222755E-16,0.));
#1146=DIRECTION('center_axis',(0.,0.,-1.));
#1147=DIRECTION('ref_axis',(0.707106781186547,-0.707106781186547,0.));
#1148=DIRECTION('',(2.61538177403909E-16,1.,0.));
#1149=DIRECTION('center_axis',(0.,0.,-1.));
#1150=DIRECTION('ref_axis',(0.707106781186549,0.707106781186546,0.));
#1151=DIRECTION('',(-1.,0.,0.));
#1152=DIRECTION('center_axis',(0.,0.,-1.));
#1153=DIRECTION('ref_axis',(-0.707106781186549,0.707106781186546,0.));
#1154=DIRECTION('center_axis',(-1.,-2.69500225964567E-16,0.));
#1155=DIRECTION('ref_axis',(2.69500225964567E-16,-1.,0.));
#1156=DIRECTION('',(0.,0.,-1.));
#1157=DIRECTION('',(2.69500225964567E-16,-1.,0.));
#1158=DIRECTION('center_axis',(0.,0.,1.));
#1159=DIRECTION('ref_axis',(-0.707106781186547,-0.707106781186549,0.));
#1160=DIRECTION('',(0.,0.,1.));
#1161=DIRECTION('center_axis',(0.,0.,1.));
#1162=DIRECTION('ref_axis',(-0.707106781186547,-0.707106781186549,0.));
#1163=DIRECTION('center_axis',(0.,-1.,0.));
#1164=DIRECTION('ref_axis',(1.,0.,0.));
#1165=DIRECTION('',(0.,0.,-1.));
#1166=DIRECTION('',(1.,0.,0.));
#1167=DIRECTION('center_axis',(0.,0.,1.));
#1168=DIRECTION('ref_axis',(0.707106781186549,-0.707106781186546,0.));
#1169=DIRECTION('center_axis',(0.,0.,1.));
#1170=DIRECTION('ref_axis',(0.707106781186549,-0.707106781186546,0.));
#1171=DIRECTION('center_axis',(0.,0.,1.));
#1172=DIRECTION('ref_axis',(0.707106781186547,-0.707106781186547,0.));
#1173=DIRECTION('',(0.,0.,1.));
#1174=DIRECTION('',(0.,0.,-1.));
#1175=DIRECTION('center_axis',(1.10169043222755E-16,-1.,0.));
#1176=DIRECTION('ref_axis',(1.,1.10169043222755E-16,0.));
#1177=DIRECTION('',(0.,0.,-1.));
#1178=DIRECTION('center_axis',(0.,0.,1.));
#1179=DIRECTION('ref_axis',(0.707106781186549,0.707106781186546,0.));
#1180=DIRECTION('',(0.,0.,1.));
#1181=DIRECTION('',(0.,0.,-1.));
#1182=DIRECTION('center_axis',(1.,-2.61538177403909E-16,0.));
#1183=DIRECTION('ref_axis',(2.61538177403909E-16,1.,0.));
#1184=DIRECTION('center_axis',(0.,0.,1.));
#1185=DIRECTION('ref_axis',(-0.707106781186549,-0.707106781186546,0.));
#1186=DIRECTION('',(0.,0.,1.));
#1187=DIRECTION('center_axis',(-1.,-1.30769088701954E-16,0.));
#1188=DIRECTION('ref_axis',(1.30769088701954E-16,-1.,0.));
#1189=DIRECTION('',(0.,0.,-1.));
#1190=DIRECTION('center_axis',(0.,0.,1.));
#1191=DIRECTION('ref_axis',(-0.707106781186549,0.707106781186546,0.));
#1192=DIRECTION('',(0.,0.,1.));
#1193=DIRECTION('center_axis',(0.,1.,0.));
#1194=DIRECTION('ref_axis',(-1.,0.,0.));
#1195=DIRECTION('center_axis',(0.,0.,1.));
#1196=DIRECTION('ref_axis',(-0.707106781186548,0.707106781186548,0.));
#1197=DIRECTION('center_axis',(0.,0.,-1.));
#1198=DIRECTION('ref_axis',(-0.707106781186548,0.707106781186548,0.));
#1199=DIRECTION('',(0.,0.,-1.));
#1200=DIRECTION('center_axis',(0.,0.,1.));
#1201=DIRECTION('ref_axis',(-0.707106781186548,0.707106781186548,0.));
#1202=DIRECTION('',(0.,0.,1.));
#1203=DIRECTION('center_axis',(0.,0.,1.));
#1204=DIRECTION('ref_axis',(1.,0.,0.));
#1205=DIRECTION('',(-1.,1.38030214416721E-16,0.));
#1206=DIRECTION('center_axis',(0.,0.,1.));
#1207=DIRECTION('ref_axis',(0.707106781186549,0.707106781186546,0.));
#1208=DIRECTION('',(-2.3311769545935E-16,1.,0.));
#1209=DIRECTION('center_axis',(0.,0.,1.));
#1210=DIRECTION('ref_axis',(0.707106781186549,-0.707106781186546,0.));
#1211=DIRECTION('',(1.,0.,0.));
#1212=DIRECTION('center_axis',(0.,0.,1.));
#1213=DIRECTION('ref_axis',(-0.707106781186549,-0.707106781186546,0.));
#1214=DIRECTION('',(2.3311769545935E-16,-1.,0.));
#1215=DIRECTION('center_axis',(0.,0.,1.));
#1216=DIRECTION('ref_axis',(1.,0.,0.));
#1217=DIRECTION('center_axis',(0.,0.,1.));
#1218=DIRECTION('ref_axis',(1.,0.,0.));
#1219=DIRECTION('center_axis',(0.,0.,1.));
#1220=DIRECTION('ref_axis',(1.,0.,0.));
#1221=DIRECTION('center_axis',(0.,0.,1.));
#1222=DIRECTION('ref_axis',(1.,0.,0.));
#1223=DIRECTION('center_axis',(1.38030214416721E-16,1.,0.));
#1224=DIRECTION('ref_axis',(-1.,1.38030214416721E-16,0.));
#1225=DIRECTION('',(-1.,1.38030214416721E-16,0.));
#1226=DIRECTION('',(0.,0.,1.));
#1227=DIRECTION('center_axis',(0.,0.,1.));
#1228=DIRECTION('ref_axis',(0.707106781186549,0.707106781186546,0.));
#1229=DIRECTION('center_axis',(0.,0.,-1.));
#1230=DIRECTION('ref_axis',(0.707106781186549,0.707106781186546,0.));
#1231=DIRECTION('',(0.,0.,-1.));
#1232=DIRECTION('center_axis',(0.,0.,1.));
#1233=DIRECTION('ref_axis',(0.707106781186549,-0.707106781186546,0.));
#1234=DIRECTION('center_axis',(0.,0.,-1.));
#1235=DIRECTION('ref_axis',(0.707106781186549,-0.707106781186546,0.));
#1236=DIRECTION('',(0.,0.,-1.));
#1237=DIRECTION('',(0.,0.,1.));
#1238=DIRECTION('center_axis',(0.,-1.,0.));
#1239=DIRECTION('ref_axis',(1.,0.,0.));
#1240=DIRECTION('',(1.,0.,0.));
#1241=DIRECTION('',(0.,0.,1.));
#1242=DIRECTION('center_axis',(0.,0.,1.));
#1243=DIRECTION('ref_axis',(-0.707106781186549,-0.707106781186546,0.));
#1244=DIRECTION('center_axis',(0.,0.,-1.));
#1245=DIRECTION('ref_axis',(-0.707106781186549,-0.707106781186546,0.));
#1246=DIRECTION('',(0.,0.,-1.));
#1247=DIRECTION('center_axis',(0.,0.,1.));
#1248=DIRECTION('ref_axis',(1.,0.,0.));
#1249=DIRECTION('',(0.,0.,1.));
#1250=DIRECTION('center_axis',(0.,0.,-1.));
#1251=DIRECTION('ref_axis',(1.,0.,0.));
#1252=DIRECTION('center_axis',(0.,0.,1.));
#1253=DIRECTION('ref_axis',(1.,0.,0.));
#1254=DIRECTION('',(0.,0.,1.));
#1255=DIRECTION('center_axis',(0.,0.,-1.));
#1256=DIRECTION('ref_axis',(1.,0.,0.));
#1257=DIRECTION('center_axis',(0.,0.,1.));
#1258=DIRECTION('ref_axis',(1.,0.,0.));
#1259=DIRECTION('',(0.,0.,1.));
#1260=DIRECTION('center_axis',(0.,0.,-1.));
#1261=DIRECTION('ref_axis',(1.,0.,0.));
#1262=DIRECTION('center_axis',(0.,0.,1.));
#1263=DIRECTION('ref_axis',(1.,0.,0.));
#1264=DIRECTION('',(0.,0.,1.));
#1265=DIRECTION('center_axis',(0.,0.,-1.));
#1266=DIRECTION('ref_axis',(1.,0.,0.));
#1267=DIRECTION('center_axis',(0.,-1.,0.));
#1268=DIRECTION('ref_axis',(-1.,0.,0.));
#1269=DIRECTION('',(-1.,0.,0.));
#1270=DIRECTION('center_axis',(-1.,-2.3311769545935E-16,0.));
#1271=DIRECTION('ref_axis',(2.3311769545935E-16,-1.,0.));
#1272=DIRECTION('',(2.3311769545935E-16,-1.,0.));
#1273=DIRECTION('center_axis',(1.,2.3311769545935E-16,0.));
#1274=DIRECTION('ref_axis',(-2.3311769545935E-16,1.,0.));
#1275=DIRECTION('',(-2.3311769545935E-16,1.,0.));
#1276=DIRECTION('center_axis',(0.,0.,1.));
#1277=DIRECTION('ref_axis',(1.,0.,0.));
#1278=CARTESIAN_POINT('',(0.,0.,0.));
#1279=CARTESIAN_POINT('Origin',(-2.89843398282202,2.2,0.599566017177982));
#1280=CARTESIAN_POINT('',(-2.33786796564404,2.35,0.0389999999999999));
#1281=CARTESIAN_POINT('',(-2.55,2.2,0.0389999999999999));
#1282=CARTESIAN_POINT('Origin',(-2.33786796564404,2.2,0.0389999999999998));
#1283=CARTESIAN_POINT('',(-3.24686796564404,2.35,0.948));
#1284=CARTESIAN_POINT('',(-2.89843398282202,2.35,0.599566017177982));
#1285=CARTESIAN_POINT('',(-3.459,2.2,0.948));
#1286=CARTESIAN_POINT('Origin',(-3.24686796564404,2.2,0.948));
#1287=CARTESIAN_POINT('',(-3.0045,2.2,0.493499999999999));
#1288=CARTESIAN_POINT('Origin',(0.,-3.49676543189026E-16,0.0389999999999999));
#1289=CARTESIAN_POINT('',(-2.55,-2.2,0.0389999999999999));
#1290=CARTESIAN_POINT('',(-2.55,2.35,0.0389999999999999));
#1291=CARTESIAN_POINT('',(-2.33786796564404,-2.35,0.0389999999999999));
#1292=CARTESIAN_POINT('Origin',(-2.33786796564404,-2.2,0.0389999999999998));
#1293=CARTESIAN_POINT('',(2.33786796564404,-2.35,0.0389999999999999));
#1294=CARTESIAN_POINT('',(-2.55,-2.35,0.0389999999999999));
#1295=CARTESIAN_POINT('',(2.55,-2.2,0.0389999999999999));
#1296=CARTESIAN_POINT('Origin',(2.33786796564404,-2.2,0.0389999999999999));
#1297=CARTESIAN_POINT('',(2.55,2.2,0.0389999999999999));
#1298=CARTESIAN_POINT('',(2.55,-2.35,0.0389999999999999));
#1299=CARTESIAN_POINT('',(2.33786796564404,2.35,0.0389999999999999));
#1300=CARTESIAN_POINT('Origin',(2.33786796564404,2.2,0.0389999999999999));
#1301=CARTESIAN_POINT('',(2.55,2.35,0.0389999999999999));
#1302=CARTESIAN_POINT('',(-1.487,1.337,0.0389999999999999));
#1303=CARTESIAN_POINT('',(-1.587,1.237,0.0389999999999999));
#1304=CARTESIAN_POINT('Origin',(-1.487,1.237,0.0389999999999999));
#1305=CARTESIAN_POINT('',(1.487,1.337,0.0389999999999999));
#1306=CARTESIAN_POINT('',(0.7935,1.337,0.0389999999999999));
#1307=CARTESIAN_POINT('',(1.587,1.237,0.0389999999999999));
#1308=CARTESIAN_POINT('Origin',(1.487,1.237,0.0389999999999999));
#1309=CARTESIAN_POINT('',(1.587,-1.237,0.0389999999999999));
#1310=CARTESIAN_POINT('',(1.587,-0.6685,0.0389999999999999));
#1311=CARTESIAN_POINT('',(1.487,-1.337,0.0389999999999999));
#1312=CARTESIAN_POINT('Origin',(1.487,-1.237,0.0389999999999999));
#1313=CARTESIAN_POINT('',(-1.487,-1.337,0.0389999999999999));
#1314=CARTESIAN_POINT('',(-0.7935,-1.337,0.0389999999999999));
#1315=CARTESIAN_POINT('',(-1.587,-1.237,0.0389999999999999));
#1316=CARTESIAN_POINT('Origin',(-1.487,-1.237,0.0389999999999999));
#1317=CARTESIAN_POINT('',(-1.587,0.6685,0.0389999999999999));
#1318=CARTESIAN_POINT('Origin',(-3.0045,-1.175,0.4935));
#1319=CARTESIAN_POINT('',(-3.459,-2.2,0.948));
#1320=CARTESIAN_POINT('',(-3.459,-1.175,0.948));
#1321=CARTESIAN_POINT('',(-1.7295,-2.2,-0.7815));
#1322=CARTESIAN_POINT('Origin',(-1.62343398282202,-2.2,-0.675433982822018));
#1323=CARTESIAN_POINT('',(-3.24686796564404,-2.35,0.948));
#1324=CARTESIAN_POINT('Origin',(-3.24686796564404,-2.2,0.948));
#1325=CARTESIAN_POINT('',(-1.62343398282202,-2.35,-0.675433982822018));
#1326=CARTESIAN_POINT('Origin',(2.89843398282202,-2.2,0.599566017177982));
#1327=CARTESIAN_POINT('',(3.24686796564404,-2.35,0.948));
#1328=CARTESIAN_POINT('',(2.89843398282202,-2.35,0.599566017177982));
#1329=CARTESIAN_POINT('',(3.459,-2.2,0.948));
#1330=CARTESIAN_POINT('Origin',(3.24686796564404,-2.2,0.948));
#1331=CARTESIAN_POINT('',(3.0045,-2.2,0.4935));
#1332=CARTESIAN_POINT('Origin',(3.0045,1.175,0.4935));
#1333=CARTESIAN_POINT('',(3.459,2.2,0.948));
#1334=CARTESIAN_POINT('',(3.459,1.175,0.948));
#1335=CARTESIAN_POINT('',(1.7295,2.2,-0.7815));
#1336=CARTESIAN_POINT('Origin',(1.62343398282202,2.2,-0.675433982822018));
#1337=CARTESIAN_POINT('',(3.24686796564404,2.35,0.948));
#1338=CARTESIAN_POINT('Origin',(3.24686796564404,2.2,0.948));
#1339=CARTESIAN_POINT('',(1.62343398282202,2.35,-0.675433982822018));
#1340=CARTESIAN_POINT('Origin',(-2.55,2.35,0.948));
#1341=CARTESIAN_POINT('',(-1.275,2.35,0.948));
#1342=CARTESIAN_POINT('Origin',(-3.195,2.345,0.1));
#1343=CARTESIAN_POINT('',(-3.195,2.595,0.1));
#1344=CARTESIAN_POINT('',(-3.195,2.495,0.));
#1345=CARTESIAN_POINT('Origin',(-3.195,2.495,0.1));
#1346=CARTESIAN_POINT('',(-3.345,2.345,0.));
#1347=CARTESIAN_POINT('Origin',(-3.195,2.345,0.));
#1348=CARTESIAN_POINT('',(-3.445,2.345,0.1));
#1349=CARTESIAN_POINT('Origin',(-3.345,2.345,0.1));
#1350=CARTESIAN_POINT('Origin',(-3.195,2.345,0.1));
#1351=CARTESIAN_POINT('Origin',(-3.345,1.2975,0.1));
#1352=CARTESIAN_POINT('',(-3.345,-2.345,0.));
#1353=CARTESIAN_POINT('',(-3.445,-2.345,0.1));
#1354=CARTESIAN_POINT('Origin',(-3.345,-2.345,0.1));
#1355=CARTESIAN_POINT('',(-3.445,1.2975,0.1));
#1356=CARTESIAN_POINT('',(-3.345,1.2975,0.));
#1357=CARTESIAN_POINT('Origin',(-3.195,-2.345,0.1));
#1358=CARTESIAN_POINT('',(-3.195,-2.495,0.));
#1359=CARTESIAN_POINT('',(-3.195,-2.595,0.1));
#1360=CARTESIAN_POINT('Origin',(-3.195,-2.495,0.1));
#1361=CARTESIAN_POINT('Origin',(-3.195,-2.345,0.1));
#1362=CARTESIAN_POINT('Origin',(-3.195,-2.345,0.));
#1363=CARTESIAN_POINT('Origin',(-1.7225,-2.495,0.1));
#1364=CARTESIAN_POINT('',(3.195,-2.495,0.));
#1365=CARTESIAN_POINT('',(3.195,-2.595,0.1));
#1366=CARTESIAN_POINT('Origin',(3.195,-2.495,0.1));
#1367=CARTESIAN_POINT('',(-1.7225,-2.595,0.1));
#1368=CARTESIAN_POINT('',(-1.7225,-2.495,0.));
#1369=CARTESIAN_POINT('Origin',(3.195,-2.345,0.1));
#1370=CARTESIAN_POINT('',(3.345,-2.345,0.));
#1371=CARTESIAN_POINT('',(3.445,-2.345,0.1));
#1372=CARTESIAN_POINT('Origin',(3.345,-2.345,0.1));
#1373=CARTESIAN_POINT('Origin',(3.195,-2.345,0.1));
#1374=CARTESIAN_POINT('Origin',(3.195,-2.345,0.));
#1375=CARTESIAN_POINT('Origin',(3.345,-1.2975,0.1));
#1376=CARTESIAN_POINT('',(3.345,2.345,0.));
#1377=CARTESIAN_POINT('',(3.445,2.345,0.1));
#1378=CARTESIAN_POINT('Origin',(3.345,2.345,0.1));
#1379=CARTESIAN_POINT('',(3.445,-1.2975,0.1));
#1380=CARTESIAN_POINT('',(3.345,-1.2975,0.));
#1381=CARTESIAN_POINT('Origin',(3.195,2.345,0.1));
#1382=CARTESIAN_POINT('',(3.195,2.495,0.));
#1383=CARTESIAN_POINT('',(3.195,2.595,0.1));
#1384=CARTESIAN_POINT('Origin',(3.195,2.495,0.1));
#1385=CARTESIAN_POINT('Origin',(3.195,2.345,0.1));
#1386=CARTESIAN_POINT('Origin',(3.195,2.345,0.));
#1387=CARTESIAN_POINT('Origin',(1.7225,2.495,0.1));
#1388=CARTESIAN_POINT('',(1.7225,2.595,0.1));
#1389=CARTESIAN_POINT('',(1.7225,2.495,0.));
#1390=CARTESIAN_POINT('Origin',(3.445,-2.595,0.));
#1391=CARTESIAN_POINT('',(3.445,2.345,0.869));
#1392=CARTESIAN_POINT('',(3.445,2.345,0.));
#1393=CARTESIAN_POINT('',(3.445,-2.345,0.869));
#1394=CARTESIAN_POINT('',(3.445,-2.595,0.869));
#1395=CARTESIAN_POINT('',(3.445,-2.345,0.));
#1396=CARTESIAN_POINT('Origin',(3.195,2.345,0.));
#1397=CARTESIAN_POINT('',(3.195,2.595,0.869));
#1398=CARTESIAN_POINT('',(3.195,2.595,0.));
#1399=CARTESIAN_POINT('Origin',(3.195,2.345,0.869));
#1400=CARTESIAN_POINT('Origin',(3.445,2.595,0.));
#1401=CARTESIAN_POINT('',(-3.195,2.595,0.869));
#1402=CARTESIAN_POINT('',(-3.195,2.595,0.));
#1403=CARTESIAN_POINT('',(3.445,2.595,0.869));
#1404=CARTESIAN_POINT('Origin',(-3.195,2.345,0.));
#1405=CARTESIAN_POINT('',(-3.445,2.345,0.869));
#1406=CARTESIAN_POINT('',(-3.445,2.345,0.));
#1407=CARTESIAN_POINT('Origin',(-3.195,2.345,0.869));
#1408=CARTESIAN_POINT('Origin',(0.,-1.74838271594513E-16,0.));
#1409=CARTESIAN_POINT('',(-1.587,1.237,0.));
#1410=CARTESIAN_POINT('',(-1.587,-1.237,0.));
#1411=CARTESIAN_POINT('',(-1.587,0.6685,0.));
#1412=CARTESIAN_POINT('',(-1.487,-1.337,0.));
#1413=CARTESIAN_POINT('Origin',(-1.487,-1.237,0.));
#1414=CARTESIAN_POINT('',(1.487,-1.337,0.));
#1415=CARTESIAN_POINT('',(-0.7935,-1.337,0.));
#1416=CARTESIAN_POINT('',(1.587,-1.237,0.));
#1417=CARTESIAN_POINT('Origin',(1.487,-1.237,0.));
#1418=CARTESIAN_POINT('',(1.587,1.237,0.));
#1419=CARTESIAN_POINT('',(1.587,-0.6685,0.));
#1420=CARTESIAN_POINT('',(1.487,1.337,0.));
#1421=CARTESIAN_POINT('Origin',(1.487,1.237,0.));
#1422=CARTESIAN_POINT('',(-1.487,1.337,0.));
#1423=CARTESIAN_POINT('',(0.7935,1.337,0.));
#1424=CARTESIAN_POINT('Origin',(-1.487,1.237,0.));
#1425=CARTESIAN_POINT('Origin',(-3.445,2.595,0.));
#1426=CARTESIAN_POINT('',(-3.445,-2.345,0.869));
#1427=CARTESIAN_POINT('',(-3.445,-2.345,0.));
#1428=CARTESIAN_POINT('',(-3.445,2.595,0.869));
#1429=CARTESIAN_POINT('Origin',(-3.195,-2.345,0.));
#1430=CARTESIAN_POINT('',(-3.195,-2.595,0.869));
#1431=CARTESIAN_POINT('',(-3.195,-2.595,0.));
#1432=CARTESIAN_POINT('Origin',(-3.195,-2.345,0.869));
#1433=CARTESIAN_POINT('Origin',(-3.445,-2.595,0.));
#1434=CARTESIAN_POINT('',(3.195,-2.595,0.869));
#1435=CARTESIAN_POINT('',(3.195,-2.595,0.));
#1436=CARTESIAN_POINT('',(-3.445,-2.595,0.869));
#1437=CARTESIAN_POINT('Origin',(3.195,-2.345,0.));
#1438=CARTESIAN_POINT('Origin',(3.195,-2.345,0.869));
#1439=CARTESIAN_POINT('Origin',(1.487,-1.237,0.));
#1440=CARTESIAN_POINT('',(1.487,-1.337,0.));
#1441=CARTESIAN_POINT('',(1.587,-1.237,0.));
#1442=CARTESIAN_POINT('Origin',(-1.587,-1.337,0.));
#1443=CARTESIAN_POINT('',(-1.487,-1.337,0.));
#1444=CARTESIAN_POINT('Origin',(1.487,1.237,0.));
#1445=CARTESIAN_POINT('',(1.587,1.237,0.));
#1446=CARTESIAN_POINT('',(1.487,1.337,0.));
#1447=CARTESIAN_POINT('Origin',(1.587,-1.337,0.));
#1448=CARTESIAN_POINT('Origin',(-1.487,-1.237,0.));
#1449=CARTESIAN_POINT('',(-1.587,-1.237,0.));
#1450=CARTESIAN_POINT('Origin',(-1.587,1.337,0.));
#1451=CARTESIAN_POINT('',(-1.587,1.237,0.));
#1452=CARTESIAN_POINT('Origin',(-1.487,1.237,0.));
#1453=CARTESIAN_POINT('',(-1.487,1.337,0.));
#1454=CARTESIAN_POINT('Origin',(1.587,1.337,0.));
#1455=CARTESIAN_POINT('Origin',(-3.55,2.75,0.869));
#1456=CARTESIAN_POINT('',(-3.8,2.75,0.948));
#1457=CARTESIAN_POINT('',(-3.55,3.,0.948));
#1458=CARTESIAN_POINT('Origin',(-3.55,2.75,0.948));
#1459=CARTESIAN_POINT('',(-3.55,3.,0.869));
#1460=CARTESIAN_POINT('',(-3.55,3.,0.869));
#1461=CARTESIAN_POINT('',(-3.8,2.75,0.869));
#1462=CARTESIAN_POINT('Origin',(-3.55,2.75,0.869));
#1463=CARTESIAN_POINT('',(-3.8,2.75,0.869));
#1464=CARTESIAN_POINT('Origin',(0.,1.74838271594513E-16,0.869));
#1465=CARTESIAN_POINT('',(3.55,3.,0.869));
#1466=CARTESIAN_POINT('',(3.8,3.,0.869));
#1467=CARTESIAN_POINT('',(3.8,2.75,0.869));
#1468=CARTESIAN_POINT('Origin',(3.55,2.75,0.869));
#1469=CARTESIAN_POINT('',(3.8,-2.75,0.869));
#1470=CARTESIAN_POINT('',(3.8,-3.,0.869));
#1471=CARTESIAN_POINT('',(3.55,-3.,0.869));
#1472=CARTESIAN_POINT('Origin',(3.55,-2.75,0.869));
#1473=CARTESIAN_POINT('',(-3.55,-3.,0.869));
#1474=CARTESIAN_POINT('',(-3.8,-3.,0.869));
#1475=CARTESIAN_POINT('',(-3.8,-2.75,0.869));
#1476=CARTESIAN_POINT('Origin',(-3.55,-2.75,0.869));
#1477=CARTESIAN_POINT('',(-3.8,3.,0.869));
#1478=CARTESIAN_POINT('',(-2.7145,2.76,0.869000000000001));
#1479=CARTESIAN_POINT('Origin',(-2.65,2.76,0.869000000000001));
#1480=CARTESIAN_POINT('',(-2.7145,-2.76,0.869000000000001));
#1481=CARTESIAN_POINT('Origin',(-2.65,-2.76,0.869000000000001));
#1482=CARTESIAN_POINT('',(2.5855,2.76,0.869000000000001));
#1483=CARTESIAN_POINT('Origin',(2.65,2.76,0.869000000000001));
#1484=CARTESIAN_POINT('',(2.5855,-2.76,0.869000000000001));
#1485=CARTESIAN_POINT('Origin',(2.65,-2.76,0.869000000000001));
#1486=CARTESIAN_POINT('Origin',(3.8,3.,0.869));
#1487=CARTESIAN_POINT('',(3.55,3.,0.948));
#1488=CARTESIAN_POINT('',(3.8,3.,0.948));
#1489=CARTESIAN_POINT('',(3.55,3.,0.869));
#1490=CARTESIAN_POINT('Origin',(3.55,2.75,0.869));
#1491=CARTESIAN_POINT('',(3.8,2.75,0.948));
#1492=CARTESIAN_POINT('Origin',(3.55,2.75,0.948));
#1493=CARTESIAN_POINT('',(3.8,2.75,0.869));
#1494=CARTESIAN_POINT('Origin',(3.55,-2.75,0.869));
#1495=CARTESIAN_POINT('',(3.8,-2.75,0.948));
#1496=CARTESIAN_POINT('',(3.55,-3.,0.948));
#1497=CARTESIAN_POINT('Origin',(3.55,-2.75,0.948));
#1498=CARTESIAN_POINT('',(3.55,-3.,0.869));
#1499=CARTESIAN_POINT('',(3.8,-2.75,0.869));
#1500=CARTESIAN_POINT('Origin',(-3.8,-3.,0.869));
#1501=CARTESIAN_POINT('',(-3.55,-3.,0.948));
#1502=CARTESIAN_POINT('',(-3.8,-3.,0.948));
#1503=CARTESIAN_POINT('',(-3.55,-3.,0.869));
#1504=CARTESIAN_POINT('Origin',(-3.55,-2.75,0.869));
#1505=CARTESIAN_POINT('',(-3.8,-2.75,0.948));
#1506=CARTESIAN_POINT('Origin',(-3.55,-2.75,0.948));
#1507=CARTESIAN_POINT('',(-3.8,-2.75,0.869));
#1508=CARTESIAN_POINT('Origin',(-2.65,2.76,-8.78127047624846));
#1509=CARTESIAN_POINT('',(-2.7145,2.76,0.948));
#1510=CARTESIAN_POINT('',(-2.7145,2.76,-8.78127047624846));
#1511=CARTESIAN_POINT('Origin',(-2.65,2.76,0.948));
#1512=CARTESIAN_POINT('Origin',(-2.65,-2.76,-8.78127047624846));
#1513=CARTESIAN_POINT('',(-2.7145,-2.76,0.948));
#1514=CARTESIAN_POINT('',(-2.7145,-2.76,-8.78127047624846));
#1515=CARTESIAN_POINT('Origin',(-2.65,-2.76,0.948));
#1516=CARTESIAN_POINT('Origin',(2.65,2.76,-8.78127047624846));
#1517=CARTESIAN_POINT('',(2.5855,2.76,0.948));
#1518=CARTESIAN_POINT('',(2.5855,2.76,-8.78127047624846));
#1519=CARTESIAN_POINT('Origin',(2.65,2.76,0.948));
#1520=CARTESIAN_POINT('Origin',(2.65,-2.76,-8.78127047624846));
#1521=CARTESIAN_POINT('',(2.5855,-2.76,0.948));
#1522=CARTESIAN_POINT('',(2.5855,-2.76,-8.78127047624846));
#1523=CARTESIAN_POINT('Origin',(2.65,-2.76,0.948));
#1524=CARTESIAN_POINT('Origin',(2.55,-2.35,0.948));
#1525=CARTESIAN_POINT('',(1.275,-2.35,0.948));
#1526=CARTESIAN_POINT('Origin',(-3.8,3.,0.869));
#1527=CARTESIAN_POINT('',(-3.8,3.,0.948));
#1528=CARTESIAN_POINT('Origin',(3.8,-3.,0.869));
#1529=CARTESIAN_POINT('',(3.8,-3.,0.948));
#1530=CARTESIAN_POINT('Origin',(0.,0.,0.948));
#1531=CARTESIAN_POINT('',(2.55,6.99353086378051E-16,0.));
#1532=UNCERTAINTY_MEASURE_WITH_UNIT(LENGTH_MEASURE(0.000393700787401575),
#1538,'DISTANCE_ACCURACY_VALUE',
'Maximum model space distance between geometric entities at asserted c
onnectivities');
#1533=UNCERTAINTY_MEASURE_WITH_UNIT(LENGTH_MEASURE(0.000393700787401575),
#1538,'DISTANCE_ACCURACY_VALUE',
'Maximum model space distance between geometric entities at asserted c
onnectivities');
#1534=(
GEOMETRIC_REPRESENTATION_CONTEXT(3)
GLOBAL_UNCERTAINTY_ASSIGNED_CONTEXT((#1532))
GLOBAL_UNIT_ASSIGNED_CONTEXT((#1538,#1542,#1543))
REPRESENTATION_CONTEXT('','3D')
);
#1535=(
GEOMETRIC_REPRESENTATION_CONTEXT(3)
GLOBAL_UNCERTAINTY_ASSIGNED_CONTEXT((#1533))
GLOBAL_UNIT_ASSIGNED_CONTEXT((#1538,#1542,#1543))
REPRESENTATION_CONTEXT('','3D')
);
#1536=DIMENSIONAL_EXPONENTS(1.,0.,0.,0.,0.,0.,0.);
#1537=DIMENSIONAL_EXPONENTS(0.,1.,0.,0.,0.,0.,0.);
#1538=(
CONVERSION_BASED_UNIT('inch',#1541)
LENGTH_UNIT()
NAMED_UNIT(#1536)
);
#1539=(
LENGTH_UNIT()
NAMED_UNIT(*)
SI_UNIT(.MILLI.,.METRE.)
);
#1540=(
LENGTH_UNIT()
NAMED_UNIT(*)
SI_UNIT(.CENTI.,.METRE.)
);
#1541=LENGTH_MEASURE_WITH_UNIT(LENGTH_MEASURE(25.4),#1539);
#1542=(
NAMED_UNIT(*)
PLANE_ANGLE_UNIT()
SI_UNIT($,.RADIAN.)
);
#1543=(
NAMED_UNIT(*)
SI_UNIT($,.STERADIAN.)
SOLID_ANGLE_UNIT()
);
#1544=SHAPE_DEFINITION_REPRESENTATION(#1545,#1546);
#1545=PRODUCT_DEFINITION_SHAPE('',$,#1548);
#1546=SHAPE_REPRESENTATION('',(#903),#1534);
#1547=PRODUCT_DEFINITION_CONTEXT('part definition',#1552,'design');
#1548=PRODUCT_DEFINITION('i-4023-Tai-CoverTop-V3',
'i-4023-Tai-CoverTop-V3',#1549,#1547);
#1549=PRODUCT_DEFINITION_FORMATION('',$,#1554);
#1550=PRODUCT_RELATED_PRODUCT_CATEGORY('i-4023-Tai-CoverTop-V3',
'i-4023-Tai-CoverTop-V3',(#1554));
#1551=APPLICATION_PROTOCOL_DEFINITION('international standard',
'automotive_design',2009,#1552);
#1552=APPLICATION_CONTEXT(
'Core Data for Automotive Mechanical Design Process');
#1553=PRODUCT_CONTEXT('part definition',#1552,'mechanical');
#1554=PRODUCT('i-4023-Tai-CoverTop-V3','i-4023-Tai-CoverTop-V3',$,(#1553));
#1555=PRESENTATION_STYLE_ASSIGNMENT((#1557));
#1556=PRESENTATION_STYLE_ASSIGNMENT((#1558));
#1557=SURFACE_STYLE_USAGE(.BOTH.,#1561);
#1558=SURFACE_STYLE_USAGE(.BOTH.,#1562);
#1559=SURFACE_STYLE_RENDERING_WITH_PROPERTIES($,#1569,(#1560));
#1560=SURFACE_STYLE_TRANSPARENT(0.);
#1561=SURFACE_SIDE_STYLE('',(#1563,#1559));
#1562=SURFACE_SIDE_STYLE('',(#1564));
#1563=SURFACE_STYLE_FILL_AREA(#1565);
#1564=SURFACE_STYLE_FILL_AREA(#1566);
#1565=FILL_AREA_STYLE('',(#1567));
#1566=FILL_AREA_STYLE('',(#1568));
#1567=FILL_AREA_STYLE_COLOUR('',#1569);
#1568=FILL_AREA_STYLE_COLOUR('',#1570);
#1569=COLOUR_RGB('',0.749019607843137,0.749019607843137,0.749019607843137);
#1570=COLOUR_RGB('',0.650980392156863,0.4,1.);
ENDSEC;
END-ISO-10303-21;
