ISO-10303-21;
HEADER;
/* Generated by software containing ST-Developer
 * from STEP Tools, Inc. (www.steptools.com) 
 */

FILE_DESCRIPTION(
/* description */ (''),
/* implementation_level */ '2;1');

FILE_NAME(
/* name */ 'BeamsplitterMounttoPolarisPinAdapterV3.stp',
/* time_stamp */ '2024-11-25T14:03:42-06:00',
/* author */ ('monolithic'),
/* organization */ (''),
/* preprocessor_version */ 'ST-DEVELOPER v20',
/* originating_system */ 'Autodesk Inventor 2024',
/* authorisation */ '');

FILE_SCHEMA (('AUTOMOTIVE_DESIGN { 1 0 10303 214 3 1 1 }'));
ENDSEC;

DATA;
#10=MECHANICAL_DESIGN_GEOMETRIC_PRESENTATION_REPRESENTATION('',(#42,#43,
#44,#45,#46,#47,#48,#49,#50,#51,#52,#53,#54,#55,#56,#57,#58),#947);
#11=GEOMETRICALLY_BOUNDED_WIREFRAME_SHAPE_REPRESENTATION('',(#12,#13,#14),
#946);
#12=GEOMETRIC_CURVE_SET('Sketch1',(#18,#19,#20,#21,#96,#22,#23,#24,#25,
#26,#27,#28,#29,#97,#98,#30,#31,#32,#33,#99,#34,#35,#36,#37,#100,#101,#102,
#38,#39,#40,#103,#104,#105,#106,#107,#41,#934,#935,#936,#937,#938,#939,
#940,#941));
#13=GEOMETRIC_CURVE_SET('Sketch3',(#942));
#14=GEOMETRIC_CURVE_SET('Sketch4',(#943));
#15=SHAPE_REPRESENTATION_RELATIONSHIP('SRR','None',#958,#17);
#16=SHAPE_REPRESENTATION_RELATIONSHIP('SRR','None',#958,#11);
#17=ADVANCED_BREP_SHAPE_REPRESENTATION('',(#59),#946);
#18=POLYLINE('',(#874,#875));
#19=POLYLINE('',(#876,#877));
#20=POLYLINE('',(#878,#879));
#21=POLYLINE('',(#880,#881));
#22=POLYLINE('',(#883,#884));
#23=POLYLINE('',(#885,#886));
#24=POLYLINE('',(#887,#888));
#25=POLYLINE('',(#889,#890));
#26=POLYLINE('',(#891,#892));
#27=POLYLINE('',(#893,#894));
#28=POLYLINE('',(#895,#896));
#29=POLYLINE('',(#897,#898));
#30=POLYLINE('',(#901,#902));
#31=POLYLINE('',(#903,#904));
#32=POLYLINE('',(#905,#906));
#33=POLYLINE('',(#907,#908));
#34=POLYLINE('',(#910,#911));
#35=POLYLINE('',(#912,#913));
#36=POLYLINE('',(#914,#915));
#37=POLYLINE('',(#916,#917));
#38=POLYLINE('',(#921,#922));
#39=POLYLINE('',(#923,#924));
#40=POLYLINE('',(#925,#926));
#41=POLYLINE('',(#932,#933));
#42=STYLED_ITEM('',(#967),#59);
#43=STYLED_ITEM('',(#968),#18);
#44=STYLED_ITEM('',(#968),#19);
#45=STYLED_ITEM('',(#968),#20);
#46=STYLED_ITEM('',(#968),#21);
#47=STYLED_ITEM('',(#968),#96);
#48=STYLED_ITEM('',(#968),#22);
#49=STYLED_ITEM('',(#968),#24);
#50=STYLED_ITEM('',(#968),#25);
#51=STYLED_ITEM('',(#968),#27);
#52=STYLED_ITEM('',(#968),#29);
#53=STYLED_ITEM('',(#968),#97);
#54=STYLED_ITEM('',(#968),#98);
#55=STYLED_ITEM('',(#968),#33);
#56=STYLED_ITEM('',(#968),#37);
#57=STYLED_ITEM('',(#968),#100);
#58=STYLED_ITEM('',(#968),#101);
#59=MANIFOLD_SOLID_BREP('Solid1',#509);
#60=FACE_BOUND('',#158,.T.);
#61=FACE_BOUND('',#161,.T.);
#62=FACE_BOUND('',#164,.T.);
#63=FACE_BOUND('',#167,.T.);
#64=FACE_BOUND('',#176,.T.);
#65=FACE_BOUND('',#177,.T.);
#66=FACE_BOUND('',#178,.T.);
#67=FACE_BOUND('',#179,.T.);
#68=FACE_BOUND('',#181,.T.);
#69=FACE_BOUND('',#182,.T.);
#70=FACE_BOUND('',#183,.T.);
#71=FACE_BOUND('',#184,.T.);
#72=FACE_BOUND('',#185,.T.);
#73=FACE_BOUND('',#186,.T.);
#74=CIRCLE('',#537,0.04);
#75=CIRCLE('',#538,0.04);
#76=CIRCLE('',#541,0.04);
#77=CIRCLE('',#542,0.04);
#78=CIRCLE('',#545,0.150000240771228);
#79=CIRCLE('',#546,0.150000240771228);
#80=CIRCLE('',#548,0.15);
#81=CIRCLE('',#549,0.15);
#82=CIRCLE('',#551,0.09);
#83=CIRCLE('',#553,0.15);
#84=CIRCLE('',#554,0.15);
#85=CIRCLE('',#556,0.09);
#86=CIRCLE('',#558,0.15);
#87=CIRCLE('',#559,0.15);
#88=CIRCLE('',#561,0.09);
#89=CIRCLE('',#563,0.15);
#90=CIRCLE('',#564,0.15);
#91=CIRCLE('',#566,0.09);
#92=CIRCLE('',#569,0.09);
#93=CIRCLE('',#571,0.09);
#94=CIRCLE('',#573,0.09);
#95=CIRCLE('',#575,0.09);
#96=CIRCLE('',#580,0.09);
#97=CIRCLE('',#581,0.09);
#98=CIRCLE('',#582,0.09);
#99=CIRCLE('',#583,0.0899999999999999);
#100=CIRCLE('',#584,0.15);
#101=CIRCLE('',#585,0.15);
#102=CIRCLE('',#586,0.15);
#103=CIRCLE('',#587,0.04);
#104=CIRCLE('',#588,0.04);
#105=CIRCLE('',#589,0.09);
#106=CIRCLE('',#590,0.04);
#107=CIRCLE('',#591,0.04);
#108=CYLINDRICAL_SURFACE('',#536,0.04);
#109=CYLINDRICAL_SURFACE('',#540,0.04);
#110=CYLINDRICAL_SURFACE('',#544,0.150000240771228);
#111=CYLINDRICAL_SURFACE('',#547,0.15);
#112=CYLINDRICAL_SURFACE('',#552,0.15);
#113=CYLINDRICAL_SURFACE('',#557,0.15);
#114=CYLINDRICAL_SURFACE('',#562,0.15);
#115=CYLINDRICAL_SURFACE('',#568,0.09);
#116=CYLINDRICAL_SURFACE('',#570,0.09);
#117=CYLINDRICAL_SURFACE('',#572,0.09);
#118=CYLINDRICAL_SURFACE('',#574,0.09);
#119=FACE_OUTER_BOUND('',#146,.T.);
#120=FACE_OUTER_BOUND('',#147,.T.);
#121=FACE_OUTER_BOUND('',#148,.T.);
#122=FACE_OUTER_BOUND('',#149,.T.);
#123=FACE_OUTER_BOUND('',#150,.T.);
#124=FACE_OUTER_BOUND('',#151,.T.);
#125=FACE_OUTER_BOUND('',#152,.T.);
#126=FACE_OUTER_BOUND('',#153,.T.);
#127=FACE_OUTER_BOUND('',#154,.T.);
#128=FACE_OUTER_BOUND('',#155,.T.);
#129=FACE_OUTER_BOUND('',#156,.T.);
#130=FACE_OUTER_BOUND('',#157,.T.);
#131=FACE_OUTER_BOUND('',#159,.T.);
#132=FACE_OUTER_BOUND('',#160,.T.);
#133=FACE_OUTER_BOUND('',#162,.T.);
#134=FACE_OUTER_BOUND('',#163,.T.);
#135=FACE_OUTER_BOUND('',#165,.T.);
#136=FACE_OUTER_BOUND('',#166,.T.);
#137=FACE_OUTER_BOUND('',#168,.T.);
#138=FACE_OUTER_BOUND('',#169,.T.);
#139=FACE_OUTER_BOUND('',#170,.T.);
#140=FACE_OUTER_BOUND('',#171,.T.);
#141=FACE_OUTER_BOUND('',#172,.T.);
#142=FACE_OUTER_BOUND('',#173,.T.);
#143=FACE_OUTER_BOUND('',#174,.T.);
#144=FACE_OUTER_BOUND('',#175,.T.);
#145=FACE_OUTER_BOUND('',#180,.T.);
#146=EDGE_LOOP('',(#352,#353,#354,#355));
#147=EDGE_LOOP('',(#356,#357,#358,#359));
#148=EDGE_LOOP('',(#360,#361,#362,#363));
#149=EDGE_LOOP('',(#364,#365,#366,#367));
#150=EDGE_LOOP('',(#368,#369,#370,#371));
#151=EDGE_LOOP('',(#372,#373,#374,#375));
#152=EDGE_LOOP('',(#376));
#153=EDGE_LOOP('',(#377,#378,#379,#380));
#154=EDGE_LOOP('',(#381));
#155=EDGE_LOOP('',(#382,#383,#384,#385));
#156=EDGE_LOOP('',(#386,#387,#388,#389));
#157=EDGE_LOOP('',(#390,#391));
#158=EDGE_LOOP('',(#392));
#159=EDGE_LOOP('',(#393,#394,#395,#396));
#160=EDGE_LOOP('',(#397));
#161=EDGE_LOOP('',(#398));
#162=EDGE_LOOP('',(#399,#400,#401,#402));
#163=EDGE_LOOP('',(#403));
#164=EDGE_LOOP('',(#404));
#165=EDGE_LOOP('',(#405,#406,#407,#408));
#166=EDGE_LOOP('',(#409));
#167=EDGE_LOOP('',(#410));
#168=EDGE_LOOP('',(#411,#412,#413,#414,#415,#416,#417,#418));
#169=EDGE_LOOP('',(#419,#420,#421,#422));
#170=EDGE_LOOP('',(#423,#424,#425,#426));
#171=EDGE_LOOP('',(#427,#428,#429,#430));
#172=EDGE_LOOP('',(#431,#432,#433,#434));
#173=EDGE_LOOP('',(#435,#436,#437,#438));
#174=EDGE_LOOP('',(#439,#440,#441,#442));
#175=EDGE_LOOP('',(#443,#444,#445,#446,#447,#448,#449,#450));
#176=EDGE_LOOP('',(#451,#452));
#177=EDGE_LOOP('',(#453));
#178=EDGE_LOOP('',(#454));
#179=EDGE_LOOP('',(#455));
#180=EDGE_LOOP('',(#456,#457,#458,#459));
#181=EDGE_LOOP('',(#460));
#182=EDGE_LOOP('',(#461));
#183=EDGE_LOOP('',(#462));
#184=EDGE_LOOP('',(#463));
#185=EDGE_LOOP('',(#464));
#186=EDGE_LOOP('',(#465));
#187=LINE('',#755,#222);
#188=LINE('',#757,#223);
#189=LINE('',#759,#224);
#190=LINE('',#760,#225);
#191=LINE('',#764,#226);
#192=LINE('',#766,#227);
#193=LINE('',#768,#228);
#194=LINE('',#769,#229);
#195=LINE('',#771,#230);
#196=LINE('',#772,#231);
#197=LINE('',#776,#232);
#198=LINE('',#778,#233);
#199=LINE('',#780,#234);
#200=LINE('',#781,#235);
#201=LINE('',#783,#236);
#202=LINE('',#788,#237);
#203=LINE('',#795,#238);
#204=LINE('',#803,#239);
#205=LINE('',#806,#240);
#206=LINE('',#817,#241);
#207=LINE('',#826,#242);
#208=LINE('',#835,#243);
#209=LINE('',#842,#244);
#210=LINE('',#844,#245);
#211=LINE('',#845,#246);
#212=LINE('',#846,#247);
#213=LINE('',#850,#248);
#214=LINE('',#854,#249);
#215=LINE('',#857,#250);
#216=LINE('',#862,#251);
#217=LINE('',#865,#252);
#218=LINE('',#867,#253);
#219=LINE('',#868,#254);
#220=LINE('',#870,#255);
#221=LINE('',#871,#256);
#222=VECTOR('',#596,0.393700787401575);
#223=VECTOR('',#597,0.393700787401575);
#224=VECTOR('',#598,0.393700787401575);
#225=VECTOR('',#599,0.393700787401575);
#226=VECTOR('',#602,0.393700787401575);
#227=VECTOR('',#603,0.393700787401575);
#228=VECTOR('',#604,0.393700787401575);
#229=VECTOR('',#605,0.393700787401575);
#230=VECTOR('',#608,0.393700787401575);
#231=VECTOR('',#609,0.393700787401575);
#232=VECTOR('',#612,0.393700787401575);
#233=VECTOR('',#613,0.393700787401575);
#234=VECTOR('',#614,0.393700787401575);
#235=VECTOR('',#615,0.393700787401575);
#236=VECTOR('',#618,0.393700787401575);
#237=VECTOR('',#623,0.04);
#238=VECTOR('',#632,0.04);
#239=VECTOR('',#641,0.393700787401575);
#240=VECTOR('',#644,0.393700787401575);
#241=VECTOR('',#659,0.15);
#242=VECTOR('',#670,0.15);
#243=VECTOR('',#681,0.15);
#244=VECTOR('',#690,0.393700787401575);
#245=VECTOR('',#691,0.393700787401575);
#246=VECTOR('',#692,0.393700787401575);
#247=VECTOR('',#693,0.393700787401575);
#248=VECTOR('',#698,0.09);
#249=VECTOR('',#703,0.09);
#250=VECTOR('',#706,0.09);
#251=VECTOR('',#713,0.09);
#252=VECTOR('',#716,0.393700787401575);
#253=VECTOR('',#717,0.393700787401575);
#254=VECTOR('',#718,0.393700787401575);
#255=VECTOR('',#721,0.393700787401575);
#256=VECTOR('',#722,0.393700787401575);
#257=VERTEX_POINT('',#753);
#258=VERTEX_POINT('',#754);
#259=VERTEX_POINT('',#756);
#260=VERTEX_POINT('',#758);
#261=VERTEX_POINT('',#762);
#262=VERTEX_POINT('',#763);
#263=VERTEX_POINT('',#765);
#264=VERTEX_POINT('',#767);
#265=VERTEX_POINT('',#774);
#266=VERTEX_POINT('',#775);
#267=VERTEX_POINT('',#777);
#268=VERTEX_POINT('',#779);
#269=VERTEX_POINT('',#785);
#270=VERTEX_POINT('',#787);
#271=VERTEX_POINT('',#792);
#272=VERTEX_POINT('',#794);
#273=VERTEX_POINT('',#799);
#274=VERTEX_POINT('',#800);
#275=VERTEX_POINT('',#802);
#276=VERTEX_POINT('',#804);
#277=VERTEX_POINT('',#811);
#278=VERTEX_POINT('',#814);
#279=VERTEX_POINT('',#816);
#280=VERTEX_POINT('',#820);
#281=VERTEX_POINT('',#823);
#282=VERTEX_POINT('',#825);
#283=VERTEX_POINT('',#829);
#284=VERTEX_POINT('',#832);
#285=VERTEX_POINT('',#834);
#286=VERTEX_POINT('',#838);
#287=VERTEX_POINT('',#841);
#288=VERTEX_POINT('',#843);
#289=VERTEX_POINT('',#848);
#290=VERTEX_POINT('',#852);
#291=VERTEX_POINT('',#856);
#292=VERTEX_POINT('',#860);
#293=VERTEX_POINT('',#864);
#294=VERTEX_POINT('',#866);
#295=EDGE_CURVE('',#257,#258,#187,.T.);
#296=EDGE_CURVE('',#259,#257,#188,.T.);
#297=EDGE_CURVE('',#260,#259,#189,.T.);
#298=EDGE_CURVE('',#260,#258,#190,.T.);
#299=EDGE_CURVE('',#261,#262,#191,.T.);
#300=EDGE_CURVE('',#263,#261,#192,.T.);
#301=EDGE_CURVE('',#264,#263,#193,.T.);
#302=EDGE_CURVE('',#262,#264,#194,.T.);
#303=EDGE_CURVE('',#264,#259,#195,.T.);
#304=EDGE_CURVE('',#260,#263,#196,.T.);
#305=EDGE_CURVE('',#265,#266,#197,.T.);
#306=EDGE_CURVE('',#267,#266,#198,.T.);
#307=EDGE_CURVE('',#267,#268,#199,.T.);
#308=EDGE_CURVE('',#268,#265,#200,.T.);
#309=EDGE_CURVE('',#257,#262,#201,.T.);
#310=EDGE_CURVE('',#269,#269,#74,.T.);
#311=EDGE_CURVE('',#269,#270,#202,.T.);
#312=EDGE_CURVE('',#270,#270,#75,.T.);
#313=EDGE_CURVE('',#271,#271,#76,.T.);
#314=EDGE_CURVE('',#271,#272,#203,.T.);
#315=EDGE_CURVE('',#272,#272,#77,.T.);
#316=EDGE_CURVE('',#273,#274,#78,.T.);
#317=EDGE_CURVE('',#273,#275,#204,.T.);
#318=EDGE_CURVE('',#275,#276,#79,.T.);
#319=EDGE_CURVE('',#274,#276,#205,.T.);
#320=EDGE_CURVE('',#274,#273,#80,.T.);
#321=EDGE_CURVE('',#276,#275,#81,.T.);
#322=EDGE_CURVE('',#277,#277,#82,.T.);
#323=EDGE_CURVE('',#278,#278,#83,.T.);
#324=EDGE_CURVE('',#278,#279,#206,.T.);
#325=EDGE_CURVE('',#279,#279,#84,.T.);
#326=EDGE_CURVE('',#280,#280,#85,.T.);
#327=EDGE_CURVE('',#281,#281,#86,.T.);
#328=EDGE_CURVE('',#281,#282,#207,.T.);
#329=EDGE_CURVE('',#282,#282,#87,.T.);
#330=EDGE_CURVE('',#283,#283,#88,.T.);
#331=EDGE_CURVE('',#284,#284,#89,.T.);
#332=EDGE_CURVE('',#284,#285,#208,.T.);
#333=EDGE_CURVE('',#285,#285,#90,.T.);
#334=EDGE_CURVE('',#286,#286,#91,.T.);
#335=EDGE_CURVE('',#258,#287,#209,.T.);
#336=EDGE_CURVE('',#288,#287,#210,.T.);
#337=EDGE_CURVE('',#288,#267,#211,.T.);
#338=EDGE_CURVE('',#266,#261,#212,.T.);
#339=EDGE_CURVE('',#289,#289,#92,.T.);
#340=EDGE_CURVE('',#289,#286,#213,.T.);
#341=EDGE_CURVE('',#290,#290,#93,.T.);
#342=EDGE_CURVE('',#290,#283,#214,.T.);
#343=EDGE_CURVE('',#277,#291,#215,.T.);
#344=EDGE_CURVE('',#291,#291,#94,.T.);
#345=EDGE_CURVE('',#292,#292,#95,.T.);
#346=EDGE_CURVE('',#292,#280,#216,.T.);
#347=EDGE_CURVE('',#293,#287,#217,.T.);
#348=EDGE_CURVE('',#294,#293,#218,.T.);
#349=EDGE_CURVE('',#294,#288,#219,.T.);
#350=EDGE_CURVE('',#268,#294,#220,.T.);
#351=EDGE_CURVE('',#265,#293,#221,.T.);
#352=ORIENTED_EDGE('',*,*,#295,.F.);
#353=ORIENTED_EDGE('',*,*,#296,.F.);
#354=ORIENTED_EDGE('',*,*,#297,.F.);
#355=ORIENTED_EDGE('',*,*,#298,.T.);
#356=ORIENTED_EDGE('',*,*,#299,.F.);
#357=ORIENTED_EDGE('',*,*,#300,.F.);
#358=ORIENTED_EDGE('',*,*,#301,.F.);
#359=ORIENTED_EDGE('',*,*,#302,.F.);
#360=ORIENTED_EDGE('',*,*,#297,.T.);
#361=ORIENTED_EDGE('',*,*,#303,.F.);
#362=ORIENTED_EDGE('',*,*,#301,.T.);
#363=ORIENTED_EDGE('',*,*,#304,.F.);
#364=ORIENTED_EDGE('',*,*,#305,.T.);
#365=ORIENTED_EDGE('',*,*,#306,.F.);
#366=ORIENTED_EDGE('',*,*,#307,.T.);
#367=ORIENTED_EDGE('',*,*,#308,.T.);
#368=ORIENTED_EDGE('',*,*,#296,.T.);
#369=ORIENTED_EDGE('',*,*,#309,.T.);
#370=ORIENTED_EDGE('',*,*,#302,.T.);
#371=ORIENTED_EDGE('',*,*,#303,.T.);
#372=ORIENTED_EDGE('',*,*,#310,.F.);
#373=ORIENTED_EDGE('',*,*,#311,.T.);
#374=ORIENTED_EDGE('',*,*,#312,.T.);
#375=ORIENTED_EDGE('',*,*,#311,.F.);
#376=ORIENTED_EDGE('',*,*,#312,.F.);
#377=ORIENTED_EDGE('',*,*,#313,.F.);
#378=ORIENTED_EDGE('',*,*,#314,.T.);
#379=ORIENTED_EDGE('',*,*,#315,.T.);
#380=ORIENTED_EDGE('',*,*,#314,.F.);
#381=ORIENTED_EDGE('',*,*,#315,.F.);
#382=ORIENTED_EDGE('',*,*,#316,.F.);
#383=ORIENTED_EDGE('',*,*,#317,.T.);
#384=ORIENTED_EDGE('',*,*,#318,.T.);
#385=ORIENTED_EDGE('',*,*,#319,.F.);
#386=ORIENTED_EDGE('',*,*,#320,.F.);
#387=ORIENTED_EDGE('',*,*,#319,.T.);
#388=ORIENTED_EDGE('',*,*,#321,.T.);
#389=ORIENTED_EDGE('',*,*,#317,.F.);
#390=ORIENTED_EDGE('',*,*,#321,.F.);
#391=ORIENTED_EDGE('',*,*,#318,.F.);
#392=ORIENTED_EDGE('',*,*,#322,.F.);
#393=ORIENTED_EDGE('',*,*,#323,.F.);
#394=ORIENTED_EDGE('',*,*,#324,.T.);
#395=ORIENTED_EDGE('',*,*,#325,.T.);
#396=ORIENTED_EDGE('',*,*,#324,.F.);
#397=ORIENTED_EDGE('',*,*,#325,.F.);
#398=ORIENTED_EDGE('',*,*,#326,.F.);
#399=ORIENTED_EDGE('',*,*,#327,.F.);
#400=ORIENTED_EDGE('',*,*,#328,.T.);
#401=ORIENTED_EDGE('',*,*,#329,.T.);
#402=ORIENTED_EDGE('',*,*,#328,.F.);
#403=ORIENTED_EDGE('',*,*,#329,.F.);
#404=ORIENTED_EDGE('',*,*,#330,.F.);
#405=ORIENTED_EDGE('',*,*,#331,.F.);
#406=ORIENTED_EDGE('',*,*,#332,.T.);
#407=ORIENTED_EDGE('',*,*,#333,.T.);
#408=ORIENTED_EDGE('',*,*,#332,.F.);
#409=ORIENTED_EDGE('',*,*,#333,.F.);
#410=ORIENTED_EDGE('',*,*,#334,.F.);
#411=ORIENTED_EDGE('',*,*,#335,.T.);
#412=ORIENTED_EDGE('',*,*,#336,.F.);
#413=ORIENTED_EDGE('',*,*,#337,.T.);
#414=ORIENTED_EDGE('',*,*,#306,.T.);
#415=ORIENTED_EDGE('',*,*,#338,.T.);
#416=ORIENTED_EDGE('',*,*,#299,.T.);
#417=ORIENTED_EDGE('',*,*,#309,.F.);
#418=ORIENTED_EDGE('',*,*,#295,.T.);
#419=ORIENTED_EDGE('',*,*,#339,.F.);
#420=ORIENTED_EDGE('',*,*,#340,.T.);
#421=ORIENTED_EDGE('',*,*,#334,.T.);
#422=ORIENTED_EDGE('',*,*,#340,.F.);
#423=ORIENTED_EDGE('',*,*,#341,.F.);
#424=ORIENTED_EDGE('',*,*,#342,.T.);
#425=ORIENTED_EDGE('',*,*,#330,.T.);
#426=ORIENTED_EDGE('',*,*,#342,.F.);
#427=ORIENTED_EDGE('',*,*,#322,.T.);
#428=ORIENTED_EDGE('',*,*,#343,.T.);
#429=ORIENTED_EDGE('',*,*,#344,.T.);
#430=ORIENTED_EDGE('',*,*,#343,.F.);
#431=ORIENTED_EDGE('',*,*,#345,.F.);
#432=ORIENTED_EDGE('',*,*,#346,.T.);
#433=ORIENTED_EDGE('',*,*,#326,.T.);
#434=ORIENTED_EDGE('',*,*,#346,.F.);
#435=ORIENTED_EDGE('',*,*,#347,.F.);
#436=ORIENTED_EDGE('',*,*,#348,.F.);
#437=ORIENTED_EDGE('',*,*,#349,.T.);
#438=ORIENTED_EDGE('',*,*,#336,.T.);
#439=ORIENTED_EDGE('',*,*,#350,.T.);
#440=ORIENTED_EDGE('',*,*,#348,.T.);
#441=ORIENTED_EDGE('',*,*,#351,.F.);
#442=ORIENTED_EDGE('',*,*,#308,.F.);
#443=ORIENTED_EDGE('',*,*,#305,.F.);
#444=ORIENTED_EDGE('',*,*,#351,.T.);
#445=ORIENTED_EDGE('',*,*,#347,.T.);
#446=ORIENTED_EDGE('',*,*,#335,.F.);
#447=ORIENTED_EDGE('',*,*,#298,.F.);
#448=ORIENTED_EDGE('',*,*,#304,.T.);
#449=ORIENTED_EDGE('',*,*,#300,.T.);
#450=ORIENTED_EDGE('',*,*,#338,.F.);
#451=ORIENTED_EDGE('',*,*,#316,.T.);
#452=ORIENTED_EDGE('',*,*,#320,.T.);
#453=ORIENTED_EDGE('',*,*,#345,.T.);
#454=ORIENTED_EDGE('',*,*,#341,.T.);
#455=ORIENTED_EDGE('',*,*,#339,.T.);
#456=ORIENTED_EDGE('',*,*,#307,.F.);
#457=ORIENTED_EDGE('',*,*,#337,.F.);
#458=ORIENTED_EDGE('',*,*,#349,.F.);
#459=ORIENTED_EDGE('',*,*,#350,.F.);
#460=ORIENTED_EDGE('',*,*,#310,.T.);
#461=ORIENTED_EDGE('',*,*,#313,.T.);
#462=ORIENTED_EDGE('',*,*,#323,.T.);
#463=ORIENTED_EDGE('',*,*,#327,.T.);
#464=ORIENTED_EDGE('',*,*,#331,.T.);
#465=ORIENTED_EDGE('',*,*,#344,.F.);
#466=PLANE('',#531);
#467=PLANE('',#532);
#468=PLANE('',#533);
#469=PLANE('',#534);
#470=PLANE('',#535);
#471=PLANE('',#539);
#472=PLANE('',#543);
#473=PLANE('',#550);
#474=PLANE('',#555);
#475=PLANE('',#560);
#476=PLANE('',#565);
#477=PLANE('',#567);
#478=PLANE('',#576);
#479=PLANE('',#577);
#480=PLANE('',#578);
#481=PLANE('',#579);
#482=ADVANCED_FACE('',(#119),#466,.F.);
#483=ADVANCED_FACE('',(#120),#467,.F.);
#484=ADVANCED_FACE('',(#121),#468,.T.);
#485=ADVANCED_FACE('',(#122),#469,.T.);
#486=ADVANCED_FACE('',(#123),#470,.T.);
#487=ADVANCED_FACE('',(#124),#108,.F.);
#488=ADVANCED_FACE('',(#125),#471,.F.);
#489=ADVANCED_FACE('',(#126),#109,.F.);
#490=ADVANCED_FACE('',(#127),#472,.F.);
#491=ADVANCED_FACE('',(#128),#110,.F.);
#492=ADVANCED_FACE('',(#129),#111,.T.);
#493=ADVANCED_FACE('',(#130,#60),#473,.T.);
#494=ADVANCED_FACE('',(#131),#112,.F.);
#495=ADVANCED_FACE('',(#132,#61),#474,.F.);
#496=ADVANCED_FACE('',(#133),#113,.F.);
#497=ADVANCED_FACE('',(#134,#62),#475,.F.);
#498=ADVANCED_FACE('',(#135),#114,.F.);
#499=ADVANCED_FACE('',(#136,#63),#476,.F.);
#500=ADVANCED_FACE('',(#137),#477,.T.);
#501=ADVANCED_FACE('',(#138),#115,.F.);
#502=ADVANCED_FACE('',(#139),#116,.F.);
#503=ADVANCED_FACE('',(#140),#117,.F.);
#504=ADVANCED_FACE('',(#141),#118,.F.);
#505=ADVANCED_FACE('',(#142),#478,.T.);
#506=ADVANCED_FACE('',(#143),#479,.T.);
#507=ADVANCED_FACE('',(#144,#64,#65,#66,#67),#480,.T.);
#508=ADVANCED_FACE('',(#145,#68,#69,#70,#71,#72,#73),#481,.F.);
#509=CLOSED_SHELL('',(#482,#483,#484,#485,#486,#487,#488,#489,#490,#491,
#492,#493,#494,#495,#496,#497,#498,#499,#500,#501,#502,#503,#504,#505,#506,
#507,#508));
#510=DERIVED_UNIT_ELEMENT(#512,1.);
#511=DERIVED_UNIT_ELEMENT(#952,-3.);
#512=(
CONVERSION_BASED_UNIT('gram',#514)
MASS_UNIT()
NAMED_UNIT(#949)
);
#513=(
MASS_UNIT()
NAMED_UNIT(*)
SI_UNIT(.KILO.,.GRAM.)
);
#514=MASS_MEASURE_WITH_UNIT(MASS_MEASURE(0.001),#513);
#515=DERIVED_UNIT((#510,#511));
#516=MEASURE_REPRESENTATION_ITEM('density measure',
POSITIVE_RATIO_MEASURE(1.),#515);
#517=PROPERTY_DEFINITION_REPRESENTATION(#522,#519);
#518=PROPERTY_DEFINITION_REPRESENTATION(#523,#520);
#519=REPRESENTATION('material name',(#521),#946);
#520=REPRESENTATION('density',(#516),#946);
#521=DESCRIPTIVE_REPRESENTATION_ITEM('Generic','Generic');
#522=PROPERTY_DEFINITION('material property','material name',#960);
#523=PROPERTY_DEFINITION('material property','density of part',#960);
#524=DATE_TIME_ROLE('creation_date');
#525=APPLIED_DATE_AND_TIME_ASSIGNMENT(#526,#524,(#960));
#526=DATE_AND_TIME(#527,#528);
#527=CALENDAR_DATE(2024,7,2);
#528=LOCAL_TIME(0,0,0.,#529);
#529=COORDINATED_UNIVERSAL_TIME_OFFSET(0,0,.BEHIND.);
#530=AXIS2_PLACEMENT_3D('',#751,#592,#593);
#531=AXIS2_PLACEMENT_3D('',#752,#594,#595);
#532=AXIS2_PLACEMENT_3D('',#761,#600,#601);
#533=AXIS2_PLACEMENT_3D('',#770,#606,#607);
#534=AXIS2_PLACEMENT_3D('',#773,#610,#611);
#535=AXIS2_PLACEMENT_3D('',#782,#616,#617);
#536=AXIS2_PLACEMENT_3D('',#784,#619,#620);
#537=AXIS2_PLACEMENT_3D('',#786,#621,#622);
#538=AXIS2_PLACEMENT_3D('',#789,#624,#625);
#539=AXIS2_PLACEMENT_3D('',#790,#626,#627);
#540=AXIS2_PLACEMENT_3D('',#791,#628,#629);
#541=AXIS2_PLACEMENT_3D('',#793,#630,#631);
#542=AXIS2_PLACEMENT_3D('',#796,#633,#634);
#543=AXIS2_PLACEMENT_3D('',#797,#635,#636);
#544=AXIS2_PLACEMENT_3D('',#798,#637,#638);
#545=AXIS2_PLACEMENT_3D('',#801,#639,#640);
#546=AXIS2_PLACEMENT_3D('',#805,#642,#643);
#547=AXIS2_PLACEMENT_3D('',#807,#645,#646);
#548=AXIS2_PLACEMENT_3D('',#808,#647,#648);
#549=AXIS2_PLACEMENT_3D('',#809,#649,#650);
#550=AXIS2_PLACEMENT_3D('',#810,#651,#652);
#551=AXIS2_PLACEMENT_3D('',#812,#653,#654);
#552=AXIS2_PLACEMENT_3D('',#813,#655,#656);
#553=AXIS2_PLACEMENT_3D('',#815,#657,#658);
#554=AXIS2_PLACEMENT_3D('',#818,#660,#661);
#555=AXIS2_PLACEMENT_3D('',#819,#662,#663);
#556=AXIS2_PLACEMENT_3D('',#821,#664,#665);
#557=AXIS2_PLACEMENT_3D('',#822,#666,#667);
#558=AXIS2_PLACEMENT_3D('',#824,#668,#669);
#559=AXIS2_PLACEMENT_3D('',#827,#671,#672);
#560=AXIS2_PLACEMENT_3D('',#828,#673,#674);
#561=AXIS2_PLACEMENT_3D('',#830,#675,#676);
#562=AXIS2_PLACEMENT_3D('',#831,#677,#678);
#563=AXIS2_PLACEMENT_3D('',#833,#679,#680);
#564=AXIS2_PLACEMENT_3D('',#836,#682,#683);
#565=AXIS2_PLACEMENT_3D('',#837,#684,#685);
#566=AXIS2_PLACEMENT_3D('',#839,#686,#687);
#567=AXIS2_PLACEMENT_3D('',#840,#688,#689);
#568=AXIS2_PLACEMENT_3D('',#847,#694,#695);
#569=AXIS2_PLACEMENT_3D('',#849,#696,#697);
#570=AXIS2_PLACEMENT_3D('',#851,#699,#700);
#571=AXIS2_PLACEMENT_3D('',#853,#701,#702);
#572=AXIS2_PLACEMENT_3D('',#855,#704,#705);
#573=AXIS2_PLACEMENT_3D('',#858,#707,#708);
#574=AXIS2_PLACEMENT_3D('',#859,#709,#710);
#575=AXIS2_PLACEMENT_3D('',#861,#711,#712);
#576=AXIS2_PLACEMENT_3D('',#863,#714,#715);
#577=AXIS2_PLACEMENT_3D('',#869,#719,#720);
#578=AXIS2_PLACEMENT_3D('',#872,#723,#724);
#579=AXIS2_PLACEMENT_3D('',#873,#725,#726);
#580=AXIS2_PLACEMENT_3D('',#882,#727,#728);
#581=AXIS2_PLACEMENT_3D('',#899,#729,#730);
#582=AXIS2_PLACEMENT_3D('',#900,#731,#732);
#583=AXIS2_PLACEMENT_3D('',#909,#733,#734);
#584=AXIS2_PLACEMENT_3D('',#918,#735,#736);
#585=AXIS2_PLACEMENT_3D('',#919,#737,#738);
#586=AXIS2_PLACEMENT_3D('',#920,#739,#740);
#587=AXIS2_PLACEMENT_3D('',#927,#741,#742);
#588=AXIS2_PLACEMENT_3D('',#928,#743,#744);
#589=AXIS2_PLACEMENT_3D('',#929,#745,#746);
#590=AXIS2_PLACEMENT_3D('',#930,#747,#748);
#591=AXIS2_PLACEMENT_3D('',#931,#749,#750);
#592=DIRECTION('axis',(0.,0.,1.));
#593=DIRECTION('refdir',(1.,0.,0.));
#594=DIRECTION('center_axis',(-1.,0.,0.));
#595=DIRECTION('ref_axis',(0.,1.,0.));
#596=DIRECTION('',(0.,-1.,0.));
#597=DIRECTION('',(0.,0.,-1.));
#598=DIRECTION('',(0.,1.,0.));
#599=DIRECTION('',(0.,0.,-1.));
#600=DIRECTION('center_axis',(1.,3.49676543189026E-16,0.));
#601=DIRECTION('ref_axis',(3.49676543189026E-16,-1.,0.));
#602=DIRECTION('',(-3.49676543189026E-16,1.,8.15157899044177E-32));
#603=DIRECTION('',(0.,0.,-1.));
#604=DIRECTION('',(3.49676543189026E-16,-1.,0.));
#605=DIRECTION('',(0.,0.,1.));
#606=DIRECTION('center_axis',(0.,0.,1.));
#607=DIRECTION('ref_axis',(1.,0.,0.));
#608=DIRECTION('',(1.,0.,0.));
#609=DIRECTION('',(-1.,0.,0.));
#610=DIRECTION('center_axis',(-1.,0.,0.));
#611=DIRECTION('ref_axis',(0.,0.,1.));
#612=DIRECTION('',(0.,0.,-1.));
#613=DIRECTION('',(0.,1.,0.));
#614=DIRECTION('',(0.,0.,1.));
#615=DIRECTION('',(0.,1.,0.));
#616=DIRECTION('center_axis',(0.,1.,0.));
#617=DIRECTION('ref_axis',(0.,0.,1.));
#618=DIRECTION('',(-1.,0.,2.3311769545935E-16));
#619=DIRECTION('center_axis',(0.,1.,0.));
#620=DIRECTION('ref_axis',(-1.,0.,0.));
#621=DIRECTION('center_axis',(0.,1.,0.));
#622=DIRECTION('ref_axis',(-1.,0.,0.));
#623=DIRECTION('',(0.,1.,0.));
#624=DIRECTION('center_axis',(0.,1.,0.));
#625=DIRECTION('ref_axis',(-1.,0.,0.));
#626=DIRECTION('center_axis',(0.,1.,0.));
#627=DIRECTION('ref_axis',(0.,0.,1.));
#628=DIRECTION('center_axis',(0.,1.,0.));
#629=DIRECTION('ref_axis',(-1.,0.,0.));
#630=DIRECTION('center_axis',(0.,1.,0.));
#631=DIRECTION('ref_axis',(-1.,0.,0.));
#632=DIRECTION('',(0.,1.,0.));
#633=DIRECTION('center_axis',(0.,1.,0.));
#634=DIRECTION('ref_axis',(-1.,0.,0.));
#635=DIRECTION('center_axis',(0.,1.,0.));
#636=DIRECTION('ref_axis',(0.,0.,1.));
#637=DIRECTION('center_axis',(0.,-1.,0.));
#638=DIRECTION('ref_axis',(2.45841725237063E-13,0.,-1.));
#639=DIRECTION('center_axis',(0.,-1.,0.));
#640=DIRECTION('ref_axis',(1.,0.,0.));
#641=DIRECTION('',(0.,-1.,0.));
#642=DIRECTION('center_axis',(0.,-1.,0.));
#643=DIRECTION('ref_axis',(1.,0.,0.));
#644=DIRECTION('',(0.,-1.,0.));
#645=DIRECTION('center_axis',(0.,-1.,0.));
#646=DIRECTION('ref_axis',(-1.,0.,0.));
#647=DIRECTION('center_axis',(0.,1.,0.));
#648=DIRECTION('ref_axis',(-1.,0.,0.));
#649=DIRECTION('center_axis',(0.,1.,0.));
#650=DIRECTION('ref_axis',(-1.,0.,0.));
#651=DIRECTION('center_axis',(0.,1.,0.));
#652=DIRECTION('ref_axis',(0.,0.,1.));
#653=DIRECTION('center_axis',(0.,1.,0.));
#654=DIRECTION('ref_axis',(1.,0.,0.));
#655=DIRECTION('center_axis',(0.,1.,0.));
#656=DIRECTION('ref_axis',(-1.,0.,0.));
#657=DIRECTION('center_axis',(0.,1.,0.));
#658=DIRECTION('ref_axis',(-1.,0.,0.));
#659=DIRECTION('',(0.,1.,0.));
#660=DIRECTION('center_axis',(0.,1.,0.));
#661=DIRECTION('ref_axis',(-1.,0.,0.));
#662=DIRECTION('center_axis',(0.,1.,0.));
#663=DIRECTION('ref_axis',(0.,0.,1.));
#664=DIRECTION('center_axis',(0.,-1.,0.));
#665=DIRECTION('ref_axis',(1.,0.,0.));
#666=DIRECTION('center_axis',(0.,1.,0.));
#667=DIRECTION('ref_axis',(-1.,0.,0.));
#668=DIRECTION('center_axis',(0.,1.,0.));
#669=DIRECTION('ref_axis',(-1.,0.,0.));
#670=DIRECTION('',(0.,1.,0.));
#671=DIRECTION('center_axis',(0.,1.,0.));
#672=DIRECTION('ref_axis',(-1.,0.,0.));
#673=DIRECTION('center_axis',(0.,1.,0.));
#674=DIRECTION('ref_axis',(0.,0.,1.));
#675=DIRECTION('center_axis',(0.,-1.,0.));
#676=DIRECTION('ref_axis',(1.,0.,0.));
#677=DIRECTION('center_axis',(0.,1.,0.));
#678=DIRECTION('ref_axis',(-1.,0.,0.));
#679=DIRECTION('center_axis',(0.,1.,0.));
#680=DIRECTION('ref_axis',(-1.,0.,0.));
#681=DIRECTION('',(0.,1.,0.));
#682=DIRECTION('center_axis',(0.,1.,0.));
#683=DIRECTION('ref_axis',(-1.,0.,0.));
#684=DIRECTION('center_axis',(0.,1.,0.));
#685=DIRECTION('ref_axis',(0.,0.,1.));
#686=DIRECTION('center_axis',(0.,-1.,0.));
#687=DIRECTION('ref_axis',(1.,0.,0.));
#688=DIRECTION('center_axis',(-2.3311769545935E-16,0.,-1.));
#689=DIRECTION('ref_axis',(-1.,0.,2.3311769545935E-16));
#690=DIRECTION('',(1.,0.,-2.3311769545935E-16));
#691=DIRECTION('',(0.,1.,0.));
#692=DIRECTION('',(-1.,0.,2.3311769545935E-16));
#693=DIRECTION('',(1.,1.22933159714892E-16,-2.3311769545935E-16));
#694=DIRECTION('center_axis',(0.,1.,0.));
#695=DIRECTION('ref_axis',(1.,0.,0.));
#696=DIRECTION('center_axis',(0.,-1.,0.));
#697=DIRECTION('ref_axis',(1.,0.,0.));
#698=DIRECTION('',(0.,-1.,0.));
#699=DIRECTION('center_axis',(0.,1.,0.));
#700=DIRECTION('ref_axis',(1.,0.,0.));
#701=DIRECTION('center_axis',(0.,-1.,0.));
#702=DIRECTION('ref_axis',(1.,0.,0.));
#703=DIRECTION('',(0.,-1.,0.));
#704=DIRECTION('center_axis',(0.,1.,0.));
#705=DIRECTION('ref_axis',(1.,0.,0.));
#706=DIRECTION('',(0.,-1.,0.));
#707=DIRECTION('center_axis',(0.,-1.,0.));
#708=DIRECTION('ref_axis',(1.,0.,0.));
#709=DIRECTION('center_axis',(0.,1.,0.));
#710=DIRECTION('ref_axis',(1.,0.,0.));
#711=DIRECTION('center_axis',(0.,-1.,0.));
#712=DIRECTION('ref_axis',(1.,0.,0.));
#713=DIRECTION('',(0.,-1.,0.));
#714=DIRECTION('center_axis',(1.,0.,0.));
#715=DIRECTION('ref_axis',(0.,0.,-1.));
#716=DIRECTION('',(0.,0.,-1.));
#717=DIRECTION('',(0.,1.,0.));
#718=DIRECTION('',(0.,0.,-1.));
#719=DIRECTION('center_axis',(0.,0.,1.));
#720=DIRECTION('ref_axis',(1.,0.,0.));
#721=DIRECTION('',(1.,0.,0.));
#722=DIRECTION('',(1.,0.,0.));
#723=DIRECTION('center_axis',(0.,1.,0.));
#724=DIRECTION('ref_axis',(0.,0.,1.));
#725=DIRECTION('center_axis',(0.,1.,0.));
#726=DIRECTION('ref_axis',(0.,0.,1.));
#727=DIRECTION('center_axis',(0.,1.,0.));
#728=DIRECTION('ref_axis',(-1.,0.,0.));
#729=DIRECTION('center_axis',(0.,1.,0.));
#730=DIRECTION('ref_axis',(-1.,0.,0.));
#731=DIRECTION('center_axis',(0.,1.,0.));
#732=DIRECTION('ref_axis',(-1.,0.,0.));
#733=DIRECTION('center_axis',(0.,1.,0.));
#734=DIRECTION('ref_axis',(-1.,0.,0.));
#735=DIRECTION('center_axis',(0.,1.,0.));
#736=DIRECTION('ref_axis',(-1.,0.,0.));
#737=DIRECTION('center_axis',(0.,1.,0.));
#738=DIRECTION('ref_axis',(-1.,0.,0.));
#739=DIRECTION('center_axis',(0.,1.,0.));
#740=DIRECTION('ref_axis',(-1.,0.,0.));
#741=DIRECTION('center_axis',(0.,1.,0.));
#742=DIRECTION('ref_axis',(-1.,0.,0.));
#743=DIRECTION('center_axis',(0.,1.,0.));
#744=DIRECTION('ref_axis',(-1.,0.,0.));
#745=DIRECTION('center_axis',(0.,1.,0.));
#746=DIRECTION('ref_axis',(-1.,0.,0.));
#747=DIRECTION('center_axis',(0.,1.,0.));
#748=DIRECTION('ref_axis',(-1.,0.,0.));
#749=DIRECTION('center_axis',(0.,1.,0.));
#750=DIRECTION('ref_axis',(-1.,0.,0.));
#751=CARTESIAN_POINT('',(0.,0.,0.));
#752=CARTESIAN_POINT('Origin',(0.35,0.25,-0.75));
#753=CARTESIAN_POINT('',(0.35,0.5,-0.8));
#754=CARTESIAN_POINT('',(0.35,0.25,-0.8));
#755=CARTESIAN_POINT('',(0.35,0.125,-0.8));
#756=CARTESIAN_POINT('',(0.35,0.5,-0.75));
#757=CARTESIAN_POINT('',(0.35,0.5,-0.7625));
#758=CARTESIAN_POINT('',(0.35,0.25,-0.75));
#759=CARTESIAN_POINT('',(0.35,0.125,-0.75));
#760=CARTESIAN_POINT('',(0.35,0.25,-0.75));
#761=CARTESIAN_POINT('Origin',(-0.35,0.5,-0.75));
#762=CARTESIAN_POINT('',(-0.35,0.25,-0.8));
#763=CARTESIAN_POINT('',(-0.35,0.5,-0.8));
#764=CARTESIAN_POINT('',(-0.35,0.25,-0.8));
#765=CARTESIAN_POINT('',(-0.35,0.25,-0.75));
#766=CARTESIAN_POINT('',(-0.35,0.25,-0.75));
#767=CARTESIAN_POINT('',(-0.35,0.5,-0.75));
#768=CARTESIAN_POINT('',(-0.35,0.25,-0.75));
#769=CARTESIAN_POINT('',(-0.35,0.5,-0.7625));
#770=CARTESIAN_POINT('Origin',(-0.75,0.,-0.75));
#771=CARTESIAN_POINT('',(-0.75,0.5,-0.75));
#772=CARTESIAN_POINT('',(0.75,0.25,-0.75));
#773=CARTESIAN_POINT('Origin',(-0.75,0.,-0.75));
#774=CARTESIAN_POINT('',(-0.75,0.25,1.05));
#775=CARTESIAN_POINT('',(-0.75,0.25,-0.8));
#776=CARTESIAN_POINT('',(-0.75,0.25,-0.75));
#777=CARTESIAN_POINT('',(-0.75,0.,-0.8));
#778=CARTESIAN_POINT('',(-0.75,0.,-0.8));
#779=CARTESIAN_POINT('',(-0.75,0.,1.05));
#780=CARTESIAN_POINT('',(-0.75,0.,-0.75));
#781=CARTESIAN_POINT('',(-0.75,0.,1.05));
#782=CARTESIAN_POINT('Origin',(8.74191357972564E-17,0.5,-0.775));
#783=CARTESIAN_POINT('',(0.75,0.5,-0.8));
#784=CARTESIAN_POINT('Origin',(-0.197,0.,0.75));
#785=CARTESIAN_POINT('',(-0.157,0.,0.75));
#786=CARTESIAN_POINT('Origin',(-0.197,0.,0.75));
#787=CARTESIAN_POINT('',(-0.157,0.175,0.75));
#788=CARTESIAN_POINT('',(-0.157,0.,0.75));
#789=CARTESIAN_POINT('Origin',(-0.197,0.175,0.75));
#790=CARTESIAN_POINT('Origin',(-0.197,0.175,0.75));
#791=CARTESIAN_POINT('Origin',(0.197,0.,0.75));
#792=CARTESIAN_POINT('',(0.237,0.,0.75));
#793=CARTESIAN_POINT('Origin',(0.197,0.,0.75));
#794=CARTESIAN_POINT('',(0.237,0.175,0.75));
#795=CARTESIAN_POINT('',(0.237,0.,0.75));
#796=CARTESIAN_POINT('Origin',(0.197,0.175,0.75));
#797=CARTESIAN_POINT('Origin',(0.197,0.175,0.75));
#798=CARTESIAN_POINT('Origin',(6.11933950580793E-17,0.25,0.750012416077773));
#799=CARTESIAN_POINT('',(-0.00137785660531623,0.25,0.90000632842958));
#800=CARTESIAN_POINT('',(0.0013778566052426,0.25,0.900006328429579));
#801=CARTESIAN_POINT('Origin',(6.11933950580793E-17,0.25,0.750012416077773));
#802=CARTESIAN_POINT('',(-0.00137785660531623,0.05,0.90000632842958));
#803=CARTESIAN_POINT('',(-0.00137785660531623,0.25,0.90000632842958));
#804=CARTESIAN_POINT('',(0.0013778566052426,0.05,0.900006328429579));
#805=CARTESIAN_POINT('Origin',(6.11933950580793E-17,0.05,0.750012416077773));
#806=CARTESIAN_POINT('',(0.0013778566052426,0.25,0.900006328429579));
#807=CARTESIAN_POINT('Origin',(6.11933950580793E-17,0.25,1.05));
#808=CARTESIAN_POINT('Origin',(6.11933950580793E-17,0.25,1.05));
#809=CARTESIAN_POINT('Origin',(6.11933950580793E-17,0.05,1.05));
#810=CARTESIAN_POINT('Origin',(6.55643518479423E-17,0.05,0.750009251868063));
#811=CARTESIAN_POINT('',(-0.0899999999999999,0.05,0.75));
#812=CARTESIAN_POINT('Origin',(8.74191357972564E-17,0.05,0.75));
#813=CARTESIAN_POINT('Origin',(-0.5,0.,-8.74191357972564E-17));
#814=CARTESIAN_POINT('',(-0.35,0.,-1.05788837784467E-16));
#815=CARTESIAN_POINT('Origin',(-0.5,0.,-8.74191357972564E-17));
#816=CARTESIAN_POINT('',(-0.35,0.2,-1.05788837784467E-16));
#817=CARTESIAN_POINT('',(-0.35,0.,-1.05788837784467E-16));
#818=CARTESIAN_POINT('Origin',(-0.5,0.2,-8.74191357972564E-17));
#819=CARTESIAN_POINT('Origin',(-0.5,0.2,-8.74191357972564E-17));
#820=CARTESIAN_POINT('',(-0.59,0.2,-7.63973146049302E-17));
#821=CARTESIAN_POINT('Origin',(-0.5,0.2,-8.74191357972564E-17));
#822=CARTESIAN_POINT('Origin',(0.,0.,0.));
#823=CARTESIAN_POINT('',(0.15,0.,-1.83697019872103E-17));
#824=CARTESIAN_POINT('Origin',(0.,0.,0.));
#825=CARTESIAN_POINT('',(0.15,0.2,-1.83697019872103E-17));
#826=CARTESIAN_POINT('',(0.15,0.,-1.83697019872103E-17));
#827=CARTESIAN_POINT('Origin',(0.,0.2,0.));
#828=CARTESIAN_POINT('Origin',(0.,0.2,0.));
#829=CARTESIAN_POINT('',(-0.09,0.2,1.10218211923262E-17));
#830=CARTESIAN_POINT('Origin',(0.,0.2,0.));
#831=CARTESIAN_POINT('Origin',(0.5,0.,8.74191357972564E-17));
#832=CARTESIAN_POINT('',(0.65,0.,6.90494338100461E-17));
#833=CARTESIAN_POINT('Origin',(0.5,0.,8.74191357972564E-17));
#834=CARTESIAN_POINT('',(0.65,0.2,6.90494338100461E-17));
#835=CARTESIAN_POINT('',(0.65,0.,6.90494338100461E-17));
#836=CARTESIAN_POINT('Origin',(0.5,0.2,8.74191357972564E-17));
#837=CARTESIAN_POINT('Origin',(0.5,0.2,8.74191357972564E-17));
#838=CARTESIAN_POINT('',(0.41,0.2,9.84409569895826E-17));
#839=CARTESIAN_POINT('Origin',(0.5,0.2,8.74191357972564E-17));
#840=CARTESIAN_POINT('Origin',(0.75,0.,-0.8));
#841=CARTESIAN_POINT('',(0.75,0.25,-0.8));
#842=CARTESIAN_POINT('',(0.75,0.25,-0.8));
#843=CARTESIAN_POINT('',(0.75,0.,-0.8));
#844=CARTESIAN_POINT('',(0.75,0.,-0.8));
#845=CARTESIAN_POINT('',(0.75,0.,-0.8));
#846=CARTESIAN_POINT('',(0.2,0.25,-0.8));
#847=CARTESIAN_POINT('Origin',(0.5,0.,8.74191357972564E-17));
#848=CARTESIAN_POINT('',(0.41,0.25,8.74191357972564E-17));
#849=CARTESIAN_POINT('Origin',(0.5,0.25,8.74191357972564E-17));
#850=CARTESIAN_POINT('',(0.41,0.,9.84409569895826E-17));
#851=CARTESIAN_POINT('Origin',(0.,0.,0.));
#852=CARTESIAN_POINT('',(-0.09,0.25,0.));
#853=CARTESIAN_POINT('Origin',(0.,0.25,0.));
#854=CARTESIAN_POINT('',(-0.09,0.,1.10218211923262E-17));
#855=CARTESIAN_POINT('Origin',(8.74191357972564E-17,0.,0.75));
#856=CARTESIAN_POINT('',(-0.0899999999999999,0.,0.75));
#857=CARTESIAN_POINT('',(-0.0899999999999999,0.,0.75));
#858=CARTESIAN_POINT('Origin',(8.74191357972564E-17,0.,0.75));
#859=CARTESIAN_POINT('Origin',(-0.5,0.,-8.74191357972564E-17));
#860=CARTESIAN_POINT('',(-0.59,0.25,-8.74191357972564E-17));
#861=CARTESIAN_POINT('Origin',(-0.5,0.25,-8.74191357972564E-17));
#862=CARTESIAN_POINT('',(-0.59,0.,-7.63973146049302E-17));
#863=CARTESIAN_POINT('Origin',(0.75,0.,1.05));
#864=CARTESIAN_POINT('',(0.75,0.25,1.05));
#865=CARTESIAN_POINT('',(0.75,0.25,1.35));
#866=CARTESIAN_POINT('',(0.75,0.,1.05));
#867=CARTESIAN_POINT('',(0.75,0.,1.05));
#868=CARTESIAN_POINT('',(0.75,0.,1.35));
#869=CARTESIAN_POINT('Origin',(-0.75,0.,1.05));
#870=CARTESIAN_POINT('',(-0.75,0.,1.05));
#871=CARTESIAN_POINT('',(-0.75,0.25,1.05));
#872=CARTESIAN_POINT('Origin',(8.74191357972564E-17,0.25,0.15));
#873=CARTESIAN_POINT('Origin',(8.74191357972564E-17,0.,0.15));
#874=CARTESIAN_POINT('polyline point',(0.5,0.,0.75));
#875=CARTESIAN_POINT('polyline point',(-0.5,0.,0.75));
#876=CARTESIAN_POINT('polyline point',(-0.5,0.,0.75));
#877=CARTESIAN_POINT('polyline point',(-0.5,0.,-0.75));
#878=CARTESIAN_POINT('polyline point',(-0.5,0.,-0.75));
#879=CARTESIAN_POINT('polyline point',(0.5,0.,-0.75));
#880=CARTESIAN_POINT('polyline point',(0.5,0.,-0.75));
#881=CARTESIAN_POINT('polyline point',(0.5,0.,0.75));
#882=CARTESIAN_POINT('Origin',(0.,0.,0.));
#883=CARTESIAN_POINT('polyline point',(-0.5,0.,0.75));
#884=CARTESIAN_POINT('polyline point',(0.5,0.,0.75));
#885=CARTESIAN_POINT('polyline point',(0.5,0.,0.75));
#886=CARTESIAN_POINT('polyline point',(0.5,0.,1.35));
#887=CARTESIAN_POINT('polyline point',(0.5,0.,1.35));
#888=CARTESIAN_POINT('polyline point',(-0.5,0.,1.35));
#889=CARTESIAN_POINT('polyline point',(-0.5,0.,1.35));
#890=CARTESIAN_POINT('polyline point',(-0.5,0.,0.75));
#891=CARTESIAN_POINT('polyline point',(0.75,0.,0.75));
#892=CARTESIAN_POINT('polyline point',(-0.75,0.,0.75));
#893=CARTESIAN_POINT('polyline point',(-0.75,0.,0.75));
#894=CARTESIAN_POINT('polyline point',(-0.75,0.,-0.75));
#895=CARTESIAN_POINT('polyline point',(-0.75,0.,-0.75));
#896=CARTESIAN_POINT('polyline point',(0.75,0.,-0.75));
#897=CARTESIAN_POINT('polyline point',(0.75,0.,-0.75));
#898=CARTESIAN_POINT('polyline point',(0.75,0.,0.75));
#899=CARTESIAN_POINT('Origin',(-0.5,0.,-8.74191357972564E-17));
#900=CARTESIAN_POINT('Origin',(0.5,0.,8.74191357972564E-17));
#901=CARTESIAN_POINT('polyline point',(-0.75,0.,0.75));
#902=CARTESIAN_POINT('polyline point',(0.75,0.,0.75));
#903=CARTESIAN_POINT('polyline point',(0.75,0.,0.75));
#904=CARTESIAN_POINT('polyline point',(0.75,0.,1.35));
#905=CARTESIAN_POINT('polyline point',(0.75,0.,1.35));
#906=CARTESIAN_POINT('polyline point',(-0.749999999999999,0.,1.35));
#907=CARTESIAN_POINT('polyline point',(-0.749999999999999,0.,1.35));
#908=CARTESIAN_POINT('polyline point',(-0.75,0.,0.75));
#909=CARTESIAN_POINT('Origin',(6.11933950580793E-17,0.,1.05));
#910=CARTESIAN_POINT('polyline point',(0.75,0.,-0.75));
#911=CARTESIAN_POINT('polyline point',(-0.75,0.,-0.75));
#912=CARTESIAN_POINT('polyline point',(-0.75,0.,-0.75));
#913=CARTESIAN_POINT('polyline point',(-0.75,0.,-0.8));
#914=CARTESIAN_POINT('polyline point',(-0.75,0.,-0.8));
#915=CARTESIAN_POINT('polyline point',(0.75,0.,-0.8));
#916=CARTESIAN_POINT('polyline point',(0.75,0.,-0.8));
#917=CARTESIAN_POINT('polyline point',(0.75,0.,-0.75));
#918=CARTESIAN_POINT('Origin',(0.,0.,0.));
#919=CARTESIAN_POINT('Origin',(0.5,0.,8.74191357972564E-17));
#920=CARTESIAN_POINT('Origin',(-0.5,0.,-8.74191357972564E-17));
#921=CARTESIAN_POINT('polyline point',(6.11933950580793E-17,0.,1.05));
#922=CARTESIAN_POINT('polyline point',(0.197,0.,1.05));
#923=CARTESIAN_POINT('polyline point',(0.197,0.,1.05));
#924=CARTESIAN_POINT('polyline point',(6.11933950580793E-17,0.,1.05));
#925=CARTESIAN_POINT('polyline point',(6.11933950580793E-17,0.,1.05));
#926=CARTESIAN_POINT('polyline point',(-0.197,0.,1.05));
#927=CARTESIAN_POINT('Origin',(-0.197,0.,1.05));
#928=CARTESIAN_POINT('Origin',(0.197,0.,1.05));
#929=CARTESIAN_POINT('Origin',(8.74191357972564E-17,0.,0.75));
#930=CARTESIAN_POINT('Origin',(0.197,0.,0.75));
#931=CARTESIAN_POINT('Origin',(-0.197,0.,0.75));
#932=CARTESIAN_POINT('polyline point',(0.75,0.,1.05));
#933=CARTESIAN_POINT('polyline point',(-0.75,0.,1.05));
#934=CARTESIAN_POINT('',(-0.5,0.,-0.75));
#935=CARTESIAN_POINT('',(-0.5,0.,1.35));
#936=CARTESIAN_POINT('',(0.5,0.,1.35));
#937=CARTESIAN_POINT('',(0.75,0.,0.75));
#938=CARTESIAN_POINT('',(0.5,0.,-0.75));
#939=CARTESIAN_POINT('',(-0.75,0.,-0.75));
#940=CARTESIAN_POINT('',(-0.197,0.,1.05));
#941=CARTESIAN_POINT('',(0.197,0.,1.05));
#942=CARTESIAN_POINT('',(0.,0.,0.));
#943=CARTESIAN_POINT('',(-1.74838271594513E-16,0.,-0.8));
#944=UNCERTAINTY_MEASURE_WITH_UNIT(LENGTH_MEASURE(0.000393700787401575),
#950,'DISTANCE_ACCURACY_VALUE',
'Maximum model space distance between geometric entities at asserted c
onnectivities');
#945=UNCERTAINTY_MEASURE_WITH_UNIT(LENGTH_MEASURE(0.000393700787401575),
#950,'DISTANCE_ACCURACY_VALUE',
'Maximum model space distance between geometric entities at asserted c
onnectivities');
#946=(
GEOMETRIC_REPRESENTATION_CONTEXT(3)
GLOBAL_UNCERTAINTY_ASSIGNED_CONTEXT((#944))
GLOBAL_UNIT_ASSIGNED_CONTEXT((#950,#954,#955))
REPRESENTATION_CONTEXT('','3D')
);
#947=(
GEOMETRIC_REPRESENTATION_CONTEXT(3)
GLOBAL_UNCERTAINTY_ASSIGNED_CONTEXT((#945))
GLOBAL_UNIT_ASSIGNED_CONTEXT((#950,#954,#955))
REPRESENTATION_CONTEXT('','3D')
);
#948=DIMENSIONAL_EXPONENTS(1.,0.,0.,0.,0.,0.,0.);
#949=DIMENSIONAL_EXPONENTS(0.,1.,0.,0.,0.,0.,0.);
#950=(
CONVERSION_BASED_UNIT('inch',#953)
LENGTH_UNIT()
NAMED_UNIT(#948)
);
#951=(
LENGTH_UNIT()
NAMED_UNIT(*)
SI_UNIT(.MILLI.,.METRE.)
);
#952=(
LENGTH_UNIT()
NAMED_UNIT(*)
SI_UNIT(.CENTI.,.METRE.)
);
#953=LENGTH_MEASURE_WITH_UNIT(LENGTH_MEASURE(25.4),#951);
#954=(
NAMED_UNIT(*)
PLANE_ANGLE_UNIT()
SI_UNIT($,.RADIAN.)
);
#955=(
NAMED_UNIT(*)
SI_UNIT($,.STERADIAN.)
SOLID_ANGLE_UNIT()
);
#956=SHAPE_DEFINITION_REPRESENTATION(#957,#958);
#957=PRODUCT_DEFINITION_SHAPE('',$,#960);
#958=SHAPE_REPRESENTATION('',(#530),#946);
#959=PRODUCT_DEFINITION_CONTEXT('part definition',#964,'design');
#960=PRODUCT_DEFINITION('BeamsplitterMounttoPolarisPinAdapterV3',
'BeamsplitterMounttoPolarisPinAdapterV3',#961,#959);
#961=PRODUCT_DEFINITION_FORMATION('',$,#966);
#962=PRODUCT_RELATED_PRODUCT_CATEGORY(
'BeamsplitterMounttoPolarisPinAdapterV3',
'BeamsplitterMounttoPolarisPinAdapterV3',(#966));
#963=APPLICATION_PROTOCOL_DEFINITION('international standard',
'automotive_design',2009,#964);
#964=APPLICATION_CONTEXT(
'Core Data for Automotive Mechanical Design Process');
#965=PRODUCT_CONTEXT('part definition',#964,'mechanical');
#966=PRODUCT('BeamsplitterMounttoPolarisPinAdapterV3',
'BeamsplitterMounttoPolarisPinAdapterV3',$,(#965));
#967=PRESENTATION_STYLE_ASSIGNMENT((#970));
#968=PRESENTATION_STYLE_ASSIGNMENT((#971));
#969=PRESENTATION_STYLE_ASSIGNMENT((#972));
#970=SURFACE_STYLE_USAGE(.BOTH.,#975);
#971=SURFACE_STYLE_USAGE(.BOTH.,#976);
#972=SURFACE_STYLE_USAGE(.BOTH.,#977);
#973=SURFACE_STYLE_RENDERING_WITH_PROPERTIES($,#987,(#974));
#974=SURFACE_STYLE_TRANSPARENT(0.);
#975=SURFACE_SIDE_STYLE('',(#978,#973));
#976=SURFACE_SIDE_STYLE('',(#979));
#977=SURFACE_SIDE_STYLE('',(#980));
#978=SURFACE_STYLE_FILL_AREA(#981);
#979=SURFACE_STYLE_FILL_AREA(#982);
#980=SURFACE_STYLE_FILL_AREA(#983);
#981=FILL_AREA_STYLE('',(#984));
#982=FILL_AREA_STYLE('',(#985));
#983=FILL_AREA_STYLE('',(#986));
#984=FILL_AREA_STYLE_COLOUR('',#987);
#985=FILL_AREA_STYLE_COLOUR('',#988);
#986=FILL_AREA_STYLE_COLOUR('',#989);
#987=COLOUR_RGB('',0.749019607843137,0.749019607843137,0.749019607843137);
#988=COLOUR_RGB('',0.,0.,0.);
#989=COLOUR_RGB('',1.,1.,0.);
ENDSEC;
END-ISO-10303-21;
