ISO-10303-21;
HEADER;
/* Generated by software containing ST-Developer
 * from STEP Tools, Inc. (www.steptools.com) 
 */

FILE_DESCRIPTION(
/* description */ (''),
/* implementation_level */ '2;1');

FILE_NAME(
/* name */ 'Voicecoil_to_PY004_Coupler.stp',
/* time_stamp */ '2025-09-08T08:53:40-05:00',
/* author */ ('monolithic'),
/* organization */ (''),
/* preprocessor_version */ 'ST-DEVELOPER v20',
/* originating_system */ 'Autodesk Inventor 2024',
/* authorisation */ '');

FILE_SCHEMA (('AUTOMOTIVE_DESIGN { 1 0 10303 214 3 1 1 }'));
ENDSEC;

DATA;
#10=MECHANICAL_DESIGN_GEOMETRIC_PRESENTATION_REPRESENTATION('',(#22,#23,
#24,#25,#26,#27,#28,#29),#885);
#11=GEOMETRICALLY_BOUNDED_WIREFRAME_SHAPE_REPRESENTATION('',(#12,#13),#884);
#12=GEOMETRIC_CURVE_SET('Sketch3',(#860));
#13=GEOMETRIC_CURVE_SET('Sketch6',(#17,#18,#19,#20,#21,#233,#234,#235,#236,
#237,#238,#239,#240,#879,#880,#881));
#14=SHAPE_REPRESENTATION_RELATIONSHIP('SRR','None',#896,#16);
#15=SHAPE_REPRESENTATION_RELATIONSHIP('SRR','None',#896,#11);
#16=ADVANCED_BREP_SHAPE_REPRESENTATION('',(#30),#884);
#17=POLYLINE('',(#861,#862));
#18=POLYLINE('',(#863,#864));
#19=POLYLINE('',(#865,#866));
#20=POLYLINE('',(#867,#868));
#21=POLYLINE('',(#869,#870));
#22=STYLED_ITEM('',(#905),#30);
#23=STYLED_ITEM('',(#907),#17);
#24=STYLED_ITEM('',(#907),#18);
#25=STYLED_ITEM('',(#907),#19);
#26=STYLED_ITEM('',(#907),#20);
#27=STYLED_ITEM('',(#907),#21);
#28=STYLED_ITEM('',(#907),#233);
#29=STYLED_ITEM('',(#907),#234);
#30=MANIFOLD_SOLID_BREP('Solid1',#499);
#31=FACE_BOUND('',#97,.T.);
#32=FACE_BOUND('',#100,.T.);
#33=FACE_BOUND('',#103,.T.);
#34=FACE_BOUND('',#106,.T.);
#35=FACE_BOUND('',#112,.T.);
#36=FACE_BOUND('',#113,.T.);
#37=FACE_BOUND('',#115,.T.);
#38=FACE_BOUND('',#116,.T.);
#39=FACE_BOUND('',#119,.T.);
#40=FACE_BOUND('',#120,.T.);
#41=FACE_BOUND('',#122,.T.);
#42=FACE_BOUND('',#123,.T.);
#43=FACE_BOUND('',#128,.T.);
#44=FACE_BOUND('',#129,.T.);
#45=FACE_BOUND('',#130,.T.);
#46=FACE_BOUND('',#131,.T.);
#47=FACE_BOUND('',#133,.T.);
#48=FACE_BOUND('',#134,.T.);
#49=FACE_BOUND('',#135,.T.);
#50=FACE_BOUND('',#136,.T.);
#51=PLANE('',#536);
#52=PLANE('',#541);
#53=PLANE('',#546);
#54=PLANE('',#551);
#55=PLANE('',#561);
#56=PLANE('',#562);
#57=PLANE('',#563);
#58=PLANE('',#564);
#59=PLANE('',#565);
#60=PLANE('',#566);
#61=PLANE('',#567);
#62=PLANE('',#568);
#63=PLANE('',#569);
#64=PLANE('',#570);
#65=FACE_OUTER_BOUND('',#91,.T.);
#66=FACE_OUTER_BOUND('',#92,.T.);
#67=FACE_OUTER_BOUND('',#93,.T.);
#68=FACE_OUTER_BOUND('',#94,.T.);
#69=FACE_OUTER_BOUND('',#95,.T.);
#70=FACE_OUTER_BOUND('',#96,.T.);
#71=FACE_OUTER_BOUND('',#98,.T.);
#72=FACE_OUTER_BOUND('',#99,.T.);
#73=FACE_OUTER_BOUND('',#101,.T.);
#74=FACE_OUTER_BOUND('',#102,.T.);
#75=FACE_OUTER_BOUND('',#104,.T.);
#76=FACE_OUTER_BOUND('',#105,.T.);
#77=FACE_OUTER_BOUND('',#107,.T.);
#78=FACE_OUTER_BOUND('',#108,.T.);
#79=FACE_OUTER_BOUND('',#109,.T.);
#80=FACE_OUTER_BOUND('',#110,.T.);
#81=FACE_OUTER_BOUND('',#111,.T.);
#82=FACE_OUTER_BOUND('',#114,.T.);
#83=FACE_OUTER_BOUND('',#117,.T.);
#84=FACE_OUTER_BOUND('',#118,.T.);
#85=FACE_OUTER_BOUND('',#121,.T.);
#86=FACE_OUTER_BOUND('',#124,.T.);
#87=FACE_OUTER_BOUND('',#125,.T.);
#88=FACE_OUTER_BOUND('',#126,.T.);
#89=FACE_OUTER_BOUND('',#127,.T.);
#90=FACE_OUTER_BOUND('',#132,.T.);
#91=EDGE_LOOP('',(#341,#342,#343,#344));
#92=EDGE_LOOP('',(#345,#346,#347,#348));
#93=EDGE_LOOP('',(#349,#350,#351,#352));
#94=EDGE_LOOP('',(#353,#354,#355,#356));
#95=EDGE_LOOP('',(#357,#358,#359,#360));
#96=EDGE_LOOP('',(#361));
#97=EDGE_LOOP('',(#362));
#98=EDGE_LOOP('',(#363,#364,#365,#366));
#99=EDGE_LOOP('',(#367));
#100=EDGE_LOOP('',(#368));
#101=EDGE_LOOP('',(#369,#370,#371,#372));
#102=EDGE_LOOP('',(#373));
#103=EDGE_LOOP('',(#374));
#104=EDGE_LOOP('',(#375,#376,#377,#378));
#105=EDGE_LOOP('',(#379));
#106=EDGE_LOOP('',(#380));
#107=EDGE_LOOP('',(#381,#382,#383,#384));
#108=EDGE_LOOP('',(#385,#386,#387,#388));
#109=EDGE_LOOP('',(#389,#390,#391,#392));
#110=EDGE_LOOP('',(#393,#394,#395,#396));
#111=EDGE_LOOP('',(#397,#398,#399,#400));
#112=EDGE_LOOP('',(#401));
#113=EDGE_LOOP('',(#402));
#114=EDGE_LOOP('',(#403,#404,#405,#406));
#115=EDGE_LOOP('',(#407));
#116=EDGE_LOOP('',(#408));
#117=EDGE_LOOP('',(#409,#410,#411,#412));
#118=EDGE_LOOP('',(#413,#414,#415,#416));
#119=EDGE_LOOP('',(#417));
#120=EDGE_LOOP('',(#418));
#121=EDGE_LOOP('',(#419,#420,#421,#422));
#122=EDGE_LOOP('',(#423));
#123=EDGE_LOOP('',(#424));
#124=EDGE_LOOP('',(#425,#426,#427,#428));
#125=EDGE_LOOP('',(#429,#430,#431,#432,#433,#434,#435,#436));
#126=EDGE_LOOP('',(#437,#438,#439,#440,#441,#442,#443,#444));
#127=EDGE_LOOP('',(#445,#446,#447,#448));
#128=EDGE_LOOP('',(#449));
#129=EDGE_LOOP('',(#450));
#130=EDGE_LOOP('',(#451));
#131=EDGE_LOOP('',(#452));
#132=EDGE_LOOP('',(#453,#454,#455,#456));
#133=EDGE_LOOP('',(#457));
#134=EDGE_LOOP('',(#458));
#135=EDGE_LOOP('',(#459));
#136=EDGE_LOOP('',(#460));
#137=LINE('',#738,#173);
#138=LINE('',#744,#174);
#139=LINE('',#750,#175);
#140=LINE('',#756,#176);
#141=LINE('',#762,#177);
#142=LINE('',#771,#178);
#143=LINE('',#780,#179);
#144=LINE('',#789,#180);
#145=LINE('',#796,#181);
#146=LINE('',#800,#182);
#147=LINE('',#804,#183);
#148=LINE('',#808,#184);
#149=LINE('',#813,#185);
#150=LINE('',#815,#186);
#151=LINE('',#817,#187);
#152=LINE('',#818,#188);
#153=LINE('',#822,#189);
#154=LINE('',#824,#190);
#155=LINE('',#826,#191);
#156=LINE('',#827,#192);
#157=LINE('',#829,#193);
#158=LINE('',#830,#194);
#159=LINE('',#834,#195);
#160=LINE('',#836,#196);
#161=LINE('',#838,#197);
#162=LINE('',#839,#198);
#163=LINE('',#843,#199);
#164=LINE('',#845,#200);
#165=LINE('',#847,#201);
#166=LINE('',#848,#202);
#167=LINE('',#850,#203);
#168=LINE('',#851,#204);
#169=LINE('',#853,#205);
#170=LINE('',#854,#206);
#171=LINE('',#856,#207);
#172=LINE('',#857,#208);
#173=VECTOR('',#585,0.09);
#174=VECTOR('',#592,0.09);
#175=VECTOR('',#599,0.09);
#176=VECTOR('',#606,0.09);
#177=VECTOR('',#613,0.19);
#178=VECTOR('',#624,0.19);
#179=VECTOR('',#635,0.19);
#180=VECTOR('',#646,0.19);
#181=VECTOR('',#655,0.13);
#182=VECTOR('',#660,0.13);
#183=VECTOR('',#665,0.13);
#184=VECTOR('',#670,0.13);
#185=VECTOR('',#675,0.393700787401575);
#186=VECTOR('',#676,0.393700787401575);
#187=VECTOR('',#677,0.393700787401575);
#188=VECTOR('',#678,0.393700787401575);
#189=VECTOR('',#681,0.393700787401575);
#190=VECTOR('',#682,0.393700787401575);
#191=VECTOR('',#683,0.393700787401575);
#192=VECTOR('',#684,0.393700787401575);
#193=VECTOR('',#687,0.393700787401575);
#194=VECTOR('',#688,0.393700787401575);
#195=VECTOR('',#691,0.393700787401575);
#196=VECTOR('',#692,0.393700787401575);
#197=VECTOR('',#693,0.393700787401575);
#198=VECTOR('',#694,0.393700787401575);
#199=VECTOR('',#697,0.393700787401575);
#200=VECTOR('',#698,0.393700787401575);
#201=VECTOR('',#699,0.393700787401575);
#202=VECTOR('',#700,0.393700787401575);
#203=VECTOR('',#703,0.393700787401575);
#204=VECTOR('',#704,0.393700787401575);
#205=VECTOR('',#707,0.393700787401575);
#206=VECTOR('',#708,0.393700787401575);
#207=VECTOR('',#711,0.393700787401575);
#208=VECTOR('',#712,0.393700787401575);
#209=CIRCLE('',#522,0.09);
#210=CIRCLE('',#523,0.09);
#211=CIRCLE('',#525,0.09);
#212=CIRCLE('',#526,0.09);
#213=CIRCLE('',#528,0.09);
#214=CIRCLE('',#529,0.09);
#215=CIRCLE('',#531,0.09);
#216=CIRCLE('',#532,0.09);
#217=CIRCLE('',#534,0.19);
#218=CIRCLE('',#535,0.19);
#219=CIRCLE('',#537,0.13);
#220=CIRCLE('',#539,0.19);
#221=CIRCLE('',#540,0.19);
#222=CIRCLE('',#542,0.13);
#223=CIRCLE('',#544,0.19);
#224=CIRCLE('',#545,0.19);
#225=CIRCLE('',#547,0.13);
#226=CIRCLE('',#549,0.19);
#227=CIRCLE('',#550,0.19);
#228=CIRCLE('',#552,0.13);
#229=CIRCLE('',#554,0.13);
#230=CIRCLE('',#556,0.13);
#231=CIRCLE('',#558,0.13);
#232=CIRCLE('',#560,0.13);
#233=CIRCLE('',#571,0.13);
#234=CIRCLE('',#572,0.19);
#235=CIRCLE('',#573,0.13);
#236=CIRCLE('',#574,0.19);
#237=CIRCLE('',#575,0.13);
#238=CIRCLE('',#576,0.19);
#239=CIRCLE('',#577,0.13);
#240=CIRCLE('',#578,0.19);
#241=VERTEX_POINT('',#735);
#242=VERTEX_POINT('',#737);
#243=VERTEX_POINT('',#741);
#244=VERTEX_POINT('',#743);
#245=VERTEX_POINT('',#747);
#246=VERTEX_POINT('',#749);
#247=VERTEX_POINT('',#753);
#248=VERTEX_POINT('',#755);
#249=VERTEX_POINT('',#759);
#250=VERTEX_POINT('',#761);
#251=VERTEX_POINT('',#765);
#252=VERTEX_POINT('',#768);
#253=VERTEX_POINT('',#770);
#254=VERTEX_POINT('',#774);
#255=VERTEX_POINT('',#777);
#256=VERTEX_POINT('',#779);
#257=VERTEX_POINT('',#783);
#258=VERTEX_POINT('',#786);
#259=VERTEX_POINT('',#788);
#260=VERTEX_POINT('',#792);
#261=VERTEX_POINT('',#795);
#262=VERTEX_POINT('',#799);
#263=VERTEX_POINT('',#803);
#264=VERTEX_POINT('',#807);
#265=VERTEX_POINT('',#811);
#266=VERTEX_POINT('',#812);
#267=VERTEX_POINT('',#814);
#268=VERTEX_POINT('',#816);
#269=VERTEX_POINT('',#820);
#270=VERTEX_POINT('',#821);
#271=VERTEX_POINT('',#823);
#272=VERTEX_POINT('',#825);
#273=VERTEX_POINT('',#832);
#274=VERTEX_POINT('',#833);
#275=VERTEX_POINT('',#835);
#276=VERTEX_POINT('',#837);
#277=VERTEX_POINT('',#841);
#278=VERTEX_POINT('',#842);
#279=VERTEX_POINT('',#844);
#280=VERTEX_POINT('',#846);
#281=EDGE_CURVE('',#241,#241,#209,.T.);
#282=EDGE_CURVE('',#241,#242,#137,.T.);
#283=EDGE_CURVE('',#242,#242,#210,.T.);
#284=EDGE_CURVE('',#243,#243,#211,.T.);
#285=EDGE_CURVE('',#243,#244,#138,.T.);
#286=EDGE_CURVE('',#244,#244,#212,.T.);
#287=EDGE_CURVE('',#245,#245,#213,.T.);
#288=EDGE_CURVE('',#245,#246,#139,.T.);
#289=EDGE_CURVE('',#246,#246,#214,.T.);
#290=EDGE_CURVE('',#247,#247,#215,.T.);
#291=EDGE_CURVE('',#247,#248,#140,.T.);
#292=EDGE_CURVE('',#248,#248,#216,.T.);
#293=EDGE_CURVE('',#249,#249,#217,.T.);
#294=EDGE_CURVE('',#249,#250,#141,.T.);
#295=EDGE_CURVE('',#250,#250,#218,.T.);
#296=EDGE_CURVE('',#251,#251,#219,.T.);
#297=EDGE_CURVE('',#252,#252,#220,.T.);
#298=EDGE_CURVE('',#252,#253,#142,.T.);
#299=EDGE_CURVE('',#253,#253,#221,.T.);
#300=EDGE_CURVE('',#254,#254,#222,.T.);
#301=EDGE_CURVE('',#255,#255,#223,.T.);
#302=EDGE_CURVE('',#255,#256,#143,.T.);
#303=EDGE_CURVE('',#256,#256,#224,.T.);
#304=EDGE_CURVE('',#257,#257,#225,.T.);
#305=EDGE_CURVE('',#258,#258,#226,.T.);
#306=EDGE_CURVE('',#258,#259,#144,.T.);
#307=EDGE_CURVE('',#259,#259,#227,.T.);
#308=EDGE_CURVE('',#260,#260,#228,.T.);
#309=EDGE_CURVE('',#251,#261,#145,.T.);
#310=EDGE_CURVE('',#261,#261,#229,.T.);
#311=EDGE_CURVE('',#254,#262,#146,.T.);
#312=EDGE_CURVE('',#262,#262,#230,.T.);
#313=EDGE_CURVE('',#257,#263,#147,.T.);
#314=EDGE_CURVE('',#263,#263,#231,.T.);
#315=EDGE_CURVE('',#260,#264,#148,.T.);
#316=EDGE_CURVE('',#264,#264,#232,.T.);
#317=EDGE_CURVE('',#265,#266,#149,.T.);
#318=EDGE_CURVE('',#265,#267,#150,.T.);
#319=EDGE_CURVE('',#268,#267,#151,.T.);
#320=EDGE_CURVE('',#266,#268,#152,.T.);
#321=EDGE_CURVE('',#269,#270,#153,.T.);
#322=EDGE_CURVE('',#269,#271,#154,.T.);
#323=EDGE_CURVE('',#272,#271,#155,.T.);
#324=EDGE_CURVE('',#270,#272,#156,.T.);
#325=EDGE_CURVE('',#271,#268,#157,.T.);
#326=EDGE_CURVE('',#267,#272,#158,.T.);
#327=EDGE_CURVE('',#273,#274,#159,.T.);
#328=EDGE_CURVE('',#273,#275,#160,.T.);
#329=EDGE_CURVE('',#276,#275,#161,.T.);
#330=EDGE_CURVE('',#274,#276,#162,.T.);
#331=EDGE_CURVE('',#277,#278,#163,.T.);
#332=EDGE_CURVE('',#277,#279,#164,.T.);
#333=EDGE_CURVE('',#280,#279,#165,.T.);
#334=EDGE_CURVE('',#278,#280,#166,.T.);
#335=EDGE_CURVE('',#275,#280,#167,.T.);
#336=EDGE_CURVE('',#279,#276,#168,.T.);
#337=EDGE_CURVE('',#278,#269,#169,.T.);
#338=EDGE_CURVE('',#266,#273,#170,.T.);
#339=EDGE_CURVE('',#277,#270,#171,.T.);
#340=EDGE_CURVE('',#274,#265,#172,.T.);
#341=ORIENTED_EDGE('',*,*,#281,.F.);
#342=ORIENTED_EDGE('',*,*,#282,.T.);
#343=ORIENTED_EDGE('',*,*,#283,.F.);
#344=ORIENTED_EDGE('',*,*,#282,.F.);
#345=ORIENTED_EDGE('',*,*,#284,.F.);
#346=ORIENTED_EDGE('',*,*,#285,.T.);
#347=ORIENTED_EDGE('',*,*,#286,.F.);
#348=ORIENTED_EDGE('',*,*,#285,.F.);
#349=ORIENTED_EDGE('',*,*,#287,.F.);
#350=ORIENTED_EDGE('',*,*,#288,.T.);
#351=ORIENTED_EDGE('',*,*,#289,.F.);
#352=ORIENTED_EDGE('',*,*,#288,.F.);
#353=ORIENTED_EDGE('',*,*,#290,.F.);
#354=ORIENTED_EDGE('',*,*,#291,.T.);
#355=ORIENTED_EDGE('',*,*,#292,.F.);
#356=ORIENTED_EDGE('',*,*,#291,.F.);
#357=ORIENTED_EDGE('',*,*,#293,.F.);
#358=ORIENTED_EDGE('',*,*,#294,.T.);
#359=ORIENTED_EDGE('',*,*,#295,.T.);
#360=ORIENTED_EDGE('',*,*,#294,.F.);
#361=ORIENTED_EDGE('',*,*,#295,.F.);
#362=ORIENTED_EDGE('',*,*,#296,.F.);
#363=ORIENTED_EDGE('',*,*,#297,.F.);
#364=ORIENTED_EDGE('',*,*,#298,.T.);
#365=ORIENTED_EDGE('',*,*,#299,.T.);
#366=ORIENTED_EDGE('',*,*,#298,.F.);
#367=ORIENTED_EDGE('',*,*,#299,.F.);
#368=ORIENTED_EDGE('',*,*,#300,.F.);
#369=ORIENTED_EDGE('',*,*,#301,.F.);
#370=ORIENTED_EDGE('',*,*,#302,.T.);
#371=ORIENTED_EDGE('',*,*,#303,.T.);
#372=ORIENTED_EDGE('',*,*,#302,.F.);
#373=ORIENTED_EDGE('',*,*,#303,.F.);
#374=ORIENTED_EDGE('',*,*,#304,.F.);
#375=ORIENTED_EDGE('',*,*,#305,.F.);
#376=ORIENTED_EDGE('',*,*,#306,.T.);
#377=ORIENTED_EDGE('',*,*,#307,.T.);
#378=ORIENTED_EDGE('',*,*,#306,.F.);
#379=ORIENTED_EDGE('',*,*,#307,.F.);
#380=ORIENTED_EDGE('',*,*,#308,.F.);
#381=ORIENTED_EDGE('',*,*,#296,.T.);
#382=ORIENTED_EDGE('',*,*,#309,.T.);
#383=ORIENTED_EDGE('',*,*,#310,.F.);
#384=ORIENTED_EDGE('',*,*,#309,.F.);
#385=ORIENTED_EDGE('',*,*,#300,.T.);
#386=ORIENTED_EDGE('',*,*,#311,.T.);
#387=ORIENTED_EDGE('',*,*,#312,.F.);
#388=ORIENTED_EDGE('',*,*,#311,.F.);
#389=ORIENTED_EDGE('',*,*,#304,.T.);
#390=ORIENTED_EDGE('',*,*,#313,.T.);
#391=ORIENTED_EDGE('',*,*,#314,.F.);
#392=ORIENTED_EDGE('',*,*,#313,.F.);
#393=ORIENTED_EDGE('',*,*,#308,.T.);
#394=ORIENTED_EDGE('',*,*,#315,.T.);
#395=ORIENTED_EDGE('',*,*,#316,.F.);
#396=ORIENTED_EDGE('',*,*,#315,.F.);
#397=ORIENTED_EDGE('',*,*,#317,.F.);
#398=ORIENTED_EDGE('',*,*,#318,.T.);
#399=ORIENTED_EDGE('',*,*,#319,.F.);
#400=ORIENTED_EDGE('',*,*,#320,.F.);
#401=ORIENTED_EDGE('',*,*,#284,.T.);
#402=ORIENTED_EDGE('',*,*,#290,.T.);
#403=ORIENTED_EDGE('',*,*,#321,.F.);
#404=ORIENTED_EDGE('',*,*,#322,.T.);
#405=ORIENTED_EDGE('',*,*,#323,.F.);
#406=ORIENTED_EDGE('',*,*,#324,.F.);
#407=ORIENTED_EDGE('',*,*,#286,.T.);
#408=ORIENTED_EDGE('',*,*,#292,.T.);
#409=ORIENTED_EDGE('',*,*,#323,.T.);
#410=ORIENTED_EDGE('',*,*,#325,.T.);
#411=ORIENTED_EDGE('',*,*,#319,.T.);
#412=ORIENTED_EDGE('',*,*,#326,.T.);
#413=ORIENTED_EDGE('',*,*,#327,.F.);
#414=ORIENTED_EDGE('',*,*,#328,.T.);
#415=ORIENTED_EDGE('',*,*,#329,.F.);
#416=ORIENTED_EDGE('',*,*,#330,.F.);
#417=ORIENTED_EDGE('',*,*,#283,.T.);
#418=ORIENTED_EDGE('',*,*,#289,.T.);
#419=ORIENTED_EDGE('',*,*,#331,.F.);
#420=ORIENTED_EDGE('',*,*,#332,.T.);
#421=ORIENTED_EDGE('',*,*,#333,.F.);
#422=ORIENTED_EDGE('',*,*,#334,.F.);
#423=ORIENTED_EDGE('',*,*,#281,.T.);
#424=ORIENTED_EDGE('',*,*,#287,.T.);
#425=ORIENTED_EDGE('',*,*,#329,.T.);
#426=ORIENTED_EDGE('',*,*,#335,.T.);
#427=ORIENTED_EDGE('',*,*,#333,.T.);
#428=ORIENTED_EDGE('',*,*,#336,.T.);
#429=ORIENTED_EDGE('',*,*,#337,.F.);
#430=ORIENTED_EDGE('',*,*,#334,.T.);
#431=ORIENTED_EDGE('',*,*,#335,.F.);
#432=ORIENTED_EDGE('',*,*,#328,.F.);
#433=ORIENTED_EDGE('',*,*,#338,.F.);
#434=ORIENTED_EDGE('',*,*,#320,.T.);
#435=ORIENTED_EDGE('',*,*,#325,.F.);
#436=ORIENTED_EDGE('',*,*,#322,.F.);
#437=ORIENTED_EDGE('',*,*,#339,.T.);
#438=ORIENTED_EDGE('',*,*,#324,.T.);
#439=ORIENTED_EDGE('',*,*,#326,.F.);
#440=ORIENTED_EDGE('',*,*,#318,.F.);
#441=ORIENTED_EDGE('',*,*,#340,.F.);
#442=ORIENTED_EDGE('',*,*,#330,.T.);
#443=ORIENTED_EDGE('',*,*,#336,.F.);
#444=ORIENTED_EDGE('',*,*,#332,.F.);
#445=ORIENTED_EDGE('',*,*,#340,.T.);
#446=ORIENTED_EDGE('',*,*,#317,.T.);
#447=ORIENTED_EDGE('',*,*,#338,.T.);
#448=ORIENTED_EDGE('',*,*,#327,.T.);
#449=ORIENTED_EDGE('',*,*,#293,.T.);
#450=ORIENTED_EDGE('',*,*,#297,.T.);
#451=ORIENTED_EDGE('',*,*,#301,.T.);
#452=ORIENTED_EDGE('',*,*,#305,.T.);
#453=ORIENTED_EDGE('',*,*,#339,.F.);
#454=ORIENTED_EDGE('',*,*,#331,.T.);
#455=ORIENTED_EDGE('',*,*,#337,.T.);
#456=ORIENTED_EDGE('',*,*,#321,.T.);
#457=ORIENTED_EDGE('',*,*,#310,.T.);
#458=ORIENTED_EDGE('',*,*,#312,.T.);
#459=ORIENTED_EDGE('',*,*,#314,.T.);
#460=ORIENTED_EDGE('',*,*,#316,.T.);
#461=CYLINDRICAL_SURFACE('',#521,0.09);
#462=CYLINDRICAL_SURFACE('',#524,0.09);
#463=CYLINDRICAL_SURFACE('',#527,0.09);
#464=CYLINDRICAL_SURFACE('',#530,0.09);
#465=CYLINDRICAL_SURFACE('',#533,0.19);
#466=CYLINDRICAL_SURFACE('',#538,0.19);
#467=CYLINDRICAL_SURFACE('',#543,0.19);
#468=CYLINDRICAL_SURFACE('',#548,0.19);
#469=CYLINDRICAL_SURFACE('',#553,0.13);
#470=CYLINDRICAL_SURFACE('',#555,0.13);
#471=CYLINDRICAL_SURFACE('',#557,0.13);
#472=CYLINDRICAL_SURFACE('',#559,0.13);
#473=ADVANCED_FACE('',(#65),#461,.F.);
#474=ADVANCED_FACE('',(#66),#462,.F.);
#475=ADVANCED_FACE('',(#67),#463,.F.);
#476=ADVANCED_FACE('',(#68),#464,.F.);
#477=ADVANCED_FACE('',(#69),#465,.F.);
#478=ADVANCED_FACE('',(#70,#31),#51,.T.);
#479=ADVANCED_FACE('',(#71),#466,.F.);
#480=ADVANCED_FACE('',(#72,#32),#52,.T.);
#481=ADVANCED_FACE('',(#73),#467,.F.);
#482=ADVANCED_FACE('',(#74,#33),#53,.T.);
#483=ADVANCED_FACE('',(#75),#468,.F.);
#484=ADVANCED_FACE('',(#76,#34),#54,.T.);
#485=ADVANCED_FACE('',(#77),#469,.F.);
#486=ADVANCED_FACE('',(#78),#470,.F.);
#487=ADVANCED_FACE('',(#79),#471,.F.);
#488=ADVANCED_FACE('',(#80),#472,.F.);
#489=ADVANCED_FACE('',(#81,#35,#36),#55,.T.);
#490=ADVANCED_FACE('',(#82,#37,#38),#56,.T.);
#491=ADVANCED_FACE('',(#83),#57,.T.);
#492=ADVANCED_FACE('',(#84,#39,#40),#58,.T.);
#493=ADVANCED_FACE('',(#85,#41,#42),#59,.T.);
#494=ADVANCED_FACE('',(#86),#60,.T.);
#495=ADVANCED_FACE('',(#87),#61,.T.);
#496=ADVANCED_FACE('',(#88),#62,.T.);
#497=ADVANCED_FACE('',(#89,#43,#44,#45,#46),#63,.T.);
#498=ADVANCED_FACE('',(#90,#47,#48,#49,#50),#64,.F.);
#499=CLOSED_SHELL('',(#473,#474,#475,#476,#477,#478,#479,#480,#481,#482,
#483,#484,#485,#486,#487,#488,#489,#490,#491,#492,#493,#494,#495,#496,#497,
#498));
#500=DERIVED_UNIT_ELEMENT(#502,1.);
#501=DERIVED_UNIT_ELEMENT(#890,-3.);
#502=(
CONVERSION_BASED_UNIT('gram',#504)
MASS_UNIT()
NAMED_UNIT(#887)
);
#503=(
MASS_UNIT()
NAMED_UNIT(*)
SI_UNIT(.KILO.,.GRAM.)
);
#504=MASS_MEASURE_WITH_UNIT(MASS_MEASURE(0.001),#503);
#505=DERIVED_UNIT((#500,#501));
#506=MEASURE_REPRESENTATION_ITEM('density measure',
POSITIVE_RATIO_MEASURE(1.),#505);
#507=PROPERTY_DEFINITION_REPRESENTATION(#512,#509);
#508=PROPERTY_DEFINITION_REPRESENTATION(#513,#510);
#509=REPRESENTATION('material name',(#511),#884);
#510=REPRESENTATION('density',(#506),#884);
#511=DESCRIPTIVE_REPRESENTATION_ITEM('Generic','Generic');
#512=PROPERTY_DEFINITION('material property','material name',#898);
#513=PROPERTY_DEFINITION('material property','density of part',#898);
#514=DATE_TIME_ROLE('creation_date');
#515=APPLIED_DATE_AND_TIME_ASSIGNMENT(#516,#514,(#898));
#516=DATE_AND_TIME(#517,#518);
#517=CALENDAR_DATE(2023,10,11);
#518=LOCAL_TIME(0,0,0.,#519);
#519=COORDINATED_UNIVERSAL_TIME_OFFSET(0,0,.BEHIND.);
#520=AXIS2_PLACEMENT_3D('',#733,#579,#580);
#521=AXIS2_PLACEMENT_3D('',#734,#581,#582);
#522=AXIS2_PLACEMENT_3D('',#736,#583,#584);
#523=AXIS2_PLACEMENT_3D('',#739,#586,#587);
#524=AXIS2_PLACEMENT_3D('',#740,#588,#589);
#525=AXIS2_PLACEMENT_3D('',#742,#590,#591);
#526=AXIS2_PLACEMENT_3D('',#745,#593,#594);
#527=AXIS2_PLACEMENT_3D('',#746,#595,#596);
#528=AXIS2_PLACEMENT_3D('',#748,#597,#598);
#529=AXIS2_PLACEMENT_3D('',#751,#600,#601);
#530=AXIS2_PLACEMENT_3D('',#752,#602,#603);
#531=AXIS2_PLACEMENT_3D('',#754,#604,#605);
#532=AXIS2_PLACEMENT_3D('',#757,#607,#608);
#533=AXIS2_PLACEMENT_3D('',#758,#609,#610);
#534=AXIS2_PLACEMENT_3D('',#760,#611,#612);
#535=AXIS2_PLACEMENT_3D('',#763,#614,#615);
#536=AXIS2_PLACEMENT_3D('',#764,#616,#617);
#537=AXIS2_PLACEMENT_3D('',#766,#618,#619);
#538=AXIS2_PLACEMENT_3D('',#767,#620,#621);
#539=AXIS2_PLACEMENT_3D('',#769,#622,#623);
#540=AXIS2_PLACEMENT_3D('',#772,#625,#626);
#541=AXIS2_PLACEMENT_3D('',#773,#627,#628);
#542=AXIS2_PLACEMENT_3D('',#775,#629,#630);
#543=AXIS2_PLACEMENT_3D('',#776,#631,#632);
#544=AXIS2_PLACEMENT_3D('',#778,#633,#634);
#545=AXIS2_PLACEMENT_3D('',#781,#636,#637);
#546=AXIS2_PLACEMENT_3D('',#782,#638,#639);
#547=AXIS2_PLACEMENT_3D('',#784,#640,#641);
#548=AXIS2_PLACEMENT_3D('',#785,#642,#643);
#549=AXIS2_PLACEMENT_3D('',#787,#644,#645);
#550=AXIS2_PLACEMENT_3D('',#790,#647,#648);
#551=AXIS2_PLACEMENT_3D('',#791,#649,#650);
#552=AXIS2_PLACEMENT_3D('',#793,#651,#652);
#553=AXIS2_PLACEMENT_3D('',#794,#653,#654);
#554=AXIS2_PLACEMENT_3D('',#797,#656,#657);
#555=AXIS2_PLACEMENT_3D('',#798,#658,#659);
#556=AXIS2_PLACEMENT_3D('',#801,#661,#662);
#557=AXIS2_PLACEMENT_3D('',#802,#663,#664);
#558=AXIS2_PLACEMENT_3D('',#805,#666,#667);
#559=AXIS2_PLACEMENT_3D('',#806,#668,#669);
#560=AXIS2_PLACEMENT_3D('',#809,#671,#672);
#561=AXIS2_PLACEMENT_3D('',#810,#673,#674);
#562=AXIS2_PLACEMENT_3D('',#819,#679,#680);
#563=AXIS2_PLACEMENT_3D('',#828,#685,#686);
#564=AXIS2_PLACEMENT_3D('',#831,#689,#690);
#565=AXIS2_PLACEMENT_3D('',#840,#695,#696);
#566=AXIS2_PLACEMENT_3D('',#849,#701,#702);
#567=AXIS2_PLACEMENT_3D('',#852,#705,#706);
#568=AXIS2_PLACEMENT_3D('',#855,#709,#710);
#569=AXIS2_PLACEMENT_3D('',#858,#713,#714);
#570=AXIS2_PLACEMENT_3D('',#859,#715,#716);
#571=AXIS2_PLACEMENT_3D('',#871,#717,#718);
#572=AXIS2_PLACEMENT_3D('',#872,#719,#720);
#573=AXIS2_PLACEMENT_3D('',#873,#721,#722);
#574=AXIS2_PLACEMENT_3D('',#874,#723,#724);
#575=AXIS2_PLACEMENT_3D('',#875,#725,#726);
#576=AXIS2_PLACEMENT_3D('',#876,#727,#728);
#577=AXIS2_PLACEMENT_3D('',#877,#729,#730);
#578=AXIS2_PLACEMENT_3D('',#878,#731,#732);
#579=DIRECTION('axis',(0.,0.,1.));
#580=DIRECTION('refdir',(1.,0.,0.));
#581=DIRECTION('center_axis',(1.04902962956708E-16,0.,-1.));
#582=DIRECTION('ref_axis',(1.,0.,1.04902962956708E-16));
#583=DIRECTION('center_axis',(1.16558847729675E-16,0.,-1.));
#584=DIRECTION('ref_axis',(1.,0.,1.04902962956708E-16));
#585=DIRECTION('',(1.04902962956708E-16,0.,-1.));
#586=DIRECTION('center_axis',(0.,0.,1.));
#587=DIRECTION('ref_axis',(1.,0.,1.04902962956708E-16));
#588=DIRECTION('center_axis',(1.04902962956708E-16,0.,-1.));
#589=DIRECTION('ref_axis',(1.,0.,1.04902962956708E-16));
#590=DIRECTION('center_axis',(-3.54401901880769E-16,0.,-1.));
#591=DIRECTION('ref_axis',(1.,0.,1.04902962956708E-16));
#592=DIRECTION('',(1.04902962956708E-16,0.,-1.));
#593=DIRECTION('center_axis',(-2.33117695459351E-16,0.,1.));
#594=DIRECTION('ref_axis',(1.,0.,1.04902962956708E-16));
#595=DIRECTION('center_axis',(1.04902962956708E-16,0.,-1.));
#596=DIRECTION('ref_axis',(1.,0.,1.04902962956708E-16));
#597=DIRECTION('center_axis',(1.16558847729675E-16,0.,-1.));
#598=DIRECTION('ref_axis',(1.,0.,1.04902962956708E-16));
#599=DIRECTION('',(1.04902962956708E-16,0.,-1.));
#600=DIRECTION('center_axis',(0.,0.,1.));
#601=DIRECTION('ref_axis',(1.,0.,1.04902962956708E-16));
#602=DIRECTION('center_axis',(1.04902962956708E-16,0.,-1.));
#603=DIRECTION('ref_axis',(1.,0.,1.04902962956708E-16));
#604=DIRECTION('center_axis',(-3.54401901880769E-16,0.,-1.));
#605=DIRECTION('ref_axis',(1.,0.,1.04902962956708E-16));
#606=DIRECTION('',(1.04902962956708E-16,0.,-1.));
#607=DIRECTION('center_axis',(-2.33117695459351E-16,0.,1.));
#608=DIRECTION('ref_axis',(1.,0.,1.04902962956708E-16));
#609=DIRECTION('center_axis',(0.,-1.,0.));
#610=DIRECTION('ref_axis',(1.,0.,0.));
#611=DIRECTION('center_axis',(0.,-1.,0.));
#612=DIRECTION('ref_axis',(1.,0.,0.));
#613=DIRECTION('',(0.,-1.,0.));
#614=DIRECTION('center_axis',(0.,-1.,0.));
#615=DIRECTION('ref_axis',(1.,0.,0.));
#616=DIRECTION('center_axis',(0.,1.,0.));
#617=DIRECTION('ref_axis',(0.,0.,1.));
#618=DIRECTION('center_axis',(0.,1.,0.));
#619=DIRECTION('ref_axis',(1.,0.,0.));
#620=DIRECTION('center_axis',(0.,-1.,0.));
#621=DIRECTION('ref_axis',(1.,0.,0.));
#622=DIRECTION('center_axis',(0.,-1.,0.));
#623=DIRECTION('ref_axis',(1.,0.,0.));
#624=DIRECTION('',(0.,-1.,0.));
#625=DIRECTION('center_axis',(0.,-1.,0.));
#626=DIRECTION('ref_axis',(1.,0.,0.));
#627=DIRECTION('center_axis',(0.,1.,0.));
#628=DIRECTION('ref_axis',(0.,0.,1.));
#629=DIRECTION('center_axis',(0.,1.,0.));
#630=DIRECTION('ref_axis',(1.,0.,0.));
#631=DIRECTION('center_axis',(0.,-1.,0.));
#632=DIRECTION('ref_axis',(1.,0.,0.));
#633=DIRECTION('center_axis',(0.,-1.,0.));
#634=DIRECTION('ref_axis',(1.,0.,0.));
#635=DIRECTION('',(0.,-1.,0.));
#636=DIRECTION('center_axis',(0.,-1.,0.));
#637=DIRECTION('ref_axis',(1.,0.,0.));
#638=DIRECTION('center_axis',(0.,1.,0.));
#639=DIRECTION('ref_axis',(0.,0.,1.));
#640=DIRECTION('center_axis',(0.,1.,0.));
#641=DIRECTION('ref_axis',(1.,0.,0.));
#642=DIRECTION('center_axis',(0.,-1.,0.));
#643=DIRECTION('ref_axis',(1.,0.,0.));
#644=DIRECTION('center_axis',(0.,-1.,0.));
#645=DIRECTION('ref_axis',(1.,0.,0.));
#646=DIRECTION('',(0.,-1.,0.));
#647=DIRECTION('center_axis',(0.,-1.,0.));
#648=DIRECTION('ref_axis',(1.,0.,0.));
#649=DIRECTION('center_axis',(0.,1.,0.));
#650=DIRECTION('ref_axis',(0.,0.,1.));
#651=DIRECTION('center_axis',(0.,1.,0.));
#652=DIRECTION('ref_axis',(1.,0.,0.));
#653=DIRECTION('center_axis',(0.,-1.,0.));
#654=DIRECTION('ref_axis',(1.,0.,0.));
#655=DIRECTION('',(0.,-1.,0.));
#656=DIRECTION('center_axis',(0.,1.,0.));
#657=DIRECTION('ref_axis',(1.,0.,0.));
#658=DIRECTION('center_axis',(0.,-1.,0.));
#659=DIRECTION('ref_axis',(1.,0.,0.));
#660=DIRECTION('',(0.,-1.,0.));
#661=DIRECTION('center_axis',(0.,1.,0.));
#662=DIRECTION('ref_axis',(1.,0.,0.));
#663=DIRECTION('center_axis',(0.,-1.,0.));
#664=DIRECTION('ref_axis',(1.,0.,0.));
#665=DIRECTION('',(0.,-1.,0.));
#666=DIRECTION('center_axis',(0.,1.,0.));
#667=DIRECTION('ref_axis',(1.,0.,0.));
#668=DIRECTION('center_axis',(0.,-1.,0.));
#669=DIRECTION('ref_axis',(1.,0.,0.));
#670=DIRECTION('',(0.,-1.,0.));
#671=DIRECTION('center_axis',(0.,1.,0.));
#672=DIRECTION('ref_axis',(1.,0.,0.));
#673=DIRECTION('center_axis',(3.54401901880769E-16,0.,1.));
#674=DIRECTION('ref_axis',(1.,0.,-3.54401901880769E-16));
#675=DIRECTION('',(-1.,0.,3.54401901880769E-16));
#676=DIRECTION('',(0.,1.,0.));
#677=DIRECTION('',(1.,0.,-3.54401901880769E-16));
#678=DIRECTION('',(0.,1.,0.));
#679=DIRECTION('center_axis',(2.33117695459351E-16,0.,-1.));
#680=DIRECTION('ref_axis',(-1.,0.,-2.33117695459351E-16));
#681=DIRECTION('',(1.,0.,2.33117695459351E-16));
#682=DIRECTION('',(0.,1.,0.));
#683=DIRECTION('',(-1.,0.,-2.33117695459351E-16));
#684=DIRECTION('',(0.,1.,0.));
#685=DIRECTION('center_axis',(0.,1.,0.));
#686=DIRECTION('ref_axis',(0.,0.,1.));
#687=DIRECTION('',(-1.86494156367479E-14,0.,1.));
#688=DIRECTION('',(-1.16558847729676E-15,0.,-1.));
#689=DIRECTION('center_axis',(0.,0.,-1.));
#690=DIRECTION('ref_axis',(-1.,0.,0.));
#691=DIRECTION('',(1.,0.,-1.1813396729359E-16));
#692=DIRECTION('',(0.,1.,0.));
#693=DIRECTION('',(-1.,0.,0.));
#694=DIRECTION('',(0.,1.,0.));
#695=DIRECTION('center_axis',(-1.16558847729675E-16,0.,1.));
#696=DIRECTION('ref_axis',(1.,0.,1.16558847729675E-16));
#697=DIRECTION('',(-1.,0.,-1.16558847729675E-16));
#698=DIRECTION('',(0.,1.,0.));
#699=DIRECTION('',(1.,0.,1.16558847729675E-16));
#700=DIRECTION('',(0.,1.,0.));
#701=DIRECTION('center_axis',(0.,1.,0.));
#702=DIRECTION('ref_axis',(0.,0.,1.));
#703=DIRECTION('',(0.,0.,1.));
#704=DIRECTION('',(0.,0.,-1.));
#705=DIRECTION('center_axis',(-1.,0.,6.49736820114744E-16));
#706=DIRECTION('ref_axis',(6.49736820114744E-16,0.,1.));
#707=DIRECTION('',(1.86494156367479E-14,0.,-1.));
#708=DIRECTION('',(6.49736820114744E-16,0.,1.));
#709=DIRECTION('center_axis',(1.,0.,-2.36267934587179E-16));
#710=DIRECTION('ref_axis',(-2.36267934587179E-16,0.,-1.));
#711=DIRECTION('',(-2.36267934587179E-16,0.,-1.));
#712=DIRECTION('',(-2.36267934587179E-16,0.,-1.));
#713=DIRECTION('center_axis',(0.,1.,0.));
#714=DIRECTION('ref_axis',(0.,0.,1.));
#715=DIRECTION('center_axis',(0.,1.,0.));
#716=DIRECTION('ref_axis',(0.,0.,1.));
#717=DIRECTION('center_axis',(0.,1.,0.));
#718=DIRECTION('ref_axis',(1.,0.,0.));
#719=DIRECTION('center_axis',(0.,1.,0.));
#720=DIRECTION('ref_axis',(1.,0.,0.));
#721=DIRECTION('center_axis',(0.,1.,0.));
#722=DIRECTION('ref_axis',(1.,0.,0.));
#723=DIRECTION('center_axis',(0.,1.,0.));
#724=DIRECTION('ref_axis',(1.,0.,0.));
#725=DIRECTION('center_axis',(0.,1.,0.));
#726=DIRECTION('ref_axis',(1.,0.,0.));
#727=DIRECTION('center_axis',(0.,1.,0.));
#728=DIRECTION('ref_axis',(1.,0.,0.));
#729=DIRECTION('center_axis',(0.,1.,0.));
#730=DIRECTION('ref_axis',(1.,0.,0.));
#731=DIRECTION('center_axis',(0.,1.,0.));
#732=DIRECTION('ref_axis',(1.,0.,0.));
#733=CARTESIAN_POINT('',(0.,0.,0.));
#734=CARTESIAN_POINT('Origin',(1.3,0.47,1.63));
#735=CARTESIAN_POINT('',(1.21,0.47,1.63));
#736=CARTESIAN_POINT('Origin',(1.3,0.47,1.63));
#737=CARTESIAN_POINT('',(1.21,0.47,1.48));
#738=CARTESIAN_POINT('',(1.21,0.47,1.63));
#739=CARTESIAN_POINT('Origin',(1.3,0.47,1.48));
#740=CARTESIAN_POINT('Origin',(1.3,0.47,1.63));
#741=CARTESIAN_POINT('',(1.21,0.47,-1.48));
#742=CARTESIAN_POINT('Origin',(1.3,0.47,-1.48));
#743=CARTESIAN_POINT('',(1.21,0.47,-1.63));
#744=CARTESIAN_POINT('',(1.21,0.47,1.63));
#745=CARTESIAN_POINT('Origin',(1.3,0.47,-1.63));
#746=CARTESIAN_POINT('Origin',(-1.3,0.47,1.63));
#747=CARTESIAN_POINT('',(-1.39,0.47,1.63));
#748=CARTESIAN_POINT('Origin',(-1.3,0.47,1.63));
#749=CARTESIAN_POINT('',(-1.39,0.47,1.48));
#750=CARTESIAN_POINT('',(-1.39,0.47,1.63));
#751=CARTESIAN_POINT('Origin',(-1.3,0.47,1.48));
#752=CARTESIAN_POINT('Origin',(-1.3,0.47,1.63));
#753=CARTESIAN_POINT('',(-1.39,0.47,-1.48));
#754=CARTESIAN_POINT('Origin',(-1.3,0.47,-1.48));
#755=CARTESIAN_POINT('',(-1.39,0.47,-1.63));
#756=CARTESIAN_POINT('',(-1.39,0.47,1.63));
#757=CARTESIAN_POINT('Origin',(-1.3,0.47,-1.63));
#758=CARTESIAN_POINT('Origin',(1.,0.29,0.999999999999997));
#759=CARTESIAN_POINT('',(0.81,0.29,0.999999999999997));
#760=CARTESIAN_POINT('Origin',(1.,0.29,0.999999999999997));
#761=CARTESIAN_POINT('',(0.81,0.03,0.999999999999997));
#762=CARTESIAN_POINT('',(0.81,0.29,0.999999999999997));
#763=CARTESIAN_POINT('Origin',(1.,0.03,0.999999999999997));
#764=CARTESIAN_POINT('Origin',(1.,0.03,0.999999999999997));
#765=CARTESIAN_POINT('',(0.87,0.03,0.999999999999997));
#766=CARTESIAN_POINT('Origin',(1.,0.03,0.999999999999997));
#767=CARTESIAN_POINT('Origin',(1.,0.29,-1.));
#768=CARTESIAN_POINT('',(0.81,0.29,-1.));
#769=CARTESIAN_POINT('Origin',(1.,0.29,-1.));
#770=CARTESIAN_POINT('',(0.81,0.03,-1.));
#771=CARTESIAN_POINT('',(0.81,0.29,-1.));
#772=CARTESIAN_POINT('Origin',(1.,0.03,-1.));
#773=CARTESIAN_POINT('Origin',(1.,0.03,-1.));
#774=CARTESIAN_POINT('',(0.87,0.03,-1.));
#775=CARTESIAN_POINT('Origin',(1.,0.03,-1.));
#776=CARTESIAN_POINT('Origin',(-1.,0.29,1.));
#777=CARTESIAN_POINT('',(-1.19,0.29,1.));
#778=CARTESIAN_POINT('Origin',(-1.,0.29,1.));
#779=CARTESIAN_POINT('',(-1.19,0.03,1.));
#780=CARTESIAN_POINT('',(-1.19,0.29,1.));
#781=CARTESIAN_POINT('Origin',(-1.,0.03,1.));
#782=CARTESIAN_POINT('Origin',(-1.,0.03,1.));
#783=CARTESIAN_POINT('',(-1.13,0.03,1.));
#784=CARTESIAN_POINT('Origin',(-1.,0.03,1.));
#785=CARTESIAN_POINT('Origin',(-1.,0.29,-1.));
#786=CARTESIAN_POINT('',(-1.19,0.29,-1.));
#787=CARTESIAN_POINT('Origin',(-1.,0.29,-1.));
#788=CARTESIAN_POINT('',(-1.19,0.03,-1.));
#789=CARTESIAN_POINT('',(-1.19,0.29,-1.));
#790=CARTESIAN_POINT('Origin',(-1.,0.03,-1.));
#791=CARTESIAN_POINT('Origin',(-1.,0.03,-1.));
#792=CARTESIAN_POINT('',(-1.13,0.03,-1.));
#793=CARTESIAN_POINT('Origin',(-1.,0.03,-1.));
#794=CARTESIAN_POINT('Origin',(1.,0.29,0.999999999999997));
#795=CARTESIAN_POINT('',(0.87,0.,0.999999999999997));
#796=CARTESIAN_POINT('',(0.87,0.29,0.999999999999997));
#797=CARTESIAN_POINT('Origin',(1.,0.,0.999999999999997));
#798=CARTESIAN_POINT('Origin',(1.,0.29,-1.));
#799=CARTESIAN_POINT('',(0.87,0.,-1.));
#800=CARTESIAN_POINT('',(0.87,0.29,-1.));
#801=CARTESIAN_POINT('Origin',(1.,0.,-1.));
#802=CARTESIAN_POINT('Origin',(-1.,0.29,1.));
#803=CARTESIAN_POINT('',(-1.13,0.,1.));
#804=CARTESIAN_POINT('',(-1.13,0.29,1.));
#805=CARTESIAN_POINT('Origin',(-1.,0.,1.));
#806=CARTESIAN_POINT('Origin',(-1.,0.29,-1.));
#807=CARTESIAN_POINT('',(-1.13,0.,-1.));
#808=CARTESIAN_POINT('',(-1.13,0.29,-1.));
#809=CARTESIAN_POINT('Origin',(-1.,0.,-1.));
#810=CARTESIAN_POINT('Origin',(-1.48,0.,-1.48));
#811=CARTESIAN_POINT('',(1.48,0.29,-1.48));
#812=CARTESIAN_POINT('',(-1.48,0.29,-1.48));
#813=CARTESIAN_POINT('',(1.48,0.29,-1.48));
#814=CARTESIAN_POINT('',(1.48,0.63,-1.48));
#815=CARTESIAN_POINT('',(1.48,0.,-1.48));
#816=CARTESIAN_POINT('',(-1.48,0.63,-1.48));
#817=CARTESIAN_POINT('',(1.48,0.63,-1.48));
#818=CARTESIAN_POINT('',(-1.48,0.,-1.48));
#819=CARTESIAN_POINT('Origin',(1.48,0.,-1.63));
#820=CARTESIAN_POINT('',(-1.48,0.,-1.63));
#821=CARTESIAN_POINT('',(1.48,0.,-1.63));
#822=CARTESIAN_POINT('',(-1.48,0.,-1.63));
#823=CARTESIAN_POINT('',(-1.48,0.63,-1.63));
#824=CARTESIAN_POINT('',(-1.48,0.,-1.63));
#825=CARTESIAN_POINT('',(1.48,0.63,-1.63));
#826=CARTESIAN_POINT('',(-1.48,0.63,-1.63));
#827=CARTESIAN_POINT('',(1.48,0.,-1.63));
#828=CARTESIAN_POINT('Origin',(6.99353086378051E-16,0.63,-1.555));
#829=CARTESIAN_POINT('',(-1.48,0.63,-1.48));
#830=CARTESIAN_POINT('',(1.48,0.63,-1.63));
#831=CARTESIAN_POINT('Origin',(1.48,0.,1.48));
#832=CARTESIAN_POINT('',(-1.48,0.29,1.48));
#833=CARTESIAN_POINT('',(1.48,0.29,1.48));
#834=CARTESIAN_POINT('',(-1.48,0.29,1.48));
#835=CARTESIAN_POINT('',(-1.48,0.63,1.48));
#836=CARTESIAN_POINT('',(-1.48,0.,1.48));
#837=CARTESIAN_POINT('',(1.48,0.63,1.48));
#838=CARTESIAN_POINT('',(-1.48,0.63,1.48));
#839=CARTESIAN_POINT('',(1.48,0.,1.48));
#840=CARTESIAN_POINT('Origin',(-1.48,0.,1.63));
#841=CARTESIAN_POINT('',(1.48,0.,1.63));
#842=CARTESIAN_POINT('',(-1.48,0.,1.63));
#843=CARTESIAN_POINT('',(1.52,0.,1.63));
#844=CARTESIAN_POINT('',(1.48,0.63,1.63));
#845=CARTESIAN_POINT('',(1.48,0.,1.63));
#846=CARTESIAN_POINT('',(-1.48,0.63,1.63));
#847=CARTESIAN_POINT('',(1.52,0.63,1.63));
#848=CARTESIAN_POINT('',(-1.48,0.,1.63));
#849=CARTESIAN_POINT('Origin',(1.22386790116159E-15,0.63,1.555));
#850=CARTESIAN_POINT('',(-1.48,0.63,1.63));
#851=CARTESIAN_POINT('',(1.48,0.63,1.48));
#852=CARTESIAN_POINT('Origin',(-1.48,0.,-1.48));
#853=CARTESIAN_POINT('',(-1.48,0.,-1.48));
#854=CARTESIAN_POINT('',(-1.48,0.29,-1.48));
#855=CARTESIAN_POINT('Origin',(1.48,0.,1.48));
#856=CARTESIAN_POINT('',(1.48,0.,1.48));
#857=CARTESIAN_POINT('',(1.48,0.29,1.48));
#858=CARTESIAN_POINT('Origin',(1.04902962956708E-15,0.29,0.));
#859=CARTESIAN_POINT('Origin',(1.04902962956708E-15,0.,0.));
#860=CARTESIAN_POINT('',(1.74838271594513E-16,0.,1.48));
#861=CARTESIAN_POINT('polyline point',(0.,0.29,0.));
#862=CARTESIAN_POINT('polyline point',(0.,0.29,-1.));
#863=CARTESIAN_POINT('polyline point',(0.,0.29,-1.));
#864=CARTESIAN_POINT('polyline point',(-1.,0.29,-1.));
#865=CARTESIAN_POINT('polyline point',(-1.,0.29,-1.));
#866=CARTESIAN_POINT('polyline point',(-1.,0.29,1.));
#867=CARTESIAN_POINT('polyline point',(-1.,0.29,1.));
#868=CARTESIAN_POINT('polyline point',(1.,0.29,1.));
#869=CARTESIAN_POINT('polyline point',(1.,0.29,1.));
#870=CARTESIAN_POINT('polyline point',(1.,0.29,-1.));
#871=CARTESIAN_POINT('Origin',(1.,0.29,-1.));
#872=CARTESIAN_POINT('Origin',(1.,0.29,-1.));
#873=CARTESIAN_POINT('Origin',(1.,0.29,0.999999999999997));
#874=CARTESIAN_POINT('Origin',(1.,0.29,0.999999999999997));
#875=CARTESIAN_POINT('Origin',(-1.,0.29,1.));
#876=CARTESIAN_POINT('Origin',(-1.,0.29,1.));
#877=CARTESIAN_POINT('Origin',(-1.,0.29,-1.));
#878=CARTESIAN_POINT('Origin',(-1.,0.29,-1.));
#879=CARTESIAN_POINT('',(1.,0.29,0.999999999999997));
#880=CARTESIAN_POINT('',(-1.,0.29,1.));
#881=CARTESIAN_POINT('',(-1.,0.29,-1.));
#882=UNCERTAINTY_MEASURE_WITH_UNIT(LENGTH_MEASURE(0.000393700787401575),
#888,'DISTANCE_ACCURACY_VALUE',
'Maximum model space distance between geometric entities at asserted c
onnectivities');
#883=UNCERTAINTY_MEASURE_WITH_UNIT(LENGTH_MEASURE(0.000393700787401575),
#888,'DISTANCE_ACCURACY_VALUE',
'Maximum model space distance between geometric entities at asserted c
onnectivities');
#884=(
GEOMETRIC_REPRESENTATION_CONTEXT(3)
GLOBAL_UNCERTAINTY_ASSIGNED_CONTEXT((#882))
GLOBAL_UNIT_ASSIGNED_CONTEXT((#888,#892,#893))
REPRESENTATION_CONTEXT('','3D')
);
#885=(
GEOMETRIC_REPRESENTATION_CONTEXT(3)
GLOBAL_UNCERTAINTY_ASSIGNED_CONTEXT((#883))
GLOBAL_UNIT_ASSIGNED_CONTEXT((#888,#892,#893))
REPRESENTATION_CONTEXT('','3D')
);
#886=DIMENSIONAL_EXPONENTS(1.,0.,0.,0.,0.,0.,0.);
#887=DIMENSIONAL_EXPONENTS(0.,1.,0.,0.,0.,0.,0.);
#888=(
CONVERSION_BASED_UNIT('inch',#891)
LENGTH_UNIT()
NAMED_UNIT(#886)
);
#889=(
LENGTH_UNIT()
NAMED_UNIT(*)
SI_UNIT(.MILLI.,.METRE.)
);
#890=(
LENGTH_UNIT()
NAMED_UNIT(*)
SI_UNIT(.CENTI.,.METRE.)
);
#891=LENGTH_MEASURE_WITH_UNIT(LENGTH_MEASURE(25.4),#889);
#892=(
NAMED_UNIT(*)
PLANE_ANGLE_UNIT()
SI_UNIT($,.RADIAN.)
);
#893=(
NAMED_UNIT(*)
SI_UNIT($,.STERADIAN.)
SOLID_ANGLE_UNIT()
);
#894=SHAPE_DEFINITION_REPRESENTATION(#895,#896);
#895=PRODUCT_DEFINITION_SHAPE('',$,#898);
#896=SHAPE_REPRESENTATION('',(#520),#884);
#897=PRODUCT_DEFINITION_CONTEXT('part definition',#902,'design');
#898=PRODUCT_DEFINITION('Voicecoil_to_PY004_Coupler',
'Voicecoil_to_PY004_Coupler',#899,#897);
#899=PRODUCT_DEFINITION_FORMATION('',$,#904);
#900=PRODUCT_RELATED_PRODUCT_CATEGORY('Voicecoil_to_PY004_Coupler',
'Voicecoil_to_PY004_Coupler',(#904));
#901=APPLICATION_PROTOCOL_DEFINITION('international standard',
'automotive_design',2009,#902);
#902=APPLICATION_CONTEXT(
'Core Data for Automotive Mechanical Design Process');
#903=PRODUCT_CONTEXT('part definition',#902,'mechanical');
#904=PRODUCT('Voicecoil_to_PY004_Coupler','Voicecoil_to_PY004_Coupler',
$,(#903));
#905=PRESENTATION_STYLE_ASSIGNMENT((#908));
#906=PRESENTATION_STYLE_ASSIGNMENT((#909));
#907=PRESENTATION_STYLE_ASSIGNMENT((#910));
#908=SURFACE_STYLE_USAGE(.BOTH.,#913);
#909=SURFACE_STYLE_USAGE(.BOTH.,#914);
#910=SURFACE_STYLE_USAGE(.BOTH.,#915);
#911=SURFACE_STYLE_RENDERING_WITH_PROPERTIES($,#925,(#912));
#912=SURFACE_STYLE_TRANSPARENT(0.);
#913=SURFACE_SIDE_STYLE('',(#916,#911));
#914=SURFACE_SIDE_STYLE('',(#917));
#915=SURFACE_SIDE_STYLE('',(#918));
#916=SURFACE_STYLE_FILL_AREA(#919);
#917=SURFACE_STYLE_FILL_AREA(#920);
#918=SURFACE_STYLE_FILL_AREA(#921);
#919=FILL_AREA_STYLE('',(#922));
#920=FILL_AREA_STYLE('',(#923));
#921=FILL_AREA_STYLE('',(#924));
#922=FILL_AREA_STYLE_COLOUR('',#925);
#923=FILL_AREA_STYLE_COLOUR('',#926);
#924=FILL_AREA_STYLE_COLOUR('',#927);
#925=COLOUR_RGB('',0.749019607843137,0.749019607843137,0.749019607843137);
#926=COLOUR_RGB('',1.,1.,0.);
#927=COLOUR_RGB('',0.,0.,0.);
ENDSEC;
END-ISO-10303-21;
